<?xml version="1.0" encoding="UTF-8"?><svg id="_レイヤー_2" xmlns="http://www.w3.org/2000/svg" viewBox="0 0 995.96 421.29"><defs><style>.cls-1{fill:#333;}.cls-2{fill:#fdd22a;}.cls-3{fill:#e0f4fc;}</style></defs><g id="_レイヤー_1-2"><rect class="cls-3" x="0" y="0" width="779.54" height="108.12" rx="54.06" ry="54.06"/><rect class="cls-2" x="402.04" y="54.06" width="286.21" height="16.02"/><path class="cls-1" d="M60.29,67.52c-1.25.17-1.98-.27-2.18-1.32-.09-.47,0-.89.27-1.26.27-.37.7-.59,1.27-.64,3.45-.35,6.21-1.13,8.26-2.32-.34-.15-.67-.28-1.01-.41-.34-.12-.66-.24-.98-.35-2.91-.97-3.67-2.75-2.27-5.35h-5.21c-.45,0-.8-.15-1.06-.45-.26-.3-.39-.65-.39-1.06s.13-.76.39-1.05c.26-.29.62-.43,1.06-.43h6.8c.34-.65.66-1.32.98-1.99.32-.67.63-1.33.92-1.96.13-.3.32-.53.56-.7s.5-.27.78-.31h-5.01c-.71,0-1.2.12-1.48.35-.28.23-.42.62-.42,1.16v.92c0,.52-.16.92-.49,1.19-.33.27-.73.41-1.22.41s-.87-.15-1.22-.45c-.35-.3-.52-.71-.52-1.23v-1.01c0-1.55.37-2.65,1.12-3.29.75-.64,2.02-.97,3.81-.97h4.96v-2.07c0-.56.18-1,.55-1.33.36-.33.81-.49,1.33-.49s.97.16,1.33.49c.36.33.55.77.55,1.33v2.07h5.07c1.81,0,3.08.32,3.82.97.74.64,1.11,1.74,1.11,3.29v1.01c0,.52-.16.93-.49,1.23-.33.3-.73.45-1.22.45s-.87-.14-1.22-.41c-.35-.27-.52-.67-.52-1.19v-.92c0-.54-.14-.93-.41-1.16s-.77-.35-1.5-.35h-7.39c.15.02.33.07.53.14.49.22.79.55.92.97.13.42.09.84-.11,1.27-.21.45-.42.89-.63,1.32-.21.43-.42.85-.63,1.26h12.43c.47,0,.83.15,1.09.43.26.29.39.64.39,1.05s-.13.77-.39,1.06c-.26.3-.63.45-1.09.45h-4.68c-.77,2.03-1.73,3.77-2.88,5.21,1.1.47,2.18.96,3.25,1.47,1.06.51,2.03,1,2.91,1.47.43.22.71.57.85,1.05.14.48.07.94-.21,1.39-.3.49-.7.77-1.2.84-.5.07-.98,0-1.43-.25-1.08-.63-2.19-1.25-3.32-1.85-1.13-.6-2.25-1.16-3.37-1.68-1.42,1.08-3.05,1.95-4.9,2.59-1.85.64-3.94,1.12-6.27,1.41ZM70.73,59.68c.48-.54.92-1.13,1.32-1.76.39-.63.74-1.32,1.04-2.04h-5.54l-.14.22c-.39.73-.52,1.29-.39,1.68.13.39.62.74,1.46,1.04.35.13.72.27,1.09.42.37.15.77.3,1.18.45Z"/><path class="cls-1" d="M91.86,67.33c-.43,0-.8-.14-1.11-.42-.31-.28-.46-.65-.46-1.12v-13.08c-.15.26-.31.51-.48.76-.17.24-.33.49-.48.73-.24.35-.59.57-1.04.66-.45.08-.9-.02-1.34-.32-.34-.21-.54-.53-.62-.97-.07-.44,0-.83.25-1.19.43-.6.89-1.33,1.37-2.18.49-.86.96-1.76,1.43-2.7.47-.94.89-1.85,1.26-2.73.37-.88.67-1.63.9-2.27.15-.48.43-.81.84-.98s.84-.18,1.29-.03c.43.13.73.38.9.74.17.36.18.78.03,1.25-.04.11-.08.22-.11.34-.04.11-.08.23-.14.36.32-.56.78-.84,1.4-.84h15.82c.43,0,.8.15,1.11.46s.46.68.46,1.11-.15.8-.46,1.11-.68.46-1.11.46h-4.51v3.92c1.21.06,2.17.27,2.88.63.71.36,1.22.93,1.53,1.69.31.77.46,1.8.46,3.11v4.93c0,1.44-.19,2.55-.56,3.35-.37.79-1,1.35-1.88,1.67-.88.32-2.07.48-3.58.48h-4.87c-1.49,0-2.68-.16-3.56-.48-.88-.32-1.5-.87-1.88-1.67-.37-.79-.56-1.91-.56-3.35v-4.93c0-1.31.15-2.34.46-3.11.31-.77.82-1.33,1.53-1.69.71-.36,1.66-.57,2.86-.63v-3.92h-4.14c-.43,0-.8-.15-1.11-.46-.31-.31-.46-.68-.46-1.11,0-.13,0-.23.03-.31-.13.32-.26.64-.39.98-.13.34-.27.67-.42,1.01v19.21c0,.47-.15.84-.45,1.12-.3.28-.66.42-1.09.42ZM99.9,62.93v-9.3c-.75.06-1.24.24-1.47.55-.23.31-.35.85-.35,1.64v4.93c0,.78.12,1.33.35,1.64.23.31.72.49,1.47.55ZM102.58,50.33h1.76v-3.86h-1.76v3.86ZM102.58,62.96h1.76v-9.35h-1.76v9.35ZM107.06,62.93c.75-.06,1.24-.24,1.48-.55.24-.31.36-.85.36-1.64v-4.93c0-.78-.12-1.33-.36-1.64-.24-.31-.74-.49-1.48-.55v9.3Z"/><path class="cls-1" d="M120,59.1c-.35.3-.76.45-1.22.45s-.84-.16-1.16-.48c-.34-.34-.5-.74-.5-1.22s.18-.86.53-1.16c1.06-.95,2-2.03,2.81-3.25s1.48-2.47,2-3.78c-.5.08-.99.13-1.47.17s-.93.07-1.36.11c-.49.02-.9-.12-1.23-.42-.34-.3-.51-.71-.53-1.23-.02-.47.12-.85.42-1.16.3-.31.71-.47,1.23-.49.6-.04,1.23-.09,1.89-.17.66-.07,1.33-.16,2-.25.09-.43.15-.87.18-1.32.03-.45.04-.88.04-1.29,0-.47.16-.86.48-1.19.32-.33.71-.49,1.18-.49s.87.16,1.2.49c.34.33.49.72.48,1.19-.02.63-.07,1.3-.17,1.99.13-.04.26-.07.38-.1.12-.03.24-.05.35-.07.47-.11.9-.06,1.29.17.39.22.63.58.73,1.06.09.47.01.89-.24,1.26-.25.37-.6.62-1.05.73-.3.07-.64.15-1.02.22-.38.07-.78.15-1.19.22-.58,1.96-1.39,3.81-2.42,5.54-1.04,1.74-2.25,3.22-3.63,4.45ZM127.45,66.85c-1.42,0-2.59-.36-3.51-1.08-.92-.72-1.39-1.78-1.39-3.18,0-1.27.45-2.28,1.36-3.04.91-.76,2.1-1.13,3.6-1.13.56,0,1.1.03,1.62.08v-5.29c0-.48.16-.89.48-1.2s.71-.48,1.18-.48.86.16,1.18.48c.32.32.48.72.48,1.2v6.05c1.01.32,1.96.71,2.87,1.16.91.46,1.7.93,2.39,1.41.37.28.6.65.67,1.11.07.46-.03.87-.31,1.25-.26.37-.62.6-1.08.67-.46.07-.87-.02-1.25-.28-.45-.35-.96-.7-1.53-1.02-.57-.33-1.16-.63-1.78-.91-.11,1.36-.59,2.4-1.43,3.12-.84.72-2.03,1.08-3.56,1.08ZM127.42,63.77c.62,0,1.05-.14,1.32-.42.26-.28.39-.71.39-1.29v-.48c-.3-.07-.59-.13-.88-.15-.29-.03-.56-.04-.83-.04-.58,0-1,.11-1.27.32-.27.21-.41.51-.41.88s.13.64.39.85c.26.21.69.32,1.29.32ZM136.16,51.68c-.6-.37-1.3-.76-2.11-1.15s-1.53-.68-2.14-.87c-.43-.15-.77-.41-1.01-.78-.24-.37-.31-.78-.2-1.23.09-.45.34-.79.74-1.04.4-.24.83-.3,1.27-.17.56.15,1.18.36,1.85.64.67.28,1.32.58,1.95.9.62.32,1.14.62,1.55.9.37.24.6.6.69,1.06.08.47,0,.9-.27,1.29-.24.37-.59.6-1.05.69-.46.08-.88,0-1.27-.24Z"/><path class="cls-1" d="M155.87,67.69c-.41,0-.77-.15-1.08-.43-.31-.29-.46-.67-.46-1.13v-4.42c-.77.62-1.62,1.25-2.58,1.89-.95.64-1.93,1.24-2.93,1.78-1,.54-1.94.99-2.81,1.34-.41.19-.83.24-1.26.15s-.75-.33-.95-.74c-.19-.37-.21-.77-.08-1.19.13-.42.41-.71.84-.88.75-.3,1.56-.67,2.45-1.11.89-.44,1.77-.91,2.65-1.43.88-.51,1.67-1.01,2.38-1.5h-7.67c-.35,0-.66-.13-.91-.38s-.38-.56-.38-.91.13-.66.38-.91.56-.38.91-.38h9.97v-1.23h-7.11c-.35,0-.65-.12-.9-.35-.24-.23-.36-.53-.36-.88s.12-.65.36-.88c.24-.23.54-.35.9-.35h7.11v-1.18h-8.34c-.35,0-.65-.13-.9-.38-.24-.25-.36-.56-.36-.91s.12-.65.36-.9.54-.36.9-.36h4.14c-.13-.32-.27-.63-.42-.95-.15-.32-.27-.58-.36-.78h-4.98c-.35,0-.66-.13-.91-.38-.25-.25-.38-.56-.38-.91s.13-.66.38-.91.56-.38.91-.38h3.3s-.07-.09-.11-.17c-.13-.26-.3-.59-.5-.98-.21-.39-.37-.71-.5-.95-.19-.37-.2-.75-.04-1.12.16-.37.43-.64.83-.81.37-.15.76-.17,1.15-.07.39.1.68.34.87.71.07.13.18.33.31.6.13.27.27.55.41.84s.25.52.32.69c.21.47.17.89-.11,1.26h1.48v-2.94c0-.49.15-.86.46-1.13.31-.27.67-.41,1.08-.41s.79.14,1.08.41c.29.27.43.65.43,1.13v2.94h1.93v-2.94c0-.49.15-.86.46-1.13.31-.27.67-.41,1.08-.41s.79.14,1.09.41c.3.27.45.65.45,1.13v2.94h1.43c-.26-.37-.27-.8-.03-1.29.15-.26.34-.62.56-1.06.22-.45.39-.78.5-1.01.21-.35.5-.59.9-.71.39-.12.77-.1,1.12.07.41.19.69.47.85.84.16.37.13.75-.07,1.12-.13.24-.32.56-.56.94-.24.38-.45.71-.62.99-.02.02-.03.04-.04.06,0,.02-.02.04-.04.06h3.56c.35,0,.66.13.91.38s.38.56.38.91-.13.66-.38.91c-.25.25-.56.38-.91.38h-5.01c-.09.21-.21.47-.35.78-.14.32-.28.63-.43.95h3.89c.35,0,.66.12.91.36.25.24.38.54.38.9s-.13.66-.38.91-.56.38-.91.38h-8.04v1.18h6.94c.35,0,.65.12.9.35.24.23.36.53.36.88s-.12.65-.36.88c-.24.23-.54.35-.9.35h-6.94v1.23h9.94c.35,0,.66.13.91.38s.38.56.38.91-.13.66-.38.91-.56.38-.91.38h-7.78c.71.49,1.5.98,2.37,1.48.87.5,1.75.98,2.65,1.43.9.45,1.73.82,2.49,1.12.43.17.71.46.84.88.13.42.09.82-.11,1.19-.21.41-.51.66-.92.74-.41.08-.83.04-1.26-.13-.82-.34-1.73-.77-2.72-1.32-.99-.54-1.96-1.13-2.91-1.78s-1.81-1.26-2.58-1.86v4.34c0,.47-.15.84-.46,1.13-.31.29-.68.43-1.11.43ZM153.58,50.02h4.59c.07-.21.18-.46.32-.77.14-.31.27-.63.41-.97h-6.08c.15.34.29.66.43.97.14.31.25.56.32.77Z"/><path class="cls-1" d="M184.8,67.33c-1.57,0-2.78-.15-3.64-.46-.86-.31-1.46-.84-1.81-1.61-.35-.77-.52-1.83-.52-3.19v-1.2c0-.37,0-.72.03-1.05.02-.33.06-.63.11-.91-1.36.62-2.79,1.2-4.28,1.76-.54.21-1.02.23-1.44.08s-.72-.47-.91-.95c-.15-.43-.12-.84.08-1.25.21-.4.57-.68,1.09-.83,3.79-1.19,7.19-2.77,10.19-4.73h-9.69c-.39,0-.73-.14-1.02-.42-.29-.28-.43-.62-.43-1.01s.14-.76.43-1.04c.29-.28.63-.42,1.02-.42h8.85v-2.49h-5.94c-.39,0-.73-.14-1.01-.42-.28-.28-.42-.62-.42-1.01s.14-.76.42-1.04.62-.42,1.01-.42h5.94v-1.93c0-.5.16-.91.49-1.22s.72-.46,1.19-.46.89.15,1.2.46.48.71.48,1.22v1.93h2.91c.41,0,.76.14,1.04.42.28.28.42.63.42,1.04s-.14.73-.42,1.01-.63.42-1.04.42h-2.91v2.49h1.23c2.17-1.92,3.99-4.15,5.46-6.69.24-.43.58-.7,1.01-.81.43-.11.85-.04,1.26.22.37.22.61.55.7.98.09.43.02.83-.22,1.2-.63.95-1.29,1.85-1.96,2.69-.67.84-1.36,1.64-2.07,2.41h5.74c.41,0,.76.14,1.04.42.28.28.42.63.42,1.04s-.14.73-.42,1.01-.63.42-1.04.42h-8.79c-1.16.97-2.35,1.85-3.58,2.63h3.25c1.59,0,2.81.15,3.67.46.86.31,1.46.84,1.81,1.6.35.76.52,1.82.52,3.18v1.2c0,1.36-.17,2.43-.52,3.19-.35.77-.95,1.3-1.81,1.61-.86.31-2.08.46-3.67.46h-3.44ZM182.09,60.19h8.88c-.04-.77-.23-1.26-.59-1.48-.35-.22-1.06-.34-2.13-.34h-3.44c-1.05,0-1.75.11-2.1.34-.35.22-.56.72-.62,1.48ZM184.8,64.58h3.44c1.06,0,1.77-.12,2.13-.36.35-.24.55-.74.59-1.48h-8.88c.04.75.24,1.24.6,1.48.36.24,1.07.36,2.11.36Z"/><path class="cls-1" d="M219.31,66.26c-2.5.35-4.61.49-6.33.41-1.72-.08-3.09-.34-4.13-.77-1.04-.43-1.79-1-2.25-1.72-.47-.72-.7-1.54-.7-2.45,0-1.4.56-2.71,1.69-3.92s2.77-2.28,4.91-3.19c-.3-.37-.66-.62-1.09-.76-.93-.28-1.85-.18-2.76.31s-1.79,1.19-2.65,2.13c-.32.34-.73.52-1.25.55-.51.03-.93-.13-1.25-.46-.3-.35-.43-.77-.41-1.23.03-.47.22-.85.57-1.15.91-.78,1.72-1.63,2.42-2.55s1.29-1.86,1.78-2.83c-.8.02-1.55.03-2.25.04-.7,0-1.3,0-1.81-.01-.47,0-.86-.16-1.18-.49s-.48-.72-.48-1.19c.02-.47.2-.85.53-1.15.34-.3.74-.44,1.2-.42.65.02,1.44.02,2.37.01.92,0,1.89-.02,2.9-.04.09-.35.18-.7.25-1.04s.14-.67.2-1.01c.07-.47.28-.84.62-1.13.34-.29.74-.41,1.2-.35.47.06.84.26,1.12.62.28.35.39.77.34,1.23-.02.24-.06.5-.11.76-.06.26-.12.52-.2.78.71-.04,1.37-.08,1.99-.13.62-.05,1.17-.11,1.65-.18.47-.06.88.05,1.25.32.36.27.57.64.63,1.11.06.47-.06.88-.35,1.23-.29.35-.66.55-1.11.59-.69.07-1.48.14-2.38.2-.9.06-1.83.1-2.8.14-.41.92-.86,1.77-1.34,2.58.45-.09.88-.13,1.29-.1.41.03.8.1,1.18.21.56.15,1.11.41,1.64.77.53.36,1,.87,1.41,1.53.91-.26,1.89-.5,2.93-.73,1.04-.22,2.13-.42,3.29-.59.45-.07.86.02,1.23.29.37.27.59.64.64,1.11.07.47-.03.88-.31,1.23-.28.35-.65.57-1.12.64-1.08.13-2.08.28-3,.46-.92.18-1.76.37-2.55.57.09.5.17,1.06.22,1.65.06.6.08,1.24.08,1.93,0,.47-.16.86-.49,1.19-.33.33-.72.49-1.19.49s-.86-.16-1.18-.49-.48-.72-.48-1.19c0-.95-.06-1.8-.17-2.55-1.53.63-2.64,1.31-3.32,2.03-.68.72-1.02,1.41-1.02,2.09,0,.5.3.91.9,1.23.6.32,1.6.49,3,.53,1.4.04,3.31-.1,5.74-.42.45-.06.86.05,1.23.32s.59.64.64,1.11c.06.45-.06.85-.34,1.2-.28.35-.64.57-1.09.64Z"/><path class="cls-1" d="M233.97,67.55c-.45,0-.83-.14-1.13-.43s-.46-.67-.46-1.13v-12.32c-.15.26-.31.52-.48.77s-.33.49-.48.71c-.24.39-.59.63-1.04.73-.45.09-.87.02-1.26-.22-.41-.22-.65-.56-.73-1.01-.07-.45,0-.85.25-1.2.49-.69.98-1.5,1.48-2.44.5-.93.98-1.9,1.44-2.91.46-1.01.87-1.99,1.23-2.95.36-.96.65-1.81.85-2.56.15-.48.42-.83.81-1.02.39-.2.82-.23,1.29-.1.43.11.75.36.95.74.21.38.24.79.11,1.22-.17.56-.35,1.14-.56,1.75-.21.61-.44,1.23-.7,1.86v18.96c0,.47-.16.84-.48,1.13s-.69.43-1.12.43ZM238.56,67.27c-.47.13-.91.1-1.34-.08-.43-.19-.7-.51-.81-.98-.13-.45-.09-.84.13-1.19.21-.35.56-.58,1.05-.71.78-.21,1.5-.47,2.16-.8.65-.33,1.24-.72,1.76-1.19-.41-.37-.81-.76-1.2-1.16-.39-.4-.77-.83-1.12-1.3-.22-.32-.31-.69-.25-1.11.06-.42.26-.74.62-.97.32-.22.68-.31,1.09-.25.41.06.74.24.98.56.24.3.5.59.77.87.27.28.56.55.85.81.28-.69.48-1.49.59-2.41h-1.6c-1.19,0-2.14-.13-2.83-.38s-1.18-.68-1.47-1.29c-.29-.61-.43-1.43-.43-2.48s.14-1.9.43-2.51c.29-.61.78-1.04,1.47-1.29s1.63-.38,2.83-.38h1.68v-1.76h-5.85c-.39,0-.73-.14-1.02-.43-.29-.29-.43-.63-.43-1.02s.14-.76.43-1.04c.29-.28.63-.42,1.02-.42h5.85v-1.51c0-.49.16-.87.48-1.16.32-.29.7-.43,1.15-.43s.83.15,1.15.43c.32.29.48.68.48,1.16v1.51h6.24c.41,0,.76.14,1.04.42.28.28.42.63.42,1.04s-.14.73-.42,1.02c-.28.29-.63.43-1.04.43h-6.24v1.76h1.79c1.19,0,2.13.13,2.81.38.68.25,1.16.68,1.44,1.29.28.61.42,1.44.42,2.51s-.14,1.87-.42,2.48c-.28.61-.76,1.04-1.44,1.29-.68.25-1.62.38-2.81.38h-1.9c-.17,1.61-.56,3.02-1.18,4.26,1.1.63,2.3,1.15,3.58,1.54s2.65.68,4.09.87c.52.07.9.3,1.13.67.23.37.29.81.18,1.32-.13.5-.42.84-.88.99-.46.16-.96.2-1.5.13-1.53-.26-3.01-.63-4.44-1.12s-2.77-1.1-4.02-1.85c-1.36,1.4-3.18,2.44-5.46,3.11ZM242.06,54.5h1.85v-2.6h-1.85c-.54,0-.91.09-1.11.27-.2.18-.29.53-.29,1.05s.1.84.29,1.02c.2.18.56.27,1.11.27ZM247.16,54.5h1.9c.56,0,.93-.09,1.12-.27.19-.18.28-.52.28-1.02s-.09-.87-.28-1.05c-.19-.18-.56-.27-1.12-.27h-1.9v2.6Z"/><path class="cls-1" d="M267.83,65.56c-.41.06-.78-.04-1.11-.29s-.52-.58-.57-.99c-.04-.41.07-.78.32-1.11.25-.33.58-.52.99-.57,1.77-.24,3.18-.62,4.21-1.15,1.04-.52,1.76-1.14,2.17-1.85s.56-1.45.45-2.21c-.13-.99-.5-1.71-1.09-2.16-.6-.45-1.45-.62-2.55-.53-.6.04-1.29.12-2.09.24-.79.12-1.61.26-2.45.41-.84.15-1.64.31-2.41.49-.77.18-1.43.34-1.99.49-.41.11-.79.07-1.15-.13-.35-.2-.59-.5-.7-.91-.11-.39-.07-.77.13-1.13.2-.36.5-.6.91-.71.6-.17,1.3-.34,2.11-.5s1.66-.33,2.55-.49c.89-.16,1.75-.29,2.6-.41.85-.11,1.6-.2,2.25-.25,1.89-.15,3.43.23,4.62,1.13,1.19.91,1.91,2.23,2.16,3.96.21,1.33,0,2.6-.62,3.82-.62,1.22-1.65,2.27-3.11,3.14-1.46.87-3.34,1.44-5.66,1.72Z"/><path class="cls-1" d="M300.28,65.9c-2.2-.32-4.02-.96-5.46-1.92s-2.51-2.12-3.21-3.49c-.7-1.36-1.05-2.78-1.05-4.26s.29-2.89.88-4.19c.59-1.3,1.43-2.42,2.53-3.37-1.12.17-2.31.36-3.58.57-1.27.21-2.5.43-3.7.64-1.19.21-2.24.41-3.14.57-.45.08-.86-.03-1.23-.31-.37-.28-.6-.64-.67-1.09-.08-.47.03-.88.31-1.25.28-.36.65-.58,1.12-.66.6-.09,1.36-.22,2.3-.38s1.98-.33,3.14-.52c1.16-.19,2.34-.38,3.56-.59,1.21-.21,2.4-.41,3.57-.6,1.17-.2,2.24-.38,3.21-.55.97-.17,1.76-.31,2.38-.42.43-.07.83.02,1.2.28.37.26.61.61.7,1.04.09.45.01.87-.24,1.26s-.6.63-1.05.7c-1.36.19-2.54.57-3.54,1.16-1,.59-1.83,1.3-2.48,2.13-.65.83-1.14,1.71-1.46,2.65-.32.93-.48,1.84-.48,2.72,0,1.81.62,3.27,1.85,4.38,1.23,1.11,2.9,1.82,5.01,2.14.47.07.84.3,1.12.67.28.37.38.78.31,1.23-.07.47-.29.84-.66,1.12-.36.28-.78.38-1.25.31Z"/><path class="cls-1" d="M315.46,62.79c-.86.04-1.68-.16-2.46-.59-.78-.43-1.48-1.12-2.07-2.07-.5-.84-.93-1.9-1.29-3.19s-.61-2.68-.76-4.19c-.15-1.5-.19-3-.11-4.49.04-.47.22-.85.55-1.16.33-.31.72-.44,1.19-.41.47.02.85.2,1.16.55.31.35.44.75.41,1.22-.07,1.31-.07,2.58.03,3.82.09,1.24.27,2.37.53,3.39.26,1.02.59,1.86.98,2.53.43.77.97,1.15,1.62,1.15.8-.02,1.47-.86,2.02-2.52.15-.43.43-.75.84-.97.41-.21.84-.25,1.29-.1.43.13.75.41.95.83.21.42.23.84.08,1.27-.52,1.64-1.22,2.86-2.1,3.65-.88.79-1.83,1.22-2.86,1.27ZM330.72,57.86c-.45.17-.88.15-1.3-.06s-.71-.52-.88-.95c-.28-.69-.66-1.39-1.13-2.1-.48-.71-1.01-1.38-1.6-2.02-.59-.63-1.19-1.17-1.81-1.6-.37-.26-.61-.63-.7-1.09-.09-.47,0-.89.31-1.26.3-.37.67-.58,1.11-.62.44-.04.85.08,1.25.36.78.54,1.55,1.2,2.31,1.99.76.78,1.44,1.62,2.06,2.52.62.9,1.07,1.77,1.37,2.63.15.43.13.86-.06,1.3-.19.44-.5.73-.92.88Z"/><path class="cls-1" d="M347.12,66.21c-1.7-.04-3.04-.45-4.02-1.23-.98-.78-1.45-1.86-1.41-3.22.04-.8.27-1.5.69-2.1.42-.6.99-1.05,1.72-1.36s1.56-.42,2.49-.32c1.49.13,2.54.64,3.14,1.53.6.89.77,1.9.53,3.04.65-.32,1.19-.78,1.61-1.39.42-.61.63-1.4.63-2.37,0-.73-.21-1.39-.63-1.97s-1.01-1.05-1.76-1.37c-.76-.33-1.63-.46-2.62-.41-.99.06-2.05.35-3.19.88-1.14.53-2.31,1.38-3.5,2.53-.34.32-.76.47-1.26.46s-.92-.2-1.23-.57c-.3-.35-.43-.76-.41-1.22s.22-.82.57-1.08c1.16-.88,2.31-1.81,3.47-2.79s2.26-1.95,3.32-2.9c1.05-.95,1.98-1.82,2.79-2.6.5-.49.68-.89.52-1.2-.16-.32-.56-.43-1.22-.34-.63.07-1.36.17-2.17.28-.81.11-1.57.21-2.28.31-.45.08-.86-.03-1.23-.31-.37-.28-.59-.65-.64-1.12-.07-.45.03-.85.31-1.22.28-.36.65-.58,1.12-.66.41-.06.93-.11,1.55-.17.62-.06,1.27-.11,1.93-.17.66-.06,1.23-.1,1.69-.14,1.21-.09,2.2.07,2.97.48.77.41,1.29.97,1.57,1.67.28.7.29,1.46.04,2.28-.25.82-.79,1.6-1.61,2.32-.37.32-.85.73-1.41,1.23-.57.5-1.15,1.02-1.75,1.54,1.06-.21,2.1-.22,3.11-.04,1.01.18,1.91.54,2.7,1.08.79.54,1.42,1.26,1.89,2.14.47.89.7,1.93.7,3.12,0,1.7-.37,3.1-1.12,4.21-.75,1.11-1.77,1.92-3.08,2.44s-2.81.75-4.51.71ZM346.61,63.1h.17c.06,0,.13,0,.21.01.08,0,.18,0,.29-.01.26-.62.31-1.13.14-1.54s-.5-.65-1.01-.73c-.45-.06-.82,0-1.11.18-.29.18-.45.46-.49.85-.02.75.58,1.16,1.79,1.23Z"/><path class="cls-1" d="M369.36,65.68c-.45-.06-.81-.27-1.09-.63s-.39-.78-.34-1.25c.06-.47.27-.84.63-1.12.36-.28.78-.39,1.25-.34.58.08,1.1.09,1.55.04.46-.05.85-.24,1.19-.57.34-.34.63-.89.9-1.65.26-.77.48-1.82.67-3.16.17-1.18.18-2.1.04-2.76-.14-.66-.49-1.12-1.05-1.37-.56-.25-1.39-.34-2.49-.27-.45,1.53-.98,3.06-1.61,4.59-.63,1.53-1.31,2.98-2.06,4.35-.75,1.37-1.56,2.61-2.44,3.71-.3.35-.67.56-1.12.63-.45.07-.86-.04-1.23-.32-.35-.3-.56-.68-.63-1.13-.07-.46.05-.86.35-1.22,1.1-1.34,2.1-2.92,3-4.73s1.65-3.68,2.27-5.6c-.58.07-1.17.15-1.78.21-.61.07-1.2.13-1.78.18-.47.04-.88-.08-1.23-.36-.35-.28-.56-.65-.62-1.12-.04-.47.08-.88.36-1.25.28-.36.65-.56,1.12-.6.8-.09,1.61-.17,2.44-.24.82-.07,1.62-.12,2.41-.15.21-.84.36-1.67.48-2.48.11-.81.19-1.59.22-2.34.04-.47.23-.85.57-1.16.35-.31.75-.44,1.22-.41.47.02.85.2,1.16.55.31.35.44.75.41,1.22-.07.69-.17,1.41-.28,2.16s-.25,1.51-.42,2.3c2.54.04,4.26.72,5.17,2.04.91,1.33,1.17,3.33.8,6.02-.3,2.31-.78,4.11-1.44,5.38-.66,1.27-1.54,2.11-2.62,2.53s-2.41.53-3.98.32ZM384.98,57.44c-.41.22-.84.27-1.29.14-.45-.13-.78-.4-1.01-.81-.32-.6-.72-1.23-1.2-1.89-.49-.66-.98-1.31-1.5-1.93-.51-.62-1-1.16-1.47-1.61-.34-.32-.51-.7-.53-1.16-.02-.46.13-.85.45-1.19.32-.34.7-.51,1.16-.52.46,0,.85.15,1.19.46.6.56,1.2,1.2,1.81,1.92s1.18,1.45,1.71,2.2c.53.75.98,1.46,1.33,2.13.22.41.28.84.15,1.27-.12.44-.39.77-.8.99ZM382.63,49.02c-.24-.24-.55-.54-.91-.88-.36-.35-.71-.65-1.02-.91-.19-.17-.29-.4-.32-.7-.03-.3.06-.57.27-.81.21-.24.45-.37.74-.39.29-.02.56.05.8.2.32.19.69.45,1.11.8.42.35.77.66,1.05.94.24.24.36.53.36.85s-.11.62-.34.88c-.22.24-.51.37-.85.38-.35,0-.64-.11-.88-.35ZM384.98,46.38c-.26-.22-.59-.49-.99-.81-.4-.32-.76-.6-1.08-.84-.19-.17-.3-.4-.35-.7-.05-.3.02-.57.21-.81.17-.24.4-.39.69-.43.29-.05.56,0,.83.15.32.17.7.41,1.15.71.45.31.82.59,1.12.85.26.22.4.5.42.84.02.34-.07.63-.28.9-.19.26-.45.41-.8.45-.35.04-.65-.06-.91-.31Z"/><path class="cls-1" d="M398.06,66.12c-.35.3-.77.42-1.23.38-.47-.05-.86-.25-1.18-.6-.28-.34-.65-.75-1.12-1.25-.47-.49-.95-.99-1.44-1.48-.5-.49-.93-.9-1.3-1.22-.3-.28-.47-.64-.52-1.08s.08-.82.38-1.13c.32-.32.69-.49,1.11-.53.42-.04.81.07,1.16.34.41.32.89.73,1.44,1.23.55.5,1.09,1.02,1.62,1.55s.96.99,1.27,1.39c.32.35.46.77.42,1.23-.04.47-.24.86-.62,1.18Z"/><path class="cls-1" d="M406.65,66.88c-.39-.13-.66-.38-.81-.74-.15-.36-.15-.74,0-1.13.32-.82.59-1.69.83-2.62.23-.92.41-1.97.53-3.15.12-1.18.18-2.53.18-4.06v-1.6c0-.97.17-1.7.5-2.2.34-.49.87-.81,1.6-.94-.11-.32-.22-.64-.34-.98-.11-.34-.2-.59-.25-.76-.11-.37-.07-.71.11-1.02s.47-.51.84-.6c.37-.09.74-.07,1.09.06.35.13.6.4.73.81.09.24.21.62.36,1.12s.26.92.34,1.26h1.43c.07-.21.16-.47.25-.78.09-.32.19-.63.29-.94s.17-.55.21-.71c.13-.39.37-.65.73-.78.35-.13.7-.15,1.04-.06.39.13.67.35.83.64.16.3.18.63.07.98-.06.19-.14.43-.25.74-.11.31-.21.61-.31.91h1.54c.41,0,.73.12.95.36.22.24.34.54.34.9s-.11.66-.34.91c-.22.25-.54.38-.95.38h-1.23c.06.04.14.11.25.22.21.28.29.58.25.91-.04.33-.19.6-.45.83-.34.28-.77.59-1.29.94-.52.35-1.05.68-1.58,1.01-.53.33-1,.6-1.41.83-.35.19-.71.24-1.08.17-.36-.07-.65-.29-.85-.64-.17-.3-.21-.62-.13-.98.08-.35.28-.6.57-.73.41-.21.87-.46,1.39-.76.51-.3,1.02-.61,1.51-.92.49-.32.91-.6,1.25-.84.02-.02.04-.03.06-.03h-3.75c-.52,0-.9.09-1.12.28-.22.19-.34.55-.34,1.09v.95c0,2.37-.12,4.42-.36,6.16-.24,1.74-.63,3.28-1.18,4.62-.15.37-.41.65-.78.84-.37.19-.79.21-1.26.06ZM420.21,66.94c-.37.24-.77.36-1.2.35-.43,0-.77-.21-1.04-.6-.22-.3-.3-.64-.24-1.04.06-.39.25-.69.55-.9.41-.28.85-.61,1.33-.98.48-.37.93-.75,1.36-1.12.43-.37.79-.71,1.09-1.01.24-.22.55-.36.92-.42-1.06-.13-1.83-.47-2.3-1.01-.47-.54-.7-1.34-.7-2.41v-7.36c0-1.12.25-1.95.76-2.49s1.34-.86,2.52-.95c.09-.32.21-.66.34-1.04.13-.37.23-.7.31-.98h-3.98c-.3,0-.55-.07-.76-.22.11.19.17.4.17.64,0,.35-.11.66-.34.91s-.54.38-.95.38h-10.39c-.41,0-.73-.13-.95-.38s-.34-.56-.34-.91.11-.65.34-.9c.22-.24.54-.36.95-.36h3.75v-1.43c0-.48.15-.87.46-1.15.31-.28.68-.42,1.11-.42s.8.14,1.11.42c.31.28.46.66.46,1.15v1.43h3.5c.15,0,.28.02.41.06.12.04.23.08.32.14-.11-.21-.17-.44-.17-.7,0-.37.12-.69.35-.94.23-.25.56-.38.97-.38h11.23c.41,0,.73.13.97.38.23.25.35.56.35.94s-.12.67-.35.94c-.23.27-.56.41-.97.41h-3.98c-.09.3-.2.62-.32.97-.12.35-.24.68-.35.99h.22c1.51,0,2.59.27,3.23.8.64.53.97,1.43.97,2.7v7.36c0,1.08-.24,1.89-.71,2.44s-1.26.88-2.37,1.01c.24.06.45.17.62.34.43.43,1.01.92,1.74,1.48.73.56,1.4,1.06,2.02,1.48.32.21.5.51.56.91s-.02.75-.22,1.05c-.26.39-.61.6-1.04.62-.43.02-.83-.1-1.2-.36-.6-.43-1.27-.95-2.03-1.55-.76-.61-1.4-1.21-1.95-1.81-.24-.28-.35-.6-.34-.97.02-.36.16-.68.42-.94.06-.04.11-.07.17-.11s.11-.07.17-.08h-2.58c-.09,0-.18,0-.27-.01-.08,0-.17-.01-.27-.01.17.06.31.14.42.25.26.24.42.55.46.92.05.37-.06.7-.32.98-.52.6-1.16,1.22-1.9,1.88s-1.45,1.19-2.1,1.62ZM412.28,66.68c-.37.17-.74.2-1.11.1-.36-.1-.64-.34-.83-.71-.13-.32-.15-.64-.06-.98.09-.34.3-.57.62-.7.63-.28,1.33-.62,2.1-1.04.77-.41,1.51-.85,2.24-1.33s1.36-.93,1.9-1.36c.28-.22.59-.31.94-.25.35.06.62.22.83.5.22.28.32.59.29.94-.03.35-.17.64-.43.88-.54.47-1.19.95-1.96,1.44-.77.5-1.54.96-2.34,1.4-.79.44-1.53.81-2.2,1.11ZM412.62,62.01c-.35.17-.72.21-1.09.14-.37-.07-.64-.28-.81-.62-.17-.32-.21-.64-.14-.97.07-.33.26-.56.56-.69.49-.24,1.05-.55,1.69-.92.64-.37,1.28-.77,1.92-1.18.63-.41,1.18-.79,1.62-1.15.28-.22.59-.31.92-.27.34.05.62.21.84.49.21.28.28.59.24.94-.05.35-.2.62-.46.83-.45.35-.99.75-1.62,1.18-.64.43-1.27.84-1.92,1.23-.64.39-1.23.72-1.75.98ZM423.03,51.03h4.84v-.06c0-.63-.12-1.04-.35-1.22-.23-.18-.7-.27-1.41-.27h-1.32c-.71,0-1.18.09-1.41.27-.23.18-.35.58-.35,1.22v.06ZM423.03,54.81h4.84v-1.51h-4.84v1.51ZM424.8,58.76h1.32c.71,0,1.18-.09,1.41-.27s.35-.58.35-1.22v-.2h-4.84v.2c0,.63.12,1.04.35,1.22s.7.27,1.41.27Z"/><path class="cls-1" d="M444.49,65.68c-.45-.06-.81-.27-1.09-.63s-.39-.78-.34-1.25c.06-.47.27-.84.63-1.12.36-.28.78-.39,1.25-.34.58.08,1.1.09,1.55.04.46-.05.85-.24,1.19-.57.34-.34.63-.89.9-1.65.26-.77.48-1.82.67-3.16.17-1.18.18-2.1.04-2.76-.14-.66-.49-1.12-1.05-1.37-.56-.25-1.39-.34-2.49-.27-.45,1.53-.98,3.06-1.61,4.59-.63,1.53-1.31,2.98-2.06,4.35-.75,1.37-1.56,2.61-2.44,3.71-.3.35-.67.56-1.12.63-.45.07-.86-.04-1.23-.32-.35-.3-.56-.68-.63-1.13-.07-.46.05-.86.35-1.22,1.1-1.34,2.1-2.92,3-4.73s1.65-3.68,2.27-5.6c-.58.07-1.17.15-1.78.21-.61.07-1.2.13-1.78.18-.47.04-.88-.08-1.23-.36-.35-.28-.56-.65-.62-1.12-.04-.47.08-.88.36-1.25.28-.36.65-.56,1.12-.6.8-.09,1.61-.17,2.44-.24.82-.07,1.62-.12,2.41-.15.21-.84.36-1.67.48-2.48.11-.81.19-1.59.22-2.34.04-.47.23-.85.57-1.16.35-.31.75-.44,1.22-.41.47.02.85.2,1.16.55.31.35.44.75.41,1.22-.07.69-.17,1.41-.28,2.16s-.25,1.51-.42,2.3c2.54.04,4.26.72,5.17,2.04.91,1.33,1.17,3.33.8,6.02-.3,2.31-.78,4.11-1.44,5.38-.66,1.27-1.54,2.11-2.62,2.53s-2.41.53-3.98.32ZM460.11,57.44c-.41.22-.84.27-1.29.14-.45-.13-.78-.4-1.01-.81-.32-.6-.72-1.23-1.2-1.89-.49-.66-.98-1.31-1.5-1.93-.51-.62-1-1.16-1.47-1.61-.34-.32-.51-.7-.53-1.16-.02-.46.13-.85.45-1.19.32-.34.7-.51,1.16-.52.46,0,.85.15,1.19.46.6.56,1.2,1.2,1.81,1.92s1.18,1.45,1.71,2.2c.53.75.98,1.46,1.33,2.13.22.41.28.84.15,1.27-.12.44-.39.77-.8.99ZM457.76,49.02c-.24-.24-.55-.54-.91-.88-.36-.35-.71-.65-1.02-.91-.19-.17-.29-.4-.32-.7-.03-.3.06-.57.27-.81.21-.24.45-.37.74-.39.29-.02.56.05.8.2.32.19.69.45,1.11.8.42.35.77.66,1.05.94.24.24.36.53.36.85s-.11.62-.34.88c-.22.24-.51.37-.85.38-.35,0-.64-.11-.88-.35ZM460.11,46.38c-.26-.22-.59-.49-.99-.81-.4-.32-.76-.6-1.08-.84-.19-.17-.3-.4-.35-.7-.05-.3.02-.57.21-.81.17-.24.4-.39.69-.43.29-.05.56,0,.83.15.32.17.7.41,1.15.71.45.31.82.59,1.12.85.26.22.4.5.42.84.02.34-.07.63-.28.9-.19.26-.45.41-.8.45-.35.04-.65-.06-.91-.31Z"/><path class="cls-1" d="M465.4,67.13c-.54.11-1,.08-1.37-.08s-.63-.49-.78-.98c-.13-.45-.08-.85.14-1.22.22-.36.57-.58,1.04-.66,1.9-.39,3.53-1.09,4.89-2.09,1.35-1,2.21-2.28,2.56-3.85-1.05-.15-1.87-.42-2.46-.8-.6-.38-1.02-.94-1.27-1.68-.25-.74-.38-1.68-.38-2.81v-5.35c0-1.4.19-2.5.57-3.29.38-.79,1.06-1.35,2.03-1.68.97-.33,2.31-.49,4.03-.49h3.61c1.74,0,3.08.16,4.05.49s1.63.89,2.02,1.68c.38.79.57,1.89.57,3.29v5.35c0,1.66-.28,2.9-.84,3.71s-1.61,1.33-3.14,1.55v3.72c0,.63.18,1.07.53,1.32s1.08.36,2.18.36c.97,0,1.66-.14,2.07-.43.41-.29.73-.85.95-1.69.11-.43.37-.76.78-.99.41-.23.88-.27,1.4-.13.45.13.77.38.97.74.2.36.25.79.15,1.27-.32,1.7-.99,2.86-2.03,3.49-1.04.63-2.49.94-4.35.94-1.46,0-2.63-.14-3.51-.41-.89-.27-1.54-.73-1.95-1.37s-.62-1.54-.62-2.67v-3.98h-2.1c-.32,2.26-1.34,4.14-3.08,5.66-1.74,1.51-3.96,2.54-6.66,3.08ZM471.28,46.92h9.8c-.02-.52-.12-.91-.29-1.18-.18-.26-.49-.44-.92-.53-.44-.09-1.06-.14-1.86-.14h-3.61c-.78,0-1.4.05-1.83.14-.44.09-.75.27-.94.53-.19.26-.3.65-.34,1.18ZM471.28,51.14h9.83v-1.74h-9.83v1.74ZM474.38,55.51h3.61c.8,0,1.42-.05,1.86-.15.44-.1.75-.29.92-.56.18-.27.27-.66.29-1.16h-9.8c.04.5.14.89.32,1.16.18.27.49.46.92.56.44.1,1.06.15,1.86.15Z"/><path class="cls-1" d="M510.56,66.6c-2.07,0-3.54-.43-4.41-1.29s-1.15-2.34-.85-4.45c.07-.54,0-.94-.22-1.19s-.52-.35-.88-.31c-.36.05-.72.25-1.08.6-.62.6-1.31,1.26-2.07,1.99-.77.73-1.5,1.42-2.21,2.07-.71.65-1.29,1.19-1.74,1.6-.35.3-.76.45-1.22.45s-.85-.17-1.16-.5c-.32-.34-.48-.74-.48-1.22s.18-.86.53-1.16c.5-.43,1.12-.97,1.85-1.61s1.5-1.34,2.31-2.1c.81-.76,1.61-1.51,2.38-2.25.77-.75,1.48-1.43,2.13-2.06.64-.63,1.14-1.13,1.5-1.53.65-.71.86-1.25.63-1.62-.23-.37-.79-.48-1.67-.34-.09.02-.33.06-.7.11-.37.06-.81.12-1.32.2-.5.07-1,.15-1.5.24-.49.08-.92.15-1.27.21-.35.06-.58.09-.67.11-.47.07-.88-.02-1.25-.28-.36-.26-.59-.62-.69-1.06-.07-.47.02-.88.29-1.25.27-.36.63-.58,1.08-.66.09-.02.33-.06.71-.11.38-.06.83-.12,1.34-.2.51-.07,1.04-.14,1.57-.21.53-.06,1-.13,1.41-.18.41-.06.7-.09.87-.11,1.27-.15,2.32-.06,3.15.28.83.34,1.43.85,1.79,1.53.36.68.45,1.47.27,2.35s-.67,1.81-1.46,2.76c-.15.19-.34.41-.57.66-.23.25-.48.51-.74.77.75.09,1.35.44,1.82,1.05.47.61.62,1.57.48,2.9-.09,1.03,0,1.71.27,2.04s.83.5,1.67.5c.45,0,1.01-.05,1.68-.14s1.37-.21,2.1-.36c.45-.09.87-.02,1.27.22.4.24.64.61.71,1.09.09.49,0,.91-.29,1.29-.29.37-.66.61-1.11.7-1.64.32-3.06.48-4.26.48ZM507.06,47.11c-.78-.07-1.63-.21-2.55-.39-.91-.19-1.79-.4-2.63-.64-.84-.24-1.54-.48-2.1-.73-.43-.19-.74-.49-.94-.9s-.21-.83-.04-1.26c.17-.43.47-.74.9-.92.43-.19.86-.2,1.29-.03.91.34,1.94.64,3.07.92,1.13.28,2.24.49,3.32.62.49.06.87.26,1.15.6.28.35.4.75.36,1.22-.04.47-.23.84-.59,1.13-.35.29-.77.42-1.23.38Z"/><path class="cls-1" d="M526.94,66.96c-.45.13-.88.13-1.3-.01-.42-.14-.73-.42-.94-.83-.19-.43-.21-.87-.06-1.32.15-.45.45-.76.9-.92,1.38-.54,2.47-1.14,3.26-1.79.79-.65,1.35-1.41,1.67-2.27-.63.3-1.26.45-1.88.45-1.48,0-2.68-.38-3.61-1.13-.93-.76-1.4-1.87-1.4-3.35,0-.99.22-1.83.67-2.53.45-.7,1.06-1.24,1.83-1.61.77-.37,1.65-.56,2.62-.56h.38c.12,0,.24,0,.35.03-.04-.28-.07-.57-.1-.87-.03-.3-.06-.6-.1-.9-1.87.07-3.71.18-5.53.31-1.82.13-3.5.27-5.05.42-.47.06-.88-.06-1.23-.34-.35-.28-.55-.64-.59-1.09-.06-.45.06-.85.35-1.2.29-.35.66-.55,1.11-.59,1.59-.13,3.32-.25,5.21-.35,1.89-.1,3.79-.19,5.71-.27v-2.74c0-.47.16-.86.49-1.18.33-.32.72-.48,1.19-.48s.86.16,1.18.48c.32.32.48.71.48,1.18v2.63c1.03-.04,2.03-.06,3-.08.97-.02,1.9-.03,2.8-.03-.02-.04-.04-.08-.07-.14s-.06-.11-.1-.17c-.13-.32-.29-.7-.49-1.15-.2-.45-.39-.85-.57-1.2-.11-.22-.13-.48-.04-.76.08-.28.28-.49.57-.62.26-.15.52-.18.78-.1.26.08.48.26.64.52.21.28.44.65.7,1.11.26.46.46.87.59,1.25.21.45.15.86-.17,1.23h.67c.45,0,.83.16,1.15.49.32.33.47.72.45,1.19-.02.45-.19.83-.52,1.13-.33.31-.72.45-1.19.43-1.16-.06-2.44-.08-3.84-.07-1.4,0-2.85.03-4.34.07.02.6.05,1.2.08,1.82.04.62.08,1.19.14,1.74.88,1.08,1.32,2.53,1.32,4.34,0,2.33-.61,4.36-1.83,6.09s-3,2.97-5.33,3.74ZM528.59,57.39c.54-.02.97-.16,1.27-.43s.46-.67.46-1.19c0-.15,0-.32-.03-.5-.02-.19-.05-.37-.08-.56-.39-.45-.92-.67-1.57-.67-.52,0-.97.15-1.33.45-.36.3-.55.72-.55,1.26s.17.96.52,1.25c.35.29.78.42,1.3.41ZM542.85,44.76c-.26.17-.55.21-.87.11s-.55-.29-.7-.59c-.15-.32-.34-.69-.57-1.12-.23-.43-.45-.82-.66-1.18-.13-.21-.16-.45-.1-.74.06-.29.23-.51.49-.66.26-.15.53-.2.8-.14.27.06.5.21.69.45.22.26.48.61.76,1.05.28.44.51.84.7,1.22.15.3.17.6.07.9-.1.3-.3.53-.6.7Z"/><path class="cls-1" d="M550.01,66.49c-1.46,0-2.6-.17-3.43-.52s-1.42-.89-1.76-1.64c-.35-.75-.52-1.71-.52-2.88v-1.51c0-1.19.17-2.16.52-2.9s.93-1.28,1.76-1.62c.83-.35,1.97-.52,3.43-.52s2.63.17,3.46.52c.83.35,1.42.89,1.76,1.62s.52,1.7.52,2.9v1.51c0,1.18-.17,2.14-.52,2.88-.35.75-.93,1.29-1.76,1.64-.83.35-1.98.52-3.46.52ZM550.01,63.44c.91,0,1.53-.14,1.85-.43.32-.29.48-.81.48-1.55v-1.51c0-.77-.16-1.28-.48-1.55-.32-.27-.93-.41-1.85-.41s-1.51.14-1.83.41c-.33.27-.49.79-.49,1.55v1.51c0,.75.16,1.27.49,1.55.33.29.94.43,1.83.43ZM555.69,53.05c-1.64,0-2.92-.16-3.84-.49-.91-.33-1.56-.88-1.93-1.67-.37-.78-.56-1.86-.56-3.22s.19-2.46.56-3.23c.37-.77,1.02-1.33,1.93-1.65.92-.33,2.19-.49,3.84-.49h1.77c1.64,0,2.92.16,3.84.49.91.33,1.55.88,1.92,1.65.36.77.54,1.85.54,3.23s-.18,2.44-.54,3.22c-.37.78-1,1.34-1.92,1.67-.92.33-2.19.49-3.84.49h-1.77ZM555.69,50.02h1.77c.76,0,1.34-.06,1.73-.18.39-.12.66-.35.8-.7s.21-.84.21-1.47-.07-1.14-.21-1.47-.41-.55-.8-.67c-.39-.12-.97-.18-1.73-.18h-1.77c-.77,0-1.34.06-1.73.18-.39.12-.66.35-.8.67s-.21.82-.21,1.47.06,1.12.2,1.47.4.58.8.7c.4.12.98.18,1.75.18ZM563.17,66.49c-1.46,0-2.6-.17-3.44-.52s-1.44-.89-1.79-1.64c-.35-.75-.53-1.71-.53-2.88v-1.51c0-1.19.18-2.16.53-2.9.36-.74.95-1.28,1.79-1.62.84-.35,1.99-.52,3.44-.52s2.63.17,3.46.52c.83.35,1.42.89,1.78,1.62.35.74.53,1.7.53,2.9v1.51c0,1.18-.18,2.14-.53,2.88-.36.75-.95,1.29-1.78,1.64-.83.35-1.98.52-3.46.52ZM563.17,63.44c.9,0,1.51-.14,1.85-.43.34-.29.5-.81.5-1.55v-1.51c0-.77-.17-1.28-.5-1.55-.34-.27-.95-.41-1.85-.41s-1.54.14-1.88.41c-.34.27-.5.79-.5,1.55v1.51c0,.75.17,1.27.5,1.55.34.29.96.43,1.88.43Z"/><path class="cls-1" d="M572.12,52.52c-.3-.21-.49-.5-.56-.88-.07-.38,0-.72.25-1.02.67-.86,1.18-1.74,1.54-2.63s.57-1.9.64-3.02c.07-.97.34-1.67.8-2.09.46-.42,1.2-.67,2.23-.74.76-.07,1.61-.17,2.53-.29.92-.12,1.7-.25,2.34-.38.37-.09.72-.05,1.04.13.32.18.51.44.59.8.08.35.02.68-.15.97-.18.29-.45.47-.83.55-.6.11-1.29.21-2.07.31-.78.09-1.5.17-2.16.22-.47.02-.79.1-.98.24-.19.14-.31.4-.36.77h6.69c.37,0,.66.12.87.35.21.23.31.51.31.83,0,.34-.1.62-.31.85-.21.23-.5.35-.87.35h-2.07v1.6c0,.47-.15.84-.45,1.11-.3.27-.66.41-1.09.41s-.77-.14-1.08-.41c-.31-.27-.46-.64-.46-1.11v-1.6h-1.93c-.22.84-.54,1.64-.94,2.39-.4.76-.84,1.4-1.33,1.95-.3.32-.64.52-1.04.6-.39.08-.77,0-1.15-.24ZM575.32,67.3c-.5.15-.94.14-1.3-.01-.36-.16-.61-.44-.74-.85-.13-.37-.12-.74.03-1.11.15-.36.46-.6.92-.71.49-.11,1.05-.27,1.69-.48.64-.21,1.29-.43,1.95-.67.65-.24,1.23-.49,1.74-.73-1.31-.09-2.21-.43-2.72-1.01s-.76-1.55-.76-2.91v-3.64c0-1.03.14-1.82.42-2.39.28-.57.75-.97,1.4-1.2.65-.23,1.55-.35,2.69-.35h3.39s-.07-.06-.08-.06c-.26-.24-.4-.55-.42-.91-.02-.36.09-.67.34-.91.6-.6,1.05-1.26,1.36-1.97.31-.72.48-1.55.52-2.51.06-.93.31-1.61.77-2.02.46-.41,1.17-.65,2.14-.73.52-.04,1.11-.09,1.76-.17.65-.07,1.3-.16,1.95-.27.64-.1,1.21-.2,1.69-.29.39-.09.75-.06,1.06.11.32.17.51.42.59.76.09.39.06.74-.11,1.04-.17.3-.46.49-.87.56-.69.11-1.48.22-2.37.32s-1.67.18-2.34.24c-.47.04-.79.12-.98.25-.19.13-.31.38-.36.76h7.73c.37,0,.66.12.87.35.21.23.31.51.31.83,0,.34-.1.62-.31.85s-.49.35-.87.35h-2.94v1.82c0,.47-.14.83-.43,1.09-.29.26-.65.39-1.08.39s-.79-.13-1.09-.39-.45-.63-.45-1.09v-1.82h-2.18c-.21.65-.49,1.26-.84,1.81-.35.55-.75,1.04-1.18,1.47-.08.07-.13.12-.17.14h3.08c1.14,0,2.03.12,2.69.35s1.12.63,1.4,1.2c.28.57.42,1.37.42,2.39v3.64c0,1.36-.25,2.33-.76,2.91s-1.42.91-2.74,1.01c.52.24,1.11.49,1.75.73.64.24,1.28.47,1.92.67.63.21,1.19.36,1.68.48.49.11.8.35.94.71.14.36.15.73.04,1.11-.13.41-.38.69-.76.85-.37.16-.8.16-1.29.01-.62-.19-1.31-.42-2.09-.7-.78-.28-1.53-.58-2.27-.91-.74-.33-1.37-.62-1.89-.88-.41-.21-.65-.48-.71-.81-.07-.34-.01-.67.15-1.01.02-.04.04-.07.07-.11.03-.04.05-.07.07-.11h-5.8s.07.08.08.11c.02.04.04.07.06.11.17.34.22.67.15,1.01-.07.34-.3.61-.71.81-.5.26-1.12.56-1.86.88-.74.33-1.49.63-2.27.91-.78.28-1.47.51-2.09.7ZM579.43,54.56h10.89c-.04-.49-.19-.79-.45-.91-.26-.12-.74-.18-1.43-.18h-7.14c-.69,0-1.17.06-1.43.18-.26.12-.41.42-.45.91ZM579.43,57.56h10.89v-1.12h-10.89v1.12ZM581.31,60.55h7.14c.71,0,1.19-.06,1.46-.2s.4-.46.42-.98h-10.89c.04.52.18.85.43.98.25.13.73.2,1.44.2Z"/><path class="cls-1" d="M609.08,65.68c-.45-.06-.81-.27-1.09-.63s-.39-.78-.34-1.25c.06-.47.27-.84.63-1.12.36-.28.78-.39,1.25-.34.58.08,1.1.09,1.55.04.46-.05.85-.24,1.19-.57s.63-.89.9-1.65c.26-.77.49-1.82.67-3.16.17-1.18.18-2.1.04-2.76-.14-.66-.49-1.12-1.05-1.37-.56-.25-1.39-.34-2.49-.27-.45,1.53-.98,3.06-1.61,4.59-.63,1.53-1.31,2.98-2.06,4.35-.75,1.37-1.56,2.61-2.44,3.71-.3.35-.67.56-1.12.63s-.86-.04-1.23-.32c-.35-.3-.56-.68-.63-1.13-.07-.46.05-.86.35-1.22,1.1-1.34,2.1-2.92,3-4.73.9-1.81,1.65-3.68,2.27-5.6-.58.07-1.17.15-1.78.21-.61.07-1.2.13-1.78.18-.47.04-.88-.08-1.23-.36-.35-.28-.56-.65-.62-1.12-.04-.47.08-.88.36-1.25.28-.36.65-.56,1.12-.6.8-.09,1.61-.17,2.44-.24s1.62-.12,2.41-.15c.21-.84.36-1.67.48-2.48.11-.81.19-1.59.22-2.34.04-.47.23-.85.57-1.16.34-.31.75-.44,1.22-.41.47.02.85.2,1.16.55.31.35.44.75.41,1.22-.08.69-.17,1.41-.28,2.16s-.25,1.51-.42,2.3c2.54.04,4.26.72,5.17,2.04.91,1.33,1.17,3.33.8,6.02-.3,2.31-.78,4.11-1.44,5.38-.66,1.27-1.54,2.11-2.62,2.53-1.08.42-2.41.53-3.98.32ZM624.7,57.44c-.41.22-.84.27-1.29.14-.45-.13-.78-.4-1.01-.81-.32-.6-.72-1.23-1.2-1.89-.49-.66-.98-1.31-1.5-1.93-.51-.62-1-1.16-1.47-1.61-.34-.32-.51-.7-.53-1.16-.02-.46.13-.85.45-1.19s.7-.51,1.16-.52c.46,0,.85.15,1.19.46.6.56,1.2,1.2,1.81,1.92.61.72,1.18,1.45,1.71,2.2.53.75.97,1.46,1.33,2.13.22.41.27.84.15,1.27-.12.44-.39.77-.8.99ZM622.35,49.02c-.24-.24-.55-.54-.91-.88-.36-.35-.71-.65-1.02-.91-.19-.17-.29-.4-.32-.7-.03-.3.06-.57.27-.81.21-.24.45-.37.74-.39.29-.02.55.05.8.2.32.19.69.45,1.11.8.42.35.77.66,1.05.94.24.24.36.53.36.85s-.11.62-.34.88c-.22.24-.51.37-.85.38-.35,0-.64-.11-.88-.35ZM624.7,46.38c-.26-.22-.59-.49-.99-.81-.4-.32-.76-.6-1.08-.84-.19-.17-.3-.4-.35-.7-.05-.3.02-.57.21-.81.17-.24.4-.39.69-.43.29-.05.56,0,.83.15.32.17.7.41,1.15.71s.82.59,1.12.85c.26.22.4.5.42.84.02.34-.08.63-.28.9-.19.26-.45.41-.8.45-.35.04-.65-.06-.91-.31Z"/><path class="cls-1" d="M643.26,66.91c-.49,0-.9-.16-1.25-.49-.35-.33-.52-.75-.52-1.27v-12.94c-1.33,1.27-2.74,2.46-4.24,3.57-1.5,1.11-3.1,2.12-4.8,3.04-.43.24-.88.31-1.34.21-.47-.1-.83-.38-1.09-.83-.24-.41-.3-.84-.17-1.3.13-.46.44-.82.92-1.08,1.47-.78,2.94-1.7,4.38-2.74,1.45-1.04,2.81-2.15,4.09-3.32,1.28-1.17,2.39-2.3,3.35-3.4h-10.64c-.41,0-.77-.15-1.08-.46-.31-.31-.46-.68-.46-1.11s.15-.79.46-1.09c.31-.3.67-.45,1.08-.45h22.01c.43,0,.8.15,1.11.45.31.3.46.66.46,1.09s-.15.8-.46,1.11c-.31.31-.68.46-1.11.46h-7.31c-.26.35-.53.7-.8,1.05-.27.35-.55.69-.83,1.02v16.72c0,.52-.17.95-.52,1.27-.35.33-.76.49-1.25.49ZM652.89,58.76c-.56-.56-1.25-1.21-2.06-1.95-.81-.74-1.64-1.47-2.48-2.18-.84-.72-1.59-1.34-2.24-1.86-.32-.26-.49-.61-.52-1.04-.03-.43.08-.8.32-1.12.26-.32.62-.52,1.06-.6.45-.08.86,0,1.23.27.52.37,1.11.81,1.75,1.32s1.3,1.03,1.97,1.58c.67.55,1.31,1.09,1.92,1.61.61.52,1.12.99,1.55,1.4.37.34.56.75.57,1.23,0,.49-.17.91-.55,1.29-.35.35-.78.54-1.27.55-.5,0-.92-.15-1.27-.49Z"/><path class="cls-1" d="M662.47,67.52c-1.25.17-1.98-.27-2.18-1.32-.09-.47,0-.89.27-1.26.27-.37.7-.59,1.27-.64,3.45-.35,6.21-1.13,8.26-2.32-.34-.15-.67-.28-1.01-.41-.34-.12-.66-.24-.98-.35-2.91-.97-3.67-2.75-2.27-5.35h-5.21c-.45,0-.8-.15-1.06-.45-.26-.3-.39-.65-.39-1.06s.13-.76.39-1.05c.26-.29.62-.43,1.06-.43h6.8c.34-.65.66-1.32.98-1.99.32-.67.62-1.33.92-1.96.13-.3.32-.53.56-.7s.5-.27.78-.31h-5.01c-.71,0-1.2.12-1.48.35s-.42.62-.42,1.16v.92c0,.52-.16.92-.49,1.19-.33.27-.73.41-1.22.41s-.87-.15-1.22-.45c-.35-.3-.52-.71-.52-1.23v-1.01c0-1.55.37-2.65,1.12-3.29.75-.64,2.02-.97,3.81-.97h4.96v-2.07c0-.56.18-1,.55-1.33.36-.33.81-.49,1.33-.49s.97.16,1.33.49c.36.33.55.77.55,1.33v2.07h5.07c1.81,0,3.08.32,3.82.97s1.11,1.74,1.11,3.29v1.01c0,.52-.16.93-.49,1.23-.33.3-.73.45-1.22.45s-.87-.14-1.22-.41c-.35-.27-.52-.67-.52-1.19v-.92c0-.54-.14-.93-.41-1.16s-.77-.35-1.5-.35h-7.39c.15.02.33.07.53.14.48.22.79.55.92.97.13.42.09.84-.11,1.27-.21.45-.42.89-.63,1.32-.21.43-.42.85-.63,1.26h12.43c.47,0,.83.15,1.09.43.26.29.39.64.39,1.05s-.13.77-.39,1.06c-.26.3-.62.45-1.09.45h-4.68c-.77,2.03-1.73,3.77-2.88,5.21,1.1.47,2.18.96,3.25,1.47,1.06.51,2.03,1,2.91,1.47.43.22.71.57.85,1.05.14.48.07.94-.21,1.39-.3.49-.7.77-1.2.84s-.98,0-1.43-.25c-1.08-.63-2.19-1.25-3.32-1.85-1.13-.6-2.25-1.16-3.37-1.68-1.42,1.08-3.05,1.95-4.9,2.59-1.85.64-3.94,1.12-6.27,1.41ZM672.91,59.68c.49-.54.92-1.13,1.32-1.76.39-.63.74-1.32,1.04-2.04h-5.54l-.14.22c-.39.73-.52,1.29-.39,1.68s.62.74,1.46,1.04c.35.13.72.27,1.09.42.37.15.76.3,1.18.45Z"/><path class="cls-1" d="M693.5,57.44c-.86,0-1.59-.3-2.18-.9-.6-.6-.9-1.33-.9-2.18s.3-1.59.9-2.18c.6-.6,1.33-.9,2.18-.9s1.59.3,2.18.9c.6.6.9,1.33.9,2.18s-.3,1.59-.9,2.18c-.6.6-1.33.9-2.18.9Z"/><path class="cls-1" d="M706.49,57.44c-.86,0-1.59-.3-2.18-.9-.6-.6-.9-1.33-.9-2.18s.3-1.59.9-2.18c.6-.6,1.33-.9,2.18-.9s1.59.3,2.18.9c.6.6.9,1.33.9,2.18s-.3,1.59-.9,2.18c-.6.6-1.33.9-2.18.9Z"/><path class="cls-1" d="M719.48,57.44c-.86,0-1.59-.3-2.18-.9-.6-.6-.9-1.33-.9-2.18s.3-1.59.9-2.18c.6-.6,1.33-.9,2.18-.9s1.59.3,2.18.9c.6.6.9,1.33.9,2.18s-.3,1.59-.9,2.18c-.6.6-1.33.9-2.18.9Z"/><rect class="cls-3" x="343.59" y="138.54" width="652.37" height="108.12" rx="54.06" ry="54.06"/><rect class="cls-2" x="392.04" y="192.59" width="201.98" height="16.02"/><path class="cls-1" d="M402.01,206.06c-.39,0-.72-.13-.99-.38s-.41-.58-.41-.99v-5.85c-.47.67-.94,1.32-1.41,1.93s-.93,1.15-1.36,1.6c-.3.3-.65.46-1.06.49-.41.03-.77-.1-1.09-.38-.3-.26-.45-.58-.46-.97,0-.38.13-.7.41-.97.49-.48,1.01-1.07,1.58-1.76s1.12-1.4,1.65-2.13c.53-.73.98-1.39,1.33-1.99h-.36c-1.31,0-2.24-.28-2.79-.85-.55-.57-.83-1.59-.83-3.07s.27-2.56.83-3.09c.55-.53,1.48-.8,2.79-.8h.78v-1.74h-3.95c-.41,0-.73-.14-.97-.41-.23-.27-.35-.58-.35-.94,0-.37.12-.69.35-.94.23-.25.56-.38.97-.38h3.95v-1.26c0-.43.14-.77.41-1.02.27-.25.6-.38.99-.38s.7.13.98.38c.28.25.42.59.42,1.02v1.26h3.64c.26,0,.47.04.62.11-.04-.15-.06-.28-.06-.39,0-.37.12-.69.35-.94.23-.25.56-.38.97-.38h11.56c.41,0,.73.13.97.38.23.25.35.56.35.94s-.12.67-.35.94-.56.41-.97.41h-4.14c-.09.3-.2.62-.32.97-.12.35-.24.68-.35.99h.39c1.51,0,2.59.27,3.23.8.64.53.97,1.43.97,2.7v7.36c0,1.14-.27,1.98-.8,2.52-.53.54-1.42.86-2.67.95.41.04.73.17.95.39.45.41,1.04.9,1.76,1.46s1.4,1.05,2.02,1.46c.32.21.51.51.59.91.07.4,0,.76-.22,1.08-.24.37-.58.57-1.01.6-.43.03-.83-.08-1.2-.32-.62-.43-1.3-.95-2.06-1.55s-1.4-1.2-1.95-1.78c-.26-.28-.38-.6-.36-.97.02-.36.16-.68.42-.94.17-.17.39-.28.67-.34-.06,0-.11,0-.17.01-.06,0-.11.01-.17.01h-2.77c-.11,0-.22,0-.32-.01-.1,0-.2-.01-.29-.01.26.06.49.17.7.34.26.28.4.6.42.97.02.36-.1.69-.36.97-.58.58-1.26,1.18-2.03,1.81-.77.62-1.5,1.14-2.17,1.55-.39.24-.8.35-1.22.31-.42-.04-.76-.25-1.02-.64-.19-.32-.24-.67-.17-1.06.07-.39.27-.68.59-.87.43-.26.89-.57,1.37-.92.49-.35.96-.72,1.41-1.09.46-.37.84-.7,1.16-.98.13-.13.28-.22.45-.28.17-.06.35-.09.53-.11-1.16-.09-1.99-.41-2.51-.95-.51-.54-.77-1.37-.77-2.49v-7.36c0-1.14.26-1.98.78-2.52.52-.54,1.38-.85,2.58-.92.11-.32.23-.66.35-1.04.12-.37.22-.7.29-.98h-4.14c-.21,0-.4-.05-.59-.14.04.15.06.28.06.39,0,.35-.12.67-.35.94-.23.27-.56.41-.99.41h-3.64v1.74h.76c.88,0,1.58.11,2.11.34.53.22.91.62,1.15,1.18.23.56.35,1.35.35,2.38,0,1.47-.27,2.5-.81,3.07-.54.57-1.48.85-2.8.85h-.76v.67c.35.37.77.79,1.23,1.25.47.46.93.89,1.4,1.3s.89.76,1.26,1.04c.32.22.49.52.53.9.04.37-.07.72-.34,1.04-.26.32-.6.49-1.01.5-.41.02-.77-.1-1.09-.36-.3-.24-.62-.53-.97-.85-.35-.33-.69-.67-1.02-1.02v5.57c0,.41-.14.74-.42.99-.28.25-.61.38-.98.38ZM400.25,192.2h.36v-2.91h-.36c-.58,0-.96.09-1.15.27-.19.18-.28.57-.28,1.19s.09,1.01.28,1.19c.19.18.57.27,1.15.27ZM403.41,192.2h.34c.58,0,.96-.09,1.15-.27.19-.18.28-.57.28-1.19s-.09-1.01-.28-1.19-.57-.27-1.15-.27h-.34v2.91ZM412.15,189.57h5.07v-.06c0-.63-.12-1.04-.35-1.22-.23-.18-.71-.27-1.41-.27h-1.57c-.71,0-1.18.09-1.4.27-.22.18-.34.58-.34,1.22v.06ZM412.15,193.35h5.07v-1.51h-5.07v1.51ZM413.88,197.29h1.57c.71,0,1.18-.09,1.41-.27.23-.18.35-.58.35-1.22v-.2h-5.07v.2c0,.63.11,1.04.34,1.22.22.18.69.27,1.4.27Z"/><path class="cls-1" d="M438.7,203.65c-.47.02-.87-.12-1.22-.41-.35-.29-.54-.67-.57-1.13-.04-.47.09-.88.39-1.23.3-.35.68-.54,1.15-.56,2.03-.15,3.6-.71,4.69-1.69s1.64-2.34,1.64-4.07c0-1.16-.36-2.17-1.09-3.04-.73-.87-1.73-1.49-3-1.86-.73,2.09-1.64,3.96-2.74,5.6.17.13.34.26.5.39.17.13.33.25.48.36.37.26.6.62.69,1.08.08.46,0,.88-.27,1.27-.26.37-.62.6-1.08.69s-.87-.01-1.25-.29c-.39-.28-.78-.59-1.18-.92-.52.54-1.08,1.04-1.68,1.48-.6.45-1.22.86-1.88,1.23-1.16.63-2.27.92-3.35.84-1.07-.07-1.95-.49-2.62-1.25-.67-.76-1.01-1.82-1.01-3.18,0-1.59.35-3.04,1.04-4.35s1.61-2.45,2.74-3.4c-.75-1.33-1.34-2.59-1.79-3.78-.17-.43-.15-.85.07-1.27.21-.42.54-.7.97-.85.43-.15.85-.12,1.27.08.42.21.7.52.85.95.17.5.37,1.02.6,1.54.23.52.49,1.05.77,1.6.91-.43,1.88-.76,2.9-.98,1.02-.22,2.05-.34,3.09-.34h.42c.13-.48.25-.98.35-1.48s.2-1.02.29-1.54c.07-.47.3-.83.67-1.11.37-.27.79-.36,1.26-.27.45.08.81.3,1.08.67.27.37.37.79.29,1.26-.07.5-.17,1-.28,1.48-.11.49-.22.97-.34,1.46,2.02.56,3.6,1.54,4.76,2.93,1.16,1.39,1.74,3.06,1.74,5,0,1.74-.37,3.26-1.12,4.58-.75,1.32-1.82,2.36-3.21,3.14-1.39.77-3.08,1.24-5.05,1.39ZM430.69,197.74c1.04-.56,2.01-1.3,2.88-2.21-1.01-1.16-1.94-2.37-2.8-3.64-1.46,1.46-2.18,3.1-2.18,4.93,0,.58.19.97.56,1.16.37.2.89.12,1.54-.24ZM435.59,192.9c.32-.54.62-1.12.92-1.72.3-.61.57-1.26.81-1.95-.73.04-1.41.13-2.06.28s-1.25.35-1.81.59c.63.97,1.34,1.9,2.13,2.8Z"/><path class="cls-1" d="M463.66,204.74c-1.7-.04-3.04-.45-4.02-1.23-.98-.78-1.45-1.86-1.41-3.22.04-.8.27-1.5.69-2.1.42-.6.99-1.05,1.72-1.36s1.56-.42,2.49-.32c1.49.13,2.54.64,3.14,1.53.6.89.77,1.9.53,3.04.65-.32,1.19-.78,1.61-1.39.42-.61.63-1.4.63-2.37,0-.73-.21-1.39-.63-1.97s-1.01-1.05-1.76-1.37c-.76-.33-1.63-.46-2.62-.41-.99.06-2.05.35-3.19.88-1.14.53-2.31,1.38-3.5,2.53-.34.32-.76.47-1.26.46s-.92-.2-1.23-.57c-.3-.35-.43-.76-.41-1.22s.22-.82.57-1.08c1.16-.88,2.31-1.81,3.47-2.79s2.26-1.95,3.32-2.9c1.05-.95,1.98-1.82,2.79-2.6.5-.49.68-.89.52-1.2-.16-.32-.56-.43-1.22-.34-.63.07-1.36.17-2.17.28-.81.11-1.57.21-2.28.31-.45.08-.86-.03-1.23-.31-.37-.28-.59-.65-.64-1.12-.07-.45.03-.85.31-1.22.28-.36.65-.58,1.12-.66.41-.06.93-.11,1.55-.17.62-.06,1.27-.11,1.93-.17.66-.06,1.23-.1,1.69-.14,1.21-.09,2.2.07,2.97.48.77.41,1.29.97,1.57,1.67.28.7.29,1.46.04,2.28-.25.82-.79,1.6-1.61,2.32-.37.32-.85.73-1.41,1.23-.57.5-1.15,1.02-1.75,1.54,1.06-.21,2.1-.22,3.11-.04,1.01.18,1.91.54,2.7,1.08.79.54,1.42,1.26,1.89,2.14.47.89.7,1.93.7,3.12,0,1.7-.37,3.1-1.12,4.21-.75,1.11-1.77,1.92-3.08,2.44s-2.81.75-4.51.71ZM463.16,201.64h.17c.06,0,.13,0,.21.01.08,0,.18,0,.29-.01.26-.62.31-1.13.14-1.54s-.5-.65-1.01-.73c-.45-.06-.82,0-1.11.18-.29.18-.45.46-.49.85-.02.75.58,1.16,1.79,1.23Z"/><path class="cls-1" d="M480.34,205.67c-.49.07-.9.03-1.23-.14s-.56-.49-.67-.95c-.11-.43-.05-.8.2-1.11.24-.31.61-.5,1.09-.57,1.53-.22,2.83-.62,3.89-1.2-.22-.13-.45-.26-.67-.38-.22-.12-.44-.24-.64-.35-1.64-.84-2.02-2.03-1.12-3.58h-1.74c-.41,0-.73-.13-.97-.39s-.35-.57-.35-.92c0-.37.12-.69.35-.95.23-.26.56-.39.97-.39h3.25c.17-.32.33-.63.49-.92.16-.3.3-.58.43-.84.21-.37.46-.62.76-.76-.22-.26-.34-.58-.34-.95v-1.96c-.49.54-1,1.07-1.55,1.6-.55.52-1.06.97-1.53,1.34-.32.26-.68.4-1.09.41-.41,0-.76-.14-1.04-.46-.24-.28-.35-.6-.34-.97.02-.36.18-.65.48-.85.54-.41,1.16-.92,1.86-1.54s1.29-1.16,1.78-1.62h-2.94c-.39,0-.7-.12-.92-.36s-.34-.54-.34-.9.11-.66.34-.91.53-.38.92-.38h1.29c-.13-.07-.24-.2-.34-.36-.07-.15-.2-.35-.36-.59-.17-.24-.34-.49-.5-.74-.17-.25-.3-.44-.39-.57-.19-.28-.24-.58-.15-.9s.27-.56.55-.73c.3-.19.62-.25.95-.2.34.06.61.23.81.53.09.13.23.32.41.57s.35.5.53.76c.18.25.3.44.38.57.19.28.25.58.18.9-.07.32-.23.57-.49.76h1.51v-3.33c0-.43.14-.77.41-1.02s.59-.38.97-.38c.39,0,.72.13.99.38s.41.59.41,1.02v3.33h1.32c-.19-.19-.31-.42-.36-.69-.06-.27,0-.54.17-.8.09-.13.22-.33.38-.59.16-.26.32-.52.48-.78.16-.26.27-.46.35-.59.19-.37.44-.62.77-.73.33-.11.67-.08,1.02.08.34.15.57.39.71.71s.11.67-.1,1.02c-.09.15-.22.36-.39.64-.17.28-.34.56-.5.83-.17.27-.31.48-.42.63-.07.11-.14.2-.2.25h1.04c.39,0,.7.13.92.38.22.25.34.56.34.91s-.11.65-.34.9c-.22.24-.53.36-.92.36h-2.86c.37.39.79.81,1.26,1.26.47.45.88.81,1.23,1.09.32.24.48.53.48.87s-.13.65-.39.95c-.24.28-.56.43-.94.46-.38.03-.73-.11-1.05-.41-.28-.28-.6-.61-.95-.98-.35-.37-.7-.76-1.04-1.15v1.96c0,.58-.23.99-.7,1.23.21.19.34.42.39.69.06.27,0,.56-.17.85-.06.11-.11.23-.17.35-.06.12-.12.24-.2.35h5.35c.41,0,.73.13.97.39.23.26.35.58.35.95s-.12.66-.35.92c-.23.26-.56.39-.97.39h-.9c-.24.77-.52,1.48-.83,2.13-.31.65-.68,1.25-1.11,1.79.28.19.55.37.81.55.26.18.5.34.73.49.17.11.3.24.39.38.09.14.16.29.2.43.07-.06.15-.11.22-.17s.15-.11.22-.17c1.06-.56,2.01-1.19,2.84-1.9.83-.71,1.56-1.47,2.2-2.27-.52-.93-.97-1.91-1.34-2.93-.37-1.02-.66-2.06-.87-3.12-.09.19-.2.37-.31.56-.11.19-.21.36-.31.53-.24.35-.57.59-.98.7-.41.11-.8.06-1.18-.17-.35-.21-.58-.5-.69-.9-.1-.39-.04-.76.18-1.09.65-.95,1.25-2.04,1.78-3.26.53-1.22.98-2.49,1.36-3.79.37-1.31.63-2.54.78-3.7.06-.5.25-.87.59-1.11s.71-.32,1.12-.27c.43.06.77.23,1.01.52.24.29.33.68.25,1.16-.07.63-.19,1.28-.34,1.95-.15.66-.33,1.33-.53,2h6.47c.43,0,.77.14,1.02.41s.38.6.38.99-.13.72-.38.99c-.25.27-.59.41-1.02.41h-.59c-.17,2.02-.48,3.86-.94,5.54-.46,1.68-1.09,3.21-1.89,4.59,1.16,1.4,2.59,2.68,4.28,3.84.37.24.59.58.66,1.02.07.44-.04.84-.32,1.19-.3.37-.69.59-1.16.66s-.9-.04-1.27-.32c-1.55-1.16-2.88-2.43-4-3.81-1.38,1.61-3.13,3-5.24,4.17-.45.24-.89.29-1.32.15-.43-.14-.74-.39-.92-.74-.02-.06-.04-.11-.07-.15-.03-.05-.05-.1-.07-.15-.24.3-.57.47-.98.52-.41.05-.79-.06-1.15-.32-.3-.21-.6-.42-.9-.64-.3-.22-.61-.45-.92-.67-1.48,1.06-3.46,1.82-5.96,2.27ZM485.91,199.79c.28-.34.54-.7.77-1.11.23-.4.45-.84.66-1.3h-2.88l-.14.25c-.24.37-.33.69-.27.94.06.25.32.48.77.69.17.08.34.16.53.25.19.09.37.19.56.28ZM497.84,195.73c.5-1.1.9-2.25,1.18-3.46s.47-2.45.56-3.74h-3.42c.07,1.34.25,2.61.52,3.81.27,1.19.66,2.32,1.16,3.39Z"/><path class="cls-1" d="M516.48,204.21c-.45-.06-.81-.27-1.09-.63s-.39-.78-.34-1.25c.06-.47.27-.84.63-1.12.36-.28.78-.39,1.25-.34.58.08,1.1.09,1.55.04.46-.05.85-.24,1.19-.57.34-.34.63-.89.9-1.65.26-.77.48-1.82.67-3.16.17-1.18.18-2.1.04-2.76-.14-.66-.49-1.12-1.05-1.37-.56-.25-1.39-.34-2.49-.27-.45,1.53-.98,3.06-1.61,4.59-.63,1.53-1.31,2.98-2.06,4.35-.75,1.37-1.56,2.61-2.44,3.71-.3.35-.67.56-1.12.63-.45.07-.86-.04-1.23-.32-.35-.3-.56-.68-.63-1.13-.07-.46.05-.86.35-1.22,1.1-1.34,2.1-2.92,3-4.73s1.65-3.68,2.27-5.6c-.58.07-1.17.15-1.78.21-.61.07-1.2.13-1.78.18-.47.04-.88-.08-1.23-.36-.35-.28-.56-.65-.62-1.12-.04-.47.08-.88.36-1.25.28-.36.65-.56,1.12-.6.8-.09,1.61-.17,2.44-.24.82-.07,1.62-.12,2.41-.15.21-.84.36-1.67.48-2.48.11-.81.19-1.59.22-2.34.04-.47.23-.85.57-1.16.35-.31.75-.44,1.22-.41.47.02.85.2,1.16.55.31.35.44.75.41,1.22-.07.69-.17,1.41-.28,2.16s-.25,1.51-.42,2.3c2.54.04,4.26.72,5.17,2.04.91,1.33,1.17,3.33.8,6.02-.3,2.31-.78,4.11-1.44,5.38-.66,1.27-1.54,2.11-2.62,2.53s-2.41.53-3.98.32ZM532.1,195.98c-.41.22-.84.27-1.29.14-.45-.13-.78-.4-1.01-.81-.32-.6-.72-1.23-1.2-1.89-.49-.66-.98-1.31-1.5-1.93-.51-.62-1-1.16-1.47-1.61-.34-.32-.51-.7-.53-1.16-.02-.46.13-.85.45-1.19.32-.34.7-.51,1.16-.52.46,0,.85.15,1.19.46.6.56,1.2,1.2,1.81,1.92s1.18,1.45,1.71,2.2c.53.75.98,1.46,1.33,2.13.22.41.28.84.15,1.27-.12.44-.39.77-.8.99ZM529.75,187.55c-.24-.24-.55-.54-.91-.88-.36-.35-.71-.65-1.02-.91-.19-.17-.29-.4-.32-.7-.03-.3.06-.57.27-.81.21-.24.45-.37.74-.39.29-.02.56.05.8.2.32.19.69.45,1.11.8.42.35.77.66,1.05.94.24.24.36.53.36.85s-.11.62-.34.88c-.22.24-.51.37-.85.38-.35,0-.64-.11-.88-.35ZM532.1,184.92c-.26-.22-.59-.49-.99-.81-.4-.32-.76-.6-1.08-.84-.19-.17-.3-.4-.35-.7-.05-.3.02-.57.21-.81.17-.24.4-.39.69-.43.29-.05.56,0,.83.15.32.17.7.41,1.15.71.45.31.82.59,1.12.85.26.22.4.5.42.84.02.34-.07.63-.28.9-.19.26-.45.41-.8.45-.35.04-.65-.06-.91-.31Z"/><path class="cls-1" d="M537.62,194.19c-.35-.32-.53-.7-.53-1.16s.16-.85.48-1.19c.58-.6,1.17-1.29,1.78-2.07.61-.78,1.19-1.59,1.75-2.42.56-.83,1.03-1.6,1.4-2.31.22-.41.57-.66,1.04-.76.47-.09.9-.04,1.29.17.41.24.67.57.78.99.11.42.07.84-.14,1.27-.41.78-.91,1.63-1.5,2.53-.59.91-1.2,1.77-1.85,2.6s-1.26,1.54-1.86,2.14c-.35.35-.78.56-1.27.63-.5.07-.95-.08-1.36-.43ZM540.39,205.64c-.6.09-1.1.02-1.5-.21-.4-.23-.66-.61-.77-1.13-.09-.49,0-.92.29-1.32.29-.39.72-.63,1.3-.73,3.73-.62,6.93-1.71,9.58-3.28,2.65-1.57,4.82-3.67,6.5-6.3.26-.43.64-.7,1.13-.8.49-.1.93-.02,1.3.24.43.28.69.65.78,1.12.09.47,0,.92-.31,1.34-2.02,2.93-4.51,5.32-7.49,7.18-2.98,1.86-6.58,3.15-10.82,3.88ZM546.75,197.8c-.6,0-1.07-.16-1.43-.48-.35-.32-.55-.74-.59-1.26-.02-.49.15-.91.5-1.26.35-.35.79-.56,1.32-.62.67-.06,1.11-.17,1.32-.34.21-.17.31-.51.31-1.04v-10.81c0-.54.17-.97.5-1.29s.75-.48,1.23-.48.9.16,1.23.48c.34.32.5.75.5,1.29v11.12c0,1.64-.42,2.83-1.26,3.57-.84.74-2.05,1.11-3.64,1.11ZM562.23,192.59c-.35.3-.78.43-1.27.41-.5-.03-.88-.22-1.16-.57-.28-.37-.63-.8-1.06-1.29-.43-.49-.88-.99-1.36-1.51-.48-.52-.94-1.02-1.4-1.5s-.86-.87-1.22-1.19c-.3-.3-.44-.66-.42-1.09.02-.43.18-.79.48-1.09.35-.35.75-.53,1.19-.53s.83.16,1.19.48c.52.45,1.12,1.01,1.78,1.68s1.31,1.35,1.95,2.03c.63.68,1.16,1.28,1.57,1.81.32.37.45.78.39,1.23-.06.45-.27.83-.64,1.15Z"/><path class="cls-1" d="M567.43,205.47c-.34,0-.61-.11-.83-.32s-.32-.48-.32-.8.11-.58.32-.8c.21-.21.49-.32.83-.32h10.19v-.95h-7.76c-.32,0-.57-.11-.77-.32-.2-.21-.29-.46-.29-.74s.1-.53.29-.74c.2-.21.45-.32.77-.32h7.76v-.98h-3.11c-1.12,0-2-.11-2.65-.32-.64-.21-1.1-.59-1.37-1.13-.27-.54-.41-1.31-.41-2.3s.14-1.75.41-2.3c.27-.54.73-.92,1.37-1.13.64-.21,1.53-.32,2.65-.32h9.66c1.12,0,2,.11,2.65.32.64.21,1.1.59,1.37,1.13.27.54.41,1.31.41,2.3s-.14,1.75-.41,2.3-.73.92-1.37,1.13c-.64.21-1.53.32-2.65.32h-3.19v.98h7.7c.32,0,.57.11.77.32.2.21.29.46.29.74s-.1.53-.29.74c-.2.21-.45.32-.77.32h-7.7v.95h10.14c.34,0,.61.11.83.32.21.21.32.48.32.8s-.11.58-.32.8c-.21.21-.49.32-.83.32h-23.69ZM567.74,190.85c-.32,0-.58-.11-.78-.34-.21-.22-.31-.49-.31-.78,0-.32.1-.58.31-.8.21-.21.47-.32.78-.32h23.1c.32,0,.58.11.78.32.21.21.31.48.31.8,0,.3-.1.56-.31.78-.21.22-.47.34-.78.34h-23.1ZM574.52,187.86c-1.12,0-2-.11-2.65-.32-.64-.21-1.1-.6-1.37-1.15-.27-.55-.41-1.32-.41-2.31s.14-1.76.41-2.31c.27-.55.73-.93,1.37-1.15.64-.21,1.53-.32,2.65-.32h9.66c1.12,0,2,.11,2.65.32.64.21,1.1.6,1.37,1.15.27.55.41,1.32.41,2.31s-.14,1.76-.41,2.31c-.27.55-.73.93-1.37,1.15-.64.21-1.53.32-2.65.32h-9.66ZM573.37,183.21h11.93c-.07-.43-.25-.69-.52-.78-.27-.09-.73-.14-1.39-.14h-8.12c-.65,0-1.12.05-1.39.14s-.44.35-.52.78ZM575.27,185.87h8.12c.65,0,1.11-.04,1.39-.13.27-.08.44-.35.52-.8h-11.93c.07.43.25.69.53.78.28.09.74.14,1.37.14ZM573.37,194.52h4.26v-.95h-2.35c-.63,0-1.09.05-1.37.15s-.46.37-.53.8ZM575.27,197.27h2.35v-1.01h-4.26c.07.47.25.75.52.85s.73.15,1.39.15ZM580.98,194.52h4.31c-.07-.43-.25-.7-.52-.8-.27-.1-.73-.15-1.39-.15h-2.41v.95ZM580.98,197.27h2.41c.67,0,1.14-.05,1.41-.15s.44-.39.52-.85h-4.34v1.01Z"/><path class="cls-1" d="M614.86,204.44c-2.2-.32-4.02-.96-5.46-1.92-1.44-.96-2.51-2.12-3.21-3.49s-1.05-2.78-1.05-4.26.29-2.89.87-4.19c.58-1.3,1.42-2.42,2.52-3.37-1.12.17-2.31.36-3.58.57-1.27.21-2.5.43-3.68.64-1.19.21-2.23.41-3.12.57-.47.08-.88-.03-1.25-.31-.36-.28-.58-.64-.66-1.09-.07-.47.02-.88.29-1.25.27-.36.64-.58,1.11-.66.6-.09,1.36-.22,2.3-.38.93-.16,1.98-.33,3.14-.52,1.16-.19,2.34-.38,3.56-.59,1.21-.21,2.4-.41,3.57-.6,1.17-.2,2.24-.38,3.21-.55.97-.17,1.76-.31,2.38-.42.43-.07.84.02,1.22.28.38.26.61.61.69,1.04.09.45.02.87-.21,1.26-.23.39-.57.63-1.02.7-1.31.21-2.46.6-3.44,1.19s-1.82,1.3-2.51,2.13c-.68.83-1.19,1.71-1.54,2.63-.35.92-.52,1.83-.52,2.73,0,1.81.62,3.27,1.85,4.38,1.23,1.11,2.91,1.82,5.04,2.11.45.07.81.3,1.09.67.28.37.38.78.31,1.23-.06.47-.27.84-.64,1.12-.37.28-.78.38-1.23.31ZM618.42,192.98c-.24.21-.54.29-.88.25-.35-.04-.62-.2-.83-.48-.21-.26-.47-.59-.78-.99s-.61-.75-.87-1.05c-.17-.21-.25-.45-.24-.74,0-.29.14-.54.38-.74.22-.21.48-.3.77-.29.29,0,.56.12.8.32.28.24.6.56.97.95.36.39.67.75.91,1.06.21.26.28.56.24.9-.05.34-.2.61-.46.81ZM621.11,190.58c-.24.24-.54.35-.88.34s-.63-.16-.85-.42c-.22-.26-.51-.58-.85-.95-.35-.37-.66-.7-.94-.98-.19-.19-.28-.43-.29-.73,0-.3.1-.56.32-.78.21-.21.46-.31.76-.32.3,0,.57.08.81.27.3.21.64.49,1.04.85.39.36.72.7.98,1.02.22.24.33.53.31.85-.02.33-.15.61-.39.85Z"/><path class="cls-1" d="M632.19,204.66c-.35.3-.77.42-1.23.38-.47-.05-.86-.25-1.18-.6-.28-.34-.65-.75-1.12-1.25-.47-.49-.95-.99-1.44-1.48-.5-.49-.93-.9-1.3-1.22-.3-.28-.47-.64-.52-1.08s.08-.82.38-1.13c.32-.32.69-.49,1.11-.53.42-.04.81.07,1.16.34.41.32.89.73,1.44,1.23.55.5,1.09,1.02,1.62,1.55s.96.99,1.27,1.39c.32.35.46.77.42,1.23-.04.47-.24.86-.62,1.18Z"/><path class="cls-1" d="M651.79,205.08c-1.57,0-2.87-.1-3.89-.29-1.03-.2-1.84-.55-2.44-1.06-.6-.51-1.02-1.24-1.27-2.18-.25-.94-.38-2.15-.38-3.63v-7.03c0-1.72.17-3.07.52-4.06.35-.99.93-1.72,1.76-2.18.83-.47,1.98-.76,3.46-.87.17-.43.36-.94.59-1.54.22-.6.4-1.04.53-1.34.19-.5.49-.86.92-1.08.43-.21.93-.24,1.51-.07.48.15.83.45,1.04.9.21.45.21.9.03,1.34-.09.22-.21.49-.34.81-.13.32-.27.62-.42.9h1.6c1.57,0,2.87.1,3.91.31,1.04.21,1.85.56,2.44,1.08.59.51,1.01,1.24,1.26,2.18.25.94.38,2.15.38,3.63v7.03c0,1.47-.13,2.68-.38,3.63-.25.94-.67,1.67-1.26,2.18-.59.51-1.4.87-2.44,1.06-1.04.2-2.34.29-3.91.29h-3.22ZM647.23,195.95h12.35v-3.16h-12.35v3.16ZM647.26,189.82h12.29c-.04-.91-.18-1.6-.43-2.04-.25-.45-.7-.74-1.34-.88s-1.56-.21-2.76-.21h-3.22c-1.19,0-2.11.07-2.76.21s-1.09.43-1.34.88c-.25.45-.4,1.13-.43,2.04ZM651.79,202.08h3.22c1.21,0,2.14-.07,2.77-.21.63-.14,1.08-.44,1.34-.9.26-.46.4-1.15.42-2.09h-12.29c.04.93.18,1.63.43,2.09.25.46.7.76,1.34.9s1.56.21,2.76.21Z"/><path class="cls-1" d="M671.3,193.38c-.41.32-.88.47-1.4.45-.52-.02-.96-.23-1.32-.64-.3-.39-.42-.83-.35-1.3.06-.48.3-.86.71-1.16.82-.6,1.65-1.32,2.49-2.16.84-.84,1.63-1.71,2.37-2.62.74-.91,1.34-1.74,1.81-2.51.26-.43.62-.7,1.08-.81.46-.11.9-.04,1.33.22.43.24.7.59.81,1.05.11.46.04.9-.22,1.33-.56.95-1.26,1.94-2.1,2.97-.84,1.03-1.72,1.99-2.63,2.9-.92.91-1.77,1.67-2.58,2.28ZM682.41,205.56c-1.31,0-2.02-.56-2.13-1.68-.04-.54.13-.98.5-1.32.37-.34.85-.51,1.43-.53.82-.02,1.45-.08,1.89-.18.44-.1.77-.32.98-.66.21-.34.39-.85.52-1.54.09-.54.17-1.11.24-1.71.07-.6.13-1.25.18-1.96.07-.8-.02-1.33-.29-1.6-.27-.26-.87-.39-1.81-.39h-2.49c-.17,1.68-.59,3.27-1.27,4.76-.68,1.49-1.63,2.81-2.84,3.96s-2.72,2.05-4.51,2.7c-.47.19-.93.21-1.39.06-.46-.15-.79-.48-.99-.98-.19-.43-.18-.84.03-1.25.21-.4.54-.69,1.01-.85,1.36-.52,2.51-1.22,3.44-2.09.93-.87,1.67-1.85,2.2-2.94.53-1.09.87-2.22,1.02-3.37h-2.69c-.47,0-.86-.16-1.18-.48-.32-.32-.48-.71-.48-1.18s.16-.83.48-1.16c.32-.33.71-.49,1.18-.49h8.71c1.42,0,2.52.15,3.32.46s1.34.83,1.65,1.55c.31.73.42,1.71.35,2.94-.06.92-.13,1.75-.21,2.51-.08.76-.18,1.49-.29,2.2-.21,1.33-.56,2.37-1.05,3.14-.5.77-1.19,1.3-2.07,1.61-.89.31-2.03.46-3.43.46ZM691.85,193.12c-.92-.65-1.84-1.43-2.79-2.32-.94-.9-1.81-1.83-2.6-2.8-.79-.97-1.43-1.88-1.92-2.72-.24-.43-.47-.75-.69-.97-.21-.21-.48-.36-.8-.45-.32-.08-.74-.13-1.26-.13h-1.48c-.45,0-.83-.15-1.15-.46-.32-.31-.48-.69-.48-1.13s.15-.83.45-1.15c.3-.32.67-.48,1.12-.48h1.54c1.16,0,2.07.09,2.74.27.67.18,1.24.5,1.71.97.47.47.95,1.14,1.46,2.02.67,1.12,1.59,2.24,2.74,3.36,1.16,1.12,2.37,2.08,3.64,2.88.43.3.7.7.83,1.2.12.5.03.97-.27,1.4-.32.47-.75.74-1.29.83-.54.08-1.05-.02-1.51-.32Z"/><path class="cls-1" d="M699.6,204.44c-.41-.24-.67-.59-.77-1.04-.1-.45-.03-.87.21-1.26.73-1.18,1.37-2.47,1.93-3.89.56-1.42,1.04-2.89,1.44-4.42.4-1.53.72-3.03.97-4.51-.54.06-1.07.1-1.58.14-.51.04-.99.07-1.44.11-.47.02-.87-.12-1.22-.41-.35-.29-.54-.67-.57-1.13-.02-.47.12-.87.42-1.22.3-.35.68-.53,1.15-.55.54-.04,1.12-.07,1.75-.11.63-.04,1.26-.09,1.89-.17.06-.63.09-1.24.11-1.82s.02-1.13,0-1.65c-.02-.47.13-.87.43-1.2s.7-.51,1.16-.53c.47-.02.87.13,1.2.43s.51.7.53,1.16c.02.47.02.97,0,1.5-.02.53-.06,1.1-.11,1.69.84-.15,1.6-.29,2.27-.42.45-.09.87-.02,1.26.22.39.24.63.59.73,1.04.09.47.01.89-.24,1.26-.25.37-.6.61-1.05.7-.47.09-.98.19-1.55.28-.57.09-1.17.19-1.81.28-.26,1.7-.62,3.46-1.06,5.28-.45,1.82-.98,3.57-1.61,5.24-.63,1.67-1.34,3.15-2.14,4.44-.24.39-.59.64-1.04.76-.45.11-.87.05-1.26-.2ZM719.08,203.82c-2.78.63-5.17.65-7.15.06-1.99-.6-3.41-1.7-4.27-3.3-.21-.41-.25-.84-.13-1.27.12-.44.39-.77.8-.99.41-.22.84-.27,1.27-.14.44.13.77.4.99.81.56.99,1.5,1.61,2.83,1.85,1.33.24,2.98.15,4.96-.28.47-.09.89-.01,1.27.24.38.25.62.6.71,1.05.09.47.01.89-.24,1.27-.25.38-.6.62-1.05.71ZM717.71,193.12c-.63-.15-1.36-.25-2.17-.31-.81-.06-1.63-.07-2.46-.04-.83.03-1.61.11-2.34.24-.45.07-.85-.01-1.22-.27-.36-.25-.59-.59-.69-1.02-.09-.45-.01-.86.24-1.25.25-.38.6-.61,1.05-.69.88-.15,1.81-.24,2.79-.28s1.96-.02,2.93.04,1.86.19,2.66.38c.45.09.79.34,1.02.73s.29.81.18,1.26c-.09.43-.34.76-.73.99s-.81.3-1.26.21Z"/><path class="cls-1" d="M734.01,205.44c-.47.02-.87-.14-1.2-.46s-.52-.72-.56-1.19c-.02-.47.14-.87.46-1.22s.72-.52,1.19-.52c2.67-.07,4.58-.53,5.73-1.36s1.72-2.04,1.72-3.63c0-.88-.28-1.58-.85-2.1-.57-.52-1.32-.84-2.24-.94-.92-.1-1.94.04-3.04.43-1.1.39-2.18,1.05-3.25,1.99-.28.24-.6.37-.97.38-.36,0-.7-.08-1.02-.27-.3-.21-.51-.48-.64-.81s-.15-.68-.06-1.04c.26-.9.49-1.95.7-3.16s.37-2.43.5-3.64c-.92.02-1.77.02-2.58.01-.8,0-1.5-.03-2.1-.07-.45-.04-.82-.23-1.11-.59-.29-.35-.42-.76-.38-1.2.04-.45.23-.82.59-1.11.35-.29.76-.42,1.2-.38.62.06,1.33.09,2.14.11.81.02,1.66.02,2.53,0,.04-.52.07-1,.08-1.44.02-.44.03-.83.03-1.16,0-.47.15-.86.46-1.19.31-.33.7-.5,1.16-.52.47-.02.87.13,1.2.45.34.32.5.71.5,1.18,0,.32-.01.69-.04,1.12-.03.43-.06.9-.1,1.4,1.87-.11,3.48-.33,4.84-.64.45-.09.86-.01,1.25.24.38.25.61.6.69,1.05.09.45.02.86-.22,1.23-.24.37-.59.61-1.04.7-.8.15-1.71.28-2.72.39-1.01.11-2.05.21-3.14.28-.09.82-.21,1.63-.34,2.42-.13.79-.26,1.51-.39,2.14,1.04-.6,2.11-1,3.19-1.2,1.08-.21,2.13-.23,3.14-.08,1.01.15,1.91.48,2.72.98.8.5,1.44,1.17,1.9,2,.47.83.7,1.82.7,2.95,0,2.65-.94,4.69-2.83,6.13-1.89,1.44-4.5,2.21-7.84,2.32Z"/><path class="cls-1" d="M767.47,204.44c-2.2-.32-4.02-.96-5.46-1.92-1.44-.96-2.51-2.12-3.21-3.49s-1.05-2.78-1.05-4.26.29-2.89.87-4.19c.58-1.3,1.42-2.42,2.52-3.37-1.12.17-2.31.36-3.58.57-1.27.21-2.5.43-3.68.64-1.19.21-2.23.41-3.12.57-.47.08-.88-.03-1.25-.31-.36-.28-.58-.64-.66-1.09-.07-.47.02-.88.29-1.25.27-.36.64-.58,1.11-.66.6-.09,1.36-.22,2.3-.38.93-.16,1.98-.33,3.14-.52,1.16-.19,2.34-.38,3.56-.59s2.4-.41,3.57-.6c1.17-.2,2.24-.38,3.21-.55.97-.17,1.76-.31,2.38-.42.43-.07.83.02,1.22.28.38.26.61.61.69,1.04.09.45.02.87-.21,1.26-.23.39-.57.63-1.02.7-1.31.21-2.46.6-3.44,1.19s-1.82,1.3-2.51,2.13-1.19,1.71-1.54,2.63c-.35.92-.52,1.83-.52,2.73,0,1.81.62,3.27,1.85,4.38,1.23,1.11,2.91,1.82,5.04,2.11.45.07.81.3,1.09.67.28.37.38.78.31,1.23-.06.47-.27.84-.64,1.12-.37.28-.78.38-1.23.31ZM771.02,192.98c-.24.21-.54.29-.88.25-.35-.04-.62-.2-.83-.48-.21-.26-.47-.59-.78-.99s-.61-.75-.87-1.05c-.17-.21-.25-.45-.24-.74,0-.29.13-.54.38-.74.22-.21.48-.3.77-.29.29,0,.56.12.8.32.28.24.6.56.97.95.36.39.67.75.91,1.06.21.26.28.56.24.9s-.2.61-.46.81ZM773.71,190.58c-.24.24-.54.35-.88.34-.34-.02-.63-.16-.85-.42-.22-.26-.51-.58-.85-.95-.34-.37-.66-.7-.94-.98-.19-.19-.29-.43-.29-.73,0-.3.1-.56.32-.78.21-.21.46-.31.76-.32.3,0,.57.08.81.27.3.21.64.49,1.04.85.39.36.72.7.98,1.02.22.24.33.53.31.85s-.15.61-.39.85Z"/><path class="cls-1" d="M781.09,191.92c-.21-.15-.51-.35-.92-.6-.41-.25-.82-.51-1.23-.77-.41-.26-.74-.46-.98-.59-.35-.21-.59-.51-.7-.92-.11-.41-.07-.79.14-1.15.21-.41.52-.68.95-.8.43-.12.85-.08,1.26.13.26.13.6.32,1.01.57.41.25.83.5,1.25.76s.74.45.97.6c.43.28.69.63.77,1.04s0,.83-.24,1.26c-.22.35-.56.59-1.01.7-.45.11-.87.04-1.26-.22ZM778.63,205.02c-.41-.24-.67-.58-.77-1.01-.1-.43-.03-.85.21-1.26.35-.58.76-1.28,1.22-2.11.46-.83.9-1.67,1.32-2.52.42-.85.75-1.57.99-2.17.19-.49.49-.81.9-.98.41-.17.84-.15,1.29.06.45.19.74.47.88.84s.11.79-.1,1.26c-.19.45-.43.99-.73,1.64s-.61,1.32-.94,2.02c-.33.7-.65,1.37-.98,2-.33.63-.61,1.18-.85,1.62-.22.41-.58.68-1.06.8-.49.12-.94.06-1.37-.18ZM782.38,185.56c-.21-.15-.51-.35-.91-.6s-.81-.51-1.22-.77c-.41-.26-.74-.46-.98-.59-.36-.21-.59-.51-.7-.91-.11-.4-.07-.79.14-1.16.21-.41.52-.67.95-.78.43-.11.84-.07,1.23.14.26.13.6.32,1.02.56s.84.49,1.26.74.74.45.97.6c.43.28.69.63.77,1.04s0,.83-.24,1.26c-.22.37-.56.61-1.01.71s-.88.02-1.29-.24ZM799.21,205.56c-1.18,0-2.11-.12-2.8-.36-.69-.24-1.19-.65-1.48-1.23-.3-.58-.45-1.37-.45-2.38v-7.25h-1.71c-.09,1.85-.36,3.47-.81,4.86-.45,1.39-1.13,2.6-2.04,3.64-.92,1.04-2.12,1.94-3.61,2.7-.47.24-.94.34-1.41.28-.48-.06-.84-.31-1.11-.76-.24-.41-.29-.83-.14-1.26s.44-.76.87-.98c1.23-.62,2.2-1.3,2.91-2.06.71-.76,1.23-1.65,1.55-2.69.33-1.04.55-2.28.66-3.74h-3.67c-.41,0-.77-.15-1.08-.46-.31-.31-.46-.68-.46-1.11s.15-.79.46-1.09c.31-.3.67-.45,1.08-.45h6.27v-3.61h-3.75c-.39.73-.79,1.4-1.2,2.02-.26.39-.62.66-1.06.8-.45.14-.88.1-1.29-.13-.39-.21-.64-.52-.76-.95-.11-.43-.05-.82.2-1.18.41-.62.83-1.32,1.26-2.1.43-.78.83-1.58,1.2-2.39.37-.81.67-1.55.9-2.23.15-.49.42-.82.8-.99.38-.18.8-.2,1.25-.07.43.13.74.39.94.77.2.38.22.81.07,1.27-.11.34-.24.68-.38,1.02-.14.35-.29.7-.43,1.08h2.27v-2.97c0-.5.16-.91.49-1.22.33-.31.72-.46,1.19-.46s.89.15,1.22.46c.33.31.49.71.49,1.22v2.97h5.4c.43,0,.79.15,1.08.45.29.3.43.66.43,1.09s-.14.77-.43,1.08c-.29.31-.65.46-1.08.46h-5.4v3.61h6.55c.43,0,.8.15,1.11.45.31.3.46.66.46,1.09s-.15.8-.46,1.11c-.31.31-.68.46-1.11.46h-4.48v6.58c0,.58.11.95.34,1.12.22.17.64.25,1.26.25.54,0,.92-.1,1.15-.29.22-.2.4-.58.53-1.16.11-.49.36-.83.76-1.02.39-.2.82-.24,1.29-.13.43.11.75.33.97.64.21.32.28.72.21,1.2-.22,1.48-.73,2.52-1.51,3.12-.78.61-1.94.91-3.47.91Z"/><path class="cls-1" d="M817.29,204.1c-.41.06-.78-.04-1.11-.29-.33-.25-.52-.58-.57-.99-.04-.41.07-.78.32-1.11.25-.33.58-.52.99-.57,1.77-.24,3.18-.62,4.21-1.15,1.04-.52,1.76-1.14,2.17-1.85.41-.71.56-1.45.45-2.21-.13-.99-.5-1.71-1.09-2.16-.6-.45-1.45-.62-2.55-.53-.6.04-1.29.12-2.09.24-.79.12-1.61.26-2.45.41-.84.15-1.64.31-2.41.49-.77.18-1.43.34-1.99.49-.41.11-.79.07-1.15-.13-.35-.2-.59-.5-.7-.91-.11-.39-.07-.77.13-1.13.2-.36.5-.6.91-.71.6-.17,1.3-.34,2.11-.5.81-.17,1.66-.33,2.55-.49.89-.16,1.75-.29,2.6-.41.85-.11,1.6-.2,2.25-.25,1.88-.15,3.42.23,4.62,1.13,1.19.91,1.91,2.23,2.16,3.96.21,1.33,0,2.6-.62,3.82-.62,1.22-1.65,2.27-3.11,3.14-1.46.87-3.34,1.44-5.66,1.72Z"/><path class="cls-1" d="M849.74,204.44c-2.2-.32-4.02-.96-5.46-1.92s-2.51-2.12-3.21-3.49c-.7-1.36-1.05-2.78-1.05-4.26s.29-2.89.88-4.19c.59-1.3,1.43-2.42,2.53-3.37-1.12.17-2.31.36-3.58.57-1.27.21-2.5.43-3.7.64-1.2.21-2.24.41-3.14.57-.45.08-.86-.03-1.23-.31-.37-.28-.6-.64-.67-1.09-.08-.47.03-.88.31-1.25.28-.36.65-.58,1.12-.66.6-.09,1.36-.22,2.3-.38s1.98-.33,3.14-.52,2.34-.38,3.56-.59c1.21-.21,2.4-.41,3.57-.6,1.17-.2,2.24-.38,3.21-.55.97-.17,1.76-.31,2.38-.42.43-.07.83.02,1.2.28.37.26.61.61.7,1.04.09.45.01.87-.24,1.26s-.6.63-1.05.7c-1.36.19-2.54.57-3.54,1.16-1,.59-1.83,1.3-2.48,2.13-.65.83-1.14,1.71-1.46,2.65-.32.93-.48,1.84-.48,2.72,0,1.81.62,3.27,1.85,4.38,1.23,1.11,2.9,1.82,5.01,2.14.47.07.84.3,1.12.67.28.37.38.78.31,1.23-.07.47-.29.84-.66,1.12-.36.28-.78.38-1.25.31Z"/><path class="cls-1" d="M864.92,201.33c-.86.04-1.68-.16-2.46-.59-.78-.43-1.48-1.12-2.07-2.07-.5-.84-.93-1.9-1.29-3.19s-.61-2.68-.76-4.19c-.15-1.5-.19-3-.11-4.49.04-.47.22-.85.55-1.16.33-.31.72-.44,1.19-.41.47.02.85.2,1.16.55.31.35.44.75.41,1.22-.07,1.31-.07,2.58.03,3.82.09,1.24.27,2.37.53,3.39.26,1.02.59,1.86.98,2.53.43.77.97,1.15,1.62,1.15.8-.02,1.47-.86,2.02-2.52.15-.43.43-.75.84-.97.41-.21.84-.25,1.29-.1.43.13.75.41.95.83.21.42.23.84.08,1.27-.52,1.64-1.22,2.86-2.1,3.65s-1.83,1.22-2.86,1.27ZM880.18,196.4c-.45.17-.88.15-1.3-.06s-.71-.52-.88-.95c-.28-.69-.66-1.39-1.13-2.1-.48-.71-1.01-1.38-1.6-2.02-.59-.63-1.19-1.17-1.81-1.6-.37-.26-.61-.63-.7-1.09-.09-.47,0-.89.31-1.26.3-.37.67-.58,1.11-.62.44-.04.85.08,1.25.36.78.54,1.55,1.2,2.31,1.99.76.78,1.44,1.62,2.06,2.52.62.9,1.07,1.77,1.37,2.63.15.43.13.86-.06,1.3-.19.44-.5.73-.92.88Z"/><path class="cls-1" d="M896.58,204.74c-1.7-.04-3.04-.45-4.02-1.23-.98-.78-1.45-1.86-1.41-3.22.04-.8.27-1.5.69-2.1.42-.6.99-1.05,1.72-1.36.73-.31,1.56-.42,2.49-.32,1.49.13,2.54.64,3.14,1.53.6.89.77,1.9.53,3.04.65-.32,1.19-.78,1.61-1.39.42-.61.63-1.4.63-2.37,0-.73-.21-1.39-.63-1.97s-1.01-1.05-1.76-1.37c-.76-.33-1.63-.46-2.62-.41-.99.06-2.05.35-3.19.88-1.14.53-2.31,1.38-3.5,2.53-.34.32-.76.47-1.26.46s-.92-.2-1.23-.57c-.3-.35-.43-.76-.41-1.22.03-.46.22-.82.57-1.08,1.16-.88,2.31-1.81,3.47-2.79,1.16-.98,2.26-1.95,3.32-2.9s1.98-1.82,2.79-2.6c.5-.49.68-.89.52-1.2-.16-.32-.57-.43-1.22-.34-.63.07-1.36.17-2.17.28-.81.11-1.57.21-2.28.31-.45.08-.86-.03-1.23-.31-.37-.28-.59-.65-.64-1.12-.08-.45.03-.85.31-1.22.28-.36.65-.58,1.12-.66.41-.06.93-.11,1.55-.17.62-.06,1.27-.11,1.93-.17.66-.06,1.23-.1,1.69-.14,1.21-.09,2.2.07,2.97.48s1.29.97,1.57,1.67c.28.7.29,1.46.04,2.28-.25.82-.79,1.6-1.61,2.32-.37.32-.84.73-1.41,1.23s-1.15,1.02-1.75,1.54c1.06-.21,2.1-.22,3.11-.04,1.01.18,1.91.54,2.7,1.08.79.54,1.42,1.26,1.89,2.14.47.89.7,1.93.7,3.12,0,1.7-.37,3.1-1.12,4.21-.75,1.11-1.77,1.92-3.08,2.44s-2.81.75-4.51.71ZM896.07,201.64h.17c.06,0,.13,0,.21.01.08,0,.18,0,.29-.01.26-.62.31-1.13.14-1.54s-.5-.65-1.01-.73c-.45-.06-.82,0-1.11.18-.29.18-.45.46-.49.85-.02.75.58,1.16,1.79,1.23Z"/><path class="cls-1" d="M915.27,195.98c-.86,0-1.59-.3-2.18-.9-.6-.6-.9-1.33-.9-2.18s.3-1.59.9-2.18c.6-.6,1.33-.9,2.18-.9s1.59.3,2.18.9c.6.6.9,1.33.9,2.18s-.3,1.59-.9,2.18c-.6.6-1.33.9-2.18.9Z"/><path class="cls-1" d="M928.25,195.98c-.86,0-1.59-.3-2.18-.9-.6-.6-.9-1.33-.9-2.18s.3-1.59.9-2.18c.6-.6,1.33-.9,2.18-.9s1.59.3,2.18.9c.6.6.9,1.33.9,2.18s-.3,1.59-.9,2.18c-.6.6-1.33.9-2.18.9Z"/><path class="cls-1" d="M941.24,195.98c-.86,0-1.59-.3-2.18-.9-.6-.6-.9-1.33-.9-2.18s.3-1.59.9-2.18c.6-.6,1.33-.9,2.18-.9s1.59.3,2.18.9c.6.6.9,1.33.9,2.18s-.3,1.59-.9,2.18c-.6.6-1.33.9-2.18.9Z"/><rect class="cls-3" x="194.76" y="281.87" width="470.03" height="108.12" rx="54.06" ry="54.06"/><rect class="cls-2" x="242.6" y="336.36" width="119.14" height="16.02"/><path class="cls-1" d="M246.85,344.81c-.47.15-.9.14-1.29-.03s-.66-.48-.81-.92c-.13-.43-.11-.83.07-1.2.18-.37.5-.62.97-.76.32-.09.68-.21,1.09-.34.41-.13.83-.26,1.26-.39v-5.82h-1.65c-.41,0-.76-.14-1.04-.42-.28-.28-.42-.62-.42-1.04s.14-.73.42-1.01c.28-.28.62-.42,1.04-.42h1.65v-4.76h-1.96c-.39,0-.72-.14-.99-.42-.27-.28-.41-.62-.41-1.01s.14-.7.41-.98c.27-.28.6-.42.99-.42h6.66c.39,0,.72.14.99.41.27.27.42.6.43.99.11-.9.48-1.54,1.09-1.92.62-.38,1.59-.57,2.91-.57h7.7c1.53,0,2.59.26,3.18.77.59.51.88,1.39.88,2.62s-.29,2.1-.88,2.62c-.59.51-1.65.77-3.18.77h-7.7c-1.53,0-2.59-.26-3.18-.77-.59-.51-.88-1.39-.88-2.62v-.31c0-.09,0-.19.03-.28-.08.32-.24.58-.49.8-.25.21-.56.32-.91.32h-1.57v4.76h1.32c.24,0,.48.07.7.2,0-.35.13-.65.38-.9.25-.24.55-.36.88-.36h15.15c.35,0,.66.12.91.36.25.24.38.54.38.9s-.13.65-.38.9c-.25.24-.56.36-.91.36h-15.15c-.21,0-.38-.04-.53-.11v.08c0,.41-.14.76-.42,1.04s-.62.42-1.01.42h-1.32v4.82c.26-.09.52-.18.77-.27s.48-.16.69-.24c.45-.15.83-.15,1.16-.01.33.14.56.41.69.8.15.37.16.73.03,1.08-.13.35-.41.6-.84.77-.39.17-.89.36-1.48.57-.6.21-1.23.44-1.89.69-.66.24-1.31.48-1.93.7-.63.22-1.16.41-1.61.56ZM260.99,349.48c-.43,0-.8-.15-1.12-.45-.32-.3-.48-.68-.48-1.15v-4.37c-.99.78-2.06,1.54-3.22,2.28-1.16.74-2.28,1.35-3.36,1.83-.41.19-.83.24-1.25.17s-.74-.32-.97-.73c-.19-.37-.21-.76-.08-1.16.13-.4.43-.71.9-.94.67-.32,1.43-.7,2.27-1.16.84-.46,1.68-.94,2.52-1.46.84-.51,1.6-1,2.3-1.47-1.21-.04-2.07-.28-2.56-.74-.5-.46-.74-1.23-.74-2.31,0-1.16.28-1.96.83-2.39.55-.44,1.54-.66,2.95-.66h6.02c1.4,0,2.38.22,2.93.66.55.44.83,1.24.83,2.39s-.28,1.93-.83,2.38c-.55.45-1.53.67-2.93.67h-1.43c.34.32.69.63,1.06.94.37.31.76.62,1.15.94l.9-.9c.3-.3.53-.54.7-.73.28-.32.63-.48,1.05-.48s.78.15,1.08.45c.35.34.5.71.45,1.13-.06.42-.22.75-.5.99-.17.13-.37.31-.6.53s-.48.44-.74.64c.43.28.84.54,1.25.78.4.24.8.47,1.19.67.41.22.66.54.76.95.09.41.03.79-.2,1.15-.22.35-.56.57-.99.64-.44.07-.85,0-1.25-.2-.99-.56-2.05-1.28-3.18-2.16-1.13-.88-2.16-1.8-3.09-2.77v4.4c0,.47-.15.85-.46,1.15-.31.3-.69.45-1.13.45ZM258.14,328.2h.64v-2.04h-.64c-.41,0-.7.07-.88.21-.18.14-.27.41-.27.8s.09.66.27.81c.18.15.47.22.88.22ZM259.31,338.62h5.35c.41,0,.69-.05.83-.15.14-.1.21-.31.21-.63s-.07-.53-.21-.63-.42-.15-.83-.15h-5.35c-.41,0-.69.05-.84.15-.15.1-.22.31-.22.63s.07.53.22.63c.15.1.43.15.84.15ZM261.25,328.2h1.82v-2.04h-1.82v2.04ZM265.45,328.2h.64c.43,0,.73-.07.9-.22s.25-.42.25-.81-.08-.66-.25-.8c-.17-.14-.47-.21-.9-.21h-.64v2.04Z"/><path class="cls-1" d="M276.58,343.88c-.5.15-.94.14-1.32-.04-.37-.18-.63-.5-.78-.97-.13-.43-.1-.83.08-1.2.19-.37.51-.62.98-.76.32-.09.66-.19,1.04-.29s.76-.21,1.15-.32v-7.81h-1.85c-.43,0-.77-.14-1.02-.41s-.38-.6-.38-.99.13-.73.38-1.01c.25-.28.59-.42,1.02-.42h1.85v-4c0-.48.15-.86.45-1.13.3-.27.66-.41,1.09-.41s.79.14,1.08.41c.29.27.43.65.43,1.13v4h1.6c.37,0,.68.11.91.32.23.21.39.48.46.8.15-.06.31-.08.48-.08h2.91c-.07-.22-.15-.44-.22-.66-.07-.21-.14-.39-.2-.52-.07-.21-.09-.42-.06-.63.04-.21.12-.41.25-.57h-2.02c-.39,0-.7-.12-.91-.36-.21-.24-.32-.54-.32-.9,0-.34.11-.63.32-.88.21-.25.52-.38.91-.38h4.87v-1.2c0-.45.15-.81.45-1.09.3-.28.67-.42,1.12-.42s.83.14,1.15.42c.32.28.48.64.48,1.09v1.2h5.32c.39,0,.7.13.92.38.22.25.34.55.34.88,0,.35-.11.65-.34.9-.22.24-.53.36-.92.36h-2.38c.32.37.39.78.22,1.23-.04.13-.1.3-.18.52-.08.21-.17.42-.27.63h3.39c.41,0,.73.13.95.38.22.25.34.56.34.94s-.11.66-.34.91c-.22.25-.54.38-.95.38h-14.84c-.34,0-.61-.09-.83-.27-.21-.18-.36-.4-.43-.66-.15.07-.35.11-.59.11h-1.6v6.78c.3-.11.58-.22.85-.32.27-.1.52-.2.74-.29.37-.15.72-.14,1.04.01s.54.42.67.8c.15.41.13.77-.04,1.09-.18.32-.45.57-.83.76-.56.28-1.25.58-2.07.91-.82.33-1.64.64-2.46.94-.82.3-1.52.54-2.1.73ZM281.57,349.31c-1.14.11-1.78-.29-1.93-1.2-.07-.43.01-.8.27-1.11s.63-.48,1.13-.52c1.7-.15,3.06-.54,4.09-1.16,1.03-.62,1.77-1.56,2.24-2.81-.95-.19-1.62-.59-2.02-1.2-.39-.62-.59-1.58-.59-2.88,0-1.12.14-1.98.43-2.59.29-.61.77-1.03,1.44-1.26.67-.23,1.58-.35,2.72-.35h4.37c1.14,0,2.04.12,2.7.35.66.23,1.14.65,1.43,1.26.29.61.43,1.47.43,2.59,0,1.48-.26,2.52-.77,3.14-.51.62-1.4.97-2.67,1.06v2.16c0,.5.11.84.34.99.22.16.7.24,1.43.24.6,0,1.03-.09,1.29-.27.26-.18.47-.54.62-1.08.11-.37.35-.63.73-.78.37-.15.77-.17,1.18-.06.41.13.71.36.9.7s.23.72.14,1.15c-.24,1.19-.74,2.05-1.5,2.58-.76.52-1.94.78-3.54.78-1.18,0-2.1-.11-2.77-.32-.67-.21-1.15-.59-1.44-1.13-.29-.54-.43-1.32-.43-2.32v-2.6h-1.46c-.39,2.02-1.35,3.57-2.87,4.68-1.52,1.1-3.48,1.76-5.87,1.99ZM287.92,337.44h7.22c-.07-.49-.25-.79-.52-.92-.27-.13-.74-.2-1.41-.2h-3.36c-.67,0-1.15.07-1.43.2-.28.13-.45.44-.5.92ZM289.85,340.55h3.36c.67,0,1.14-.06,1.41-.2.27-.13.44-.44.52-.92h-7.22c.07.49.25.79.52.92.27.13.74.2,1.41.2ZM290.25,330.69h2.3c.09-.3.21-.64.35-1.04.14-.39.24-.68.29-.87.06-.17.14-.33.25-.48h-4c.04.07.08.15.13.21.05.07.08.15.1.24.06.19.15.48.28.88s.23.75.31,1.05Z"/><path class="cls-1" d="M309.84,348.31c-1.14,0-2.03-.13-2.69-.39-.65-.26-1.11-.71-1.37-1.33-.26-.62-.39-1.48-.39-2.56v-9.6c0-1.47.26-2.52.78-3.15s1.47-.98,2.86-1.05v-2.86h-3.42c-.43,0-.77-.14-1.02-.42-.25-.28-.38-.61-.38-.98,0-.39.13-.73.38-1.01.25-.28.59-.42,1.02-.42h11.09c.43,0,.77.14,1.04.42.26.28.39.62.39,1.01s-.13.7-.39.98c-.26.28-.61.42-1.04.42h-3.14v2.83c1.44.07,2.42.42,2.95,1.05.53.63.8,1.69.8,3.18v9.6c0,1.08-.14,1.94-.41,2.56-.27.62-.73,1.07-1.37,1.33-.64.26-1.54.39-2.67.39h-3.02ZM307.97,341.14h6.78v-1.76h-.5c-.92,0-1.56-.15-1.95-.46-.38-.31-.57-.86-.57-1.67v-4.28h-.87c0,1.06-.04,1.97-.13,2.72-.08.75-.21,1.39-.38,1.93-.17.54-.39,1.05-.67,1.54-.13.24-.34.42-.62.53-.28.11-.55.11-.81,0-.13-.07-.22-.15-.28-.22v1.68ZM307.97,338.14c.26-.47.47-.92.62-1.36.15-.44.26-.96.34-1.55.07-.6.11-1.34.11-2.24-.43.06-.71.2-.85.42-.14.22-.21.63-.21,1.23v3.5ZM309.87,345.53h2.97c.54,0,.95-.04,1.22-.11.27-.07.45-.24.55-.49.09-.25.14-.64.14-1.16v-.17h-6.78v.17c0,.52.04.91.13,1.16.08.25.27.42.55.49.28.07.69.11,1.23.11ZM310.85,330.19h.87v-2.83h-.87v2.83ZM314.35,336.8h.39v-2.16c0-.63-.08-1.06-.22-1.27-.15-.21-.47-.34-.95-.38v3.11c0,.28.06.47.17.56.11.09.32.14.62.14ZM324.49,348.36c-1.44,0-2.57-.13-3.4-.39s-1.42-.72-1.78-1.37c-.35-.65-.53-1.58-.53-2.77v-6.5c0-1.31.14-2.3.42-2.97.28-.67.77-1.13,1.46-1.39.69-.25,1.63-.38,2.83-.38.99,0,1.65-.12,1.97-.36.33-.24.49-.75.49-1.51v-1.43c0-.77-.15-1.27-.46-1.53s-.93-.38-1.86-.38h-3.84c-.41,0-.76-.14-1.04-.42-.28-.28-.42-.62-.42-1.01s.14-.75.42-1.02c.28-.27.62-.41,1.04-.41h3.84c1.44,0,2.56.14,3.36.41.8.27,1.37.75,1.69,1.43.33.68.49,1.66.49,2.93v1.43c0,1.29-.15,2.27-.46,2.95-.31.68-.84,1.15-1.58,1.4-.75.25-1.78.38-3.11.38-.95,0-1.56.13-1.82.39-.26.26-.39.76-.39,1.48v6.16c0,.75.17,1.24.5,1.48.34.24,1.04.36,2.13.36.69,0,1.22-.06,1.6-.17s.65-.31.84-.59c.19-.28.34-.68.45-1.2.09-.45.33-.79.71-1.02s.83-.28,1.33-.13c.5.13.84.36,1.02.69s.22.72.13,1.19c-.17,1.01-.47,1.82-.9,2.45-.43.62-1.05,1.08-1.86,1.37s-1.9.43-3.26.43Z"/><path class="cls-1" d="M334.37,348.89c-.37-.17-.62-.46-.74-.87-.12-.41-.09-.8.1-1.18.5-.97.91-1.98,1.23-3.04.32-1.05.55-2.25.7-3.6.15-1.34.22-2.92.22-4.73v-3.95c0-1.04.14-1.88.43-2.49.29-.62.8-1.05,1.53-1.32.73-.26,1.74-.39,3.02-.39h3.22v-3.14c0-.48.15-.86.46-1.13.31-.27.68-.41,1.11-.41s.8.14,1.11.41c.31.27.46.65.46,1.13v.17h8.04c.32,0,.56.1.74.31.18.21.27.45.27.73s-.09.52-.27.73c-.18.21-.42.31-.74.31h-8.04v.9h8.54c1.12,0,1.94.22,2.45.66.51.44.77,1.16.77,2.17v1.01c0,.47-.15.84-.45,1.11-.3.27-.68.41-1.15.41-.21,0-.38-.04-.53-.11,0,.13-.03.27-.08.42-.26.77-.67,1.3-1.22,1.6-.55.3-1.45.45-2.7.45h-5.54c-1.19,0-2.04-.18-2.52-.53-.49-.35-.73-1-.73-1.93v-.11l-3.78.17c-.3.02-.53-.07-.7-.28-.17-.21-.26-.43-.28-.67-.02-.26.05-.49.21-.69.16-.2.39-.3.69-.32l3.86-.17v-.98h-3.19c-.82,0-1.37.14-1.65.41-.28.27-.42.81-.42,1.61v3.95c0,1.87-.07,3.54-.22,5.03s-.39,2.84-.73,4.07-.78,2.41-1.34,3.53c-.19.39-.48.67-.88.83-.4.16-.82.14-1.25-.04ZM338.85,348.64c-.32-.19-.52-.46-.62-.81-.09-.35-.03-.68.2-.98.26-.37.55-.84.87-1.41s.57-1.09.76-1.55c.15-.34.39-.56.73-.69.34-.12.68-.11,1.04.04.35.13.6.36.74.7.14.34.15.67.04,1.01-.19.49-.45,1.04-.78,1.67-.34.63-.65,1.14-.95,1.55-.22.34-.53.55-.91.64-.38.09-.75.04-1.11-.17ZM350.63,346.09c-.28.21-.59.29-.92.24-.34-.05-.61-.21-.81-.49-.13-.15-.34-.39-.63-.73-.29-.34-.5-.58-.63-.73-.19-.21-.27-.43-.24-.69.03-.25.13-.47.29-.66h-2.6c-1.51,0-2.58-.26-3.19-.77-.62-.51-.92-1.48-.92-2.9,0-.97.13-1.72.39-2.25.26-.53.69-.91,1.3-1.12.61-.21,1.41-.32,2.42-.32h7.03c1.01,0,1.81.11,2.42.32.61.21,1.04.59,1.3,1.12.26.53.39,1.28.39,2.25,0,1.42-.31,2.38-.92,2.9-.62.51-1.68.77-3.19.77h-2.44c.15.15.36.37.64.67.28.3.48.52.59.67.21.26.28.56.24.88-.05.33-.22.6-.52.83ZM348.9,349.17c-1.51,0-2.65-.11-3.42-.32-.77-.21-1.28-.56-1.54-1.02-.26-.47-.39-1.09-.39-1.88v-1.18c0-.45.14-.81.43-1.08.29-.27.64-.41,1.05-.41s.76.14,1.04.41c.28.27.42.63.42,1.08v.76c0,.32.06.57.18.76.12.19.36.31.71.38.35.07.9.1,1.62.1.69,0,1.22-.03,1.6-.08.37-.06.65-.15.84-.29.19-.14.34-.33.45-.57.19-.34.46-.56.81-.66.35-.1.71-.08,1.06.07.35.15.59.38.71.7.12.32.12.66-.01,1.04-.19.54-.46.98-.83,1.3-.36.33-.92.56-1.65.7-.74.14-1.77.21-3.09.21ZM343.97,338.48h3.14v-1.01h-1.4c-.58,0-.99.06-1.25.18-.25.12-.42.4-.49.83ZM345.71,341.25h1.4v-1.01h-3.14c.07.43.24.71.49.83.25.12.67.18,1.25.18ZM348.45,332.99h3.84c.62,0,1.04-.07,1.29-.21.24-.14.46-.42.64-.85.15-.32.38-.54.7-.66.32-.12.64-.14.98-.04v-.45c0-.47-.09-.79-.28-.98-.19-.19-.53-.28-1.04-.28h-7.56v.84l6.02-.28c.3-.02.53.07.69.27.16.2.25.42.27.66,0,.24-.07.47-.21.69-.14.21-.36.33-.66.35l-6.08.28c.04.26.16.44.36.53.21.09.55.14,1.04.14ZM350.13,338.48h3.11c-.07-.43-.23-.7-.48-.83-.24-.12-.66-.18-1.26-.18h-1.37v1.01ZM350.13,341.25h1.37c.58,0,.99-.06,1.25-.18.25-.12.42-.4.49-.83h-3.11v1.01ZM358.87,348.08c-.3.24-.64.36-1.04.35-.39,0-.71-.16-.95-.46-.26-.35-.63-.79-1.11-1.32s-.9-.96-1.27-1.32c-.24-.24-.35-.55-.31-.92.04-.37.19-.67.45-.9.26-.22.57-.34.94-.34s.69.12.97.36c.37.34.81.76,1.3,1.26.49.5.88.93,1.16,1.29.26.3.38.64.36,1.02-.02.38-.19.7-.5.97Z"/><path class="cls-1" d="M370.55,348.56c-1.53,0-2.76-.36-3.7-1.08-.93-.72-1.4-1.79-1.4-3.21,0-1.27.47-2.29,1.41-3.05.94-.77,2.21-1.15,3.79-1.15.56,0,1.12.03,1.68.08l-.08-3.16c-1.94.06-3.66.06-5.15,0-.47-.04-.84-.23-1.13-.57-.29-.35-.42-.74-.41-1.19.04-.45.23-.82.57-1.12.35-.3.74-.43,1.19-.39.71.04,1.48.06,2.31.07.83,0,1.68,0,2.53-.01-.02-.45-.03-.9-.03-1.34s0-.89-.03-1.32c-.92.02-1.8.02-2.66.01-.86,0-1.64-.02-2.35-.04-.47-.02-.84-.2-1.13-.55-.29-.35-.42-.75-.41-1.22.04-.45.23-.82.57-1.12.35-.3.74-.43,1.19-.39,1.38.09,2.96.12,4.73.08v-2.41c0-.47.16-.86.48-1.19.32-.33.71-.49,1.18-.49s.86.16,1.19.49c.33.33.49.72.49,1.19v1.08c0,.38,0,.79.03,1.22.77-.06,1.5-.12,2.21-.18.71-.07,1.35-.14,1.93-.21.45-.06.85.05,1.22.32.36.27.57.63.63,1.08.06.47-.05.88-.32,1.25-.27.36-.63.57-1.08.63-.65.07-1.37.14-2.14.2-.77.06-1.57.1-2.39.14,0,.43,0,.87.01,1.32,0,.45.02.9.04,1.34.75-.04,1.46-.09,2.14-.15.68-.06,1.31-.14,1.89-.21.45-.07.85.03,1.22.31.36.28.57.64.63,1.09.06.45-.05.85-.32,1.22-.27.36-.63.57-1.08.63-.63.07-1.33.14-2.07.2-.75.06-1.53.1-2.35.14.04.75.06,1.46.07,2.13,0,.67.02,1.3.04,1.88,1.08.32,2.11.71,3.08,1.18.97.47,1.83.96,2.58,1.48.37.24.6.6.69,1.06.08.47,0,.89-.27,1.26s-.62.6-1.08.69c-.46.08-.87,0-1.25-.27-.52-.37-1.1-.73-1.74-1.08-.64-.35-1.3-.66-1.99-.94-.07,1.47-.56,2.56-1.46,3.25s-2.14,1.04-3.72,1.04ZM370.53,345.39c.77,0,1.27-.14,1.51-.41.24-.27.36-.66.36-1.16v-.53c-.63-.11-1.26-.17-1.88-.17s-1.04.1-1.32.31-.42.49-.42.84c0,.75.58,1.12,1.74,1.12Z"/><path class="cls-1" d="M406.96,347.77c-2.2-.32-4.02-.96-5.46-1.92-1.44-.96-2.51-2.12-3.21-3.49s-1.05-2.78-1.05-4.26.29-2.89.87-4.19c.58-1.3,1.42-2.42,2.52-3.37-1.12.17-2.31.36-3.58.57-1.27.21-2.5.43-3.68.64-1.19.21-2.23.41-3.12.57-.47.08-.88-.03-1.25-.31-.36-.28-.58-.64-.66-1.09-.07-.47.02-.88.29-1.25.27-.36.64-.58,1.11-.66.6-.09,1.36-.22,2.3-.38.93-.16,1.98-.33,3.14-.52,1.16-.19,2.34-.38,3.56-.59,1.21-.21,2.4-.41,3.57-.6,1.17-.2,2.24-.38,3.21-.55.97-.17,1.76-.31,2.38-.42.43-.07.84.02,1.22.28.38.26.61.61.69,1.04.09.45.02.87-.21,1.26-.23.39-.57.63-1.02.7-1.31.21-2.46.6-3.44,1.19s-1.82,1.3-2.51,2.13c-.68.83-1.19,1.71-1.54,2.63-.35.92-.52,1.83-.52,2.73,0,1.81.62,3.27,1.85,4.38,1.23,1.11,2.91,1.82,5.04,2.11.45.07.81.3,1.09.67.28.37.38.78.31,1.23-.06.47-.27.84-.64,1.12-.37.28-.78.38-1.23.31ZM410.52,336.32c-.24.21-.54.29-.88.25-.35-.04-.62-.2-.83-.48-.21-.26-.47-.59-.78-.99s-.61-.75-.87-1.05c-.17-.21-.25-.45-.24-.74,0-.29.14-.54.38-.74.22-.21.48-.3.77-.29.29,0,.56.12.8.32.28.24.6.56.97.95.36.39.67.75.91,1.06.21.26.28.56.24.9-.05.34-.2.61-.46.81ZM413.21,333.91c-.24.24-.54.35-.88.34s-.63-.16-.85-.42c-.22-.26-.51-.58-.85-.95-.35-.37-.66-.7-.94-.98-.19-.19-.28-.43-.29-.73,0-.3.1-.56.32-.78.21-.21.46-.31.76-.32.3,0,.57.08.81.27.3.21.64.49,1.04.85.39.36.72.7.98,1.02.22.24.33.53.31.85-.02.33-.15.61-.39.85Z"/><path class="cls-1" d="M436,347.77c-2.2-.32-4.02-.96-5.46-1.92-1.44-.96-2.51-2.12-3.21-3.49s-1.05-2.78-1.05-4.26.29-2.89.87-4.19c.58-1.3,1.42-2.42,2.52-3.37-1.12.17-2.31.36-3.58.57-1.27.21-2.5.43-3.68.64-1.19.21-2.23.41-3.12.57-.47.08-.88-.03-1.25-.31-.36-.28-.58-.64-.66-1.09-.07-.47.02-.88.29-1.25.27-.36.64-.58,1.11-.66.6-.09,1.36-.22,2.3-.38.93-.16,1.98-.33,3.14-.52,1.16-.19,2.34-.38,3.56-.59,1.21-.21,2.4-.41,3.57-.6,1.17-.2,2.24-.38,3.21-.55.97-.17,1.76-.31,2.38-.42.43-.07.84.02,1.22.28.38.26.61.61.69,1.04.09.45.02.87-.21,1.26-.23.39-.57.63-1.02.7-1.31.21-2.46.6-3.44,1.19s-1.82,1.3-2.51,2.13c-.68.83-1.19,1.71-1.54,2.63-.35.92-.52,1.83-.52,2.73,0,1.81.62,3.27,1.85,4.38,1.23,1.11,2.91,1.82,5.04,2.11.45.07.81.3,1.09.67.28.37.38.78.31,1.23-.06.47-.27.84-.64,1.12-.37.28-.78.38-1.23.31ZM439.55,336.32c-.24.21-.54.29-.88.25-.35-.04-.62-.2-.83-.48-.21-.26-.47-.59-.78-.99s-.61-.75-.87-1.05c-.17-.21-.25-.45-.24-.74,0-.29.14-.54.38-.74.22-.21.48-.3.77-.29.29,0,.56.12.8.32.28.24.6.56.97.95.36.39.67.75.91,1.06.21.26.28.56.24.9-.05.34-.2.61-.46.81ZM442.24,333.91c-.24.24-.54.35-.88.34s-.63-.16-.85-.42c-.22-.26-.51-.58-.85-.95-.35-.37-.66-.7-.94-.98-.19-.19-.28-.43-.29-.73,0-.3.1-.56.32-.78.21-.21.46-.31.76-.32.3,0,.57.08.81.27.3.21.64.49,1.04.85.39.36.72.7.98,1.02.22.24.33.53.31.85-.02.33-.15.61-.39.85Z"/><path class="cls-1" d="M458.73,349.23c-2.31.07-4.24-.16-5.77-.7s-2.65-1.33-3.36-2.35-1.01-2.23-.9-3.61c.09-.99.41-1.83.94-2.53.53-.7,1.23-1.24,2.1-1.62.87-.38,1.84-.61,2.91-.69,1.07-.07,2.18.02,3.32.28-.28-.41-.56-.84-.83-1.3-.27-.46-.54-.92-.8-1.39-1.06.19-2.13.35-3.21.5-1.07.15-2.1.28-3.09.39-.45.04-.85-.09-1.19-.39-.35-.3-.54-.67-.57-1.12-.04-.47.09-.87.38-1.22.29-.35.67-.53,1.13-.55.77-.07,1.59-.17,2.46-.28.88-.11,1.76-.24,2.66-.39-.13-.32-.26-.63-.39-.95-.13-.32-.25-.63-.36-.95-.75.13-1.48.25-2.2.35-.72.1-1.39.19-2,.27-.45.04-.85-.08-1.2-.36-.35-.28-.56-.64-.62-1.09-.04-.45.08-.85.36-1.22.28-.36.64-.56,1.09-.6.49-.04,1.03-.1,1.62-.18.6-.08,1.21-.17,1.85-.27-.07-.32-.16-.62-.25-.91-.09-.29-.18-.57-.25-.85-.11-.45-.05-.87.18-1.27.23-.4.57-.66,1.02-.77.45-.11.87-.05,1.27.18.4.23.66.57.77,1.02.09.34.18.67.27,1.01s.18.68.29,1.04c.6-.11,1.17-.23,1.72-.35.55-.12,1.06-.24,1.53-.35.43-.11.84-.04,1.23.21.39.25.63.59.73,1.02.09.45.02.86-.21,1.25-.23.38-.57.62-1.02.71-.43.09-.9.2-1.4.31-.5.11-1.03.21-1.57.31.11.32.23.63.35.95.12.32.25.63.38.95.77-.15,1.51-.31,2.23-.48.72-.17,1.38-.33,1.97-.48.43-.09.84-.02,1.23.22.39.24.64.58.76,1.01.09.45.02.86-.22,1.25-.24.38-.58.63-1.01.74-.49.13-1.03.26-1.64.38-.61.12-1.24.25-1.89.38.47.86.96,1.67,1.48,2.42s1.07,1.41,1.65,1.97c.28.28.44.62.49,1.01.05.39-.04.76-.27,1.09-.21.34-.5.57-.88.7-.38.13-.76.12-1.13-.03-1.74-.75-3.27-1.15-4.59-1.22-1.33-.06-2.37.11-3.12.53-.76.42-1.15,1-1.19,1.75-.11,2.09,2.1,3.07,6.64,2.94.47-.02.87.13,1.2.43s.51.7.53,1.16c.02.47-.13.87-.45,1.2-.32.34-.71.51-1.18.53Z"/><path class="cls-1" d="M489.84,347.77c-2.2-.32-4.02-.96-5.46-1.92-1.44-.96-2.51-2.12-3.21-3.49-.7-1.36-1.05-2.78-1.05-4.26s.29-2.89.88-4.19c.59-1.3,1.43-2.42,2.53-3.37-1.12.17-2.31.36-3.58.57-1.27.21-2.5.43-3.7.64-1.19.21-2.24.41-3.14.57-.45.08-.86-.03-1.23-.31-.37-.28-.6-.64-.67-1.09-.08-.47.03-.88.31-1.25.28-.36.65-.58,1.12-.66.6-.09,1.36-.22,2.3-.38s1.98-.33,3.14-.52c1.16-.19,2.34-.38,3.56-.59,1.21-.21,2.4-.41,3.57-.6,1.17-.2,2.24-.38,3.21-.55.97-.17,1.76-.31,2.38-.42.43-.07.83.02,1.2.28.37.26.61.61.7,1.04.09.45.01.87-.24,1.26s-.6.63-1.05.7c-1.36.19-2.54.57-3.54,1.16-1,.59-1.83,1.3-2.48,2.13-.65.83-1.14,1.71-1.46,2.65-.32.93-.48,1.84-.48,2.72,0,1.81.62,3.27,1.85,4.38,1.23,1.11,2.9,1.82,5.01,2.14.47.07.84.3,1.12.67.28.37.38.78.31,1.23-.07.47-.29.84-.66,1.12-.36.28-.78.38-1.25.31Z"/><path class="cls-1" d="M505.02,344.67c-.86.04-1.68-.16-2.46-.59-.78-.43-1.48-1.12-2.07-2.07-.5-.84-.93-1.9-1.29-3.19s-.61-2.68-.76-4.19c-.15-1.5-.19-3-.11-4.49.04-.47.22-.85.55-1.16.33-.31.72-.44,1.19-.41.47.02.85.2,1.16.55.31.35.44.75.41,1.22-.07,1.31-.07,2.58.03,3.82.09,1.24.27,2.37.53,3.39.26,1.02.59,1.86.98,2.53.43.77.97,1.15,1.62,1.15.8-.02,1.47-.86,2.02-2.52.15-.43.43-.75.84-.97.41-.21.84-.25,1.29-.1.43.13.75.41.95.83.21.42.23.84.08,1.27-.52,1.64-1.22,2.86-2.1,3.65-.88.79-1.83,1.22-2.86,1.27ZM520.28,339.74c-.45.17-.88.15-1.3-.06s-.71-.52-.88-.95c-.28-.69-.66-1.39-1.13-2.1-.48-.71-1.01-1.38-1.6-2.02-.59-.63-1.19-1.17-1.81-1.6-.37-.26-.61-.63-.7-1.09-.09-.47,0-.89.31-1.26.3-.37.67-.58,1.11-.62.44-.04.85.08,1.25.36.78.54,1.55,1.2,2.31,1.99.76.78,1.44,1.62,2.06,2.52.62.9,1.07,1.77,1.37,2.63.15.43.13.86-.06,1.3-.19.44-.5.73-.92.88Z"/><path class="cls-1" d="M529.38,340.97c-.35.3-.76.45-1.22.45s-.84-.16-1.16-.48c-.34-.34-.5-.74-.5-1.22s.18-.86.53-1.16c1.06-.95,2-2.03,2.81-3.25s1.48-2.47,2-3.78c-.5.08-.99.13-1.47.17s-.93.07-1.36.11c-.49.02-.9-.12-1.23-.42-.34-.3-.51-.71-.53-1.23-.02-.47.12-.85.42-1.16.3-.31.71-.47,1.23-.49.6-.04,1.23-.09,1.89-.17.66-.07,1.33-.16,2-.25.09-.43.15-.87.18-1.32.03-.45.04-.88.04-1.29,0-.47.16-.86.48-1.19.32-.33.71-.49,1.18-.49s.87.16,1.2.49c.34.33.49.72.48,1.19-.02.63-.07,1.3-.17,1.99.13-.04.26-.07.38-.1.12-.03.24-.05.35-.07.47-.11.9-.06,1.29.17.39.22.63.58.73,1.06.09.47.01.89-.24,1.26-.25.37-.6.62-1.05.73-.3.07-.64.15-1.02.22-.38.07-.78.15-1.19.22-.58,1.96-1.39,3.81-2.42,5.54-1.04,1.74-2.25,3.22-3.63,4.45ZM536.83,348.73c-1.42,0-2.59-.36-3.51-1.08-.92-.72-1.39-1.78-1.39-3.18,0-1.27.45-2.28,1.36-3.04.91-.76,2.1-1.13,3.6-1.13.56,0,1.1.03,1.62.08v-5.29c0-.48.16-.89.48-1.2s.71-.48,1.18-.48.86.16,1.18.48c.32.32.48.72.48,1.2v6.05c1.01.32,1.96.71,2.87,1.16.91.46,1.7.93,2.39,1.41.37.28.6.65.67,1.11.07.46-.03.87-.31,1.25-.26.37-.62.6-1.08.67-.46.07-.87-.02-1.25-.28-.45-.35-.96-.7-1.53-1.02-.57-.33-1.16-.63-1.78-.91-.11,1.36-.59,2.4-1.43,3.12-.84.72-2.03,1.08-3.56,1.08ZM536.8,345.65c.62,0,1.05-.14,1.32-.42.26-.28.39-.71.39-1.29v-.48c-.3-.07-.59-.13-.88-.15-.29-.03-.56-.04-.83-.04-.58,0-1,.11-1.27.32-.27.21-.41.51-.41.88s.13.64.39.85c.26.21.69.32,1.29.32ZM545.53,333.55c-.6-.37-1.3-.76-2.11-1.15s-1.53-.68-2.14-.87c-.43-.15-.77-.41-1.01-.78-.24-.37-.31-.78-.2-1.23.09-.45.34-.79.74-1.04.4-.24.83-.3,1.27-.17.56.15,1.18.36,1.85.64.67.28,1.32.58,1.95.9.62.32,1.14.62,1.55.9.37.24.6.6.69,1.06.08.47,0,.9-.27,1.29-.24.37-.59.6-1.05.69-.46.08-.88,0-1.27-.24Z"/><path class="cls-1" d="M560.64,344.67c-.86.04-1.68-.16-2.46-.59-.78-.43-1.48-1.12-2.07-2.07-.5-.84-.93-1.9-1.29-3.19s-.61-2.68-.76-4.19c-.15-1.5-.19-3-.11-4.49.04-.47.22-.85.55-1.16.33-.31.72-.44,1.19-.41.47.02.85.2,1.16.55.31.35.44.75.41,1.22-.07,1.31-.07,2.58.03,3.82.09,1.24.27,2.37.53,3.39.26,1.02.59,1.86.98,2.53.43.77.97,1.15,1.62,1.15.8-.02,1.47-.86,2.02-2.52.15-.43.43-.75.84-.97.41-.21.84-.25,1.29-.1.43.13.75.41.95.83.21.42.23.84.08,1.27-.52,1.64-1.22,2.86-2.1,3.65-.88.79-1.83,1.22-2.86,1.27ZM575.9,339.74c-.45.17-.88.15-1.3-.06s-.71-.52-.88-.95c-.28-.69-.66-1.39-1.13-2.1-.48-.71-1.01-1.38-1.6-2.02-.59-.63-1.19-1.17-1.81-1.6-.37-.26-.61-.63-.7-1.09-.09-.47,0-.89.31-1.26.3-.37.67-.58,1.11-.62.44-.04.85.08,1.25.36.78.54,1.55,1.2,2.31,1.99.76.78,1.44,1.62,2.06,2.52.62.9,1.07,1.77,1.37,2.63.15.43.13.86-.06,1.3-.19.44-.5.73-.92.88Z"/><path class="cls-1" d="M585.82,339.32c-.86,0-1.59-.3-2.18-.9-.6-.6-.9-1.33-.9-2.18s.3-1.59.9-2.18,1.33-.9,2.18-.9,1.59.3,2.18.9c.6.6.9,1.33.9,2.18s-.3,1.59-.9,2.18-1.33.9-2.18.9Z"/><path class="cls-1" d="M598.8,339.32c-.86,0-1.59-.3-2.18-.9-.6-.6-.9-1.33-.9-2.18s.3-1.59.9-2.18,1.33-.9,2.18-.9,1.59.3,2.18.9c.6.6.9,1.33.9,2.18s-.3,1.59-.9,2.18-1.33.9-2.18.9Z"/><path class="cls-1" d="M611.79,339.32c-.86,0-1.59-.3-2.18-.9-.6-.6-.9-1.33-.9-2.18s.3-1.59.9-2.18,1.33-.9,2.18-.9,1.59.3,2.18.9c.6.6.9,1.33.9,2.18s-.3,1.59-.9,2.18-1.33.9-2.18.9Z"/><circle class="cls-3" cx="276.1" cy="108.12" r="14.25"/><circle class="cls-3" cx="287.39" cy="135.19" r="7.12"/><circle class="cls-3" cx="423.51" cy="387.09" r="14.25"/><circle class="cls-3" cx="434.8" cy="414.16" r="7.12"/><circle class="cls-3" cx="777.46" cy="244.68" r="14.25"/><circle class="cls-3" cx="763.22" cy="271.75" r="7.12"/></g></svg>