<?xml version="1.0" encoding="UTF-8"?><svg id="_レイヤー_2" xmlns="http://www.w3.org/2000/svg" xmlns:xlink="http://www.w3.org/1999/xlink" viewBox="0 0 1920 200"><defs><style>.cls-1{fill:none;}.cls-2{fill:#00a3df;}.cls-3{clip-path:url(#clippath);}</style><clipPath id="clippath"><rect class="cls-1" width="1920" height="200"/></clipPath></defs><g id="_レイヤー_1-2"><g class="cls-3"><path class="cls-2" d="M1920,1.19v-1479.68c-1.11.09-2.25.15-3.47.15-25.15.14-25.17-18.06-50.34-18.08-25.17-.02-25.13,18.43-50.29,18.56-25.16.13-25.21-18.54-50.39-18.56-25.17-.02-25.1,18.86-50.27,18.98-25.16.11-25.24-18.96-50.41-18.98-25.17-.01-25.08,19.25-50.25,19.35-25.17.1-25.26-19.34-50.43-19.35-25.17-.01-25.08,19.58-50.25,19.67-25.17.08-25.26-19.65-50.44-19.67-25.17-.01-25.08,19.86-50.25,19.93-25.17.07-25.26-19.92-50.43-19.93-25.17,0-25.09,20.09-50.26,20.14-25.18.05-25.25-20.13-50.42-20.14-25.17,0-25.1,20.26-50.28,20.3-25.18.04-25.23-20.29-50.4-20.3-25.17,0-25.13,20.38-50.3,20.4-25.18.02-25.21-20.4-50.38-20.4-25.17,0-25.15,20.45-50.33,20.46-25.18,0-25.19-20.46-50.36-20.46-25.17,0-25.18,20.46-50.36,20.46-25.18,0-25.16-20.46-50.33-20.46-25.17,0-25.2,20.43-50.38,20.4-25.18-.02-25.13-20.41-50.3-20.4-25.17,0-25.23,20.34-50.4,20.3-25.18-.04-25.11-20.3-50.28-20.3-25.17,0-25.24,20.19-50.42,20.14-25.18-.05-25.09-20.15-50.27-20.14-25.17,0-25.26,20-50.43,19.93-25.17-.07-25.08-19.94-50.25-19.93-25.17.01-25.27,19.75-50.44,19.67-25.17-.08-25.07-19.68-50.25-19.67-25.17.01-25.27,19.45-50.43,19.35-25.17-.1-25.08-19.36-50.26-19.35-25.17.01-25.25,19.09-50.42,18.98-25.17-.12-25.1-19-50.27-18.98-25.17.02-25.23,18.69-50.39,18.56-25.16-.13-25.13-18.58-50.3-18.56-25.17.02-25.19,18.23-50.35,18.08-1.23,0-2.39-.07-3.51-.16,0,493.23,0,986.45,0,1479.68,612.55,265.08,1307.45,265.08,1920,0Z"/></g></g></svg>