<?xml version="1.0" encoding="UTF-8"?><svg id="_レイヤー_2" xmlns="http://www.w3.org/2000/svg" xmlns:xlink="http://www.w3.org/1999/xlink" viewBox="0 0 1920 20"><defs><style>.cls-1{fill:none;}.cls-2{fill:#00a3df;}.cls-3{clip-path:url(#clippath);}</style><clipPath id="clippath"><rect class="cls-1" width="1920" height="20"/></clipPath></defs><g id="_レイヤー_1-2"><g class="cls-3"><path class="cls-2" d="M1920,1497.61c0-493.23,0-986.45,0-1479.68-1.11.09-2.25.15-3.47.15C1891.38,18.23,1891.36.02,1866.19,0c-25.17-.02-25.14,18.43-50.29,18.56C1790.74,18.69,1790.68.02,1765.51,0c-25.17-.02-25.1,18.86-50.27,18.98C1690.08,19.09,1690,.01,1664.83,0c-25.17-.01-25.08,19.25-50.25,19.35C1589.41,19.45,1589.31.01,1564.14,0c-25.17-.01-25.08,19.58-50.25,19.67C1488.73,19.75,1488.63.01,1463.46,0c-25.17-.01-25.08,19.86-50.25,19.93C1388.04,20,1387.95,0,1362.78,0c-25.17,0-25.09,20.09-50.26,20.14C1287.34,20.19,1287.27,0,1262.09,0c-25.17,0-25.11,20.26-50.28,20.3C1186.63,20.34,1186.58,0,1161.41,0c-25.17,0-25.13,20.38-50.3,20.4C1085.93,20.43,1085.89,0,1060.72,0c-25.17,0-25.15,20.45-50.33,20.46C985.21,20.46,985.21,0,960.04,0c-25.17,0-25.18,20.46-50.36,20.46C884.5,20.45,884.52,0,859.35,0c-25.17,0-25.2,20.43-50.38,20.4C783.79,20.38,783.84,0,758.66,0c-25.17,0-25.23,20.34-50.4,20.3C683.08,20.26,683.15,0,657.98,0c-25.17,0-25.25,20.19-50.42,20.14C582.39,20.09,582.47,0,557.3,0c-25.17,0-25.26,20-50.43,19.93C481.69,19.86,481.78-.01,456.61,0c-25.17.01-25.27,19.75-50.44,19.67C381.01,19.58,381.1-.01,355.93,0c-25.17.01-25.26,19.45-50.43,19.35C280.33,19.25,280.41-.01,255.24,0c-25.17.01-25.26,19.09-50.42,18.98C179.65,18.86,179.72-.02,154.55,0c-25.17.02-25.23,18.69-50.39,18.56C78.99,18.43,79.03-.02,53.86,0,28.68.02,28.67,18.23,3.51,18.08c-1.23,0-2.39-.07-3.51-.16v1479.68c612.55,265.08,1307.45,265.08,1920,0Z"/></g></g></svg>