<?xml version="1.0" encoding="UTF-8"?><svg id="_レイヤー_2" xmlns="http://www.w3.org/2000/svg" xmlns:xlink="http://www.w3.org/1999/xlink" viewBox="0 0 1920 20"><defs><style>.cls-1{fill:#fdd22a;}.cls-2{fill:none;}.cls-3{clip-path:url(#clippath);}</style><clipPath id="clippath"><rect class="cls-2" width="1920" height="20"/></clipPath></defs><g id="_レイヤー_1-2"><g class="cls-3"><path class="cls-1" d="M0-1170.97V.15c1.11-.09,2.25-.15,3.47-.15,25.17,0,25.17,20,50.34,20S78.98,0,104.15,0s25.17,20,50.34,20S179.66,0,204.83,0s25.17,20,50.34,20S280.34,0,305.51,0s25.17,20,50.34,20S381.03,0,406.2,0s25.17,20,50.34,20S481.71,0,506.88,0s25.17,20,50.34,20S582.39,0,607.56,0s25.17,20,50.34,20S683.08,0,708.25,0s25.17,20,50.34,20S783.76,0,808.93,0s25.17,20,50.34,20S884.45,0,909.62,0s25.17,20,50.34,20S985.13,0,1010.31,0s25.17,20,50.34,20,25.17-20,50.34-20,25.17,20,50.34,20,25.17-20,50.34-20,25.17,20,50.34,20,25.17-20,50.34-20,25.17,20,50.35,20,25.17-20,50.34-20,25.17,20,50.34,20,25.17-20,50.34-20,25.17,20,50.34,20,25.17-20,50.34-20,25.17,20,50.35,20,25.17-20,50.35-20,25.17,20,50.35,20,25.17-20,50.35-20,25.17,20,50.34,20,25.17-20,50.35-20c1.23,0,2.39.06,3.51.15v-1171.12H0Z"/></g></g></svg>