<?xml version="1.0" encoding="UTF-8"?><svg id="_レイヤー_2" xmlns="http://www.w3.org/2000/svg" xmlns:xlink="http://www.w3.org/1999/xlink" viewBox="0 0 300 212"><defs><style>.cls-1{fill:#fff;}.cls-2{fill:none;}.cls-3{fill:#00a3df;}.cls-4{clip-path:url(#clippath);}.cls-5{fill:#323232;}.cls-6{fill:#2e2e2e;}</style><clipPath id="clippath"><rect class="cls-2" width="300" height="212"/></clipPath></defs><g id="_レイヤー_1-2"><g class="cls-4"><path class="cls-1" d="M69.04,60.91s0,0,0,0c-.01,0-.02.01-.03.02,0,0,.03-.01.04-.02Z"/><path class="cls-1" d="M69.08,60.89c.17-.06.09-.05,0-.01-.02.01-.04.02-.05.03.02,0,.03-.01.05-.02Z"/><path class="cls-1" d="M148.34,196.07s0-.02-.01-.04c0,0,0-.02-.01-.02,0,.02,0,.03,0,.05,0,0,.01.01.02.02,0,0,0,0,0,0Z"/><path class="cls-1" d="M70.31,60.2s-.01,0-.02.01c0,0,.01,0,.02-.01Z"/><path class="cls-1" d="M95.69,182.99c0,.05,0,.1.01.15.01-.05.02-.09.04-.14-.02,0-.03,0-.05-.01Z"/><path class="cls-1" d="M147.14,197.3s0,0,0,0c0,0,0,0,0,0Z"/><path class="cls-1" d="M147.35,197.3s.04-.02.06-.03c-.01,0-.03,0-.04,0-.01,0-.02.01-.03.02,0,0,.01,0,.01,0Z"/><path class="cls-1" d="M147.12,197.31s.01,0,.02.01c.01,0,.02,0,.04,0-.02,0-.04,0-.05,0Z"/><path class="cls-1" d="M147.18,197.31s0,0,0,0c.07.02.13.03.13.03,0-.02-.03-.03-.08-.03-.02,0-.04,0-.06,0Z"/><path class="cls-1" d="M147.23,197.31s.06,0,.08,0c0,0,.01,0,.02-.01-.01,0-.02,0-.04,0-.03,0-.06.01-.09.02.01,0,.02,0,.03,0Z"/><path class="cls-1" d="M147.11,197.3s0,0,.01,0c0,0,.01,0,.02,0-.01,0-.02,0-.03,0Z"/><path class="cls-1" d="M147.33,197.31s-.01,0-.02,0c-.01.01,0,.01.02,0Z"/><path class="cls-1" d="M147.4,197.27c.09-.01.19-.06.1-.06-.03.02-.07.04-.1.06Z"/><path class="cls-1" d="M147.35,197.3s0,0-.01,0c.01,0,.02,0,.01,0Z"/><polygon class="cls-1" points="147.11 197.31 147.12 197.31 147.12 197.31 147.11 197.31"/><path class="cls-1" d="M148.35,196.11s0-.02-.01-.03c0,0,0,0,0,0,0,.02,0,.03,0,.05,0,0,0,0,0,0,0,0,0-.02,0-.03Z"/><path class="cls-3" d="M58.13,93.08c1.31,3.42,2.42,7.04,4.32,10.24.25.13.47.31.65.55,1.34-.21,2.68-.42,4.02-.63-.53-4.5-1.11-9-1.93-13.46-.09-.09-.17-.19-.27-.27-.56-.4-1.18-.59-1.94-.63-1.49-.08-2.04-1.57-1.65-2.63l-.08-.04c-1.04,2.29-2.08,4.59-3.12,6.88Z"/><path class="cls-1" d="M65.36,89.96s-.04-.04-.06-.07c0,0,0,0,0,0,0,0,0,0,0,0-.02-.02-.04-.04-.06-.07-.07.01.27.26.13.14Z"/><path class="cls-1" d="M64.89,89.48s-.02-.02,0,0h0Z"/><path class="cls-1" d="M65.24,89.83s.02.02.03.03c0-.02-.01-.03-.02-.04-.01,0,0,0-.01,0Z"/><path class="cls-1" d="M71.31,78.46s-.03,0-.04,0c.02.01.04.02.07.03-.01,0-.02-.02-.03-.02Z"/><path class="cls-3" d="M70.48,136.11c2.91,1.93,6.03,3.41,9.04,5.14-.01-3.36-.11-6.72-.29-10.08-.31-.21-.55-.55-.65-1.05-.78-4.04-1.93-8.01-3.64-11.76-1.85-4.07-4.2-7.89-6.68-11.6-1.53.24-3.05.48-4.58.72.62,7.43,1.25,14.86,1.87,22.28.54.98,1.55,2.33.71,3.34,1.38,1.04,2.78,2.05,4.22,3Z"/><path class="cls-1" d="M63.21,80.3s-.07.07-.14.12c.07-.04.13-.09.14-.12Z"/><path class="cls-1" d="M148.31,195.98s0,0,0,0c0-.02-.01-.05-.01-.06,0,.02,0,.03,0,.05Z"/><path class="cls-3" d="M225.43,134.76c.58-9.09,1.29-18.18,1.91-27.27-1.53-.24-3.07-.48-4.6-.73-5.58,8.27-9.74,17.47-11.83,27.21-.28,8.66.07,17.36,1.2,25.96,4.31-8.46,8.8-16.83,13.33-25.17Z"/><path class="cls-1" d="M225.7,89.9s-.02.01-.02.01c.04,0,.06-.04.08-.08-.05.06-.11.12-.17.18.06-.06.09-.08.11-.11Z"/><path class="cls-1" d="M148.39,196.17s0,0,0,.01c0,0,.01,0,0-.02,0,0,0,0,0,0Z"/><path class="cls-1" d="M227.34,79.84c.04.06.08.11.09.11,0,0-.04-.05-.09-.11Z"/><path class="cls-1" d="M143.1,199.67s.02-.01,0,0h0Z"/><path class="cls-1" d="M143.23,199.51c.05-.07.05-.08,0,0h0Z"/><polygon class="cls-1" points="147.08 197.34 147.08 197.34 147.09 197.34 147.08 197.34"/><path class="cls-1" d="M120.71,197.31s-.03-.03-.07-.06c.04.03.07.06.07.06Z"/><path class="cls-1" d="M124.86,201.46s-.03-.03-.07-.06c.04.03.07.06.07.06Z"/><path class="cls-1" d="M143.45,198.95s0,.02,0,.04c0-.02,0-.02,0-.04h0Z"/><path class="cls-3" d="M257.75,19.18c-2.08-2.58-6.09-5.76-9.57-3.96-1.57.81-3.01-.76-2.75-2.06-2.18-3.4-5.22-5.98-9.51-5-4.03.78-6.79,4.17-10.79,5.06-3.31,1.17-7.62.51-10.04,3.45-.99,1.31-1.6,3.23-1.78,4.84-.23,2.13.8,4.27,1.29,6.32.36.19.63.54.78.95.98-1.14,1.86-2.37,2.56-3.78-.57-.26-1.02-.78-1.04-1.59-.12-3.94,3.46-6.19,6.98-6.6,3.15-.37,6.63.65,8.82,3.01,2.37,2.56,2.78,6.02,3.75,9.22.94,3.08,2.56,5.91,4.68,8.33.55.2,1.02.63,1.12,1.21.21,1.41.91,2.85,2.18,3.45.75.29,1.38.91,1.35,1.78-.06,1.71.04,3.42.12,5.13,1.34-1.52,2.67-3.22,2.97-5.29.06-.41.31-.74.65-.97,2.22-2.81,6.34-1.23,8,1.44,2.85-8.18,6.52-17.34.23-24.94Z"/><path class="cls-3" d="M73.12,22.98c-1.46-3.76-3.55-6.78-7.05-8.82-6.38-3.6-13.65-6.97-21.15-6.13-1.67.23-4.64.99-5.21,2.86.56.16,1.12.39,1.67.68,2.09,1.13.23,4.31-1.86,3.18-.38-.21-.77-.34-1.16-.44-.5.16-1.05.13-1.49-.13-2.92.19-5.82,2.72-7.44,4.85-6.59,8.65-1.85,20.28,2.81,28.72,1.16-2.69,4.28-5.15,7.2-3.94,1.2-.42,2.28.58,2.36,1.75.13,1.01.51,2.29.99,3.23.1-1.43.19-2.86.16-4.29-.01-.85.59-1.5,1.35-1.78.21-.08.25-.09.11-.04.22-.1.44-.26.64-.4.45-.38.75-.82,1-1.3,0,0,.23-.5.15-.29.12-.3.21-.62.29-.95-.03-.94.56-1.88,1.77-1.83,2.7.12,4.88-.22,6.78-2.27,2.03-2.19,3.64-4.96,4.48-7.87.12-.45.25-.9.34-1.37.47-2.33,4-1.33,3.55.98-.11.54-.24,1.07-.4,1.6-.39,1.47-.92,2.9-1.58,4.27,2.66-1.23,5.13-3.51,6.45-6.16.44-1.08.59-2.32.87-3.45.57-2.33,4.15-1.3,3.54,1.02.7.24,1.29.6,1.78,1.06-.28-.93-.59-1.85-.94-2.75Z"/><path class="cls-1" d="M116.55,193.16s-.03-.03-.07-.06c.04.03.07.06.07.06Z"/><path class="cls-1" d="M148.32,196.27s-.03.05-.05.12c.04-.06.06-.11.05-.12Z"/><path class="cls-1" d="M219.39,92.57s-.09.06-.13.09c-.11.09-.16.12.13-.09Z"/><path class="cls-3" d="M229.73,86.2c-.01.06-.02.11-.04.17.31,1.05-.26,2.44-1.69,2.51-.69.04-1.21.2-1.75.51-.34.19-.05-.02-.29.22-.07.06-.13.13-.19.2-.76,4.44-1.4,8.95-1.9,13.44,1.34.21,2.67.42,4.01.63.18-.24.41-.43.67-.56,1.89-3.2,3-6.81,4.31-10.23-1.04-2.29-2.08-4.59-3.12-6.88Z"/><path class="cls-5" d="M210.79,175.52c-2.37,0-2.37,3.68,0,3.68s2.37-3.68,0-3.68Z"/><path class="cls-5" d="M71.27,78.45s.03,0,.04,0c-.25-.17-.3-.13-.04,0Z"/><path class="cls-5" d="M38.08,47.19s0,0,0,0c0,0,0,0,0,0,0,0,0,0,0,0Z"/><path class="cls-5" d="M38.08,47.19c-.07,0,.06.12,0,0h0Z"/><path class="cls-5" d="M32.15,98.06c.69,1.2,1.76,2.92,3.36,1.98.81-.52,1.22-1.65.66-2.52-2.26-3.52-4.53-7.04-6.79-10.56-.52-.81-1.66-1.21-2.52-.66-.81.52-1.22,1.65-.66,2.52,1.98,3.08,3.96,6.16,5.94,9.25Z"/><path class="cls-5" d="M153.27,193.42l2.53-2.53c-1.53-2.95-4.18-5.17-6.33-7.65-2.64-2.86-5.33-5.68-8.08-8.44-1.68-1.68-4.28.92-2.6,2.6,4.5,4.7,9.6,9.61,13.53,14.67.03.06.06.11.09.17,0,.02.01.04.02.07.03.11.05.22.07.34-.02.04.03.57.06.67-.67.66-1.43.08-2.11-.3-1.81-1.72-3.6-3.47-5.39-5.22-.69-.67-1.93-.74-2.6,0-.67.73-.73,1.88,0,2.6,1.94,1.9,3.88,3.79,5.85,5.66,0-.01,0-.03,0-.05,0,0,0,.01.01.02,0,.02,0,.02.01.04,0,0,0,0,0,0,0,0,0,0,0,0,0,.01,0,.02.01.03,0,0,0,.02,0,.03,0,0,0,0,0,0,0,0,0,.02,0,.02-.03.08-.06.17-.08.25-.07.12-.17.28-.21.34-.11.12-.22.24-.34.35-.07.03-.14.08-.2.12.09,0-.01.05-.1.06-.02.01-.04.03-.06.03,0,0,0,0-.01,0-.03.02-.04.02-.02,0-.02,0-.05,0-.08,0,.04,0,.07.02.08.03,0,0-.06-.02-.13-.03-.02,0-.02,0-.04,0,0,0-.01,0-.02-.01,0,0,0,0,0,0,0,0,0,0,0,0,0,0,0,0-.01,0,0,0,.02,0,.03,0,0,0,0,0,0,0-.02,0-.04,0-.05-.01-.02-.02-.06-.03-.08-.04-2.12-2.01-4.13-4.13-6.15-6.24-.66-.7-1.94-.72-2.6,0-.69.75-.71,1.86,0,2.6,1.71,1.8,3.43,3.57,5.19,5.32,0,.03,0,.06,0,.09-.02.07-.05.16-.06.19,0,0,0,.02,0,.03-.05.11-.09.18-.15.27-.05.07-.14.15-.2.21-.1.07-.49.19-.17.11-.11.03-.22.07-.34.1-.03,0-.06,0-.1,0-.14-.08-.26-.17-.38-.28.04.03.08.08.16.14-1.96-1.58-3.73-3.38-5.5-5.16-.68-.69-1.94-.73-2.6,0-.68.74-.72,1.87,0,2.6,1.54,1.56,3.1,3.11,4.77,4.54-.07.13-.15.25-.23.38-.07.07-.14.14-.21.21-.05.03-.1.06-.15.09-.26.1-.55.1-.8.24-.19.06-.36.17-.5.31.41-2.58-1.76-5.15-4.36-5.25-.15-2.2-1.95-4.21-4.18-4.36-.24-2.12-2-4.01-4.15-4.15-.27-2.68-2.9-4.64-5.54-4.13-2.31.45-3.93,2.73-5.45,4.37l2.02,2.39-2.02-2.39c-2.21,2.75-.19,7.17,3.27,7.45.22,2.15,2.03,3.93,4.15,4.15.27,3.05,3.79,5.11,6.56,3.79.19.46.47.88.79,1.26,2.38,2.93,6.7,1.7,8.33-1.37.07.34.22.67.49.91.12.1.25.19.37.29.29.17.6.25.93.25,1.66-.07,3.15-1.13,3.88-2.6,0-.01,0-.02.02-.04,1.9.19,3.75-1.05,4.56-2.66,2.29.32,4.61-1.41,5.2-3.66,3.41.09,5.41-3.26,3.97-6.35l-2.53,2.53ZM148.31,195.98s0-.03,0-.05c0,.01,0,.04.01.06,0,0,0,0,0,0ZM116.48,193.1s.08.05.07.06c0,0-.03-.03-.07-.06ZM119.07,191.73c-.41.41-.81.81-1.22,1.22,0,0-.01.01-.02.02-.03.03-.06.06-.09.09-.06.05-.13.09-.2.12-.1.03-.2.05-.3.08-.12,0-.24,0-.36,0-.07-.01-.13-.03-.19-.05-.09-.05-.17-.1-.25-.15-.05-.04-.09-.09-.09-.09-.04-.04-.09-.09-.12-.13-.03-.05-.05-.09-.08-.14-.05-.12-.06-.19-.08-.3,0-.11,0-.22,0-.33.03-.1.05-.2.08-.3.04-.07.08-.14.13-.2.85-.86,1.71-1.71,2.56-2.57.03-.03.06-.06.09-.09.07-.05.13-.09.2-.12.1-.03.2-.05.3-.08.12,0,.23,0,.35,0,.07.01.15.03.22.06.08.05.17.1.25.15.05.05.11.1.15.15.05.09.13.21.16.27.03.07.04.14.06.21,0,.12,0,.23,0,.35-.03.1-.05.2-.08.3-.04.07-.08.14-.13.2-.43.45-.88.88-1.32,1.33ZM120.64,197.25s.08.05.07.06c0,0-.03-.03-.07-.06ZM123.23,195.88c-.41.41-.83.83-1.24,1.24-.03.03-.06.06-.09.09-.06.05-.13.09-.2.12-.1.03-.2.05-.3.08-.12,0-.24,0-.36,0-.07-.01-.13-.03-.19-.05-.09-.05-.17-.1-.25-.15-.11-.1-.14-.14-.22-.22-.03-.05-.05-.09-.08-.14-.05-.12-.06-.19-.08-.3,0-.11,0-.22,0-.33.03-.1.05-.2.08-.3.04-.07.08-.14.13-.2.88-.89,1.76-1.77,2.65-2.65.07-.05.13-.09.2-.12.1-.03.2-.05.3-.08.11,0,.23,0,.35,0,.07.01.15.03.22.06.08.05.17.1.25.15.05.05.11.1.15.15.05.09.13.21.16.27.03.07.04.14.06.21,0,.12,0,.23,0,.35-.03.1-.05.2-.08.3,0,.01-.01.02-.02.03-.03.06-.07.11-.11.17-.43.45-.88.88-1.32,1.33ZM124.79,201.4s.08.05.07.06c0,0-.03-.03-.07-.06ZM128.91,198.2c-.03.1-.05.2-.08.3,0,.01-.01.02-.02.03-.03.06-.07.11-.11.17-.03.04-.06.07-.1.1-.85.85-1.7,1.71-2.55,2.55-.06.05-.13.09-.2.12-.1.03-.2.05-.3.08-.12,0-.24,0-.36,0-.07-.01-.13-.03-.19-.05-.09-.05-.17-.1-.25-.15-.11-.1-.14-.14-.22-.22-.03-.05-.05-.09-.08-.14-.05-.12-.07-.19-.08-.3,0-.11,0-.22,0-.33.03-.1.05-.2.08-.3,0-.01.01-.02.02-.03.03-.06.07-.11.11-.17.03-.03.05-.06.08-.09.86-.85,1.71-1.72,2.57-2.57.07-.05.13-.09.2-.12.1-.03.2-.05.3-.08.11,0,.23,0,.35,0,.07.01.15.03.22.06.08.05.17.1.25.15.05.05.11.1.15.15.05.09.13.21.16.27.03.07.04.14.06.21,0,.12,0,.23,0,.35ZM133.3,202.62c-.02.07-.04.14-.06.22-.06.11-.12.22-.19.32-.22.25-.45.48-.69.69-.1.07-.21.13-.32.19-.07.02-.14.04-.22.06-.11,0-.22,0-.34,0-.07-.02-.14-.04-.22-.06-.11-.06-.23-.12-.33-.2-.02-.02-.04-.03-.05-.05-.07-.11-.14-.22-.2-.33-.02-.07-.04-.14-.06-.22,0-.11,0-.22,0-.34.02-.07.04-.15.06-.22.06-.11.12-.22.19-.32.22-.25.45-.48.69-.69.1-.07.21-.13.32-.19.07-.02.14-.04.22-.06.11,0,.22,0,.34,0,.07.02.15.04.22.06.09.05.18.1.27.16.05.05.1.1.15.15.06.09.11.18.16.27.02.07.04.14.06.22,0,.11,0,.22,0,.34ZM143.23,199.51s.04-.06.04-.05c0,0-.01.01-.04.05ZM143.45,198.98s0-.03,0-.04h0s0,.02,0,.04ZM147.08,197.34s0,0,0,0c0,0,0,0,0,0,0,0-.01,0-.01,0ZM148.27,196.38c.02-.06.04-.12.05-.12,0,0-.02.06-.05.12ZM148.39,196.18s0,0,0-.01c0,0,0,0,0,0,0,.02,0,.02,0,.02Z"/><path class="cls-5" d="M147.36,197.28s-.04,0-.07.01c.02,0,.03,0,.04,0,0,0,.02-.01.03-.02Z"/><path class="cls-5" d="M147.14,197.3s-.01,0-.02,0c0,0,0,0,0,0,.02,0,.03,0,.05,0,0,0,0,0,0,0,.02,0,.04,0,.06,0-.01,0-.02,0-.03,0,.03,0,.06-.01.09-.02-.05,0-.1,0-.15.01,0,0,0,0,0,0,0,0,0,0,0,0Z"/><path class="cls-5" d="M147.31,197.31s.02,0,.02,0c0,0,0,0,.01,0,0,0,0,0-.01,0,0,0-.02.01-.02.01Z"/><path class="cls-5" d="M148.32,196.05s.01.05.02.07c0-.02,0-.03,0-.05,0,0-.01-.01-.02-.02Z"/><path class="cls-5" d="M147.44,197.24s.04-.02.06-.03c-.04,0-.1.04-.14.07.02,0,.03,0,.04,0,.01,0,.02-.01.04-.03Z"/><path class="cls-5" d="M142.04,199.64c-.11-.1-.08-.07,0,0h0Z"/><path class="cls-5" d="M219.39,92.57s-.09.06-.13.09c-.11.09-.16.12.13-.09Z"/><path class="cls-5" d="M194.93,189.65h3.7c.24-4.89.61-9.76,1.08-14.64,1.64-23.35-7.15-46.57-3.04-69.88,1.01-5.49,2.89-11.06,6.56-15.37.88-1.04,1.85-2,2.9-2.88,1.34-1.11,3.14-1.39,4.76-1.94-3.03,6-5.21,12.48-6.52,19.05-3.02.07-5.58,1.56-5.5,4.86.14,4.38,1.03,8.84,1.61,13.18,2.15,15.96,4.51,31.89,6.88,47.82.18,1.23,1.25,1.53,2.16,1.21.63.1,1.28-.14,1.65-.92.74-1.56,1.52-3.1,2.28-4.65,8.26-9.99,21.04-14.63,29.75-24.19,5.51-5.84,10.56-12.13,15.4-18.52,1.04-1.37,2.06-2.74,3.07-4.14.98-1.36,1.96-2.66,1.99-4.42.05-2.96-2.12-4.7-4.7-5.5.43-.13.81-.4,1.03-.81,2.33-4.1,4.47-8.31,5.82-12.84.31-.94-.36-2.01-1.29-2.26-1-.28-1.95.34-2.26,1.29-.55,1.65-1.1,3.3-1.77,4.9-1.06,2.43-2.43,4.72-3.67,7.06-.35.66-.3,1.46.12,2.03-3.54-1.11-7.08-2.22-10.62-3.33,4.26-7.58,8.55-15.16,13.03-22.62,3.21,2.6,6.43,5.19,9.64,7.79.35.28.72.41,1.09.44.04.5.32.97.94,1.26,6.92,3.15,12.8,9.16,14.08,16.86,2.69,20.72,5.73,41.46,7.94,62.2-.53,6.32-1.05,12.64-1.58,18.97h3.69c.54-6.47,1.09-12.95,1.62-19.42-1.02-9.37-2.39-18.73-3.54-28.1-1.32-10.26-2.65-20.51-4.04-30.76-.43-10.09-7.49-19.61-16.99-23.11-.06-.33-.25-.66-.6-.95-3.9-3.12-7.75-6.32-11.68-9.4-1.11-3.65-2.21-7.3-3.32-10.95-.14-.47-.42-.8-.77-1.02-.23-2.79-.26-5.61-.6-8.39,1.35-1.5,2.34-3.21,3.04-5.06.31-.21.57-.52.72-.96,1.04-3.13,2.06-6.27,3.08-9.41,1.63-5,3.44-10.15,2.73-15.49-.93-7.78-7.86-16.81-16.39-15.34-3.66-7.65-12.24-8.85-18.96-4.33-1.62,1.03-2.98,2-4.85,2.57-4.84,1.42-10.9,1.13-13.36,6.44-.9,1.81-1.58,3.99-1.62,6.02.05,2.61,1,5.18,1.74,7.65-1.03,1.84-2.89,7.22-.58,8.54,1.12.58,2.7-.36,2.63-1.66-.03-.6,0-1.19.05-1.79.13-.83.35-1.64.66-2.42.38-1.21,1.83-2.16,1.26-3.53-.15-.4-.42-.76-.78-.95-.49-2.05-1.52-4.19-1.29-6.32.17-1.61.79-3.54,1.78-4.84,2.43-2.94,6.73-2.28,10.04-3.46,4-.89,6.77-4.28,10.79-5.06,4.29-.97,7.33,1.6,9.51,5-.25,1.3,1.18,2.87,2.75,2.06,3.48-1.8,7.49,1.38,9.57,3.96,6.29,7.61,2.62,16.76-.23,24.94-1.66-2.68-5.78-4.25-8-1.44-.34.23-.59.56-.65.97-.3,2.06-1.63,3.77-2.97,5.29-.08-1.71-.18-3.42-.12-5.13.03-.87-.61-1.49-1.35-1.78-1.27-.6-1.97-2.04-2.18-3.45-.1-.58-.57-1.01-1.12-1.21-2.12-2.42-3.74-5.25-4.68-8.33-.97-3.2-1.38-6.66-3.75-9.22-2.19-2.36-5.67-3.38-8.82-3.01-3.51.41-7.09,2.66-6.98,6.6.02.81.47,1.33,1.04,1.59,1.1.5,2.68-.03,2.64-1.59-.08-2.69,3.56-3.21,5.58-2.94,6.13.74,5.77,7.91,7.76,12.31,1.21,2.8,2.87,5.38,4.97,7.6.51,1.86,1.62,3.45,3.21,4.49,0,2.74.29,5.48.2,8.23-.05,1.28,1.65,2.45,2.77,1.59,3.13-2.52,6.29-5.7,7.28-9.72.05-.06.11-.12.16-.19-.15.22,0,.05.02.05.13-.01.05-.02.28,0-.28-.04.29.09.3.1,1.23.61,1.91,1.99,2.2,3.36,0,.36.02.75-.03,1.11,0,.02,0,.03,0,.05-.01.09-.03.18-.05.26-.64,2.87-2.47,5.94-5.21,7.26-.1.07-1.08.25-.57.19-.99.13-1.84.76-1.84,1.84,0,.9.85,1.97,1.84,1.84.82-.1,1.58-.36,2.31-.69.15,2.36.3,4.72.45,7.07-6.88,5.42-14.14,10.91-22.42,13.96,0,0,0,0,0,0-.37-.19-.8-.23-1.18-.39-.26-.13-.5-.27-.74-.43-.2-.17-.39-.38-.55-.57-.49-.75-.87-1.49-1.26-2.29,5.26.08,10.34-2.71,13.72-6.64,1.53-1.79-1.06-4.41-2.6-2.6-2.8,3.27-6.91,5.72-11.31,5.61-9.19-.53-12.02-12.3-12.28-19.86-.26-3.99-.46-8.02-.36-12.02.04-1.48-1.39-2.04-2.48-1.66-.65.22-1.18.78-1.2,1.66-.09,3.52.07,7.06.27,10.57.16,8.92,2.48,20.37,11.68,24.09-.33.59-.67,1.18-1,1.78-4.91.85-9.72,2.81-14.51,4.26-9.25,5.36-12.61,16.94-13.69,26.98-.23.21-.4.51-.49.91-1.83,9.14-3.66,18.28-5.5,27.42-.45,2.26-1.03,4.42-2.44,6.31-1.39,1.87-3.27,3.03-5.29,4.08-4.67,2.44-9.34,4.89-14.01,7.33-4.07,2.13-8.14,4.26-12.22,6.39-.91.48-1.07,1.34-.8,2.08-.31.31-.47.71-.5,1.12-2.58,1.15-5.19,2.59-7.97,1.22-2.2-.78-4.42-1.5-6.64-2.22-2.89-.94-4.92.59-6.61,2.61-.93,1.11-1.77,2.36-2.58,3.44-1.15,1.51-2.33,2.8-1.82,4.83.44,1.75,1.56,3.33,3.34,3.86,4.77,1.42,7.58-2.81,9.53-6.37,1.14-2.08-2.04-3.94-3.18-1.86-.79,1.44-1.61,3.4-3.05,4.32-1.06.68-3.27.71-3.14-1.09-.03.37.38-.4.49-.54.94-1.19,1.83-2.41,2.75-3.61.53-.68,1.2-1.78,2.01-2.13.82-.35,1.9.32,2.71.57,2.33.71,4.6,1.72,6.95,2.36,2.95.64,5.87-.78,8.52-1.94,2.55,5.47,5.1,10.95,7.66,16.42-1.08.59-2.15,1.18-3.23,1.77-.4.22-.73.67-.85,1.1-.21.72.1,1.59.74,1.99,1.67,1.05,3.38-.93,4.91-1.52.47.8,1.69,1.01,2.45.55,1.13-.8,2.62-1.32,3.54-2.35.55.23,1.23.18,1.74-.07,8.94-4.46,17.88-8.92,26.82-13.39-.48,5.46-.92,10.93-1.21,16.41ZM207.2,143.67c-1.64-11.67-3.6-23.41-4.66-35.11.19-.95,1.6-.82,2.39-.95,1.81-.28,3.62-.56,5.42-.84-2.49,12.11-3.47,24.53-3.16,36.89ZM212.1,159.93c-1.13-8.59-1.48-17.3-1.2-25.96,2.09-9.74,6.25-18.94,11.83-27.21,1.53.24,3.07.48,4.6.72-.62,9.09-1.33,18.18-1.91,27.27-4.53,8.35-9.01,16.71-13.33,25.17ZM212.14,118.28c.89-6.87,2.25-13.67,4.2-20.31,1.79.4,3.38-1.22,4.78-2.13-.39,2.75-.73,5.51-1.05,8.27-3.01,4.47-5.73,9.22-7.94,14.18ZM256.17,111.71c1.21.38,3.59.65,3.79,2.23.15,1.21-1.28,2.58-1.95,3.5-5.54,7.53-11.37,14.9-17.82,21.68-6.41,6.68-14.32,10.95-21.73,16.46,3.66-7.03,7.44-13.99,11.23-20.94,4.85-8.9,9.78-17.76,14.75-26.6,3.91,1.23,7.82,2.45,11.73,3.68ZM239.42,109.41c-3.29,5.86-6.55,11.74-9.78,17.64.49-6.93.98-13.86,1.47-20.8,1.58-2.62,2.88-5.46,3.93-8.36.44,1.6,1.96,1.96,3.18,1.01,4.45-3.64,8.9-7.28,13.35-10.92-4.13,7.1-8.14,14.27-12.15,21.42ZM243.38,78.19c3.61-2.33,7.12-4.84,10.45-7.56.87,2.88,1.75,5.75,2.62,8.63-6.28,5.14-12.57,10.28-18.85,15.42-1.62-3.56-3.23-7.12-4.85-10.68,3.74-1.49,7.27-3.65,10.63-5.81ZM227.43,79.95s-.05-.05-.09-.11c.04.05.09.11.09.11ZM222.88,81.5c.27-.25.41-.61.6-.92,1.09,2.11,3.09,3.89,5.53,4.05.24.53.48,1.05.72,1.58,1.04,2.3,2.08,4.59,3.12,6.88-1.3,3.41-2.42,7.02-4.31,10.23-.26.13-.49.32-.67.56-1.34-.21-2.67-.42-4.01-.63.5-4.49,1.15-8.99,1.9-13.44.06-.07.12-.14.19-.2.24-.24-.05-.03.29-.22.53-.3,1.06-.47,1.75-.51,1.43-.07,1.99-1.46,1.69-2.51-.2-.68-.76-1.22-1.69-1.17-2.86.04-5.89,1.84-6,4.93-.81.96-1.75,1.77-2.74,2.54.04-.03.09-.06.13-.09-.29.21-.25.18-.13.09-.52.38-1.05.76-1.59,1.12,1.43-4.22,3.14-8.33,5.21-12.28ZM225.7,89.9s-.06.05-.11.11c.06-.06.11-.12.17-.18-.01.04-.03.08-.08.08,0,0,.02,0,.02-.01ZM218.15,82.73c-3.06,6.44-5.3,13.26-6.94,20.21-.98.15-1.97.3-2.95.46,1.51-7,4.11-13.76,7.59-20,.76-.23,1.53-.44,2.3-.67ZM165.11,184.09c-.4.24-.81.49-1.21.73-3.08-6.6-6.15-13.2-9.23-19.8.63-.33,1.27-.66,1.9-.99,3.08,6.6,6.16,13.21,9.24,19.81-.23.03-.46.11-.7.25ZM169.25,182.55c-3.14-6.74-6.29-13.48-9.43-20.22,6.6-3.45,13.2-6.91,19.8-10.36,1.62-.85,3.21-1.65,4.64-2.83,2.82-2.32,4.64-5.58,5.37-9.13.89-4.36,1.75-8.72,2.62-13.09.89,14.1,4.11,28.01,4.01,42.15-.05.02-.09.03-.14.05-8.96,4.47-17.93,8.95-26.89,13.42Z"/><path class="cls-5" d="M272,166.63c.03-5.86-.28-11.64-2.07-17.26-1.85-5.82-4.37-11.42-5.82-17.37-.56-2.3-4.11-1.33-3.55.98,1.84,7.54,5.68,14.54,7.06,22.18,1.23,6.81.61,13.92.65,20.8.03,4.56.04,9.12.06,13.69h3.62c0-7.67.04-15.35.04-23.02Z"/><path class="cls-5" d="M71.45,39.41c-2.37,0-2.37,3.68,0,3.68s2.37-3.68,0-3.68Z"/><path class="cls-5" d="M58.99,47.61c2.37,0,2.37-3.68,0-3.68s-2.37,3.68,0,3.68Z"/><path class="cls-5" d="M74.5,51.02c-.34-.96-1.03-1.58-1.82-2.17-1.32-1-2.69-2.52-3.32-4.08-.27-.67-.45-1.38-.56-2.09-.15-.98-1.38-1.53-2.26-1.29-1.05.29-1.44,1.28-1.29,2.26.54,3.4,2.72,6.4,5.52,8.33,0,.01.15.13.19.17.1.09.05-.09.08.03,0-.01.04.13.02.15-.02-.15-.03-.15-.03-.07-.01.03-.04.1-.04.13-.04.07-.09.15-.12.2-.06.06-.23.24-.23.24-.02.02-.07.05-.1.08-.26.18-.54.33-.83.46-.05.02-.53.23-.27.13-.92.38-1.57,1.22-1.29,2.26.24.87,1.34,1.67,2.26,1.29,2.5-.83,5.04-3.16,4.09-6.02Z"/><path class="cls-5" d="M69.46,60.71c-.1.05-.26.11-.37.18.17-.06.08-.01-.05.03-.01,0-.03.01-.04.02,0,0,.02-.01.03-.02-.37.15-.76.23-1.16.3-.42.04-.84.04-1.26,0-.04,0-.07-.01-.08-.01-.58-.1-1.13-.27-1.68-.48-.08-.03-.2-.09-.2-.09-.87-.4-2.02-.28-2.52.66-.43.81-.27,2.09.66,2.52,3.55,1.83,8.01,1.34,10.79-1.62.69-.67.72-1.94,0-2.6-1.2-1.09-2.44-.31-3.33.66-.32.2-.5.31-.79.47ZM70.31,60.2s-.01,0-.02.01c0,0,.01,0,.02-.01Z"/><path class="cls-5" d="M69.09,60.88s-.04.02-.06.03c0,0,0,0,0,0,.01-.01.03-.02.05-.03Z"/><path class="cls-5" d="M217.73,39.34c-2.37,0-2.37,3.68,0,3.68s2.37-3.68,0-3.68Z"/><path class="cls-5" d="M231.21,46.53c2.37,0,2.37-3.68,0-3.68s-2.37,3.68,0,3.68Z"/><path class="cls-5" d="M216.01,54.61c.85,1.61,2.56,2.36,4.21,2.86,2.35.57,3.29-2.81.98-3.55-.78-.2-1.75-.64-1.97-1.08-.02-.06-.04-.12-.05-.18,0-.07,0-.08-.02-.01,0-.01,0-.01,0-.03,0-.02,0-.01,0-.03.03-.04.05-.08.08-.12,2.92-2.43,4.93-5.89,5.16-9.73-.06-2.41-3.57-2.43-3.68,0-.18,2.67-1.72,5.09-3.77,6.84-1.45,1.34-1.87,3.25-.93,5.02Z"/><path class="cls-5" d="M226.95,60.77c-.35.2-.71.39-1.07.55-.54.22-1.05.36-1.61.46-.44.03-.88.05-1.31,0-.5-.08-.85-.2-1.31-.36-.46-.19-.86-.44-1.26-.71-.06-.04-.58-.44-.29-.21-.75-.6-1.88-.79-2.6,0-.61.67-.8,1.96,0,2.6,1.67,1.33,3.51,2.24,5.66,2.38,2.01.15,7.84-1.12,6.32-4.05-.54-.84-1.63-1.18-2.52-.66Z"/><path class="cls-5" d="M14.11,159.31c4.16,8.77,5.43,18.08,5.52,27.53,0,1.03.84,1.87,1.87,1.87h0c1.03,0,1.88-.84,1.88-1.87-.03-8.62-1.02-17.13-4.34-25.24-4.59-10.57-6.82-21.85-9.65-32.97-.96-3.59-2.01-7.2-2.35-10.91-.64-7.11,1.45-15.19,6.35-20.54,5.53-5.62,11.81-10.59,18.21-15.19,9.72,15.62,20.37,30.68,29.2,46.85-3.31-2.69-6.59-5.42-10.05-7.92-4.8-3.47-8.17-8.82-11.78-13.42-3.81-4.84-8.54-11.03-15.01-12.19-2.32-.42-3.31,3.13-.98,3.55,5.54,1,9.59,6.47,12.87,10.6,3.7,4.66,7.05,10,11.77,13.71,9.48,7.04,18.13,15.35,28.82,20.59,9.5,5.29,17.9,12.47,27.66,17.32-2.96,5.93-5.93,11.86-8.89,17.79-14-6.4-28.32-12.24-42.21-18.79-5.71-3.44-11.27-7.19-16.78-10.94-7.28-5.11-15.29-10.24-21.21-16.69-.61-.79-1.58-1.2-2.52-.66-.78.44-1.27,1.73-.66,2.52,5.18,6.21,12.18,10.6,18.65,15.34,5.51,3.85,11.12,7.56,16.79,11.17,2.83,1.8,5.8,3.38,8.87,4.74,11.91,5.28,23.82,10.57,35.73,15.85.16,1.86.29,3.72.39,5.58.05.97.85,1.73,1.82,1.73h0c1.05,0,1.88-.88,1.83-1.92-.04-.86-.09-1.72-.15-2.59.15.3.41.56.81.75,1.98.93,3.97,1.85,5.95,2.78,1.78.71,4.7,3,5.64.07,1.54.59,3.29,2.64,4.97,1.54,1.08-.71.99-2.46-.14-3.08-1.1-.59-2.16-1.24-3.28-1.78,2.27-4.87,4.54-9.73,6.81-14.6l2.66.22c.68,2.08,2.17,1.5,2.93.78.5-.36,1.03-.67,1.59-.94.45-.24,1-.33,1.5-.43.02,0,.05,0,.1,0,.37-.02.73-.02,1.1.02,1.37.11,2.36-1.71,1.53-2.79-1.64-2.06-5.68-.39-7.51.85-.79-.33-1.58-.66-2.36-.98.47-.87.47-2.21-.57-2.7-3.07-1.39-6.1-2.92-9.19-4.24-.12-.42-.37-.78-.79-.98-1.32-.62-2.66-1.16-3.88-1.95-.7-.46-1.45-.83-2.18-1.26.43.08.87.02,1.23-.16.52-.26.89-.77.81-1.56-1.35-13.63-2.77-27.25-4.32-40.86-.52-4.6-1.06-9.2-1.67-13.79-.09-.7-.43-1.32-1.01-1.63-3.14-10.46-15.2-15.53-24.74-18.81-.13-.07-.28-.13-.45-.17,0,0,0,0-.01,0,.01,0,.02.02.03.02-.03-.01-.05-.02-.07-.03-.27-.06-.52-.11-.81-.14,0,0,0,0-.01,0-.4-.71-.8-1.42-1.2-2.13,5.27-1.98,8.08-7.56,9.42-12.73,1.72-7.57.69-15.47.09-23.13-.28-2.32-3.97-2.35-3.68,0,.59,6.14,1.05,12.36.74,18.53-1.06,13.07-11.49,19.69-22,10.15-1.7-1.65-4.31.95-2.6,2.6,3.64,3.53,8.9,5.82,13.92,5.49-.47.94-.91,1.9-1.51,2.75-.18.22-.4.42-.61.61-.24.12-.38.2-.6.31-.39.17-.83.21-1.21.41,0,0,0,0,0,0-8.64-3.22-16.22-8.97-23.34-14.72-.03-1.43-.07-2.87-.1-4.3,1.41.89,4.12,1.88,4.84-.29.24-.87-.3-2.12-1.29-2.26-.35-.05-.7-.14-1.03-.27-2.72-1.37-4.62-4.62-5.1-7.6-.04-.38-.05-.77,0-1.15,0-.01,0,0,0-.02.22-1.43,1.37-3.17,2.59-3.41.36-.04,0-.03.3.03,0-.02,0-.02-.03-.05.13.19.28.35.45.48.72,2.89,2.28,5.59,4.62,7.47.59.47,1.28.7,2.01.38.66-.29,1.14-.94,1.13-1.68-.05-2.73.3-5.45.35-8.18,1.48-.92,2.56-2.35,3.15-4.01,3.31-.04,6.42-1.38,8.55-4.1,3.67.26,7.09-1.85,9.6-4.37,2.5-2.21,3.86-5.25,4.38-8.5.56-2.3-2.99-3.28-3.55-.98-.28,1.13-.43,2.37-.87,3.45-1.32,2.65-3.78,4.93-6.45,6.16.66-1.37,1.19-2.8,1.58-4.27.16-.53.29-1.07.4-1.6.45-2.31-3.08-3.31-3.55-.98-.09.47-.22.92-.34,1.37-.84,2.9-2.45,5.67-4.48,7.87-1.9,2.05-4.08,2.39-6.78,2.27-1.21-.05-1.8.89-1.77,1.83-.08.32-.16.64-.29.95.09-.21-.15.3-.15.29-.25.48-.55.92-1,1.3-.2.15-.42.3-.64.4-.43.08-1.55.85-1.46,1.82.02,1.43-.07,2.86-.17,4.29-.48-.93-.86-2.22-.99-3.23-.09-1.17-1.16-2.16-2.36-1.75-2.93-1.21-6.04,1.25-7.2,3.94-4.66-8.43-9.41-20.07-2.81-28.72,1.62-2.13,4.52-4.66,7.44-4.85.44.26.99.29,1.49.13.39.09.78.23,1.16.44,2.08,1.13,3.95-2.05,1.86-3.18-.55-.3-1.1-.52-1.67-.68.58-1.87,3.54-2.62,5.21-2.86,7.5-.84,14.77,2.52,21.15,6.13,6.8,3.96,9.67,13.71,8.99,21.2-.29,2.34,3.39,2.32,3.68,0,.7-7.39-2.09-16.79-7.46-22.04-2.81-2.54-6.6-4.2-10.03-5.71-4.41-1.95-9.2-3.44-14.07-3.41-4.36.03-10.48,1.79-11.18,6.45-7.67,1.33-12.93,9.18-13.51,16.63-.43,5.3,1.35,11.03,3.36,15.87,1.33,3.21,2.96,6.36,4.89,9.26.26.39.59.62.95.74.39,1.93,1.29,3.8,2.43,5.41-.31,2.97.12,6.06.08,9.06-1.04,3.41-2.07,6.83-3.11,10.24-4.53,3.01-8.79,6.41-12.9,9.97-8.49,6.78-13.42,12.69-14.74,23.83-.67,5.35.44,10.64,1.81,15.8,2.82,10.64,4.77,21.59,8.85,31.85ZM95.7,183.14s0-.1-.01-.15c.02,0,.03,0,.05.01-.02.05-.03.09-.04.14ZM114.14,166.35c-2.71,5.81-5.42,11.61-8.12,17.42-.19.42-.39.83-.58,1.25-2.5-1.1-4.94-2.44-7.48-3.41,3.08-6.17,6.17-12.33,9.25-18.5,2.31,1.08,4.63,2.16,6.94,3.24ZM40.41,88.8c3.21,2.63,6.43,5.26,9.64,7.89,1.69,1.25,4.58,4.76,5.9,1.21,1.05,2.91,2.36,5.77,3.95,8.4.44,5.27.88,10.54,1.33,15.82-6.56-11.33-13.66-22.34-20.82-33.31ZM66.26,133.11c.36-.51.47-1.18.09-1.89-.26-.49-.54-.97-.8-1.45-.62-7.43-1.25-14.86-1.87-22.28,1.53-.24,3.05-.48,4.58-.72,2.49,3.71,4.83,7.53,6.68,11.6,1.71,3.75,2.86,7.72,3.64,11.76.1.5.34.83.65,1.05.17,3.36.27,6.72.29,10.08-4.55-2.49-9.17-4.89-13.25-8.14ZM69.85,95.84c1.34.9,2.79,2.28,4.49,2.21,1.61,5.99,2.75,12.1,3.56,18.25-1.95-4.23-4.35-8.26-7.01-12.2-.32-2.76-.66-5.51-1.04-8.26ZM86.93,90.2c8.74,6.67,6.2,12.8,5.81,22.31-.31,5.2-.58,10.41-1.06,15.6-.23,2.36,3.45,2.34,3.68,0,.32-3.2.57-6.43.8-9.65,1.13,10.12,2.15,20.25,3.17,30.37.33,1.75.08,4.4.88,5.88-5.84-3.57-11.32-7.61-17.09-11.26.34-13.39-.87-27.19-3.73-40.4,2.09.32,4.19.65,6.28.97.81.12,1.33.06,1.39,1.05-.12,6.1-.7,12.26-1.01,18.37-.34,4.85-.76,9.69-1.44,14.51-.14.99.24,1.97,1.29,2.26.86.25,2.13-.3,2.26-1.29,1.23-8.75,1.78-17.58,2.2-26.41.12-5.14,2.49-12.08-5.12-12.27-.91-4.8-2.24-9.55-4.42-13.94,2.16,1.13,4.23,2.4,6.12,3.89ZM75.32,83.8c2.92,4.89,4.96,10.25,6.04,15.85-.96-.15-1.92-.3-2.89-.45-1.43-5.59-3.19-11.08-5.61-16.32.82.29,1.64.6,2.46.92ZM63.21,80.3s-.07.08-.14.12c.06-.05.13-.11.14-.12ZM61.97,84.63c2.44-.17,4.45-1.94,5.53-4.05.21.34.36.73.65,1.02,2,3.84,3.59,7.88,4.9,12.01-.51-.3-.97-.7-1.44-1.02-.94-.75-1.85-1.53-2.63-2.46-.11-3.09-3.14-4.89-6-4.93-2.37-.12-2.36,3.56,0,3.68.76.04,1.38.23,1.94.63.09.08.18.18.27.27.82,4.46,1.4,8.96,1.93,13.46-1.34.21-2.68.42-4.02.63-.17-.23-.4-.42-.65-.55-1.89-3.21-3.01-6.83-4.32-10.24,1.28-2.82,2.56-5.64,3.84-8.46ZM65.3,89.89s0,0,0,0c0,0,0,0,0,0,.02.02.04.05.06.07.14.12-.2-.12-.13-.14.02.02.04.05.06.07ZM65.24,89.83s0,0,.01,0c0,0,.02.02.02.04-.01-.01-.02-.02-.03-.03ZM37.01,71.07c.13-.07.25-.16.36-.26,6.48,5.06,13.26,9.94,20.85,13.18-1.61,3.56-3.23,7.12-4.85,10.68-6.28-5.14-12.57-10.28-18.85-15.42.83-2.73,1.66-5.46,2.48-8.19Z"/><path class="cls-6" d="M128.18,151.25c-.85-2.24-1.7-4.48-2.55-6.72-.6-1.58-2.99-.5-2.4,1.08.85,2.24,1.7,4.48,2.55,6.72.6,1.58,2.99.5,2.4-1.08Z"/><path class="cls-6" d="M135.57,151.98c.26-2.16.52-4.33.77-6.49.2-1.68-2.41-1.93-2.62-.25-.26,2.16-.52,4.33-.77,6.49-.2,1.68,2.41,1.93,2.62.25Z"/><path class="cls-6" d="M140.46,153.82c-.6,1.58,1.85,2.52,2.45.93.83-2.17,1.65-4.35,2.48-6.52.6-1.58-1.85-2.52-2.45-.93l-2.48,6.52Z"/></g></g></svg>