<?xml version="1.0" encoding="UTF-8"?><svg id="_レイヤー_2" xmlns="http://www.w3.org/2000/svg" xmlns:xlink="http://www.w3.org/1999/xlink" viewBox="0 0 300 212"><defs><style>.cls-1{fill:#fff;}.cls-2{fill:none;}.cls-3{fill:#00a3df;}.cls-4{fill:#73c8d3;}.cls-5{clip-path:url(#clippath);}.cls-6{fill:#2e2e2e;}</style><clipPath id="clippath"><rect class="cls-2" width="300" height="212"/></clipPath></defs><g id="_レイヤー_1-2"><g class="cls-5"><path class="cls-4" d="M158.59,55.4s0-.04,0,0h0Z"/><path class="cls-4" d="M155.57,99.97s-.08-.06,0,0h0Z"/><path class="cls-1" d="M126.54,40.24c-.02.07-.05.14-.07.21-.11.36-.09.33-.09.63,0,.27.01.35.13.68-.02-.07.11.24.11.24.06.1.12.2.19.3.03.02.19.2.19.2,0,0,.18.15.21.17.1.07.21.13.32.19.03.01.04.02.06.03,0,0,.01,0,.02,0,1,.32,1.96.02,2.48-.9.11-.2.12-.25.22-.54.13-.37.26-.73.38-1.1.26-.76.53-1.51.79-2.27.06-.17.12-.34.18-.51.05-.17.11-.34.13-.51,0-.04,0-.28,0-.27,0,0-.03-.24-.02-.27-.18-.91-.74-1.45-1.64-1.65-.31-.07-.86.02-1.14.16-.26.13-.43.26-.52.35-.25.24-.25.25-.39.5-.12.22-.1.21-.2.49-.09.26-.18.52-.27.79-.27.78-.54,1.56-.82,2.34-.09.25-.17.49-.26.74Z"/><path class="cls-4" d="M165.84,57.13s.05.03,0,0h0Z"/><path class="cls-4" d="M164.01,56.34s-.02,0-.03,0c0,0,.02,0,.03,0Z"/><path class="cls-4" d="M124.72,107.04s-.04.03,0,0h0Z"/><path class="cls-1" d="M117.19,149.79c2.19,1.15,4.45,2.19,6.67,3.29,3.69,1.82,7.37,3.64,11.06,5.46,1.26.62,2.52,1.25,3.78,1.87.91.45,1.77.92,2.69.23.44-.33.66-.88.9-1.37.43-.84.86-1.68,1.29-2.51.46-.9.92-1.8,1.38-2.69-.76-.35-1.52-.7-2.29-1.05-4.98-2.28-9.96-4.58-14.92-6.9-2.17-1.02-4.34-2.04-6.5-3.09-.51-.25-1.01-.5-1.51-.75-.79,1.11-1.59,2.21-2.38,3.32-.38.53-.91,1.1-1.17,1.7-.42.97.02,1.99.98,2.5Z"/><path class="cls-4" d="M120.15,139.46s.05.03.07.04c-.32-.3-.16-.08-.07-.04Z"/><path class="cls-4" d="M165.76,57.07s-.02-.02-.03-.02c0,0,.02.02.03.02Z"/><path class="cls-4" d="M247.96,147.21c-.05-.06-.07-.08,0,0h0Z"/><path class="cls-4" d="M123.28,37.32s-.01-.02,0,0h0Z"/><path class="cls-1" d="M135.16,45.8c-1.57-3.33.85-6.66,3.87-8.04.76-.35,1.55-.6,2.36-.79,0-.03,0-.07,0-.1,0,0,0,0,0-.01,0,0,0,0,0,0-.03-.03-.05-.06-.08-.09-.07-.07-.14-.14-.21-.21-.04-.04-.09-.08-.13-.11-.08-.05-.16-.11-.25-.16-.12-.07-.24-.13-.36-.2-.02,0-.02-.01-.03-.02-.01,0-.02,0-.03,0-.19-.06-.39-.11-.59-.15-.06,0-.22-.03-.27-.03-.1,0-.2,0-.3.01.35-.01,0,0-.09.03-.12.03-.25.07-.37.11-.22.07-.44.15-.66.24-.05.02-.13.06-.16.07-.13.06-.26.13-.39.2-.22.12-.44.26-.65.41-.02.01-.03.02-.04.02,0,0-.02.02-.04.04-.11.1-.22.19-.32.3-.08.08-.15.16-.23.24-.03.03-.05.06-.08.1,0,.01-.02.04-.06.08-.14.22-.26.43-.38.66-.02.05-.06.14-.07.18-.06.16-.1.33-.15.49-.19.72-.94,1.09-1.64.93-.05-.01-.1-.03-.15-.05-.22.64-.44,1.27-.67,1.91-.34.96-.69,1.88-1.47,2.6-1.24,1.14-3.02,1.55-4.63,1.03-.09-.03-.17-.07-.25-.11-.78-.32-1.45-.82-1.95-1.46-.33.87-.7,1.7-1.43,2.32-1.27,1.09-3.03,1.5-4.62.93-.09-.03-.18-.07-.26-.12-1.65-.73-2.75-2.24-2.86-4.07-.05-.81.19-1.55.46-2.29l-1.17.66s.03.03.04.05c.38.66.11,1.41-.48,1.82-2.22,1.55-4.95,2.19-7.5,2.98-1.12.34-2.24.7-3.3,1.19-.8.37-1.3.85-1.79,1.57-1.29,1.92-2.14,4.09-3.54,5.95-.36.47-.74.92-1.12,1.37-.09.1-.17.21-.25.31-.02.02-.14.18-.18.23-.51.67-1.01,1.34-1.5,2.02-.66.92-1.32,1.84-1.97,2.76-.41.59-1.16.87-1.82.48-.12-.07-.23-.17-.33-.29l-.66.6c.64,1.22,1.39,2.46,2.13,3.58,2.2,3.3,4.91,6.49,8.16,8.8,1.44,1.03,2.88,1.84,4.51,2.25.76.19,1.15.25,1.98.21l1.4-2.27c-.13-.06-.26-.14-.36-.24-.54-.54-.46-1.34,0-1.89.93-1.1,1.95-2.13,3.03-3.08.85-.74,1.76-1.47,2.76-2,1.1-.58,2.27-.79,3.49-.95,2.4-.31,4.83-.26,7.25-.45.96-.08,1.93-.21,2.8-.65.89-.45,1.62-1.09,2.29-1.83,1.47-1.63,2.64-3.54,4.01-5.26,1.16-1.45,2.38-2.77,3.77-3.99.77-.68,1.54-1.35,2.29-2.06.75-.7,1.53-1.47,2.45-1.95.1-.05.21-.1.31-.16.13-.09.15-.1.13-.09,0,0,0,0,0,0,0,0,0,0,0,0-.01,0-.02.01-.03.01-.02.01-.04.02-.05.03.02-.02.03-.03.05-.04,0,0,0-.02.02-.04.01-.02.02-.03.03-.04.1-.28.08-.44.03-.64-.06-.25-.1-.35-.16-.47-.02-.03-.21-.35-.2-.34-.1-.12-.31-.33-.34-.36.06.04-.45-.23-.25-.15-1.85-.7-3.71.19-5,1.3-.93.79-1.84,1.56-2.91,2.17-1.1.64-2.17,1.22-3.07,2.14-1.2,1.23-3.09-.66-1.89-1.89,1.16-1.19,2.57-1.91,3.97-2.76,1.08-.66,1.95-1.56,2.96-2.31.09-.06.17-.12.26-.18-.08-.11-.14-.24-.2-.37-.38-.07-.73-.27-.9-.62ZM125.91,54.73c-.18.65-.96,1.18-1.64.93-5.04-1.83-10.94-.88-15.04,2.64-.55.47-1.34.54-1.89,0-.48-.48-.55-1.42,0-1.89,4.78-4.11,11.67-5.49,17.63-3.32.68.25,1.14.9.93,1.64Z"/><path class="cls-3" d="M163.74,43.99c-.24.72-1.06,1.29-1.92.81-1.18-.65-2.37-1.28-3.56-1.9-.92-.47-1.84-.93-2.77-1.38-.88-.42-1.66-.78-2.4-1.07-1.73-.67-3.62-.98-5.45-1.15-1.46-.14-2.96-.18-4.42.02-.25.13-.53.18-.82.13-.58.11-1.15.27-1.71.48-.93.34-1.82.9-2.49,1.64-.65.72-1.18,1.92-.73,2.88.31.65.19,1.43-.48,1.82-.27.16-.61.2-.93.15.06.13.13.25.2.37.92-.63,1.97-1.1,3.07-1.27,1.37-.21,3.04-.13,4.22.67,1.72,1.16,2.72,3.8,1.46,5.64-.58.84-1.58,1.18-2.31,1.8,3.31,1.91,6.88,3.24,10.64,3.97.71.14,1.11.99.93,1.64-.04.15-.11.27-.18.38.48.14.98.27,1.5.38.18-.88.36-1.77.56-2.63-.17-.23-.28-.51-.29-.8-.02-3.58,1.75-6.92,4.6-9.04.33-.24.74-.24,1.1-.09.65-.85,1.6-1.52,3.01-1.58,0-.21.05-.43.17-.64.05-.08.11-.16.18-.23-.39-.36-.77-.7-1.18-1Z"/><path class="cls-3" d="M184.82,47.69c-3.2-1.75-6.5-3.34-9.78-4.59-1.22-.46-2.45-.89-3.7-1.26-.13.04-.26.06-.4.05-3.42-.41-6.85-.66-10.29-.77.84.45,1.68.91,2.51,1.37.63.35.76.96.58,1.49.41.3.79.64,1.18,1,.41-.43,1.14-.6,1.65-.25,2.02,1.4,4.04,2.79,6.13,4.09,6.52,4.06,14.44,7.34,22.1,5.12-3.19-2.3-6.55-4.38-9.98-6.26Z"/><path class="cls-1" d="M199.68,88.07c1.66.02,3.24-.52,4.65-1.45,2.59-1.71,4.54-4.85,4.75-7.97.09-1.28-.37-2.57-1.39-3.21-1.17-.74-2.53-.41-3.77.39-1.45.93-2.78-1.38-1.35-2.3.39-.25.81-.47,1.24-.65-1.3-.74-3.08.98-4.83,2.07.14.15.25.32.32.54.11.34.03.72-.13,1.03-.15.29-.49.53-.8.61-.31.08-.76.05-1.03-.13-.17-.12-.34-.24-.5-.35-1.18-.83-2.37-1.67-3.55-2.5-.3-.21-.5-.45-.61-.8-.11-.34-.03-.72.13-1.03.15-.29.49-.53.8-.61.24-.07.56-.06.82.03.14-.49.25-.97.34-1.47-.07-.05-.14-.1-.21-.14-.3-.21-.5-.45-.61-.8-.11-.34-.03-.72.13-1.03.15-.29.49-.53.8-.61.06-.02.13-.02.2-.03.03-.78.02-1.57-.04-2.36-.69-.53-1.39-1.05-2.08-1.58-.6-.45-.85-1.12-.48-1.82.31-.58,1.27-.9,1.82-.48.04.03.09.07.13.1-.36-1.5-.86-2.99-1.47-4.45-1.12.17-2.26.26-3.39.26-9.21-.03-17.07-5.26-24.36-10.3-.41-.28-.66-.72-.65-1.19-1.41.06-2.36.72-3.01,1.58.3.12.56.32.72.57.42.65.08,1.41-.48,1.82-.03.02-.05.03-.06.05,0,0,0,0,0,0-.08.07-.16.13-.23.19-.14.12-.27.24-.4.37-.25.24-.48.49-.7.76-.01.01-.1.12-.13.17-.03.04-.06.09-.07.1-.11.15-.21.3-.31.45-.19.29-.36.59-.51.9-.07.15-.14.29-.21.44-.01.03-.04.09-.05.13-.03.08-.06.15-.08.23-.12.34-.23.7-.31,1.05-.04.18-.08.36-.11.54-.01.07-.02.13-.03.2,0,.02,0,.03,0,.05-.03.37-.05.73-.05,1.1,0,.75-.61,1.3-1.33,1.33-.42.02-.8-.21-1.05-.53-.2.87-.38,1.75-.56,2.63.71.15,1.45.25,2.24.25-.79,0-1.53-.1-2.24-.25-.15.75-.3,1.5-.46,2.25.75.06,1.5.7,1.27,1.65-1.57,6.64-2.67,13.3-3.38,20.09-.43,4.12-.77,8.53.44,12.5.28.93.61,1.69,1.2,2.53.08.11.22.29.42.49.16.16.33.32.5.47.02.01.04.03.07.05.13.09.27.18.41.27.32.21.64.41.97.61,1.31.8,2.66,1.49,4.06,2.06l.48-.54-.48.54c1.31.53,2.66.96,4.06,1.25,5.49,1.16,11.38-.35,16.18-3.09,4.85-2.76,8.65-6.74,11.75-11.33.96-1.42,3.27-.08,2.3,1.35-3.74,5.54-8.52,10.42-14.64,13.29-2.89,1.36-5.95,2.28-9.12,2.67-2.49.31-4.97.16-7.4-.37,0,.07.02.13.02.21.02,2.33.09,4.66.22,6.98.07,1.18.26,2.34.35,3.52.13,1.72.03,3.43-.3,5.12-.08.38-.36.67-.7.83l.34,1.92c2.46-1.34,4.92-2.68,7.36-4.04,6.09-3.39,12.13-6.88,18.02-10.61,4.6-2.92,9.25-5.87,13.23-9.53-.72,0-1.25-.65-1.29-1.33-.02-.32-.03-.64-.05-.95-.12-2.21-.23-4.42-.35-6.62-.04-.75.64-1.3,1.33-1.33.26-.01.5.07.7.2l.02-.92c-1.1.38-2.25.59-3.45.57-1.72-.02-1.72-2.69,0-2.67ZM169.65,61.16c.76.21,1.03.93.93,1.64-.31,2.14-.86,4.32-2.06,6.15-1.14,1.74-2.74,3.03-4.48,4.14-.61.39-1.47.13-1.82-.48-.37-.64-.13-1.44.48-1.82.42-.27.83-.54,1.22-.83.04-.03.14-.1.17-.12.07-.05.14-.11.2-.16.17-.14.34-.29.51-.44.32-.29.62-.6.9-.92.07-.08.14-.16.2-.24.01-.01.01-.02.02-.03,0-.01.01-.02.03-.04.11-.16.22-.32.33-.48.24-.37.44-.75.63-1.15.02-.05.05-.11.07-.16,0-.02.07-.17.09-.21.09-.22.17-.45.24-.68.34-1.05.55-2.14.71-3.23.1-.72,1.01-1.1,1.64-.93ZM163.71,60.94c1.72,0,1.72,2.67,0,2.67s-1.72-2.67,0-2.67ZM161.97,53.96c2.29-.79,4.83.15,6.4,1.91.49.56.51,1.33,0,1.89-.47.51-1.42.52-1.89,0-.16-.18-.32-.35-.5-.5-.06-.05-.13-.11-.19-.16-.03-.02-.07-.05-.1-.07-.18-.13-.38-.24-.58-.34-.03-.02-.15-.07-.2-.09-.05-.02-.11-.04-.13-.05-.21-.07-.43-.13-.65-.17-.01,0-.03,0-.04,0-.12,0-.23-.02-.35-.02-.11,0-.21,0-.32.01-.02,0-.05,0-.07,0-.23.05-.45.1-.67.18-.71.24-1.43-.28-1.64-.93-.23-.72.27-1.41.93-1.64ZM160.69,76.97c.04-.17.12-.32.24-.45.09-.15.22-.26.37-.34.15-.1.32-.15.5-.16.18-.04.35-.03.53.02.06.02.12.05.17.07.41.17.81.34,1.22.51.23.06.42.18.59.34l.21.27c.12.21.18.43.18.67-.02.12-.03.24-.05.35-.04.17-.12.32-.24.45-.09.15-.22.26-.37.34-.15.1-.32.15-.5.16-.18.04-.35.03-.53-.02-.06-.02-.12-.05-.17-.07-.41-.17-.81-.34-1.22-.51-.23-.06-.42-.18-.59-.34-.07-.09-.14-.18-.21-.27-.12-.21-.18-.43-.18-.67.02-.12.03-.24.05-.35ZM170.54,90.37c-2.67.2-5.44-.68-7.91-1.59-1.55-.57-3.09-1.21-4.56-1.95-.65-.33-.82-1.23-.48-1.82.38-.65,1.18-.8,1.82-.48,1.45.73,2.47,1.15,3.93,1.68,1.23.46,2.49.86,3.78,1.16,1.22.28,2.14.44,3.43.34.72-.05,1.33.65,1.33,1.33,0,.76-.62,1.28-1.33,1.33ZM179.38,68.99c-1.72,0-1.72-2.67,0-2.67s1.72,2.67,0,2.67ZM187.08,65.7c-.48.48-1.42.55-1.89,0-.6-.72-1.21-1.42-1.89-2.07-.16-.15-.31-.29-.48-.43-.07-.06-.15-.12-.22-.18-.01-.01-.02-.02-.02-.02,0,0,0,0-.01-.01-.3-.22-.62-.43-.95-.61-.15-.08-.31-.16-.46-.23-.02,0-.04-.02-.07-.03-.08-.03-.16-.06-.25-.08-.19-.06-.37-.11-.56-.15-.09-.02-.18-.03-.26-.05-.02,0-.03,0-.04-.01-.01,0-.02,0-.04,0-.39-.04-.78-.05-1.17-.03-.23.01-.46.03-.7.06-.02,0-.02,0-.03,0-.02,0-.04,0-.08.01-.14.02-.28.05-.41.07-.71.14-1.44-.19-1.64-.93-.18-.66.22-1.5.93-1.64,2.04-.39,4.06-.34,5.95.6,1.73.86,3.08,2.37,4.29,3.83.46.55.55,1.34,0,1.89Z"/><path class="cls-1" d="M209.29,73.32c.75.54,1.29,1.18,1.68,1.89.1-.21.2-.42.3-.63.03-.07.06-.13.08-.2-.01.02-.02.04-.03.06,0,0,0,0,0,0-.03.09-.12.28,0,0,.05-.12.1-.25.15-.37.1-.27.2-.55.29-.83-.05-.16-.07-.32-.06-.48-.05-.06-.1-.14-.13-.21-1.64-3.84-4.15-7.16-7-10.16-2.24-2.37-4.69-4.54-7.26-6.56-.12.09-.26.17-.41.23-1.26.48-2.58.82-3.92,1.02.61,1.46,1.11,2.95,1.47,4.45,2.15,1.63,4.3,3.26,6.45,4.89.6.45.85,1.12.48,1.82-.31.58-1.27.9-1.82.48-1.5-1.14-3-2.28-4.51-3.41.06.79.07,1.57.04,2.36.28-.03.62.01.83.17.17.12.34.24.5.35,1.18.83,2.37,1.67,3.55,2.5.3.21.5.45.61.8.11.34.03.72-.13,1.03-.15.29-.49.53-.8.61-.31.08-.76.05-1.03-.13-.17-.12-.34-.24-.5-.35-1.12-.78-2.23-1.57-3.35-2.35-.09.49-.21.98-.34,1.47.08.03.15.06.21.1.17.12.34.24.5.35,1.18.83,2.37,1.67,3.55,2.5.11.08.21.16.29.26,1.74-1.09,3.53-2.81,4.83-2.07,1.79-.74,3.83-.76,5.48.43Z"/><path class="cls-1" d="M129.32,108.59c.39-.67,1.17-.77,1.82-.48,4.1,1.8,8.19,3.6,12.29,5.39.66.29.81,1.26.48,1.82-.06.11-.14.19-.22.27l1.65.68c3.24-2.96,6.47-5.92,9.71-8.89l-2.95-1.53c.33.42.44.97.14,1.49-.34.58-1.24.9-1.82.48-2.51-1.84-5.38-3.37-8.31-4.4-1.95-.69-3.99-1.17-6.08-1.06-2.23.11-4.45.8-6.46,1.74-1.52.71-2.98,1.57-4.34,2.55-.13.09-.25.18-.37.27-.04.03-.07.05-.1.07-.08.06-.16.12-.23.19-.13.1-.27.19-.41.28l5.07,2.1c-.07-.34-.03-.72.14-.99Z"/><path class="cls-3" d="M216.49,170.24c.43-2.24,1.21-4.39,2.15-6.47,1.82-4.04,4.4-7.86,7.64-10.9,2.4-2.26,5.26-4.12,8.44-4.94l-.82-.82c-.48.41-1.21.55-1.82.01-1.82-1.61-3.65-3.21-5.51-4.78-6.52-5.51-13.34-10.82-20.86-14.9-.46-.25-.65-.63-.66-1.03l-8.55-4.27c-2.3,2.4-4.58,4.8-6.86,7.22-2.39,2.54-4.76,5.1-7.08,7.71-.83.94-1.66,1.88-2.46,2.85-.17.2-.33.4-.49.61-.06.08-.31.41-.03.03-.06.08-.12.15-.18.23-.19.25-.38.51-.54.78-.41.68-1.53.94-2.09.27-1.64-1.94-2.63-4.18-3.69-6.46-.95-2.06-2.05-4.03-4.03-5.27-1.45-.91-.11-3.22,1.35-2.3,2.2,1.38,3.65,3.42,4.76,5.73.82,1.71,1.53,3.51,2.55,5.11.22-.27.44-.53.65-.79.95-1.14,1.93-2.26,2.92-3.36,4.98-5.56,10.15-10.95,15.32-16.33,3.02-3.14,6.05-6.27,9.1-9.38.24-.24.5-.36.76-.39-.07-.59-.15-1.18-.22-1.77-.09-.72.68-1.33,1.33-1.33.4,0,.71.16.94.41-.05-2.07-.41-4.16-2.31-4.4-.06.19-.16.37-.34.54-2.26,2.25-4.84,4.19-7.43,6.04-5.72,4.09-11.76,7.74-17.84,11.27-5.16,3-10.38,5.88-15.62,8.72-.88.48-1.7-.1-1.93-.83-.71.69-1.11,1.57-1.36,2.54.52.18.91.68.91,1.26v9.34c0,.72-.61,1.33-1.33,1.33s-1.33-.61-1.33-1.33v-9.34c0-.72.61-1.33,1.33-1.33.15,0,.29.03.42.08.25-.97.65-1.86,1.36-2.54-.17-.53-.04-1.13.59-1.47.17-.09.33-.18.5-.27l-.34-1.92c-.3.14-.64.18-.94.1-.73-.2-1.07-.93-.93-1.64.54-2.75,0-5.41-.15-8.15-.12-2.25-.19-4.5-.2-6.75,0-.36.11-.63.29-.84-.9-.29-1.8-.63-2.69-1.01l-1.09,1.21c.52.46.73,1.27.07,1.87-6.74,6.17-13.48,12.35-20.23,18.52.43-.04.85-.09,1.26-.15,3.58-.49,7.11-1.34,10.66-2.03,3.11-.6,6.4-1.3,9.58-1.01.72.06,1.33.56,1.33,1.33,0,.68-.62,1.4-1.33,1.33-1.58-.14-3.25,0-4.76.21-3.58.49-7.11,1.34-10.66,2.03-3.11.6-6.4,1.3-9.58,1.01-1.07-.09-1.87-1.43-.94-2.28,3.95-3.62,7.9-7.24,11.86-10.86l-1.65-.68c-.42.41-1.05.45-1.61.21-4.1-1.8-8.19-3.6-12.29-5.39-.34-.15-.54-.47-.61-.83l-5.07-2.1c-.68.44-1.43.68-2.27.73-1.29.07-2.57-.38-3.73-.91-1.03-.47-1.94-1.17-3-1.6-1.55-.64-2.77-.75-4.43-.66-1.53.08-3.05.29-4.59.2-2.4-.14-4.64-.84-6.82-1.81-.62-.27-.78-1.13-.53-1.7l-1.86-.43c-1.39,2.1-2.77,4.2-4.16,6.3-.94,1.43-3.25.09-2.3-1.35.77-1.16,1.53-2.32,2.3-3.49,1.95-2.96,3.91-5.92,5.86-8.88-1.7-.12-3.39-.49-5-1.07-6.88-2.47-12.99-8.06-15.8-14.84-.28-.67.3-1.47.93-1.64.76-.21,1.37.27,1.64.93.67,1.61,1.61,3.14,2.67,4.52,2.05,2.69,4.68,4.99,7.59,6.7,2.69,1.59,5.73,2.72,8.88,2.77.27,0,.5.08.68.2.88-1.34,1.76-2.67,2.64-4.01,1.68-2.55,3.36-5.1,5.04-7.65-1.17.15-2.37.06-3.55-.27-4.05-1.11-7.49-4.19-10.23-7.25-2.19-2.45-4.12-5.16-5.68-8.06h-.01s.01,0,.01,0c-.36-.67-.7-1.35-1.02-2.04-4.95,5.92-10.07,11.76-15.61,17.13-1.49,1.44-3.02,2.84-4.67,4.11-1.88,1.45-3.82,2.82-5.65,4.32-4.46,3.65-8.95,7.76-11.84,12.8-1.2,2.1-2.11,4.43-2.04,6.78.07,2.39,1.19,4.72,2.58,6.71,1.69,2.43,3.89,4.5,6.16,6.38,2.37,1.97,4.9,3.73,7.48,5.39,8.75,5.64,17.91,10.68,27.02,15.72,5.33,2.95,10.68,5.87,16.07,8.74,1.26.67.54,2.38-.62,2.46.63.23,1.26.41,1.88.54.01-.73.04-1.46.07-2.2.32-7.11,1.32-14.3,2.87-21.25.37-1.68,2.94-.96,2.57.71-.17.75-.32,1.51-.47,2.27-.75,3.83-1.35,7.69-1.77,11.58-.33,3.04-.58,6.12-.61,9.19.04,0,.08,0,.11,0-.04,0-.08,0-.11,0-.02,2.01.04,4.01.23,6,.07.72-.67,1.33-1.33,1.33-.02,0-.04,0-.07,0l-.35,22.65c.14-.05.28-.08.42-.08.79,0,1.24.62,1.33,1.33.23,1.78.35,3.57.45,5.36.37,6.82.19,13.73.97,20.52h26.54c.61-5.18,1.28-10.36,2.12-15.5,1.5-9.21,3.53-18.35,6.6-27.17,3.12-8.99,7.3-17.58,12.56-25.51.94-1.43,3.25-.09,2.3,1.35-2.97,4.48-5.61,9.17-7.9,14.04-3.86,8.24-6.62,16.96-8.64,25.82-2.02,8.89-3.32,17.93-4.38,26.98h74.53c-.01-1.17-.03-2.34-.04-3.51-.08-6.33-.15-12.66-.23-18.99-.05-3.99-.1-7.98-.14-11.96,0-.74.48-1.16,1.05-1.26.12-1.06.25-2.11.5-3.15-.65-.24-.94-.93-.82-1.6ZM98.47,82.86c1.72,0,1.72,2.67,0,2.67s-1.72-2.67,0-2.67ZM87.49,111.83c-6,.59-12.01,1.19-18.01,1.78-.14.06-.29.1-.47.11-.43.02-.85.04-1.28.06-.72.04-1.33-.64-1.33-1.33,0-.77.62-1.26,1.33-1.33,6.58-.65,13.17-1.3,19.75-1.95.72-.07,1.33.67,1.33,1.33,0,.77-.62,1.26-1.33,1.33ZM142.85,166.2c-.15.53-.3,1.06-.44,1.59-.85,3.16-1.63,6.35-2.41,9.53-.43,1.77-.86,3.54-1.29,5.31-.39,1.61-.59,3.49-1.46,4.93-1.62,2.69-4.92,3.49-7.69,2.2-1.21-.56-2.42-1.14-3.63-1.71-3.85-1.82-7.7-3.63-11.56-5.45-.36-.17-.72-.33-1.08-.51-1.39-.68-2.41-1.87-2.96-3.3-.61-1.61-.24-3.2.06-4.82.27-1.47.54-2.94.81-4.41.98-5.38,2.08-10.76,2.84-16.18.1-.72,1.02-1.1,1.64-.93.76.21,1.03.93.93,1.64-.05.34-.1.69-.16,1.03-.88,5.53-1.93,11.03-2.94,16.53-.25,1.34-.49,2.68-.74,4.02-.25,1.37-.09,2.7,1.05,3.64.8.66,1.97,1.04,2.89,1.47,3.81,1.8,7.62,3.59,11.43,5.39.94.44,1.87.94,2.83,1.34,1.06.44,2.19.31,3.11-.36,1.15-.83,1.32-2.25,1.64-3.56,1.44-6.04,2.81-12.12,4.53-18.08.48-1.65,3.05-.94,2.57.71ZM147.93,154.11c-.07.13-.14.26-.2.4-.9,1.75-1.79,3.5-2.69,5.25-.26.5-.5,1.01-.77,1.51-.78,1.45-2.32,2.4-3.98,2.4-1.23,0-2.28-.63-3.35-1.15-1.45-.71-2.89-1.43-4.34-2.14-3.89-1.92-7.79-3.84-11.68-5.77-1.37-.68-2.74-1.35-4.11-2.03-1.27-.63-2.42-1.29-3.02-2.68-.62-1.43-.49-3.11.4-4.41.37-.55.77-1.08,1.16-1.61.96-1.34,1.92-2.68,2.88-4.02.49-.68,1.64-.86,2.18-.24.23.13.47.25.7.37.84.43,1.69.84,2.55,1.25,4.87,2.35,9.78,4.61,14.69,6.87,3.04,1.4,6.07,2.8,9.12,4.19.66.3.81,1.25.48,1.82ZM156.85,141.99c-.6.35-1.5.16-1.82-.48-.22-.44-.45-.87-.67-1.31-1.6-3.12-3.21-6.24-4.81-9.36-.33-.64-.17-1.44.48-1.82.6-.35,1.5-.16,1.82.48.22.44.45.87.67,1.31,1.6,3.12,3.21,6.24,4.81,9.36.33.64.17,1.44-.48,1.82ZM198.63,181.42c-.03.13-.06.25-.1.38-1.35,5.32-2.71,10.64-4.06,15.97-.19.76-.37,1.53-.58,2.28-.47,1.71-1.65,3.22-3.18,4.11-1.75,1.01-3.84,1.18-5.75.55-.61-.2-1.22-.41-1.83-.61-5.49-1.85-10.99-3.7-16.48-5.54-.52-.18-1.05-.34-1.58-.53-2.21-.79-3.96-2.59-4.52-4.9-.55-2.28.32-4.64.87-6.85,1.21-4.87,2.41-9.73,3.62-14.6.41-1.67,2.98-.96,2.57.71-.03.13-.06.25-.09.38-1.28,5.16-2.56,10.32-3.84,15.48-.18.71-.36,1.42-.53,2.13-.35,1.44,0,2.96,1.04,4.03,1.2,1.24,3.28,1.62,4.86,2.15,5.27,1.77,10.54,3.55,15.82,5.32.62.21,1.28.48,1.94.54,1.88.17,3.84-.96,4.43-2.81.51-1.6.84-3.28,1.26-4.9,1.19-4.66,2.37-9.32,3.56-13.98.42-1.66,3-.96,2.57.71ZM203.18,169.31c-.05.16-.09.33-.14.49-.57,1.97-1.14,3.95-1.71,5.93-.26.9-.55,1.69-1.26,2.37-1.3,1.26-3.13,1.57-4.81.98-2.37-.83-4.79-1.54-7.19-2.31-4.35-1.4-8.69-2.8-13.04-4.2-1.63-.52-3.25-1.05-4.88-1.57-.83-.27-1.8-.47-2.54-.95-1.57-1.02-2.35-2.85-2.04-4.69.15-.87.67-1.67,1.02-2.48.72-1.63,1.43-3.25,2.15-4.88.32-.73,1.22-.8,1.84-.44.01,0,.03.01.05.02,0,0-.01-.01-.02-.02.02.01.04.02.06.03.28.1.55.21.83.31.99.35,1.98.68,2.98,1.01,5.67,1.87,11.37,3.65,17.07,5.44,3.55,1.11,7.11,2.22,10.67,3.32.26.08.45.21.6.38.32.29.49.72.33,1.27ZM208.22,174.29c-2.34-7.85-4.98-15.61-7.32-23.46-.49-1.65,2.08-2.35,2.57-.71,2.34,7.85,4.98,15.61,7.32,23.46.49,1.65-2.08,2.35-2.57.71Z"/><path class="cls-3" d="M243.17,165.86c0-5.83-.38-12.04-4.62-16.09-.21.21-.5.35-.88.37-1.96.08-3.93.74-5.69,1.74-3.51,2-6.31,5.15-8.48,8.51-2.08,3.22-3.73,6.78-4.45,10.55-.14.71-.99,1.11-1.64.93-.04-.01-.08-.03-.11-.04-.25,1.03-.39,2.09-.5,3.15.74-.13,1.61.29,1.62,1.26.02,1.46.03,2.91.05,4.37.08,6.33.15,12.66.23,18.99.04,3.7.09,7.4.13,11.1h25.05c1.11-15.01.2-29.73-.72-44.85Z"/><path class="cls-1" d="M252.36,171.29c-.05-2.12-.16-4.24-.32-6.35-.19-2.56-.45-5.07-.84-7.49-.39-2.42-.88-4.85-1.7-7.16-.09-.25-.19-.51-.28-.76-.02-.05-.04-.1-.06-.15-.04-.1-.09-.2-.13-.29-.2-.43-.42-.86-.66-1.26-.11-.19-.23-.37-.36-.54-.02-.02-.03-.04-.05-.06-.05-.06-.1-.12-.16-.18-.14-.15-.28-.3-.43-.44-.04-.03-.08-.07-.11-.1-.02-.01-.04-.03-.07-.05-.6-.41-.86-1.17-.48-1.82.15-.25.39-.44.67-.56-.2-.24-.42-.48-.64-.7-.32.81-1.39,1.34-2.17.53-3.87-3.99-8.11-7.54-12.51-10.92-3.43-2.64-6.93-5.09-10.63-7.35-3.79-2.31-7.65-4.51-11.42-6.86-.84-.52-2.3-1.13-2.5-2.16-.04-.23-.06-.46-.09-.69-.14-1.11-.28-2.23-.42-3.34-.05-.38-.1-.76-.14-1.14-.85.87-1.69,1.73-2.53,2.6-2.62,2.7-5.23,5.4-7.83,8.11l8.55,4.27c-.02-.9.95-1.85,2-1.28,2.09,1.13,4.12,2.36,6.1,3.67,7.39,4.86,14.2,10.57,20.81,16.43.68.6.47,1.41-.07,1.87l.82.82c.96-.25,1.95-.41,2.96-.45,1.34-.05,1.63,1.55.88,2.3,4.24,4.05,4.62,10.26,4.62,16.09.92,15.12,1.83,29.84.72,44.85h7.46c.04-2.92.24-5.85.34-8.77.2-5.71.39-11.41.52-17.12.11-4.5.25-9.02.14-13.52Z"/><path class="cls-4" d="M249.17,149.39s.05.12,0,0c0,0,0,0,0,0Z"/><path class="cls-1" d="M147.09,36.6c.32.02.65.05.97.08.18-.26.35-.53.49-.82.02-.05.04-.09.07-.14.03-.12.08-.23.12-.35.03-.12.06-.23.08-.35,0-.02,0-.05,0-.07,0-.1,0-.21,0-.31,0-.02,0-.04,0-.06-.02-.08-.04-.17-.06-.25,0-.01,0-.02-.01-.03-.06-.09-.17-.26-.2-.35,0,0,0,0,0,0-.05-.06-.11-.11-.17-.16-.05-.03-.1-.07-.16-.1-.06-.03-.12-.06-.18-.09,0,0-.01,0-.02,0-.14-.04-.28-.07-.42-.11-.02,0-.04,0-.06,0-.08,0-.17,0-.25,0-.05,0-.12.02-.19.02,0,0-.02,0-.02,0-.1.02-.19.05-.28.08-.02,0-.11.04-.16.06-.04.02-.07.03-.08.04-.08.04-.16.09-.24.14-.03.02-.07.04-.1.07-.06.06-.14.12-.2.18-.08.07-.15.15-.22.23-.02.03-.17.21-.18.22-.02.02-.03.04-.04.05-.04.05-.08.11-.11.16-.08.11-.15.23-.23.35-.16.25-.31.5-.46.75-.14.25-.28.5-.42.75.91-.04,1.83-.03,2.73.04Z"/><path class="cls-4" d="M148.75,34.29s-.03-.07-.04-.11c-.03-.11-.08-.07.04.11Z"/><path class="cls-4" d="M148.62,34.03s-.03-.04-.05-.05c.06.08.16.18.05.05Z"/><path class="cls-1" d="M197.48,168.99c-5.79-1.8-11.59-3.61-17.37-5.46-2.54-.81-5.09-1.62-7.62-2.47-.63-.21-1.27-.43-1.9-.66-.66,1.51-1.3,3.03-2,4.53-.4.85-.66,1.54-.11,2.34.15.21.33.37.55.52.06.04.14.09.18.11.04.01.09.03.13.04,2.77.87,5.53,1.78,8.29,2.67,4.14,1.33,8.27,2.66,12.41,4,1.46.47,2.93.94,4.39,1.42.68.22,1.51.61,2.22.7.57.08,1.18-.14,1.58-.56.11-.12.18-.25.28-.37.01-.01.02-.02.02-.03,0-.03.02-.07.03-.1.22-.79.45-1.57.68-2.35.33-1.15.66-2.31,1-3.46-.92-.29-1.84-.57-2.77-.86Z"/><path class="cls-4" d="M170.71,157.63s-.02,0-.03-.01c.04.03.08.06.12.09-.03-.03-.06-.05-.09-.08Z"/><path class="cls-1" d="M199.24,47.73c2.2-3.51,4.6-6.88,6.8-10.39.27-.43.66-.61,1.05-.62l.2-.57c-.38-.33-.77-.63-1.15-.92-1.15-.89-2.4-1.66-3.69-2.35-2.68-1.44-5.55-2.48-8.46-3.36-2.73-.82-5.51-1.56-8.29-2.19-2.32-.52-4.98-1.01-7.25-.54-1.28.27-1.8.7-2.68,1.65-1.18,1.28-2.36,2.57-3.54,3.87-1.96,2.16-3.91,4.32-5.86,6.49.06,0,.13,0,.19.01.25-.3.6-.51,1-.47,3.22.37,6.32,1.44,9.31,2.64,7.32,2.95,14.29,6.94,20.6,11.68l2.17-3.2c-.53-.35-.84-1.02-.4-1.72Z"/><path class="cls-3" d="M217.54,54.28c-.69-2.66-1.87-5.14-3.18-7.54-.75-1.37-1.54-2.72-2.34-4.06-.86-1.43-1.66-2.94-2.61-4.31-.56-.81-1.32-1.55-2.11-2.22l-.2.57c.94-.03,1.89.94,1.25,1.97-2.2,3.51-4.6,6.88-6.8,10.39-.47.76-1.33.75-1.91.37l-2.17,3.2c.22.16.44.32.65.48,6,4.59,12.01,10.14,15.3,17.09,1.81-2.34,3.36-4.92,4.14-7.78.74-2.7.67-5.47-.03-8.16Z"/><path class="cls-4" d="M118.33,43.51c.01.05.01.03,0,0h0Z"/><path class="cls-1" d="M123.71,38.28c-.03-.14-.06-.27-.11-.4,0-.02,0-.03-.01-.04-.02-.04-.04-.09-.07-.13-.06-.12-.13-.23-.21-.34,0,0,0,0,0,0-.04-.05-.08-.1-.13-.14-.24-.24-.22-.23-.55-.41-.02-.01-.09-.04-.11-.05-.14-.05-.29-.09-.44-.13-.02,0-.03,0-.05-.01,0,0,0,0-.01,0-.07,0-.14,0-.21-.01-.12,0-.23,0-.35.01-.03.01-.19.04-.23.05-.04.01-.22.07-.24.07-.13.06-.25.13-.36.2-.04.03-.09.06-.13.09,0,0-.01.01-.03.03-.1.09-.2.19-.29.29-.01.01-.01.01-.02.02-.03.05-.07.1-.1.15-.16.27-.13.2-.24.49-.11.29-.22.58-.33.87-.29.77-.58,1.55-.87,2.32-.08.23-.17.45-.25.68-.03.09-.07.18-.09.27-.02.06-.07.26-.08.3,0,.04-.02.24-.02.3,0,.06.03.3.02.31.03.11.06.22.08.34,0,.04.01.06.02.08.02.05.05.11.08.16.06.12.13.23.21.34,0,0,0,0,0,.01,0,0,.02.02.03.04.05.05.09.1.14.15.03.03.16.14.18.16.1.07.21.13.32.2.02.01.08.04.1.05.15.05.31.1.46.13.02,0,.25.02.31.02.06,0,.28-.03.31-.02.14-.03.27-.06.4-.11.02,0,.03,0,.04-.01,0,0,0,0,0,0,.06-.03.12-.06.18-.09.08-.04.4-.27.28-.17.29-.24.35-.32.49-.57.02-.03.12-.23.12-.23,0,0,0,0,0-.01.04-.09.07-.18.1-.27l.42-1.11c.28-.74.56-1.48.84-2.22.07-.17.13-.35.2-.52.03-.09.07-.18.09-.28.01-.04.05-.21.06-.25.01-.12.02-.24.01-.36,0-.05-.02-.2-.02-.24Z"/><path class="cls-6" d="M201.55,49.07c2.2-3.51,4.6-6.88,6.8-10.39.91-1.46-1.39-2.8-2.3-1.35-2.2,3.51-4.6,6.88-6.8,10.39-.91,1.46,1.39,2.8,2.3,1.35Z"/><path class="cls-6" d="M237.68,147.47c-4.38.18-8.28,2.45-11.4,5.39-3.23,3.04-5.81,6.86-7.64,10.9-.94,2.08-1.72,4.23-2.15,6.47-.13.67.17,1.35.82,1.6.19-.77.44-1.52.8-2.24-.36.72-.61,1.48-.8,2.24.04.01.07.03.11.04.65.18,1.5-.22,1.64-.93.72-3.78,2.38-7.34,4.45-10.55,2.17-3.36,4.97-6.52,8.48-8.51,1.76-1,3.73-1.66,5.69-1.74,1.71-.07,1.72-2.74,0-2.67Z"/><path class="cls-6" d="M159.43,123.49c-3.18-.28-6.47.41-9.58,1.01-3.55.69-7.08,1.54-10.66,2.03-.41.06-.83.11-1.26.15,6.74-6.17,13.48-12.35,20.23-18.52.66-.61.46-1.41-.07-1.87l-1.03,1.15,1.03-1.15c-.48-.42-1.22-.56-1.82-.01-.41.37-.82.75-1.22,1.12l2.01,1.04-2.01-1.04c-7.19,6.58-14.37,13.16-21.56,19.74-.92.84-.13,2.18.94,2.28,3.18.28,6.47-.41,9.58-1.01,3.55-.69,7.08-1.54,10.66-2.03,1.51-.21,3.19-.35,4.76-.21.72.06,1.33-.66,1.33-1.33,0-.77-.61-1.27-1.33-1.33Z"/><path class="cls-6" d="M164.14,125.31c-.17.09-.33.18-.5.27-.63.34-.76.94-.59,1.47.34-.33.75-.61,1.25-.84l-.16-.9Z"/><path class="cls-6" d="M204.14,99.84s0-.03,0-.05c-.12-2.21-.23-4.42-.35-6.62-.02-.32-.03-.64-.05-.95-.02-.45-.26-.89-.63-1.13l-.12,5.66.12-5.66c-.2-.13-.44-.21-.7-.2-.69.03-1.37.59-1.33,1.33.12,2.21.23,4.42.35,6.62.02.32.03.64.05.95.04.68.56,1.33,1.29,1.33-3.99,3.66-8.63,6.62-13.23,9.53-5.89,3.73-11.93,7.22-18.02,10.61-2.45,1.36-4.9,2.7-7.36,4.04l.16.9c.3-.14.62-.26.99-.35-.37.09-.69.22-.99.35l.27,1.53-.27-1.53c-.5.23-.91.51-1.25.84.24.73,1.06,1.31,1.93.83,5.24-2.84,10.46-5.72,15.62-8.72,6.08-3.53,12.12-7.18,17.84-11.27,2.59-1.85,5.17-3.79,7.43-6.04.17-.17.28-.36.34-.54-.27-.03-.57-.03-.91.02.34-.05.64-.05.91-.02.34-1.09-1.04-2.26-2.08-1.46Z"/><path class="cls-6" d="M159.94,130.85v9.34c0,.72.61,1.33,1.33,1.33s1.33-.61,1.33-1.33v-9.34c0-.57-.39-1.07-.91-1.26-.39,1.54-.41,3.29-.67,4.8.25-1.51.27-3.26.67-4.8-.13-.05-.28-.08-.42-.08-.72,0-1.33.61-1.33,1.33Z"/><path class="cls-6" d="M151.84,129.5c-.33-.64-1.23-.83-1.82-.48-.65.38-.81,1.18-.48,1.82,1.6,3.12,3.21,6.24,4.81,9.36.22.44.45.87.67,1.31.33.64,1.23.83,1.82.48.65-.38.81-1.18.48-1.82-1.6-3.12-3.21-6.24-4.81-9.36-.22-.44-.45-.87-.67-1.31Z"/><path class="cls-6" d="M89.51,60.49c-.24-.58-.73-1.01-1.35-.98-.02-.02-.04-.05-.06-.07-.47-.47-1.42-.56-1.89,0-4.53,5.48-9.25,10.84-14.23,15.91-1.57,1.59-3.17,3.16-4.86,4.63-.33.29-.67.57-1.01.85-.16.13-.33.26-.49.39-.05.04-.12.09-.14.1-.09.06-.17.13-.26.19-1.03.75-2.06,1.51-3.06,2.28-4.79,3.69-9.41,7.73-13.02,12.61-3.21,4.34-5.47,9.7-3.41,15.04,2.19,5.67,7.18,9.9,11.94,13.41,4.35,3.2,9.02,5.96,13.67,8.7,4.73,2.78,9.5,5.49,14.29,8.16,6.49,3.62,13.02,7.19,19.58,10.7.1.06.21.11.31.17.25.13.5.18.73.16-.58-.21-1.17-.46-1.75-.75.58.29,1.17.54,1.75.75,1.15-.09,1.88-1.79.62-2.46-5.38-2.86-10.73-5.79-16.07-8.74-9.11-5.04-18.27-10.08-27.02-15.72-2.58-1.67-5.12-3.43-7.48-5.39-2.26-1.88-4.47-3.96-6.16-6.38-1.39-1.99-2.51-4.32-2.58-6.71-.07-2.35.84-4.68,2.04-6.78,2.9-5.05,7.39-9.15,11.84-12.8,1.84-1.51,3.77-2.88,5.65-4.32,1.65-1.26,3.18-2.66,4.67-4.11,5.55-5.37,10.66-11.21,15.61-17.13.32.69.66,1.37,1.02,2.04l2.02-1.83c-.34-.65-.65-1.3-.91-1.91Z"/><path class="cls-6" d="M110.88,77.36s-.03-.07-.05-.1c-.39-.67-1.17-.79-1.82-.48-.45.21-1.27.42-1.76.44-.02,0-.03,0-.05,0l-.87,1.41.87-1.41c-.83.04-1.22-.01-1.98-.21-1.63-.41-3.07-1.22-4.51-2.25-3.25-2.31-5.96-5.5-8.16-8.8-.74-1.11-1.49-2.36-2.13-3.58l-2.02,1.83c1.55,2.9,3.49,5.61,5.68,8.06,2.74,3.06,6.17,6.14,10.23,7.25,1.18.32,2.38.42,3.55.27-1.68,2.55-3.36,5.1-5.04,7.65-.88,1.34-1.76,2.67-2.64,4.01-.19-.12-.41-.19-.68-.2-3.15-.05-6.19-1.18-8.88-2.77-2.91-1.72-5.54-4.01-7.59-6.7-1.06-1.38-2-2.91-2.67-4.52-.28-.67-.88-1.14-1.64-.93-.63.17-1.21.97-.93,1.64,2.8,6.78,8.92,12.37,15.8,14.84,1.61.58,3.29.95,5,1.07-1.95,2.96-3.91,5.92-5.86,8.88-.77,1.16-1.53,2.32-2.3,3.49-.95,1.44,1.36,2.77,2.3,1.35,1.39-2.1,2.77-4.2,4.16-6.3l-2.73-.62,2.73.62c.73-1.11,1.46-2.21,2.19-3.32,3.37-5.11,6.73-10.21,10.1-15.32.77-1.16,1.53-2.32,2.3-3.49.51-.78.07-1.52-.59-1.82Z"/><path class="cls-6" d="M67.74,111.11c-.72.07-1.33.56-1.33,1.33,0,.69.61,1.37,1.33,1.33.43-.02.85-.04,1.28-.06.17,0,.33-.05.47-.11,6-.59,12.01-1.19,18.01-1.78.72-.07,1.33-.56,1.33-1.33,0-.67-.61-1.4-1.33-1.33-6.58.65-13.17,1.3-19.75,1.95Z"/><path class="cls-6" d="M150.29,104.93l1.8.94c-.1-.12-.21-.24-.34-.33-2.12-1.55-4.48-2.83-6.89-3.86-2.13-.91-4.31-1.62-6.62-1.89-2.29-.27-4.65.07-6.84.76-3.25,1.02-6.03,2.74-8.74,4.73-.04.03-.05.04-.06.05-.03,0-.07.02-.13.05-.46.17-.92.2-1.41.11-1.23-.2-2.21-.85-3.27-1.44-1.69-.94-3.5-1.56-5.44-1.69-1.7-.11-3.39.2-5.09.22-2.31.04-4.5-.52-6.65-1.47-.66-.29-1.43-.19-1.82.48-.02.04-.04.08-.05.12l4.19.96-4.19-.96c-.25.57-.09,1.43.53,1.7,2.18.97,4.43,1.67,6.82,1.81,1.54.09,3.06-.12,4.59-.2,1.66-.09,2.88.03,4.43.66,1.06.43,1.96,1.13,3,1.6,1.16.53,2.44.98,3.73.91,1.01-.05,1.89-.38,2.68-1,.08-.06.16-.12.23-.19.03-.02.06-.04.1-.07.12-.09.25-.18.37-.27,1.36-.98,2.82-1.84,4.34-2.55,2.01-.94,4.23-1.63,6.46-1.74,2.08-.11,4.12.37,6.08,1.06,2.93,1.03,5.8,2.57,8.31,4.4.58.43,1.49.1,1.82-.48.31-.52.2-1.07-.14-1.49l-1.8-.94ZM124.7,107.06s0,0,.03-.02c-.02.02-.03.02-.03.02Z"/><path class="cls-6" d="M113.78,149.89c.6,1.39,1.75,2.06,3.02,2.68,1.37.68,2.74,1.35,4.11,2.03,3.89,1.92,7.79,3.84,11.68,5.77,1.45.71,2.89,1.43,4.34,2.14,1.07.53,2.12,1.15,3.35,1.15,1.66,0,3.19-.95,3.98-2.4.27-.5.52-1.01.77-1.51.9-1.75,1.79-3.5,2.69-5.25.07-.13.14-.26.2-.4.34-.57.18-1.52-.48-1.82-3.04-1.39-6.08-2.79-9.12-4.19-4.91-2.26-9.82-4.53-14.69-6.87-.85-.41-1.7-.82-2.55-1.25-.24-.12-.47-.24-.7-.37-.54-.62-1.69-.44-2.18.24-.96,1.34-1.92,2.68-2.88,4.02-.39.54-.78,1.07-1.16,1.61-.89,1.3-1.02,2.97-.4,4.41ZM120.23,139.5s-.05-.03-.07-.04c-.09-.04-.25-.26.07.04ZM116.2,147.29c.26-.6.79-1.17,1.17-1.7.79-1.11,1.59-2.21,2.38-3.32.5.26,1.01.51,1.51.75,2.15,1.05,4.33,2.07,6.5,3.09,4.96,2.32,9.94,4.62,14.92,6.9.76.35,1.52.7,2.29,1.05-.46.9-.92,1.8-1.38,2.69-.43.84-.86,1.68-1.29,2.51-.25.48-.46,1.03-.9,1.37-.93.7-1.78.22-2.69-.23-1.26-.62-2.52-1.25-3.78-1.87-3.69-1.82-7.37-3.64-11.06-5.46-2.22-1.1-4.47-2.14-6.67-3.29-.97-.51-1.4-1.53-.98-2.5Z"/><path class="cls-6" d="M202.84,168.05c-.15-.16-.34-.3-.6-.38-3.56-1.1-7.12-2.21-10.67-3.32-5.7-1.78-11.4-3.57-17.07-5.44-.99-.33-1.99-.66-2.98-1.01-.28-.1-.55-.2-.83-.31-.02-.01-.04-.02-.06-.03,0,0,.01.01.02.02-.02,0-.04-.01-.05-.02-.62-.36-1.52-.29-1.84.44-.72,1.63-1.43,3.25-2.15,4.88-.36.81-.87,1.61-1.02,2.48-.32,1.84.46,3.67,2.04,4.69.74.48,1.71.68,2.54.95,1.63.52,3.25,1.05,4.88,1.57,4.35,1.4,8.69,2.8,13.04,4.2,2.39.77,4.81,1.48,7.19,2.31,1.68.59,3.51.28,4.81-.98.71-.69,1-1.47,1.26-2.37.57-1.98,1.14-3.95,1.71-5.93.05-.16.09-.33.14-.49.16-.54-.02-.98-.33-1.27ZM170.71,157.63s.06.05.09.08c-.04-.03-.08-.06-.12-.09.01,0,.02,0,.03.01ZM199.25,173.31c-.23.78-.46,1.56-.68,2.35,0,.03-.02.07-.03.1,0,0-.01.01-.02.03-.1.12-.17.25-.28.37-.4.43-1.01.64-1.58.56-.71-.09-1.53-.48-2.22-.7-1.46-.47-2.93-.94-4.39-1.42-4.14-1.33-8.27-2.66-12.41-4-2.76-.89-5.52-1.8-8.29-2.67-.04-.01-.09-.03-.13-.04-.04-.02-.12-.06-.18-.11-.22-.15-.4-.31-.55-.52-.55-.8-.29-1.5.11-2.34.7-1.49,1.34-3.01,2-4.53.63.23,1.26.44,1.9.66,2.53.85,5.07,1.66,7.62,2.47,5.78,1.84,11.57,3.66,17.37,5.46.92.29,1.84.57,2.77.86-.33,1.15-.66,2.31-1,3.46Z"/><path class="cls-6" d="M196.06,180.72c-1.19,4.66-2.37,9.32-3.56,13.98-.41,1.63-.74,3.31-1.26,4.9-.6,1.85-2.56,2.98-4.43,2.81-.66-.06-1.31-.33-1.94-.54-5.27-1.77-10.54-3.55-15.82-5.32-1.58-.53-3.66-.91-4.86-2.15-1.04-1.08-1.39-2.6-1.04-4.03.17-.71.35-1.42.53-2.13,1.28-5.16,2.56-10.32,3.84-15.48.03-.13.06-.25.09-.38.41-1.67-2.16-2.38-2.57-.71-1.21,4.87-2.41,9.73-3.62,14.6-.55,2.2-1.42,4.57-.87,6.85.56,2.31,2.31,4.1,4.52,4.9.52.19,1.05.35,1.58.53,5.49,1.85,10.99,3.7,16.48,5.54.61.2,1.22.41,1.83.61,1.91.63,4,.46,5.75-.55,1.54-.89,2.72-2.39,3.18-4.11.21-.76.39-1.52.58-2.28,1.35-5.32,2.71-10.64,4.06-15.97.03-.13.06-.25.1-.38.42-1.66-2.15-2.37-2.57-.71Z"/><path class="cls-6" d="M140.28,165.49c-1.72,5.97-3.09,12.04-4.53,18.08-.31,1.31-.48,2.73-1.64,3.56-.92.67-2.05.8-3.11.36-.96-.4-1.89-.89-2.83-1.34-3.81-1.8-7.62-3.59-11.43-5.39-.92-.43-2.1-.81-2.89-1.47-1.14-.94-1.31-2.27-1.05-3.64.25-1.34.49-2.68.74-4.02,1.01-5.5,2.06-11,2.94-16.53.05-.34.11-.69.16-1.03.1-.71-.17-1.43-.93-1.64-.62-.17-1.54.21-1.64.93-.75,5.42-1.85,10.8-2.84,16.18-.27,1.47-.54,2.94-.81,4.41-.3,1.62-.67,3.22-.06,4.82.54,1.44,1.57,2.62,2.96,3.3.36.17.72.34,1.08.51,3.85,1.82,7.7,3.63,11.56,5.45,1.21.57,2.42,1.15,3.63,1.71,2.77,1.29,6.07.49,7.69-2.2.87-1.44,1.07-3.32,1.46-4.93.43-1.77.85-3.54,1.29-5.31.78-3.18,1.56-6.37,2.41-9.53.14-.53.29-1.06.44-1.59.48-1.65-2.1-2.36-2.57-.71Z"/><path class="cls-6" d="M111.46,190.18c-.1-1.79-.22-3.58-.45-5.36-.09-.71-.55-1.33-1.33-1.33-.14,0-.28.03-.42.08l-.07,4.83.07-4.83c-.52.19-.99.68-.92,1.25.9,7.08.67,14.27,1.06,21.38.08,1.5.19,3,.35,4.5h2.67c-.78-6.8-.59-13.7-.97-20.52Z"/><path class="cls-6" d="M108.34,159.59c.07.7.54,1.29,1.27,1.33l.08-4.85-.08,4.85s.04,0,.07,0c.67,0,1.4-.61,1.33-1.33-.19-1.99-.26-4-.23-6-.88,0-1.77-.11-2.65-.3-.04,2.1.02,4.21.22,6.3Z"/><path class="cls-6" d="M111.06,129.84c-1.55,6.95-2.55,14.14-2.87,21.25-.03.73-.06,1.46-.07,2.2.88.19,1.77.29,2.65.3.04-3.07.28-6.15.61-9.19.43-3.88,1.03-7.74,1.77-11.58.15-.76.3-1.52.47-2.27.37-1.67-2.2-2.39-2.57-.71Z"/><path class="cls-6" d="M109.23,58.29c4.09-3.52,10-4.47,15.04-2.64.68.25,1.46-.28,1.64-.93.2-.74-.25-1.39-.93-1.64-5.96-2.17-12.85-.79-17.63,3.32-.55.47-.48,1.4,0,1.89.54.54,1.34.47,1.89,0Z"/><path class="cls-6" d="M193.08,89.8c-3.1,4.59-6.91,8.57-11.75,11.33-4.8,2.74-10.7,4.24-16.18,3.09-1.4-.3-2.75-.72-4.06-1.25l-1.91,2.12c.89.38,1.79.73,2.69,1.01-.18.21-.3.49-.29.84.02,2.25.08,4.5.2,6.75.15,2.75.69,5.4.15,8.15-.14.71.2,1.44.93,1.64.3.08.64.04.94-.1l-.47-2.66.47,2.66c.35-.16.63-.45.7-.83.33-1.69.43-3.4.3-5.12-.09-1.18-.28-2.34-.35-3.52-.13-2.32-.2-4.65-.22-6.98,0-.07-.01-.14-.02-.21,2.43.53,4.91.68,7.4.37,3.17-.39,6.23-1.32,9.12-2.67,6.12-2.87,10.9-7.75,14.64-13.29.96-1.43-1.35-2.76-2.3-1.35Z"/><path class="cls-6" d="M157.03,100.91c-.33-.2-.65-.4-.97-.61-.14-.09-.27-.18-.41-.27-.03-.02-.05-.04-.07-.05-.18-.14-.35-.3-.5-.47-.19-.2-.34-.38-.42-.49-.59-.83-.92-1.6-1.2-2.53-1.21-3.97-.87-8.39-.44-12.5.71-6.78,1.8-13.45,3.38-20.09.23-.95-.52-1.59-1.27-1.65-.31,1.5-.63,2.99-1.04,4.39.4-1.41.73-2.89,1.04-4.39-.56-.05-1.13.23-1.3.95-1.47,6.21-2.55,12.47-3.26,18.81-.53,4.75-1.06,9.72.11,14.42.54,2.2,1.56,4.34,3.41,5.73,1.53,1.16,3.28,2.13,5.09,2.92l1.91-2.12c-1.4-.57-2.75-1.26-4.06-2.06ZM155.57,99.97c-.08-.06-.04-.03,0,0h0Z"/><path class="cls-6" d="M255.04,172.02c-.09-4.68-.42-9.36-1.07-13.99-.36-2.52-.81-5.03-1.56-7.47-.61-1.97-1.4-4.03-2.83-5.56-.31-.33-.67-.62-1.04-.87-.34-.23-.78-.23-1.15-.08.73.86,1.4,1.8,2.19,2.59-.8-.8-1.46-1.73-2.19-2.59-.28.11-.53.31-.67.56-.39.66-.12,1.42.48,1.82.03.02.06.04.07.05.04.03.08.06.11.1.15.14.3.28.43.44.05.06.1.12.16.18.01.02.03.04.05.06.13.18.25.36.36.54.25.41.46.83.66,1.26.04.1.09.2.13.29.02.05.04.1.06.15.1.25.19.5.28.76.82,2.31,1.31,4.74,1.7,7.16.39,2.42.65,4.93.84,7.49.16,2.11.26,4.23.32,6.35.11,4.5-.03,9.02-.14,13.52-.14,5.71-.32,11.42-.52,17.12-.1,2.92-.3,5.85-.34,8.77h2.68c.1-2.4.19-4.8.27-7.21.21-5.68.39-11.37.54-17.05.12-4.8.29-9.62.2-14.42ZM247.96,147.21c-.07-.08-.05-.06,0,0h0ZM249.17,149.39s0,0,0,0c.05.11.02.04,0,0Z"/><path class="cls-6" d="M218.7,199.6c-.08-6.33-.15-12.66-.23-18.99-.02-1.46-.03-2.91-.05-4.37-.01-.97-.88-1.39-1.62-1.26-.18,1.63-.33,3.25-.83,4.75.5-1.5.65-3.12.83-4.75-.56.1-1.06.52-1.05,1.26.05,3.99.1,7.98.14,11.96.08,6.33.15,12.66.23,18.99.01,1.17.03,2.34.04,3.51h2.67c-.04-3.7-.09-7.4-.13-11.1Z"/><path class="cls-6" d="M150.9,58.65c1.04.26,2.09.65,3.19.98.08-.11.14-.24.18-.38.18-.65-.22-1.5-.93-1.64-3.75-.73-7.33-2.07-10.64-3.97.73-.63,1.73-.96,2.31-1.8,1.26-1.83.25-4.48-1.46-5.64-1.18-.8-2.85-.87-4.22-.67-1.22.18-2.35.72-3.34,1.45-1.01.75-1.88,1.65-2.96,2.31-1.4.85-2.8,1.58-3.97,2.76-1.2,1.23.68,3.12,1.89,1.89.9-.92,1.96-1.5,3.07-2.14,1.06-.62,1.98-1.38,2.91-2.17,1.29-1.1,3.15-2,5-1.3-.2-.07.31.19.25.15.03.02.24.24.34.36-.01,0,.18.31.2.34.06.12.1.22.16.47.05.21.07.36-.03.64,0,0-.01.02-.03.04-.02.03-.02.04-.02.04-.01.01-.03.02-.05.04.01,0,.03-.02.05-.03,0,0,.01,0,.03-.01,0,0,0,0,0,0,0,0,0,0,0,0,.02,0,0,0-.13.09-.1.06-.21.1-.31.16-.92.48-1.7,1.24-2.45,1.95-.75.71-1.51,1.38-2.29,2.06-1.4,1.22-2.62,2.54-3.77,3.99-1.37,1.72-2.54,3.63-4.01,5.26-.67.74-1.4,1.38-2.29,1.83-.87.44-1.84.58-2.8.65-2.41.19-4.84.14-7.25.45-1.22.16-2.39.37-3.49.95-1,.53-1.91,1.26-2.76,2-1.08.94-2.11,1.98-3.03,3.08-.46.55-.54,1.35,0,1.89.1.1.22.18.36.24l1.29-2.08-1.29,2.08c.5.24,1.16.2,1.53-.24.85-1.01,1.8-1.97,2.78-2.86.73-.66,1.47-1.25,2.34-1.73.43-.24.53-.28,1-.4.55-.14,1.11-.24,1.67-.31,2.54-.3,5.12-.18,7.66-.48,2.49-.29,4.56-1.38,6.22-3.26,1.55-1.75,2.79-3.76,4.26-5.58,1.28-1.59,2.7-2.95,4.25-4.28.12-.11.24-.22.36-.33.08.07.16.14.26.2,3.61,2.15,7.58,3.68,11.7,4.48.57.11,1.14-.09,1.46-.55-1.11-.33-2.15-.72-3.19-.98Z"/><path class="cls-6" d="M114.83,41.34l-1.9,1.07,1.9-1.07c-.36-.55-1.21-.83-1.79-.43-1.95,1.36-4.31,1.93-6.55,2.62-2.14.65-4.68,1.27-6.2,3.03-1.51,1.74-2.32,3.97-3.56,5.89-.99,1.53-2.25,2.9-3.34,4.37-.84,1.14-1.66,2.29-2.47,3.44-.33.46-.2,1.11.15,1.54l1.04-.95-1.04.95c.09.11.2.22.33.29.67.39,1.41.11,1.82-.48.65-.93,1.31-1.85,1.97-2.76.49-.68.99-1.36,1.5-2.02.05-.06.16-.21.18-.23.08-.1.17-.21.25-.31.38-.45.76-.9,1.12-1.37,1.4-1.86,2.25-4.03,3.54-5.95.49-.73.99-1.2,1.79-1.57,1.06-.49,2.19-.84,3.3-1.19,2.55-.79,5.28-1.43,7.5-2.98.59-.41.86-1.17.48-1.82-.01-.02-.03-.03-.04-.05Z"/><path class="cls-6" d="M146.02,183.72c2.02-8.86,4.77-17.58,8.64-25.82,2.28-4.87,4.93-9.56,7.9-14.04.95-1.43-1.36-2.77-2.3-1.35-5.26,7.93-9.44,16.53-12.56,25.51-3.06,8.82-5.1,17.96-6.6,27.17-.84,5.15-1.51,10.32-2.12,15.5h2.67c1.06-9.05,2.35-18.09,4.38-26.98Z"/><path class="cls-6" d="M226.56,142.33c1.86,1.57,3.69,3.17,5.51,4.78,1.28,1.13,3.17-.74,1.89-1.89-6.61-5.86-13.42-11.57-20.81-16.43-1.98-1.3-4.01-2.54-6.1-3.67-1.51-.82-2.86,1.48-1.35,2.3,7.52,4.08,14.34,9.39,20.86,14.9Z"/><path class="cls-6" d="M98.47,82.86c-1.72,0-1.72,2.67,0,2.67s1.72-2.67,0-2.67Z"/><path class="cls-6" d="M203.46,150.12c-.49-1.64-3.06-.94-2.57.71,2.34,7.85,4.98,15.61,7.32,23.46.49,1.64,3.06.94,2.57-.71-2.34-7.85-4.98-15.61-7.32-23.46Z"/><path class="cls-6" d="M131.14,108.11c-.66-.29-1.43-.19-1.82.48-.33.57-.18,1.53.48,1.82,4.1,1.8,8.19,3.6,12.29,5.39.66.29,1.43.19,1.82-.48.33-.57.18-1.53-.48-1.82-4.1-1.8-8.19-3.6-12.29-5.39Z"/><path class="cls-6" d="M200.9,66.42c-2.15-1.63-4.3-3.26-6.45-4.89.3,1.25.51,2.52.6,3.78,1.5,1.14,3,2.28,4.51,3.41.56.42,1.52.11,1.82-.48.37-.7.12-1.37-.48-1.82Z"/><path class="cls-6" d="M194.32,61.43c-.56-.42-1.52-.11-1.82.48-.37.7-.12,1.37.48,1.82.69.53,1.39,1.05,2.08,1.58-.09-1.26-.3-2.52-.6-3.78-.04-.03-.09-.07-.13-.1Z"/><path class="cls-6" d="M194.89,67.7c-.31.09-.64.32-.8.61-.16.31-.25.68-.13,1.03.11.35.32.59.61.8.07.05.14.1.21.14.17-.87.27-1.74.31-2.61-.07,0-.14.02-.2.03Z"/><path class="cls-6" d="M198.63,72.99c.27.19.72.22,1.03.13.31-.09.64-.32.8-.61.16-.31.25-.68.13-1.03-.11-.35-.32-.59-.61-.8-1.18-.83-2.37-1.67-3.55-2.5-.17-.12-.34-.24-.5-.35-.22-.15-.55-.2-.83-.17-.04.88-.14,1.75-.31,2.61,1.12.78,2.23,1.57,3.35,2.35.17.12.34.24.5.35Z"/><path class="cls-6" d="M198.7,74.7c-1.18-.83-2.37-1.67-3.55-2.5-.17-.12-.34-.24-.5-.35-.06-.04-.13-.07-.21-.1-.23.8-.51,1.59-.87,2.37.35-.78.64-1.57.87-2.37-.26-.09-.58-.1-.82-.03-.31.09-.64.32-.8.61-.16.31-.25.68-.13,1.03.11.35.32.59.61.8,1.18.83,2.37,1.67,3.55,2.5.17.12.34.24.5.35.27.19.72.22,1.03.13.31-.09.64-.32.8-.61.16-.31.25-.68.13-1.03-.07-.22-.18-.39-.32-.54-.57.36-1.14.65-1.69.76.55-.11,1.12-.4,1.69-.76-.09-.09-.18-.18-.29-.26Z"/><path class="cls-6" d="M211.32,74.45s0,0,0,0c-.13.28-.04.09,0,0Z"/><path class="cls-6" d="M246.46,142c-4.52-4.66-9.57-8.67-14.71-12.62-4.56-3.5-9.48-6.41-14.41-9.34-2.44-1.45-4.88-2.89-7.27-4.42-.38-3-.76-6-1.14-9-.04-.35-.18-.68-.39-.92.02.91-.02,1.81-.02,2.55,0-.74.04-1.64.02-2.55-.22-.25-.54-.41-.94-.41-.65,0-1.42.61-1.33,1.33.07.59.15,1.18.22,1.77-.26.03-.53.15-.76.39-3.05,3.11-6.08,6.24-9.1,9.38-5.17,5.38-10.34,10.77-15.32,16.33-.99,1.11-1.98,2.22-2.92,3.36-.22.26-.44.53-.65.79-1.02-1.6-1.73-3.4-2.55-5.11-1.1-2.31-2.55-4.35-4.76-5.73-1.46-.91-2.8,1.39-1.35,2.3,1.98,1.24,3.08,3.2,4.03,5.27,1.05,2.28,2.05,4.52,3.69,6.46.57.67,1.68.41,2.09-.27.16-.27.35-.53.54-.78.06-.08.12-.15.18-.23-.29.38-.04.05.03-.03.16-.2.33-.41.49-.61.8-.97,1.62-1.91,2.46-2.85,2.32-2.61,4.69-5.16,7.08-7.71,4.84-5.16,9.75-10.26,14.69-15.34.84-.87,1.69-1.73,2.53-2.6.05.38.1.76.14,1.14.14,1.11.28,2.23.42,3.34.03.23.05.46.09.69.2,1.03,1.66,1.64,2.5,2.16,3.77,2.35,7.63,4.54,11.42,6.86,3.7,2.26,7.19,4.71,10.63,7.35,4.4,3.39,8.64,6.94,12.51,10.92.78.81,1.86.28,2.17-.53-.57-.59-1.2-1.12-1.97-1.5.77.39,1.4.91,1.97,1.5.17-.43.13-.93-.29-1.35Z"/><path class="cls-6" d="M134.09,11.36c.04.69.58,1.37,1.33,1.33.68-.03,1.38-.59,1.33-1.33-.16-2.54-.32-5.09-.49-7.63-.02-.37-.05-.73-.07-1.1-.04-.69-.58-1.37-1.33-1.33-.68.03-1.38.59-1.33,1.33.16,2.54.32,5.09.49,7.63.02.37.05.73.07,1.1Z"/><path class="cls-6" d="M124.74,15.76c.28.34.56.67.85,1.01.45.54,1.43.5,1.89,0,.52-.57.48-1.31,0-1.89-2.01-2.39-4.02-4.78-6.02-7.17-.28-.34-.56-.67-.85-1.01-.45-.54-1.43-.5-1.89,0-.52.57-.48,1.31,0,1.89,2.01,2.39,4.02,4.78,6.02,7.17Z"/><path class="cls-6" d="M110.93,20.38c2.19,1.27,4.37,2.54,6.56,3.82.31.18.63.36.94.55.6.35,1.49.16,1.82-.48.34-.64.17-1.45-.48-1.82-2.19-1.27-4.37-2.54-6.56-3.82-.31-.18-.63-.36-.94-.55-.6-.35-1.49-.16-1.82.48-.34.64-.17,1.45.48,1.82Z"/><path class="cls-6" d="M220.57,55.87c-.84-6.04-4.36-11.46-7.47-16.57-.46-.76-.91-1.54-1.39-2.29-.47-.72-1.1-1.36-1.71-1.96-1.18-1.16-2.49-2.19-3.86-3.1-2.74-1.82-5.8-3.13-8.9-4.2-3.09-1.07-6.27-1.87-9.44-2.67-2.57-.64-5.24-1.21-7.9-1.12-1.5.05-3.12.3-4.41,1.13-.68.44-1.2,1.03-1.75,1.62-.71.77-1.42,1.55-2.13,2.32-2.81,3.07-5.59,6.16-8.38,9.25-.08.09-.14.18-.19.28-2.36-.12-4.73-.18-7.1-.16-.23,0-.43.05-.59.14-.53-.23-1.06-.45-1.6-.66-.9-.35-1.85-.6-2.82-.79.39-.79.64-1.67.57-2.54-.09-1.06-.52-2.08-1.36-2.76-1.81-1.46-4.39-1.2-6.02.41-.62.61-1.12,1.35-1.56,2.12-.42-.31-.88-.56-1.36-.76-2.13-.86-4.51.1-6.21,1.46-.25.2-.47.42-.68.65-.35-1.29-1.2-2.43-2.43-3-1.48-.69-3.26-.62-4.62.32-.94.65-1.5,1.6-1.93,2.63-.39-.49-.89-.89-1.46-1.17-1.46-.71-3.24-.67-4.61.24-1.78,1.18-2.29,3.47-3,5.37-.08.21-.16.42-.24.63l2.35-1.32-2.35,1.32c-.28.74-.51,1.48-.46,2.29.12,1.83,1.21,3.35,2.86,4.07.08.05.17.09.26.12,1.6.56,3.36.16,4.62-.93.73-.63,1.1-1.46,1.43-2.32.5.64,1.16,1.14,1.95,1.46.08.04.16.08.25.11,1.6.52,3.39.11,4.63-1.03.77-.71,1.13-1.64,1.47-2.6.22-.64.44-1.27.67-1.91.05.02.1.04.15.05.7.16,1.45-.21,1.64-.93.04-.17.09-.33.15-.49.01-.04.05-.13.07-.18.11-.23.24-.45.38-.66.03-.04.05-.06.06-.08.03-.03.05-.06.08-.1.07-.08.15-.16.23-.24.1-.1.22-.2.32-.3.02-.02.03-.03.04-.04.01,0,.02-.01.04-.02.21-.14.42-.28.65-.41.13-.07.26-.14.39-.2.03-.01.11-.05.16-.07.22-.09.44-.17.66-.24.12-.04.24-.08.37-.11.09-.02.44-.05.09-.03.1,0,.2-.01.3-.01.05,0,.21.02.27.03.2.04.39.09.59.15.02,0,.02,0,.03,0,.01,0,.02,0,.03.02.12.06.25.13.36.2.08.05.16.11.25.16.04.04.09.07.13.11.07.07.14.13.21.21.03.03.05.06.08.09,0,0,0,0,0,0,0,0,0,0,0,.01,0,.04,0,.07,0,.1-.81.19-1.6.44-2.36.79-3.02,1.37-5.44,4.71-3.87,8.04.31.65,1.24.82,1.82.48.67-.39.79-1.17.48-1.82-.45-.95.08-2.15.73-2.88.67-.74,1.56-1.29,2.49-1.64.56-.21,1.13-.36,1.71-.48.29.05.57,0,.82-.13,1.46-.19,2.96-.15,4.42-.02,1.83.17,3.73.48,5.45,1.15.75.29,1.52.65,2.4,1.07.93.44,1.85.91,2.77,1.38,1.2.62,2.38,1.24,3.56,1.9.87.48,1.68-.09,1.92-.81-.49-.36-1.02-.66-1.65-.81.62.16,1.15.45,1.65.81.18-.53.06-1.14-.58-1.49-.83-.46-1.67-.92-2.51-1.37,3.44.11,6.87.36,10.29.77.14.02.27,0,.4-.05,1.25.37,2.48.79,3.7,1.26,3.29,1.25,6.59,2.84,9.78,4.59,3.43,1.88,6.79,3.95,9.98,6.26-7.66,2.23-15.58-1.06-22.1-5.12-2.09-1.3-4.11-2.7-6.13-4.09-.51-.35-1.24-.18-1.65.25.75.69,1.51,1.42,2.51,1.92-1-.5-1.76-1.23-2.51-1.92-.07.07-.13.14-.18.23-.12.21-.17.43-.17.64.06,0,.13,0,.19,0-.07,0-.13,0-.19,0,0,.46.25.91.65,1.19,7.29,5.04,15.16,10.27,24.36,10.3,1.13,0,2.27-.08,3.39-.26-.15-.37-.31-.74-.48-1.1.17.36.33.73.48,1.1,1.34-.21,2.65-.54,3.92-1.02.15-.06.29-.14.41-.23,2.58,2.02,5.02,4.19,7.26,6.56,2.85,3,5.36,6.32,7,10.16.03.08.08.15.13.21-.01.16,0,.32.06.48-.09.28-.19.56-.29.83-.05.12-.1.25-.15.37,0-.02.02-.04.03-.06-.03.06-.06.13-.08.2-.09.21-.2.42-.3.63-.39-.71-.93-1.35-1.68-1.89-1.65-1.19-3.69-1.17-5.48-.43.36.2.68.59.95,1.23-.27-.64-.6-1.02-.95-1.23-.43.18-.85.39-1.24.65-1.44.93-.1,3.24,1.35,2.3,1.23-.8,2.6-1.13,3.77-.39,1.01.64,1.48,1.93,1.39,3.21-.21,3.12-2.16,6.26-4.75,7.97-1.41.93-2.99,1.47-4.65,1.45-1.72-.02-1.72,2.64,0,2.67,1.19.02,2.35-.19,3.45-.57l.03-1.21-.03,1.21c2.74-.95,5.1-2.98,6.62-5.45.96-1.56,1.73-3.52,1.92-5.46.07-.07.14-.15.19-.24.87-1.31,1.59-2.71,2.16-4.18.2-.51.39-1.04.49-1.58.01-.06.02-.12.02-.18,2.18-2.62,4.09-5.48,5.22-8.71.96-2.73,1.21-5.63.81-8.49ZM123.28,37.32s0-.01,0-.01c0,0,0,0,0,.01ZM118.33,43.51s0,.03,0,.03c0,0,0-.01,0-.03ZM123.71,38.88s-.05.21-.06.25c-.03.09-.06.19-.09.28-.06.18-.13.35-.2.52-.28.74-.56,1.48-.84,2.22l-.42,1.11c-.03.09-.07.18-.1.27,0,0,0,0,0,.01,0,0-.1.19-.12.23-.14.24-.2.32-.49.57.12-.1-.21.13-.28.17-.06.03-.12.06-.18.09,0,0,0,0,0,0-.01,0-.02,0-.04.01-.13.04-.26.08-.4.11-.02,0-.25.02-.31.02-.06,0-.29-.03-.31-.02-.16-.03-.31-.08-.46-.13-.02-.01-.08-.04-.1-.05-.11-.06-.22-.12-.32-.2-.02-.02-.16-.14-.18-.16-.05-.05-.09-.1-.14-.15-.02-.02-.03-.03-.03-.04,0,0,0,0,0-.01-.08-.11-.14-.23-.21-.34-.03-.05-.06-.11-.08-.16,0-.02-.01-.04-.02-.08-.03-.11-.06-.22-.08-.34,0,0-.02-.25-.02-.31,0-.06.02-.27.02-.3.01-.04.06-.24.08-.3.03-.09.06-.18.09-.27.08-.23.17-.45.25-.68.29-.77.58-1.55.87-2.32.11-.29.22-.58.33-.87.11-.3.07-.22.24-.49.03-.05.06-.1.1-.15,0,0,0-.01.02-.02.09-.1.19-.2.29-.29.02-.02.02-.02.03-.03.04-.03.08-.06.13-.09.12-.07.24-.14.36-.2.02,0,.2-.06.24-.07.04-.01.2-.04.23-.05.12-.01.23-.02.35-.01.07,0,.14,0,.21.01,0,0,0,0,.01,0,.01,0,.02,0,.05.01.15.04.3.07.44.13.02,0,.08.04.11.05.33.18.31.17.55.41.05.04.09.09.13.14,0,0,0,0,0,0,.08.11.14.23.21.34.02.04.04.09.07.13,0,.01,0,.02.01.04.04.13.08.26.11.4,0,.03.02.19.02.24,0,.12,0,.24-.01.36ZM131.8,37.08c-.03.17-.08.34-.13.51-.06.17-.12.34-.18.51-.26.76-.53,1.51-.79,2.27-.13.37-.26.73-.38,1.1-.1.29-.11.34-.22.54-.51.91-1.48,1.22-2.48.9,0,0-.01,0-.02,0-.02-.01-.04-.02-.06-.03-.11-.06-.22-.12-.32-.19-.03-.03-.21-.18-.21-.17,0,0-.16-.17-.19-.2-.07-.1-.14-.2-.19-.3,0,0-.13-.31-.11-.24-.12-.32-.13-.41-.13-.68,0-.3-.02-.27.09-.63.02-.07.05-.14.07-.21.08-.25.17-.49.26-.74.27-.78.54-1.56.82-2.34.09-.26.18-.52.27-.79.1-.28.08-.27.2-.49.14-.26.15-.26.39-.5.09-.09.26-.22.52-.35.29-.14.83-.23,1.14-.16.9.2,1.46.75,1.64,1.65,0,.03.02.27.02.27,0,0-.01.24,0,.27ZM148.71,34.18s.02.07.04.11c-.12-.18-.07-.22-.04-.11ZM148.62,34.03c.12.12.01.02-.05-.05.02.02.03.04.05.05ZM148.82,34.95s0,.05,0,.07c-.03.12-.05.23-.08.35-.03.12-.08.23-.12.35-.02.05-.04.09-.07.14-.14.29-.31.56-.49.82-.33-.03-.65-.06-.97-.08-.9-.07-1.82-.08-2.73-.04.14-.25.28-.5.42-.75.15-.25.3-.51.46-.75.07-.12.15-.23.23-.35.04-.05.08-.11.11-.16,0,0,.02-.03.04-.05.01-.01.16-.19.18-.22.07-.08.14-.16.22-.23.06-.06.14-.12.2-.18.03-.02.07-.05.1-.07.08-.05.16-.1.24-.14.01,0,.04-.02.08-.04.05-.02.14-.05.16-.06.09-.03.19-.05.28-.08,0,0,.02,0,.02,0,.06,0,.14-.02.19-.02.08,0,.17,0,.25,0,.02,0,.04,0,.06,0,.14.03.28.06.42.11,0,0,.01,0,.02,0,.06.03.12.06.18.09.05.03.1.07.16.1.06.05.11.1.17.16,0,0,0,0,0,0,.03.09.14.26.2.35,0,.01,0,.02.01.03.03.08.04.16.06.25,0,.02,0,.04,0,.06,0,.1,0,.21,0,.31ZM217.56,62.44c-.78,2.86-2.33,5.44-4.14,7.78-3.29-6.95-9.29-12.5-15.3-17.09-6.48-4.95-13.68-9.11-21.25-12.16-2.99-1.2-6.1-2.27-9.31-2.64-.39-.05-.75.16-1,.47-.06,0-.13,0-.19-.01,1.95-2.16,3.9-4.33,5.86-6.49,1.18-1.29,2.35-2.58,3.54-3.87.88-.95,1.4-1.38,2.68-1.65,2.27-.47,4.94.02,7.25.54,2.78.63,5.56,1.37,8.29,2.19,2.91.88,5.78,1.92,8.46,3.36,1.28.69,2.53,1.46,3.69,2.35,1.15.89,2.43,1.94,3.26,3.14.95,1.37,1.75,2.88,2.61,4.31.8,1.34,1.59,2.69,2.34,4.06,1.31,2.4,2.49,4.89,3.18,7.54.7,2.69.77,5.46.03,8.16Z"/><path class="cls-6" d="M161.97,53.96c-.66.23-1.16.92-.93,1.64.21.65.93,1.18,1.64.93.22-.08.44-.12.67-.18.02,0,.05,0,.07,0,.11,0,.21-.01.32-.01.12,0,.23.01.35.02.01,0,.03,0,.04,0,.22.04.44.1.65.17.02,0,.08.03.13.05.05.03.17.08.2.09.2.1.39.22.58.34.03.02.07.05.1.07.06.05.13.1.19.16.18.16.34.33.5.5.46.52,1.42.51,1.89,0,.51-.56.49-1.33,0-1.89-1.56-1.77-4.11-2.7-6.4-1.91ZM163.97,56.34s.02,0,.03,0c-.01,0-.03,0-.03,0ZM165.74,57.05s.02.02.03.02c-.01,0-.02-.02-.03-.02ZM165.84,57.13s.03.02,0,0h0Z"/><path class="cls-6" d="M181.08,62.13s.05.02.07.03c.16.07.31.14.46.23.33.18.64.39.95.61,0,0,0,0,.01.01,0,0,.01,0,.02.02.07.06.15.12.22.18.16.14.32.28.48.43.68.64,1.29,1.35,1.89,2.07.46.55,1.41.48,1.89,0,.55-.55.46-1.33,0-1.89-1.22-1.46-2.57-2.96-4.29-3.83-1.89-.94-3.91-.99-5.95-.6-.71.14-1.11.99-.93,1.64.2.74.93,1.07,1.64.93.14-.03.28-.05.41-.07.04,0,.06-.01.08-.01,0,0,.02,0,.03,0,.23-.03.46-.05.7-.06.39-.02.78,0,1.17.03.02,0,.02,0,.04,0,.01,0,.02,0,.04.01.09.02.18.03.26.05.19.04.38.09.56.15.08.03.17.06.25.08Z"/><path class="cls-6" d="M179.38,68.99c1.72,0,1.72-2.67,0-2.67s-1.72,2.67,0,2.67Z"/><path class="cls-6" d="M163.71,63.61c1.72,0,1.72-2.67,0-2.67s-1.72,2.67,0,2.67Z"/><path class="cls-6" d="M157.59,85c-.35.59-.17,1.5.48,1.82,1.47.74,3.01,1.38,4.56,1.95,2.48.91,5.24,1.79,7.91,1.59.72-.05,1.33-.58,1.33-1.33,0-.68-.61-1.39-1.33-1.33-1.29.09-2.21-.06-3.43-.34-1.28-.3-2.54-.7-3.78-1.16-1.46-.54-2.48-.95-3.93-1.68-.64-.32-1.45-.17-1.82.48Z"/><path class="cls-6" d="M160.38,49.86s-.01.04-.02.05c0-.02.01-.04.02-.05Z"/><path class="cls-6" d="M160.36,49.92s-.02.04-.02.06c0-.02.02-.04.02-.06Z"/><path class="cls-6" d="M160.43,49.76s-.03.07-.04.1c.01-.04.03-.07.04-.1Z"/><path class="cls-6" d="M160.25,50.2s0,0,0,0c0,0,0,0,0,0Z"/><path class="cls-6" d="M160.3,50.08s-.03.08-.05.11c.02-.04.03-.08.05-.11Z"/><path class="cls-6" d="M160.34,49.97s-.03.07-.05.11c.01-.04.03-.07.05-.11Z"/><path class="cls-6" d="M160.5,49.58s0,0-.01.03c0,0,0-.02.01-.03Z"/><path class="cls-6" d="M160.49,49.61s0,0,0,0c0,0,0,0,0,0Z"/><path class="cls-6" d="M161.57,47.43c-.51.67-.84,1.46-1.07,2.15,0,0,0,.02-.01.03,0,0,0,0,0,0,0,.02-.02.04-.02.06,0,.02-.01.03-.02.05,0,.01,0,.02-.01.04-.01.03-.03.07-.04.1,0,.02-.01.04-.02.05,0,.02-.01.04-.02.06-.02.04-.03.08-.05.11-.01.04-.03.08-.05.11,0,0,0,0,0,0-.01.03-.03.07-.04.1-.01.04-.03.07-.04.1-.01.03-.02.06-.04.09-.01.03-.02.06-.03.08,0,.01,0,.02-.01.03,0,.01,0,.02-.01.03,0,.02-.01.04-.02.05,0,.02-.01.03-.02.04,0,.01,0,.02,0,.02,0,.01,0,.01,0,0,0,0,0-.01,0-.02,0-.01,0-.02.02-.04,0-.01.01-.03.02-.05,0-.01,0-.02.01-.03,0-.01,0-.02.01-.03,0-.03.02-.05.03-.08.01-.03.02-.06.04-.09.01-.03.03-.07.04-.1.01-.03.03-.06.04-.1,0,0,0,0,0,0,.01-.03.03-.07.05-.11.02-.04.03-.08.05-.11,0-.02.01-.04.02-.06,0-.02.01-.04.02-.05.01-.03.03-.07.04-.1,0-.01,0-.02.01-.04,0-.02.01-.03.02-.05,0-.02.02-.04.02-.06,0,0,0,0,0,0,0-.02.01-.03.01-.03.23-.69.56-1.47,1.07-2.15-.36-.14-.77-.15-1.1.09-2.86,2.11-4.63,5.46-4.6,9.04,0,.29.11.57.29.8.19-.83.39-1.66.62-2.45-.23.8-.43,1.62-.62,2.45.25.33.62.55,1.05.53.72-.03,1.34-.59,1.33-1.33,0-.37.02-.73.05-1.1,0-.02,0-.04,0-.05.01-.07.02-.13.03-.2.03-.18.07-.36.11-.54.08-.36.19-.71.31-1.05.03-.08.06-.15.08-.23.02-.04.04-.1.05-.13.07-.15.13-.3.21-.44.15-.31.33-.61.51-.9.1-.15.2-.31.31-.45,0,0,.04-.06.07-.1.04-.04.12-.15.13-.17.22-.27.46-.52.7-.76.13-.13.27-.25.4-.37.08-.07.16-.13.23-.19,0,0,0,0,0,0,.02-.01.03-.02.06-.05.56-.41.9-1.17.48-1.82-.16-.25-.43-.46-.72-.57ZM158.59,55.4s0-.03,0-.03c0,0,0,.01,0,.03Z"/><path class="cls-6" d="M160.48,49.61s-.01.03-.02.06c0-.02.01-.04.02-.06Z"/><path class="cls-6" d="M160.44,49.72s0,.02-.01.04c0-.01,0-.02.01-.04Z"/><path class="cls-6" d="M160.46,49.67s-.01.03-.02.05c0-.02.01-.04.02-.05Z"/><path class="cls-6" d="M160.05,50.69s-.01.03-.02.04c0-.01,0-.02.02-.04Z"/><path class="cls-6" d="M160.09,50.61s0,.02-.01.03c0,0,0-.02.01-.03Z"/><path class="cls-6" d="M160.07,50.64s-.01.04-.02.05c0-.02.01-.03.02-.05Z"/><path class="cls-6" d="M160.04,50.73s0,.02,0,.02c0,0,0-.01,0-.02Z"/><path class="cls-6" d="M160.03,50.75s0,.01,0,0h0Z"/><path class="cls-6" d="M160.21,50.3s-.03.07-.04.1c.01-.03.03-.06.04-.1Z"/><path class="cls-6" d="M160.17,50.4s-.03.06-.04.09c.01-.03.02-.06.04-.09Z"/><path class="cls-6" d="M160.1,50.57s0,.02-.01.03c0-.01,0-.02.01-.03Z"/><path class="cls-6" d="M160.25,50.2s-.03.07-.04.1c.01-.03.03-.07.04-.1Z"/><path class="cls-6" d="M160.13,50.49s-.02.06-.03.08c0-.02.02-.05.03-.08Z"/><path class="cls-6" d="M169.65,61.16c-.63-.17-1.54.21-1.64.93-.16,1.09-.37,2.18-.71,3.23-.07.23-.15.45-.24.68-.01.04-.08.18-.09.21-.02.05-.05.11-.07.16-.18.4-.39.78-.63,1.15-.11.16-.22.32-.33.48-.01.02-.02.03-.03.04,0,0-.01.01-.02.03-.07.08-.13.16-.2.24-.28.33-.58.63-.9.92-.16.15-.33.3-.51.44-.07.06-.14.11-.2.16-.03.02-.13.1-.17.12-.4.29-.81.57-1.22.83-.61.39-.85,1.19-.48,1.82.35.6,1.22.87,1.82.48,1.74-1.11,3.34-2.41,4.48-4.14,1.2-1.83,1.75-4.01,2.06-6.15.1-.71-.18-1.43-.93-1.64Z"/><path class="cls-6" d="M161.62,78.61c.41.17.81.34,1.22.51.06.02.12.05.17.07.18.06.35.06.53.02.18,0,.34-.06.5-.16.16-.08.28-.2.37-.34.12-.13.2-.28.24-.45.02-.12.03-.24.05-.35,0-.24-.06-.47-.18-.67l-.21-.27c-.17-.17-.36-.28-.59-.34-.41-.17-.81-.34-1.22-.51-.06-.02-.12-.05-.17-.07-.18-.06-.35-.06-.53-.02-.18,0-.34.06-.5.16-.16.08-.28.2-.37.34-.12.13-.2.28-.24.45-.02.12-.03.24-.05.35,0,.24.06.47.18.67.07.09.14.18.21.27.17.17.36.28.59.34Z"/></g></g></svg>