<?xml version="1.0" encoding="UTF-8"?><svg id="_レイヤー_2" xmlns="http://www.w3.org/2000/svg" xmlns:xlink="http://www.w3.org/1999/xlink" viewBox="0 0 300 212"><defs><style>.cls-1{fill:#fff;}.cls-2{fill:none;}.cls-3{fill:#44d2b3;}.cls-4{fill:#e0f4fc;}.cls-5{fill:#00a3df;}.cls-6{clip-path:url(#clippath);}.cls-7{fill:#2e2e2e;}</style><clipPath id="clippath"><rect class="cls-2" width="300" height="212"/></clipPath></defs><g id="_レイヤー_1-2"><g class="cls-6"><path class="cls-1" d="M77.86,53.68c.72.41,1.48.72,2.25.84,1.42.22,2.22-.36,2.97-1.39-1.74.18-3.48.37-5.22.55Z"/><path class="cls-3" d="M66.93,138.52c-.45.05-.27.25,0,0h0Z"/><path class="cls-1" d="M66.14,86.34c-.22.22-.47.34-.72.38,3.16,6.01,5.93,12.24,8.5,18.56.08-2.33.12-4.67.22-7,.16-3.57,0-7.74,1.2-11.16.1-.29.27-.51.48-.65,0,0,0,0,0,0-.1-.09-.2-.19-.28-.32-1.42-2.31-2.81-4.61-3.72-7.15-1.94,2.42-3.56,5.23-5.67,7.35Z"/><path class="cls-3" d="M80.99,85.08s.04-.06.06-.09c-.02.03-.04.06-.06.09Z"/><path class="cls-3" d="M80.85,85.64c0-.2.06-.38.13-.54-.07.14-.12.32-.13.54Z"/><path class="cls-1" d="M97.55,165.88c-.72-.6-.37-2.05.58-2.2,6.63-1.03,13.26-2.06,19.89-3.09,2.12-.33,4.25-.66,6.37-.99l-1.99-1.66c-1.46.23-2.91.45-4.37.68-11.09,1.72-22.18,3.44-33.27,5.17.86.72,1.73,1.44,2.59,2.16,10.87,9.08,21.75,18.16,32.62,27.25,1.46-.23,2.91-.45,4.37-.68,1.43-.22,2.87-.44,4.3-.67-.01,0-.02-.02-.04-.03-10.35-8.65-20.71-17.3-31.06-25.94Z"/><path class="cls-1" d="M62.87,82.07c.47.81.92,1.63,1.37,2.45.01-.01.02-.03.03-.04,3.1-3.1,5.17-7.44,8.55-10.29-6.86-4.52-13.04-10.11-19.08-15.68-.49,1.67-.98,3.34-1.47,5-.17.58-.61.86-1.08.91,4.28,5.61,8.14,11.53,11.66,17.64Z"/><path class="cls-5" d="M77.87,87.82c-1.18,3.37-.97,7.47-1.13,10.99-.16,3.65-.16,7.32-.43,10.97-.02.32-.14.58-.31.78,2.32,5.95,4.53,11.94,6.8,17.86,2.01-5.68,4.56-11.23,6.46-16.96-.03-.07-.05-.14-.07-.23-.82-4.06-1.77-8.1-2.85-12.1-1.07-3.95-2.11-8.24-4.12-11.87-1.16.49-2.91.43-4.3.14,0,.13-.02.27-.07.42Z"/><path class="cls-1" d="M149.87,96.83c-.07-.72-.84-1.8-1.61-1.11-.33.3-.48,1.1-.6,1.51-.24.76-.46,1.51-.75,2.25-.18.45-.37.9-.57,1.34.96-.07,1.93-.13,2.89-.2.39-1.21.77-2.52.64-3.8Z"/><path class="cls-1" d="M160.97,98.9c.17.32.2.63.13.9.45-.03.9-.06,1.35-.09.35-.02.7-.05,1.04-.07,0-.04,0-.07,0-.11.03-.55.22-1.54-.54-1.52-.75.02-1.43.33-2.16.47.05.14.11.29.18.42Z"/><path class="cls-1" d="M158.58,99.98c-.26-.52-.48-1.07-.6-1.65-.02-.08-.12-.31-.13-.4-.13,0-.48-.04-.58-.03-1.27.14-2.37,1.36-3.24,2.4,1.52-.11,3.03-.21,4.55-.32Z"/><path class="cls-3" d="M87.03,64.81s-.02-.01-.03-.02c-.03.03-.06.06-.09.09.04-.03.08-.05.12-.07Z"/><path class="cls-4" d="M199.3,130.18c.29.75-.1,1.85-1.16,1.95-3.41.32-6.83.64-10.24.97-1.04.1-2.08.2-3.11.31-.38.04-1.51.34-.69-.02-.16.07-.33.11-.48.12.2,2.17.4,4.34.6,6.51.22,2.38,1.52,6.58-1.52,7.56-.18.06-.34.07-.49.06-.41.05-.82.09-1.23.14-19.38,2.23-38.76,4.46-58.14,6.68-2.98.34-5.96.69-8.94,1.03-.9.1-1.72.22-2.54-.32-1.04-.68-1.1-1.83-1.2-2.93-.29-3.12-.58-6.23-.86-9.35l-.59.12c.31.48.5,1.05.53,1.72.1,2.62-2.81,3.19-4.77,3.79,3.07.45,5.96,1.54,5.52,5.03-.22,1.76-1.46,2.61-3.16,2.52-3.34-.18-6.77.09-10.14.04-7.4-.12-14.78-.59-22.17-.94-4.16-.19-8.45-.74-12.51-1.71l-2.85.17c.21.6.5,1.16.91,1.64.49.57.4,1.25.04,1.72-.03.64-.45,1.28-1.26,1.33-9.54.59-19.08,1.18-28.63,1.77-4.93.31-9.87.61-14.8.92-2.39.15-4.53.29-6.5-.56l35.36,51.58,16.14-1.63c0-.06-.02-.11-.02-.16h0c0-.63.41-1.04.96-1.27,1.12-.47,2.89-.32,4.07-.44,3.38-.33,6.77-.65,10.15-.96,20.38-1.91,40.76-3.76,61.14-5.62,12.81-1.17,25.62-2.33,38.43-3.5,1.21-.11,1.54,1.22,1.01,2.03l51.06-3.99v-69.66l-27.92,3.39ZM103.75,189.45c-.35.65-1.18.78-1.8.47-.46-.23-.93-.47-1.39-.7-2.3-.21-4.59-.41-6.89-.62-.05,0-.1-.02-.15-.03-.18-.02-.35-.07-.51-.15-2.27-1.14-4.54-2.28-6.8-3.42-5.39-2.71-10.79-5.42-16.18-8.12-.5-.25-.69-.67-.66-1.09-.04-.02-.08-.04-.12-.06-.25.5-.5,1-.76,1.51,2.9,1.46,5.8,2.91,8.7,4.37,1.51.76.18,3.02-1.33,2.27-3.27-1.64-6.53-3.28-9.8-4.92-.67-.33-.77-1.19-.47-1.8.44-.87.87-1.74,1.31-2.6-.23-.12-.47-.23-.7-.35-.2-.1-.35-.23-.46-.38-1.04-1.02-.44-2.31.13-3.45.53-1.06,1.06-2.31,2.48-2.27.87.02,1.83.69,2.58,1.07.46.23.93.46,1.39.7.41-.27.98-.27,1.41-.05,5.39,2.71,10.79,5.42,16.18,8.12,2.15,1.08,4.29,2.16,6.44,3.23.18.04.35.13.51.28.11.08.2.17.27.28,1.53,1.71,3.06,3.42,4.59,5.13.51.26,1.02.51,1.53.77.66.33.79,1.2.47,1.8ZM178.73,190.53c-.04.46-.33.86-.94.96-6.63,1.03-13.26,2.06-19.89,3.09-6.81,1.06-13.62,2.13-20.43,3.17-1.3.2-1.95-.15-2.92-.96-1.07-.9-2.15-1.79-3.22-2.69-3.54.55-7.08,1.1-10.62,1.64-1.3.2-1.95-.15-2.92-.96-1.98-1.65-3.95-3.3-5.93-4.95-10.35-8.65-20.71-17.3-31.06-25.94-.72-.6-.37-2.05.58-2.2,6.63-1.03,13.26-2.06,19.89-3.09,6.81-1.06,13.62-2.13,20.43-3.17,1.3-.2,1.95.15,2.92.96,1.07.9,2.15,1.79,3.22,2.69,3.54-.55,7.08-1.1,10.62-1.64,1.3-.2,1.95.15,2.92.96,1.98,1.65,3.95,3.3,5.93,4.95,10.35,8.65,20.71,17.3,31.06,25.94.45.37.51.84.36,1.24Z"/><path class="cls-1" d="M86.09,70.27c-1.31,1.53-2.65,2.77-4.24,3.75,0,0,.02.01.03.02,3.07,2.54,4.67,6.41,6.96,9.61.29-.62.49-1.23.83-1.76-.7-3.26-1.55-6.48-2.63-9.63-.14-.41-.07-.77.11-1.03-.22-.5-.49-.99-.77-1.45-.05.17-.14.34-.28.5Z"/><path class="cls-1" d="M88.09,145.68c2.76,1.41,6.39,1.77,9.62,2.13,1.13-.34,2.26-.67,3.39-1.02,1.47-.44,3.44-.72,4.78-1.48,1.21-.68.27-1.46-.8-1.56-1.35-.13-3.06.37-4.39.62-2.55.48-5.02,1.22-7.45,2.12-.93.35-1.54-.37-1.58-1.15l-3.7.26s.08.05.12.07Z"/><path class="cls-1" d="M107.19,152.19c-.68-1.03-3.68-.98-4.86-1.15-1.49-.21-2.98-.4-4.48-.61-.08,0-.16-.01-.24-.03-.24-.03-.48-.06-.71-.1-3.19-.45-6.8-.76-9.74-2.15-2.49-1.17-4.12-3.82-6.72-4.75-1.4-.5-1.15-2.49.35-2.58,1.48-.09,2.96-.1,4.43-.2,1.16-.08,3.53.05,4.48-.74,2.5-2.07-1.79-2.37-2.79-2.38-1.28-.01-2.56-.02-3.83-.03-2.41-.02-4.88-.19-7.28-.01-2.92.22-5.06,2.22-7.63,3.38-1.45.65-3.38.23-4.94.19-1.07-.03-1.46-1.1-1.17-1.87h-.43c-.61,1.61-1.15,3.25-1.6,4.9-.71,2.58-1.88,6.65-.89,9.56l2.85-.17c-.2-.05-.4-.09-.6-.14-1.64-.41-.94-2.95.7-2.53,5.02,1.26,10.2,1.65,15.35,1.9,7.83.38,15.65.85,23.5.83,1.74,0,3.53-.23,5.26-.16.5.02,1,.35,1.18-.13.09-.23-.04-.81-.19-1.03Z"/><path class="cls-1" d="M101.73,101.09c2.21-.31,4.43-.62,6.64-.92-.07-.52-.15-1.04-.22-1.56-1.8.24-3.61.48-5.41.72-.89.12-1.29-.56-1.24-1.26l-.09.02c-.5,1.61-1.03,3.21-1.6,4.8l1.17-.02c-.38-.7-.24-1.64.75-1.78Z"/><path class="cls-1" d="M89.31,84.28c1.03,1.34-1.25,2.65-2.27,1.33-1.09-1.41-1.99-3-2.94-4.56-.05,1.29-.11,2.58-.22,3.87.05.06.11.13.15.2,2.35,3.83,3.53,8.47,4.71,12.76.75,2.74,1.43,5.49,2.05,8.26.27-1.14.5-2.29.68-3.45.77-4.98.04-10.19-.75-15.12-.3-1.9-.65-3.8-1.06-5.68-.34.53-.53,1.14-.83,1.76.15.22.31.43.47.64Z"/><path class="cls-5" d="M76.31,74.12c.05.45-.11.91-.61,1.22-.67.41-1.27.9-1.85,1.43,0,.03.02.05.03.07.76,2.84,2.26,5.29,3.79,7.77.54.24,1.34.28,1.95.3.44.01.9.03,1.34-.05.06-.01.17-.05.26-.07.02-.02.04-.04.06-.06.18-2.2.21-4.41.34-6.61.01-.19.06-.35.12-.5-.52-.62-1.08-1.2-1.71-1.72-.27-.22-.4-.48-.43-.73-.12.05-.24.11-.37.16-1.02.39-1.66-.53-1.57-1.39h-1.35c0,.06,0,.13,0,.19Z"/><path class="cls-1" d="M93.78,26.81c-.75-.01-1.6-.66-1.46-1.64.05-.37.1-.75.15-1.14-.32-.54-.64-1.08-.9-1.66-.7.53-1.82.46-2-.63-.23-1.44-.72-2.79-1.5-4.03-.47-.74-1.53-2.31-2.61-2.15-.58.08-1.04-.18-1.33-.55-.32-.2-.61-.48-.87-.77-.33.56-1,.88-1.69.39-2.08-1.47-4.7-2.25-7.21-1.46-2.74.86-3.47,3.26-4.74,5.53-1.75,3.14-5.06,5.48-8.6,6.33-.27.45-.61.83-.98,1.16.7.45.99,1.68.09,2.35-1.83,1.34-2.66,4.47-2.32,6.62.25,1.52-1.86,2.23-2.42,1.06,0,0,0,0,0,0-1.25-.97-3.41-2.19-4.26-.21-1.47,3.43,1.44,9.1,5.1,9.86,1.66.35.95,2.88-.7,2.53-.44-.09-.87-.23-1.29-.41v1.37c.45-1.2,2.55-1.04,2.54.47-.02,2.61-.05,5.23-.07,7.84,5.97,5.49,12.12,10.94,18.98,15.24.41.26.59.63.61,1.01h1.35c.05-.47.32-.93.87-1.15,1.48-.57,2.66-1.35,3.73-2.32,0-.05,0-.09.02-.14.2-.97.41-1.93.61-2.9-8.94,3.52-18.99-5.17-23.99-11.87-1.01-1.36,1.27-2.66,2.27-1.33,4.82,6.46,16.07,16.12,23.99,8.7,1.62-1.52,2.75-3.4,3.7-5.39,1.06-2.23,2.21-4.48,2.87-6.86.92-3.31.78-7.25.94-10.72.04-.86.74-1.28,1.41-1.26.09-3.94-.72-7.98-.3-11.88ZM84.11,27.51c1.93-.98,4.5-1,6.55-.42,1.63.46.93,2.99-.7,2.53-1.35-.38-3.25-.5-4.53.15-1.5.77-2.83-1.5-1.33-2.27ZM86.81,34.62c-1.69,0-1.69-2.63,0-2.63s1.69,2.63,0,2.63ZM68.01,28.61c2.6-1,5.3-1.35,8.06-.93,1.67.25.96,2.78-.7,2.53-2.28-.34-4.54.12-6.66.93-1.58.61-2.26-1.93-.7-2.53ZM72.51,35.33c-1.69,0-1.69-2.63,0-2.63s1.69,2.63,0,2.63ZM86.72,51.91c-.94,2.29-2.56,4.94-5.24,5.27-2.91.36-5.96-1.58-7.96-3.53-.88-.86-.14-2.13.93-2.24,3.67-.39,7.33-.77,11-1.16.52-.05.87.16,1.07.48.28.28.41.68.2,1.19ZM81.16,44.66c.37-.08.74-.16,1.11-.23.72-.15,1.39.21,1.62.92.21.65-.24,1.47-.92,1.62-.37.08-.74.16-1.11.23-.72.15-1.39-.21-1.62-.92-.21-.65.24-1.47.92-1.62ZM86.01,40.7c-1.95-.47-3.02-1.82-3.63-3.46.24,1.61.88,3.24,1.34,4.28.68,1.53-1.58,2.87-2.27,1.33-.99-2.22-2-5.09-1.74-7.68-.43.04-.87.08-1.3.12-.46,3.66-3.06,6.73-7.04,6.83-4.03.1-6.53-2.67-7.34-6.23-1.35.17-2.69.34-4.04.51-1.68.21-1.65-2.42,0-2.63,1.71-.22,3.41-.43,5.12-.65.76-.1,1.25.68,1.31,1.31.27,2.78,1.93,5.2,4.96,5.05,3.02-.15,4.53-2.7,4.49-5.48-.01-1.04.97-1.44,1.74-1.2.14-.06.28-.11.45-.12.84-.08,1.68-.15,2.52-.23.5-.75,1.42-.66,1.96-.17.14-.01.28-.03.42-.04.76-.07,1.26.66,1.31,1.31.1,1.11.26,2.61.88,3.55,2.03,3.04,6.31,0,5.89-3.05-.23-1.66,2.3-2.37,2.53-.7.62,4.43-2.91,8.47-7.56,7.34Z"/><path class="cls-5" d="M49.4,25.68c.4,2.35.77,4.73,1.32,7.05,1.34-.63,3.01-.41,4.51.3.28-2.62,1.48-5.21,3.59-6.76.45-.33.89-.3,1.24-.08.37-.34.71-.72.98-1.16-.93.22-1.87.35-2.8.35-1.69,0-1.69-2.62,0-2.63,3.1-.01,6.29-1.66,8.27-4.06,1.64-1.98,2.09-4.63,4.09-6.38,3.45-3.04,8.77-2.46,12.32.05.69.49.7,1.31.36,1.87.26.29.54.57.87.77-.53-.7-.45-1.82.63-1.98,4.18-.61,6.79,4.55,7.34,8.01.09.58-.16,1.04-.54,1.33.26.58.58,1.12.9,1.66.4-3.16.68-6.68-.52-9.63-1.13-2.78-4.62-6.88-7.83-6.38-1.66.26-2.36-2.27-.7-2.53.17-.03.33-.04.5-.06-.57-.62-1.27-.97-2.33-1.07.28,1.06-.76,2.33-1.83,1.52-2.39-1.82-5.61-2.56-8.53-2.97-3.35-.47-7.19-.55-10.36.82-3.36,1.46-6.08,4.56-8.09,7.54-1.91,2.83-3.62,6.14-3.73,9.62-.04,1.22-1.41,1.55-2.16,1.01-.28,1.8-.44,3.61.13,5.41-.05-.31-.1-.62-.16-.93-.28-1.66,2.25-2.36,2.53-.7Z"/><path class="cls-7" d="M173.92,200.62l2.24-.17c.53-.81.21-2.14-1.01-2.03-12.81,1.16-25.62,2.33-38.43,3.5-20.38,1.86-40.76,3.71-61.14,5.62-3.38.32-6.77.63-10.15.96-1.18.12-2.95-.03-4.07.44-.55.23-.96.63-.96,1.27h0c0,.06.01.11.02.17l1.67-.2-1.67.2c.09.9.97,1.25,1.69,1.04-.01.02-.03.04-.04.06-.25.1.08-.01.55-.06.78-.08,1.55-.16,2.33-.23,2.78-.27,5.56-.54,8.35-.8,9.02-.85,18.04-1.68,27.07-2.51,20.26-1.86,40.52-3.71,60.78-5.55,4.67-.42,9.34-.85,14.02-1.27.47-.04.8-.28,1.01-.6l-2.24.17Z"/><path class="cls-7" d="M81.86,47.19c.37-.08.74-.16,1.11-.23.67-.14,1.13-.97.92-1.62-.23-.71-.89-1.07-1.62-.92-.37.08-.74.16-1.11.23-.67.14-1.13.97-.92,1.62.23.71.89,1.07,1.62.92Z"/><path class="cls-7" d="M85.44,29.78c1.28-.65,3.18-.54,4.53-.15,1.63.46,2.32-2.07.7-2.53-2.05-.58-4.63-.56-6.55.42-1.51.77-.18,3.04,1.33,2.27Z"/><path class="cls-7" d="M86.81,34.62c1.69,0,1.69-2.63,0-2.63s-1.69,2.63,0,2.63Z"/><path class="cls-7" d="M76.07,27.68c-2.76-.41-5.46-.07-8.06.93-1.56.6-.88,3.14.7,2.53,2.13-.82,4.38-1.27,6.66-.93,1.65.25,2.37-2.28.7-2.53Z"/><path class="cls-7" d="M72.51,32.7c-1.69,0-1.69,2.63,0,2.63s1.69-2.63,0-2.63Z"/><path class="cls-7" d="M73.52,53.65c2,1.95,5.05,3.88,7.96,3.53,2.67-.33,4.3-2.98,5.24-5.27.21-.5.08-.91-.2-1.19-.2-.32-.55-.53-1.07-.48-3.67.39-7.33.77-11,1.16-1.07.11-1.81,1.38-.93,2.24ZM80.11,54.51c-.77-.12-1.53-.43-2.25-.84,1.74-.18,3.48-.37,5.22-.55-.75,1.03-1.54,1.61-2.97,1.39Z"/><path class="cls-7" d="M19.11,136c-1.41.92-.1,3.19,1.33,2.27,2.34-1.53,4.89-2.16,7.68-1.94,1.69.14,1.68-2.49,0-2.63-3.2-.26-6.31.55-9,2.3Z"/><path class="cls-7" d="M103.28,89.02c-.91-2.84-5.29-4.16-7.73-5.4-1.51-.76-2.84,1.5-1.33,2.27,1.01.51,2.02,1.03,3.02,1.56,1.97,1.03,3.85,1.61,3.21,4.24-1.12,4.6-2.61,9.11-4.32,13.53-2.31,5.96-5.02,11.86-8.32,17.39,2.65-6.63,5.42-13.24,6.34-20.35.62-4.85-.06-9.84-.79-14.65-.83-5.44-2.02-10.84-3.8-16.05-.54-1.59-3.08-.91-2.53.7,1.07,3.15,1.93,6.38,2.63,9.63.22-.35.51-.67.92-.95-.42.28-.7.6-.92.95.4,1.89.75,3.78,1.06,5.68.79,4.93,1.52,10.14.75,15.12-.18,1.16-.41,2.31-.68,3.45-.62-2.77-1.3-5.52-2.05-8.26-1.17-4.29-2.35-8.93-4.71-12.76-.05-.08-.1-.14-.15-.2.11-1.29.17-2.58.22-3.87.95,1.56,1.85,3.15,2.94,4.56,1.02,1.32,3.3.01,2.27-1.33-.16-.21-.32-.42-.47-.64-.12.26-.26.53-.44.79.18-.27.32-.53.44-.79-2.29-3.2-3.89-7.07-6.96-9.61,0,0-.02-.01-.03-.02,1.58-.98,2.93-2.22,4.24-3.75.73-.85.15-1.97-.65-2.23.08-.38.16-.76.24-1.15.08-.35.01-.66-.13-.92.39-.27.76-.57,1.11-.88-.44.46-.56,1.18.07,1.71,1.68,1.42,3.27,2.95,4.86,4.46.38.36.88.73,1.24,1.15-.1-.06.32.78.38.94,1.24,2.91,2.47,5.82,3.71,8.73.66,1.55,2.92.21,2.27-1.33-1.27-2.99-2.45-6.03-3.81-8.98-.45-.98-.98-1.48-1.78-2.24-1.45-1.37-2.9-2.75-4.4-4.07l-1.52-.55,1.52.55c-.2-.18-.4-.36-.61-.53-.51-.43-1.11-.4-1.56-.13.6.43,1.21.94,1.81,1.24-.6-.3-1.21-.81-1.81-1.24-.04.02-.08.04-.12.07.03-.03.06-.06.09-.09-.26-.19-.53-.36-.79-.49.26.13.53.31.79.49,3.22-3.02,5.08-7.5,6.62-11.52,1.6-4.17,1.47-8.9,1.67-13.32.04-.83-.57-1.25-1.22-1.26-.03,1.26-.14,2.5-.43,3.73.28-1.22.4-2.47.43-3.73-.67-.02-1.37.4-1.41,1.26-.16,3.47-.02,7.41-.94,10.72-.66,2.38-1.81,4.64-2.87,6.86-.95,2-2.07,3.87-3.7,5.39-7.93,7.42-19.18-2.24-23.99-8.7-1-1.34-3.28-.03-2.27,1.33,5,6.7,15.05,15.4,23.99,11.87-.2.97-.41,1.93-.61,2.9-.01.05-.01.09-.02.14-1.08.97-2.26,1.75-3.73,2.32-.55.21-.82.67-.87,1.15h2.42-2.42c-.09.86.55,1.78,1.57,1.39.13-.05.24-.1.37-.16.03.25.16.51.43.73.63.52,1.19,1.1,1.71,1.72-.07.15-.11.31-.12.5-.13,2.2-.16,4.41-.34,6.61-.02.02-.04.04-.06.06-.09.02-.19.06-.26.07-.43.07-.9.06-1.34.05-.61-.02-1.41-.06-1.95-.3-1.53-2.48-3.02-4.93-3.79-7.77,0-.03-.02-.05-.03-.07.57-.53,1.18-1.01,1.85-1.43.49-.3.65-.77.61-1.22,0-.06,0-.13,0-.19h-.61.61c-.02-.38-.19-.75-.61-1.01-6.87-4.3-13.01-9.75-18.98-15.24.02-2.61.05-5.23.07-7.84.01-1.51-2.08-1.67-2.54-.47v1.8-1.8c-.05.14-.09.3-.09.47-.02,1.81-.03,3.63-.05,5.44-.03-.03-.06-.06-.09-.09-.73-.67-1.91-.39-2.2.58-.69,2.35-1.38,4.7-2.07,7.05-.05.16-.06.31-.05.45-.12,0-.24,0-.35.02-.35-.25-.82-.3-1.3.02-1.64,1.11-3.28,2.23-4.92,3.34-1.61,1.1-3.3,2.63-5.08,3.48.03-.03-.27.07-.43.1-.37.07-.75.12-1.12.18-1.25.19-2.5.36-3.75.56-3.13.49-6.28,1.05-9.31,2.01-2.3.73-4.78,1.67-6.12,3.79-1.78,2.83-2.62,6.39-3.4,9.6-1.71,7.08-3.19,14.31-4.41,21.48-1.56,9.13-3.14,18.23-4.62,27.37-1.23,7.6-4.58,16.83,1.41,23.29.84.91,1.71,1.51,2.62,1.9l-1.05-2.32,1.05,2.32c1.97.85,4.11.71,6.5.56,4.93-.31,9.87-.61,14.8-.92,9.54-.59,19.08-1.18,28.63-1.77.81-.05,1.23-.69,1.26-1.33.35-.47.45-1.15-.04-1.72-.42-.48-.71-1.04-.91-1.64l-1.04.06,1.04-.06c-.99-2.91.17-6.98.89-9.56.46-1.65.99-3.29,1.6-4.9h-1.26,1.26c.29-.76.6-1.52.93-2.27.15-.34.15-.67.06-.97.26-.77-.14-1.78-1.19-1.77-9.17.08-18.35.17-27.52.25,1.56-9.21,3.11-18.42,4.67-27.63.28-1.65-2.25-2.36-2.53-.7-1.64,9.71-3.28,19.43-4.93,29.14-.11.63.2,1.13.63,1.4.21.25.53.42.96.42,9.01-.08,18.02-.17,27.04-.25-1.08,2.57-1.97,5.25-2.62,7.95-.83,3.43-1.6,7.76.14,11.03-7.01.43-14.01.87-21.02,1.3-5.39.33-10.77.67-16.16,1-2.66.16-5.41.54-8.08.5-3.23-.05-5.3-3.26-6.16-6.05-1.26-4.1.25-8.68.93-12.78,1.38-8.35,2.8-16.67,4.21-25,1.34-7.89,3.01-15.67,4.55-23.51.61-3.11,1.32-6.22,2.33-9.22.95-2.81,1.82-4.77,4.64-5.92,3.11-1.27,6.54-1.86,9.84-2.4,2.04-.34,4.49-.31,6.44-1.02,1.77-.64,3.46-2.23,5-3.3.95,4.88,1.89,9.77,2.84,14.65.32,1.66,2.85.96,2.53-.7-.96-4.97-1.92-9.93-2.89-14.9-.05-.24-.14-.42-.26-.57.99-.67,1.98-1.35,2.98-2.02,7.45,9.76,14.09,20.56,18.82,31.9,3.6,8.63,6.97,17.35,10.37,26.06.95,2.43,1.89,4.86,2.84,7.29.21.55.66.82,1.13.87.53.66,1.77.74,2.25-.16.27-.07.53-.23.74-.5,6.36-8.39,10.97-18.2,14.54-28.07.04-.11.08-.22.11-.32l-2.29.04,2.29-.04c.57-1.59,1.1-3.19,1.6-4.8l-1.44.4,1.44-.4c.26-.83.51-1.67.75-2.51.54-1.9,1.76-4.59,1.13-6.56ZM81.05,84.99s-.04.06-.06.09c.02-.03.04-.06.06-.09ZM80.98,85.1c-.07.15-.12.33-.13.54.01-.22.06-.39.13-.54ZM64.25,84.53c-.45-.82-.91-1.64-1.37-2.45-3.52-6.11-7.39-12.03-11.66-17.64.47-.05.9-.33,1.08-.91.49-1.67.98-3.34,1.47-5,6.04,5.56,12.22,11.16,19.08,15.68-3.38,2.85-5.46,7.19-8.55,10.29-.01.01-.02.03-.03.04ZM75.34,87.12c-1.2,3.42-1.03,7.59-1.2,11.16-.11,2.33-.15,4.67-.22,7-2.57-6.32-5.33-12.56-8.5-18.56.25-.03.49-.15.72-.38,2.12-2.12,3.74-4.93,5.67-7.35.91,2.54,2.29,4.85,3.72,7.15.08.13.18.23.28.32,0,0,0,0,0,0-.2.15-.37.36-.48.65ZM82.81,128.42c-2.27-5.92-4.48-11.91-6.8-17.86.17-.2.28-.46.31-.78.27-3.65.27-7.32.43-10.97.15-3.52-.05-7.62,1.13-10.99.05-.15.07-.29.07-.42,1.39.29,3.14.36,4.3-.14,2.01,3.63,3.05,7.92,4.12,11.87,1.08,4,2.03,8.04,2.85,12.1.02.08.04.15.07.23-1.9,5.73-4.45,11.28-6.46,16.96Z"/><path class="cls-7" d="M39.01,100.8c-4.5-7.51-9.01-15.01-13.51-22.52-.87-1.45-3.14-.13-2.27,1.33,4.5,7.51,9.01,15.01,13.51,22.52.87,1.45,3.14.13,2.27-1.33Z"/><path class="cls-7" d="M111.11,100.93c-.2-1.38-.39-2.75-.59-4.13-.07-.5-.75-1.03-1.27-.96-2.17.29-4.35.58-6.52.87-.78.1-1.19.74-1.24,1.36l.84-.23-.84.23c-.05.7.35,1.38,1.24,1.26,1.8-.24,3.61-.48,5.41-.72.07.52.15,1.04.22,1.56-2.21.31-4.43.62-6.64.92-.99.14-1.14,1.08-.75,1.78l1.83-.03-1.83.03c.26.48.78.85,1.45.75,2.59-.36,5.18-.72,7.77-1.08.76-.11,1.01-.99.92-1.62Z"/><path class="cls-7" d="M104.45,148.52c1.96-.6,4.87-1.16,4.77-3.79-.1-2.59-2.69-3.74-4.92-3.52-4.04.4-7.96,1.33-11.75,2.75-.66.24-.91.83-.88,1.38l1.12-.08-1.12.08c.04.78.66,1.49,1.58,1.15,2.43-.91,4.9-1.64,7.45-2.12,1.33-.25,3.03-.74,4.39-.62,1.06.1,2.01.88.8,1.56-1.34.76-3.31,1.03-4.78,1.48-1.13.34-2.26.68-3.39,1.02-3.23-.36-6.86-.72-9.62-2.13-.04-.02-.08-.05-.12-.07l-3.21.23,3.21-.23c-1.12-.59-2.07-1.42-3.02-2.24,2.4-.06,4.85-.31,6.62-1.55,1.66-1.17,2.32-3.31,1.03-4.99-1.77-2.31-4.8-1.95-7.38-1.97-3.23-.02-6.54-.28-9.76,0-2.04.17-3.65.99-5.42,1.94-.78.42-1.55.85-2.33,1.29-.2.12-.56.26-.75.42-1.24-.04-2.48-.07-3.72-.1-.62-.02-1,.32-1.17.76h2.69-2.69c-.29.77.1,1.84,1.17,1.87,1.56.04,3.49.46,4.94-.19,2.57-1.16,4.71-3.16,7.63-3.38,2.4-.18,4.87,0,7.28.01,1.28,0,2.56.02,3.83.03,1,0,5.3.32,2.79,2.38-.95.79-3.32.66-4.48.74-1.48.1-2.96.11-4.43.2-1.5.09-1.75,2.08-.35,2.58,2.6.93,4.23,3.58,6.72,4.75,2.94,1.38,6.55,1.7,9.74,2.15.24.03.48.06.71.1.08.02.16.03.24.03,1.49.2,2.99.39,4.48.61,1.18.17,4.18.12,4.86,1.15.14.22.28.79.19,1.03-.18.47-.68.15-1.18.13-1.73-.07-3.52.16-5.26.16-7.84.02-15.67-.44-23.5-.83-5.15-.25-10.33-.63-15.35-1.9-1.64-.41-2.34,2.12-.7,2.53.2.05.4.09.6.14l.93-.05-.93.05c4.06.97,8.35,1.52,12.51,1.71,7.39.34,14.77.81,22.17.94,3.37.06,6.79-.21,10.14-.04,1.7.09,2.93-.76,3.16-2.52.44-3.48-2.44-4.57-5.52-5.03ZM66.93,138.52c-.27.25-.45.05,0,0h0Z"/><path class="cls-1" d="M119.49,152.22c4.4-.51,8.81-1.01,13.21-1.52,16.43-1.89,32.87-3.78,49.3-5.67.15-.1-.09-1.48-.11-1.69-.89-9.61-1.77-19.21-2.66-28.82-.37-4-.74-8-1.11-12-.03-.34.03-.94-.12-1.26,0,0,0-.01,0-.02-.38-.11-1.16.09-1.52.12-18.74,1.31-37.48,2.62-56.21,3.93-3.28.23-6.57.46-9.85.69-.33.02-1.69-.1-1.94.14.06-.06.11.75.14,1.05.83,9.01,1.66,18.02,2.5,27.04.44,4.77.88,9.53,1.32,14.3.12,1.29.18,2.6.36,3.88.01.08,0,.53.04.72.03-.08.21-.15.3-.15,1.99.17,4.39-.5,6.36-.73ZM111.99,124.53c-.39-4.19-.77-8.38-1.16-12.57-.2-2.19-.9-4.9,2.14-5.37,1.8-.28,3.69-.27,5.5-.4,3.99-.29,7.98-.58,11.97-.87,10.04-.73,20.08-1.47,30.13-2.2,3.64-.27,7.28-.53,10.92-.8,1.47-.11,3.97-.75,5.17.39,1.46,1.39,1.11,5.33,1.28,7.13.44,4.71.87,9.42,1.31,14.14.43,4.63.86,9.27,1.28,13.9.22,2.34,1.33,5.75-1.46,6.84-.23.09-.44.11-.63.08-.32.04-.64.07-.96.11l-51.15,5.72c-2.8.31-5.6.63-8.4.94-1.98.22-3.47-.42-3.69-2.65-.82-8.12-1.5-16.26-2.25-24.39Z"/><path class="cls-1" d="M116.88,149.08c.02.1.02.16.02.2.02-.06.1-.17.32-.25,1.85-.66,4.45-.5,6.38-.71,3.97-.44,7.93-.89,11.9-1.33,14.26-1.59,28.52-3.19,42.78-4.78-.01-.04-.01-.12,0-.3.03-.41-.08-.89-.12-1.29-.79-8.51-1.57-17.01-2.36-25.52-.3-3.27-.6-6.54-.91-9.81-.01-.15,0-.37-.02-.57-.58.07-1.18.09-1.76.13-16.61,1.21-33.23,2.42-49.84,3.64-2.87.21-5.74.42-8.61.63-.34.03-1.04-.05-1.46.05,0,.02,0,.03,0,.05-.03.26.05.57.08.83.74,7.98,1.47,15.96,2.21,23.94.37,4.02.74,8.05,1.12,12.07.09,1,.11,2.04.28,3.02Z"/><path class="cls-7" d="M114.24,148.92c.23,2.23,1.71,2.87,3.69,2.65,2.8-.31,5.6-.63,8.4-.94l51.15-5.72c.32-.04.64-.07.96-.11.19.03.4.01.63-.08,2.78-1.09,1.67-4.5,1.46-6.84-.43-4.63-.86-9.27-1.28-13.9-.44-4.71-.87-9.42-1.31-14.14-.17-1.8.18-5.74-1.28-7.13-1.2-1.15-3.71-.5-5.17-.39-3.64.27-7.28.53-10.92.8-10.04.73-20.08,1.47-30.13,2.2-3.99.29-7.98.58-11.97.87-1.81.13-3.71.12-5.5.4-3.03.47-2.34,3.18-2.14,5.37.39,4.19.77,8.38,1.16,12.57.75,8.13,1.43,16.27,2.25,24.39ZM115.49,133.98c-.74-7.98-1.47-15.96-2.21-23.94-.02-.26-.1-.57-.08-.83,0-.02,0-.03,0-.05.42-.1,1.12-.03,1.46-.05,2.87-.21,5.74-.42,8.61-.63,16.61-1.21,33.23-2.42,49.84-3.64.59-.04,1.18-.06,1.76-.13.01.2,0,.42.02.57.3,3.27.6,6.54.91,9.81.79,8.51,1.57,17.01,2.36,25.52.04.41.15.89.12,1.29-.01.18-.01.27,0,.3-14.26,1.59-28.52,3.19-42.78,4.78-3.97.44-7.93.89-11.9,1.33-1.93.22-4.54.06-6.38.71-.22.08-.29.19-.32.25,0-.04,0-.1-.02-.2-.17-.99-.19-2.03-.28-3.02-.37-4.02-.74-8.05-1.12-12.07Z"/><path class="cls-7" d="M112.27,29.24c1.79-1.59,3.58-3.18,5.37-4.77,1.27-1.12-.6-2.98-1.86-1.86-1.79,1.59-3.58,3.18-5.37,4.77-1.27,1.12.6,2.98,1.86,1.86Z"/><path class="cls-7" d="M114.21,36.41c2.11-.53,4.23-1.06,6.34-1.59,1.64-.41.94-2.94-.7-2.53-2.11.53-4.23,1.06-6.34,1.59-1.64.41-.94,2.94.7,2.53Z"/><path class="cls-7" d="M114.24,41.64c-1.69,0-1.69,2.63,0,2.63h6.97c1.69,0,1.69-2.63,0-2.63h-6.97Z"/><path class="cls-7" d="M199.3,130.18l-1.66.2,1.66-.2c-.17-.42-.55-.74-1.16-.68-3.74.35-7.49.7-11.23,1.07-1.07.1-2.43.05-3.54.35-.2-2.2-.41-4.4-.61-6.6-.5-5.37-.99-10.75-1.49-16.12-.17-1.84-.34-3.67-.51-5.51-.07-.77-.04-1.76-.33-2.49-.93-2.29-4.07-1.46-5.96-1.33-2.78.19-5.56.39-8.35.58.06-1.34-.15-2.83-1.37-3.61-.63-.4-1.38-.5-2.11-.43-.91.09-1.75.56-2.67.49-.14,0-.26,0-.37.03-.53-.43-1.24-.63-1.93-.66-2.16-.08-3.87,1.4-5.27,2.94.22-2.64-.46-5.27-3.76-5.28-1.64,0-2.52,1.01-3.1,2.43-.66,1.64-1.04,3.36-1.84,4.95-.12.24-.16.48-.14.71-5.05.35-10.1.71-15.14,1.06-.3.02-.6.04-.9.06.22-.36.28-.81.03-1.29-3.19-5.98-6.38-11.95-9.57-17.93-1.37-2.57-2.75-5.14-4.12-7.7-.89-1.66-1.71-3.23-3.22-4.43-1.55-1.24-3.33-1.67-5.2-2.12-3.77-.91-7.54-1.83-11.31-2.74-.74-.18-1.28.23-1.51.78l1.52.55-1.52-.55c-.28.67-.09,1.54.81,1.75,3.2.78,6.41,1.55,9.61,2.33,1.34.32,2.81.55,4.11,1.01,2.26.8,3.32,2.64,4.36,4.6,2.99,5.59,5.98,11.18,8.96,16.77,1.61,3.01,3.21,6.01,4.82,9.02.02.04.04.06.06.09-3.59.2-7.22.33-10.82.6.29-.2.47-.54.42-1.03-.44-4.32-.89-8.64-1.33-12.96-.17-1.67-2.8-1.68-2.63,0,.44,4.32.89,8.64,1.33,12.96.06.58.41.95.84,1.13-1.58.13-3.16.29-4.72.51-3.34.45-2.45,3.71-2.23,6.07.43,4.7.87,9.4,1.3,14.1.88,9.53,1.76,19.06,2.64,28.59.1,1.1.16,2.25,1.2,2.93.83.54,1.65.42,2.54.32,2.98-.34,5.96-.69,8.94-1.03,19.38-2.23,38.76-4.46,58.14-6.68.41-.05.82-.09,1.23-.14.15,0,.31,0,.49-.06,3.04-.99,1.74-5.19,1.52-7.56-.2-2.17-.4-4.34-.6-6.51.16-.01.32-.04.48-.12-.82.36.32.06.69.02,1.04-.11,2.08-.21,3.11-.31,3.41-.33,6.82-.65,10.24-.97,1.06-.1,1.45-1.2,1.16-1.95ZM162.95,98.01c.77-.02.57.97.54,1.52,0,.04,0,.07,0,.11-.35.02-.7.05-1.04.07-.45.03-.9.06-1.35.09.06-.28.04-.59-.13-.9-.07-.14-.13-.28-.18-.42.73-.14,1.41-.45,2.16-.47ZM157.27,97.9c.09-.01.44.03.58.03.01.09.11.32.13.4.12.58.34,1.12.6,1.65-1.52.11-3.03.21-4.55.32.87-1.04,1.97-2.25,3.24-2.4ZM146.91,99.49c.29-.74.51-1.5.75-2.25.13-.41.27-1.22.6-1.51.77-.69,1.54.39,1.61,1.11.13,1.28-.24,2.59-.64,3.8-.96.07-1.93.13-2.89.2.2-.44.39-.89.57-1.34ZM182,145.03c-16.43,1.89-32.87,3.78-49.3,5.67-4.4.51-8.81,1.01-13.21,1.52-1.97.23-4.37.9-6.36.73-.09,0-.27.06-.3.15-.04-.2-.03-.64-.04-.72-.18-1.28-.24-2.59-.36-3.88-.44-4.77-.88-9.53-1.32-14.3-.83-9.01-1.66-18.02-2.5-27.04-.03-.29-.08-1.1-.14-1.05.26-.23,1.61-.11,1.94-.14,3.28-.23,6.57-.46,9.85-.69,18.74-1.31,37.48-2.62,56.21-3.93.37-.03,1.14-.23,1.52-.12,0,0,0,.01,0,.02.15.31.08.91.12,1.26.37,4,.74,8,1.11,12,.89,9.61,1.77,19.21,2.66,28.82.02.21.25,1.59.11,1.69Z"/><path class="cls-7" d="M93.57,33.36c-.23-1.67-2.76-.96-2.53.7.42,3.05-3.85,6.09-5.89,3.05-.63-.94-.79-2.44-.88-3.55-.06-.66-.56-1.38-1.31-1.31-.14.01-.28.03-.42.04-.54-.49-1.45-.58-1.96.17-.84.08-1.68.15-2.52.23-.17.02-.32.06-.45.12-.77-.24-1.75.16-1.74,1.2.04,2.78-1.47,5.33-4.49,5.48-3.03.15-4.69-2.28-4.96-5.05-.06-.64-.56-1.41-1.31-1.31-1.71.22-3.41.43-5.12.65-1.65.21-1.68,2.84,0,2.63,1.35-.17,2.69-.34,4.04-.51.81,3.55,3.32,6.33,7.34,6.23,3.98-.1,6.59-3.17,7.04-6.83.43-.04.87-.08,1.3-.12-.25,2.59.75,5.46,1.74,7.68.69,1.54,2.95.21,2.27-1.33-.46-1.04-1.1-2.67-1.34-4.28.61,1.64,1.68,2.99,3.63,3.46,4.65,1.13,8.18-2.92,7.56-7.34Z"/><path class="cls-7" d="M81.08,3.61c-2.81-2.14-6.67-2.94-10.1-3.36-3.79-.46-7.99-.42-11.52,1.24-3.63,1.71-6.53,4.94-8.78,8.19-2.26,3.27-4.14,7.16-4.26,11.21-.01.47.18.8.47,1.01.11-.75.25-1.5.35-2.25-.11.75-.24,1.5-.35,2.25.75.54,2.12.21,2.16-1.01.1-3.48,1.82-6.79,3.73-9.62,2.01-2.98,4.73-6.07,8.09-7.54,3.16-1.38,7-1.3,10.36-.82,2.92.41,6.14,1.15,8.53,2.97,1.07.81,2.11-.46,1.83-1.52-.2-.02-.4-.03-.62-.03.22,0,.43.01.62.03-.07-.28-.23-.54-.5-.75Z"/><path class="cls-7" d="M93.94,12.48c-1.85-3.61-5.76-7.4-10.03-7.06.37.4.68.91.99,1.53-.31-.62-.62-1.13-.99-1.53-.16.01-.33.03-.5.06-1.67.26-.96,2.79.7,2.53,3.22-.5,6.7,3.61,7.83,6.38,1.2,2.95.92,6.47.52,9.63.51.86,1,1.71,1.19,2.62-.18-.92-.68-1.76-1.19-2.62-.05.38-.1.77-.15,1.14-.13.99.71,1.63,1.46,1.64.07-.64.17-1.28.31-1.91-.15.63-.24,1.27-.31,1.91.51,0,.98-.27,1.07-.95.59-4.36,1.19-9.31-.91-13.38Z"/><path class="cls-7" d="M82.91,12.37c-3.55-2.51-8.86-3.09-12.32-.05-1.99,1.75-2.45,4.4-4.09,6.38-1.98,2.4-5.17,4.05-8.27,4.06-1.69,0-1.69,2.63,0,2.63.93,0,1.87-.13,2.8-.35.32-.52.56-1.14.66-1.88-.11.74-.34,1.36-.66,1.88,3.54-.85,6.85-3.19,8.6-6.33,1.26-2.26,2-4.67,4.74-5.53,2.51-.78,5.13,0,7.21,1.46.69.49,1.36.17,1.69-.39-.36-.4-.68-.84-1-1.16.32.32.64.75,1,1.16.34-.57.33-1.39-.36-1.87Z"/><path class="cls-7" d="M60.05,26.2c-.98.89-2.21,1.49-3.17,2.21.96-.72,2.19-1.31,3.17-2.21-.35-.22-.79-.25-1.24.08-2.11,1.54-3.31,4.13-3.59,6.76-1.5-.71-3.16-.93-4.51-.3-.55-2.33-.92-4.7-1.32-7.05-.28-1.66-2.81-.96-2.53.7.05.31.1.62.16.93.16.51.37,1.02.67,1.53-.29-.51-.51-1.02-.67-1.53.41,2.47.83,4.96,1.48,7.37.04.15.11.28.18.39-1.74,4.46,1.09,11,5.58,12.92v-.76.76c.42.18.85.32,1.29.41,1.65.35,2.35-2.19.7-2.53-3.65-.77-6.57-6.43-5.1-9.86.85-1.98,3-.76,4.26.21,0,0,0,0,0,0,.56,1.18,2.66.46,2.42-1.06-.35-2.15.49-5.28,2.32-6.62.91-.66.61-1.9-.09-2.35Z"/><path class="cls-7" d="M53.72,85.9c1.21-.73,2.42-1.46,3.63-2.19,1.45-.87.13-3.14-1.33-2.27-2.63,1.58-5.3,3.1-7.88,4.75-1.41.9-2.47,2.18-2.12,3.98.27,1.37,1.53,2.56,2.4,3.6,6.03,7.2,12.46,14.08,18.68,21.12,2.86,3.24,5.82,6.45,8.41,9.91,1,1.34,3.28.03,2.27-1.33-4.74-6.32-10.28-12.1-15.53-17.98-2.94-3.29-5.88-6.57-8.79-9.89-1.11-1.27-5.82-5.37-4.23-6.99,1.1-1.12,3.15-1.9,4.49-2.7Z"/><path class="cls-7" d="M91.03,20.09c0,.84.22,1.58.54,2.28.38-.29.63-.75.54-1.33-.55-3.46-3.15-8.62-7.34-8.01-1.08.16-1.16,1.28-.63,1.98.45.28.98.43,1.63.26-.65.16-1.18.02-1.63-.26.29.38.75.64,1.33.55,1.08-.16,2.14,1.41,2.61,2.15.78,1.24,1.27,2.59,1.5,4.03.17,1.08,1.3,1.16,2,.63-.32-.7-.54-1.45-.54-2.28Z"/><path class="cls-1" d="M72.45,175.17c4.61,2.32,9.23,4.63,13.84,6.95.41-.81.82-1.63,1.22-2.44-4.61-2.32-9.23-4.63-13.84-6.95-.41.81-.82,1.63-1.22,2.44Z"/><path class="cls-7" d="M70.02,176.88c5.39,2.71,10.79,5.42,16.18,8.12,2.27,1.14,4.54,2.28,6.8,3.42.16.08.33.13.51.15.05,0,.1.03.15.03,2.3.21,4.59.41,6.89.62.46.23.93.47,1.39.7.61.31,1.45.18,1.8-.47.31-.6.18-1.47-.47-1.8-.51-.26-1.02-.51-1.53-.77-1.53-1.71-3.06-3.42-4.59-5.13-.07-.11-.16-.2-.27-.28-.16-.15-.34-.24-.51-.28-2.15-1.08-4.29-2.16-6.44-3.23-5.39-2.71-10.79-5.42-16.18-8.12-.44-.22-1-.22-1.41.05-.46-.23-.93-.46-1.39-.7-.76-.38-1.71-1.05-2.58-1.07-1.42-.04-1.95,1.21-2.48,2.27-.57,1.14-1.17,2.43-.13,3.45.11.15.26.28.46.38.23.12.47.23.7.35-.44.87-.87,1.74-1.31,2.6-.3.6-.2,1.46.47,1.8,3.27,1.64,6.53,3.28,9.8,4.92,1.51.76,2.84-1.51,1.33-2.27-2.9-1.46-5.8-2.91-8.7-4.37.25-.5.5-1,.76-1.51.04.02.08.04.12.06-.03.42.16.84.66,1.09ZM94.31,183.09c-.41.81-.82,1.63-1.22,2.44-1.49-.75-2.97-1.49-4.46-2.24.41-.81.82-1.63,1.22-2.44,1.49.75,2.97,1.49,4.46,2.24ZM96.38,184.81c.45.51.91,1.02,1.36,1.52-.68-.06-1.36-.12-2.04-.18.22-.45.45-.89.67-1.34ZM86.29,182.11c-4.61-2.32-9.23-4.63-13.84-6.95.41-.81.82-1.63,1.22-2.44,4.61,2.32,9.23,4.63,13.84,6.95-.41.81-.82,1.63-1.22,2.44ZM68.51,171s.02-.05.04-.08c.04.02.08.03.1.04.79.4,1.59.8,2.38,1.19-.21.41-.41.82-.62,1.23-.82-.41-1.65-.83-2.47-1.24,0,0,0-.02.01-.03.18-.36.43-.73.56-1.11Z"/><path class="cls-5" d="M93.09,185.53c.41-.81.82-1.63,1.22-2.44-1.49-.75-2.97-1.49-4.46-2.24-.41.81-.82,1.63-1.22,2.44,1.49.75,2.97,1.49,4.46,2.24Z"/><path class="cls-1" d="M96.38,184.81c-.22.45-.45.89-.67,1.34.68.06,1.36.12,2.04.18-.45-.51-.91-1.02-1.36-1.52Z"/><path class="cls-5" d="M70.41,173.38c.21-.41.41-.82.62-1.23-.79-.4-1.59-.8-2.38-1.19-.02,0-.05-.02-.1-.04-.02.03-.04.06-.04.08-.13.38-.38.75-.56,1.11,0,0,0,.02-.01.03.82.41,1.65.83,2.47,1.24Z"/><path class="cls-1" d="M171.79,187.2c-10.87-9.08-21.75-18.16-32.62-27.25-1.46.23-2.91.45-4.37.68-11.09,1.72-22.18,3.44-33.27,5.17.86.72,1.73,1.44,2.59,2.16,10.87,9.08,21.75,18.17,32.62,27.25,1.46-.23,2.91-.45,4.37-.68,11.09-1.72,22.18-3.44,33.27-5.17-.86-.72-1.73-1.44-2.59-2.16Z"/><path class="cls-7" d="M178.73,190.53c.15-.4.08-.87-.36-1.24-10.35-8.65-20.71-17.3-31.06-25.94-1.98-1.65-3.95-3.3-5.93-4.95-.97-.81-1.62-1.16-2.92-.96-3.54.54-7.08,1.09-10.62,1.64-1.07-.9-2.15-1.79-3.22-2.69-.97-.81-1.62-1.16-2.92-.96-6.81,1.04-13.62,2.11-20.43,3.17-6.63,1.03-13.26,2.06-19.89,3.09-.95.15-1.3,1.6-.58,2.2,10.35,8.65,20.71,17.3,31.06,25.94,1.98,1.65,3.95,3.3,5.93,4.95.97.81,1.62,1.16,2.92.96,3.54-.54,7.08-1.09,10.62-1.64,1.07.9,2.15,1.79,3.22,2.69.97.81,1.62,1.16,2.92.96,6.81-1.04,13.62-2.11,20.43-3.17,6.63-1.03,13.26-2.06,19.89-3.09.61-.1.9-.5.94-.96ZM124.35,192.52c-1.46.23-2.91.45-4.37.68-10.87-9.08-21.75-18.17-32.62-27.25-.86-.72-1.73-1.44-2.59-2.16,11.09-1.72,22.18-3.44,33.27-5.17,1.46-.23,2.91-.45,4.37-.68l1.99,1.66c-2.12.33-4.25.66-6.37.99-6.63,1.03-13.26,2.06-19.89,3.09-.95.15-1.3,1.6-.58,2.2,10.35,8.65,20.71,17.3,31.06,25.94.01,0,.02.02.04.03-1.43.22-2.87.45-4.3.67ZM141.11,194.53c-1.46.23-2.91.45-4.37.68-10.87-9.08-21.75-18.16-32.62-27.25-.86-.72-1.73-1.44-2.59-2.16,11.09-1.72,22.18-3.44,33.27-5.17,1.46-.23,2.91-.45,4.37-.68,10.87,9.08,21.75,18.16,32.62,27.25.86.72,1.73,1.44,2.59,2.16-11.09,1.72-22.18,3.44-33.27,5.17Z"/><path class="cls-1" d="M224.87,159.59c.28-3.81,2.89-6.65,6.68-7.19,1.09-.15,2.19-.27,3.29-.41,13.69-1.71,27.37-3.42,41.06-5.13,2.83-.35,5.65-.76,8.49-1.11-.03-.12-.05-.25-.05-.4.07-2.03-.15-4.06-1.19-5.85-1.39-2.41-3.85-3.54-6.1-4.97-3.92-2.49-7.66-5.29-11.27-8.22-1.26-1.03-2.37-1.65-2.74-3.25-.57-2.46-1.04-4.95-1.56-7.42,0,0-.02-.07-.04-.14-.32-.03-.65-.08-.8-.08-2.1,0-4.2.15-6.29.36-6.02.63-12.31,1.92-17.65,4.87-4.6,2.54-6.84,6.44-9.53,10.74-.66,1.05-2.05.62-2.39-.25-.87.93-1.6,2.01-2.28,3.12,3.1-.59,6.24-1.07,9.38-1.38,1.68-.17,1.67,2.46,0,2.63-3.73.37-7.46.99-11.12,1.78-4.46.96-10.42,2.05-13.65,5.58-2.61,2.85-3.42,6.85-4.27,10.5-.96,4.11-1.99,8.21-3.09,12.29-3.87,14.37-8.48,28.51-11.9,43l34.68-1.7c.41-11.45,1.17-22.89,1.71-34.33.21-4.34.3-8.69.62-13.02ZM233.13,131.18c-1.61.53-2.3-2.01-.7-2.53,8.89-2.9,18.07-4.68,27.39-5.36,1.69-.12,1.68,2.5,0,2.63-9.09.66-18.03,2.44-26.69,5.26Z"/><path class="cls-1" d="M236.74,96.49c-1.47.85-2.79-1.43-1.33-2.27,2.4-1.38,3.82-4.21,4.37-6.83.27-1.27.37-2.71-.09-3.96-.78-2.1-3.03-2.65-4.44-.73-.75,1.02-2.24.52-2.48-.38-.17-.09-.32-.22-.45-.41-1.68-2.34-3.05-4.84-4.12-7.48-5.48-1.81-9.09-6.04-11.27-11.31-.05-.13-.08-.25-.1-.36-1.17.83-1.99,2.01-2.51,3.28.94-.37,2.23.31,1.76,1.47-2.73,6.89,2.9,15.17-4.21,20.37-.71.52-1.78,1.11-2.25,1.9-.66,1.11.13,1.63.69,2.48.76,1.15,1.84,2.75,1.98,4.15.08.77-.33,1.31-.38,2.01-.08,1.05.67,1.17,1.53,1.51,1.36.54,2.33,1.13,2.96,2.5.27.58.1,1.13-.24,1.51-.06.12-.14.24-.25.36-.39.4-.96.68-1.31,1.09-.65.76-.48-.08-.18.93.37,1.26.36,2.52.32,3.82-.1,3.13,1.73,4.9,4.84,4.92,3.45.02,7.07-1.39,10.07-3.02.9-.49,1.93.13,1.98,1.13.11,2.5.21,5,.32,7.51,1.67-1.35,3.56-2.45,5.51-3.34,5.88-2.67,12.38-3.86,18.79-4.36.46-.04.92-.07,1.38-.1-.1-.17-.16-.38-.16-.62-.04-2.77-.09-5.55-.13-8.32-2.21-.03-4.41-.09-6.61-.14-.6-.01-1.08-.4-1.27-.96-.7-2.08-1.15-4.23-1.77-6.34-.75-2.51-1.9-3.53-4.49-3.62-1.06-.04-1.45-1.08-1.19-1.84-.19-.01-.38-.02-.57-.03-1.02,2.29-2.64,4.31-4.68,5.48ZM218.18,83.77c-1.69,0-1.69-2.63,0-2.63s1.69,2.63,0,2.63ZM220.85,75.09c-.67-.75-1.92-1.34-2.89-.83-1.5.78-2.82-1.48-1.33-2.27,2.01-1.05,4.58-.43,6.08,1.24,1.13,1.25-.72,3.12-1.86,1.86Z"/><path class="cls-5" d="M269.04,73.91c-1.59-6.02-4.87-12.33-10.04-15.99-10.96-7.75-27.19-6.56-37.1,2.31-.69.62-1.57.33-2-.23-.57.47-1.14.93-1.6,1.57.47.05.93.31,1.16.86,1.56,3.76,4.05,6.91,7.59,8.7-.14-.48-.28-.96-.4-1.45-.42-1.64,2.12-2.34,2.53-.7,1.01,4.01,2.71,7.7,5.06,11.09,3.3-2.6,7.76-.36,8.32,4.21.26,2.17-.17,4.57-1.14,6.73.19,0,.39.01.57.03.16-.46.55-.81,1.19-.79,2.59.09,4.81.84,6.11,3.23,1.27,2.35,1.66,5.13,2.4,7.71,2.13.05,4.27.1,6.4.13,1.56-3.45,3.63-6.71,5.77-9.81,1.83-2.65,4.47-5.17,5.44-8.29.94-3.01.54-6.32-.25-9.31Z"/><path class="cls-1" d="M289.55,147.81c-1.02.01-2.07.23-3.07.36-5.55.69-11.1,1.39-16.65,2.08-12.32,1.54-24.64,3.08-36.96,4.62-2.36.3-4.6,1.18-5.24,3.82-.27,1.12-.2,2.4-.25,3.54-.28,5.91-.57,11.81-.85,17.72-.43,8.95-.86,17.91-1.29,26.86l67.59-3.32c.55-15.04,1.09-30.08,1.54-45.13.12-3.98,1.12-10.62-4.81-10.55Z"/><path class="cls-7" d="M231.89,132.88c-3.14.31-6.28.79-9.38,1.38-.2.32-.39.64-.58.96.19-.32.39-.64.58-.96-.17.03-.35.06-.52.1-4.94.96-10.5,2.09-14.74,4.97-6.08,4.14-6.76,12.83-8.4,19.36-1.94,7.73-4.18,15.38-6.44,23.02-2.64,8.92-5.14,17.86-7.25,26.92-.01.05-.01.1-.02.16l2.71-.13c3.42-14.49,8.03-28.63,11.9-43,1.1-4.08,2.13-8.17,3.09-12.29.85-3.64,1.67-7.65,4.27-10.5,3.23-3.53,9.19-4.62,13.65-5.58,3.66-.79,7.39-1.41,11.12-1.78,1.67-.16,1.68-2.79,0-2.63Z"/><path class="cls-7" d="M296.75,150.18c-1.16-3.38-4.52-5.26-7.99-4.93-.6.06-1.2.13-1.81.2,0-.03.01-.06.01-.1.13-3.63-.86-7.19-3.58-9.73-1.83-1.71-4.19-2.8-6.26-4.17-2.15-1.42-4.24-2.92-6.29-4.49-1.4-1.07-2.78-2.16-4.13-3.29-.25-.21-.69-.74-1.04-.92.05-.99-.47-2.23-.68-3.2-.31-1.49-.63-2.98-.94-4.48-.3-1.43-.59-2.17-2.15-2.27-.63-.04-1.26-.05-1.9-.04.06-.15.09-.32.09-.51-.05-2.94-.09-5.89-.14-8.83.1-.13.18-.27.24-.43-.27.65.22-.48.3-.64.4-.84.83-1.66,1.27-2.48,1.56-2.85,3.32-5.6,5.2-8.24,2.03-2.85,4.43-5.31,5.15-8.84.65-3.17.29-6.47-.54-9.58-1.66-6.28-5.04-12.77-10.23-16.81-5.27-4.09-12.03-5.96-18.63-6.21-8.29-.32-16.49,2.64-22.67,8.17-.57.51-.5,1.16-.14,1.62.6-.5,1.18-1.03,1.58-1.83-.4.8-.98,1.32-1.58,1.83.44.57,1.31.85,2,.23,9.91-8.87,26.14-10.06,37.1-2.31,5.18,3.66,8.45,9.98,10.04,15.99.79,2.99,1.19,6.3.25,9.31-.98,3.12-3.61,5.64-5.44,8.29-2.14,3.1-4.21,6.36-5.77,9.81-2.13-.02-4.27-.07-6.4-.13-.74-2.58-1.13-5.37-2.4-7.71-1.3-2.39-3.52-3.14-6.11-3.23-.63-.02-1.03.33-1.19.79.86.06,1.66.25,2.26.84-.59-.59-1.39-.78-2.26-.84-.26.76.13,1.8,1.19,1.84,2.6.1,3.74,1.11,4.49,3.62.63,2.1,1.07,4.25,1.77,6.34.19.56.66.95,1.27.96,2.2.05,4.41.11,6.61.14.04,2.77.09,5.55.13,8.32,0,.24.07.45.16.62-.46.03-.92.07-1.38.1-6.41.5-12.91,1.69-18.79,4.36-1.95.89-3.84,1.98-5.51,3.34-.11-2.5-.21-5-.32-7.51-.04-1-1.08-1.62-1.98-1.13-2.99,1.64-6.62,3.04-10.07,3.02-3.11-.02-4.93-1.79-4.84-4.92.04-1.3.06-2.56-.32-3.82-.3-1.01-.47-.17.18-.93.36-.41.93-.69,1.31-1.09.11-.12.19-.24.25-.36.34-.38.51-.93.24-1.51-.63-1.37-1.6-1.96-2.96-2.5-.85-.34-1.6-.45-1.53-1.51.05-.69.45-1.24.38-2.01-.14-1.4-1.22-3.01-1.98-4.15-.56-.85-1.36-1.36-.69-2.48.47-.79,1.54-1.38,2.25-1.9,7.11-5.2,1.47-13.48,4.21-20.37.46-1.17-.82-1.84-1.76-1.47-.49,1.17-.72,2.42-.72,3.51,0-1.09.23-2.34.72-3.51-.33.13-.61.38-.77.78-1.63,4.12-.45,8.02-.37,12.24.05,2.42-.24,4.65-2.22,6.26-1.26,1.03-2.77,1.81-3.69,3.21-2.36,3.61,2.85,5.51,2.24,8.87-.27,1.48-.67,2.41.58,3.67.94.94,2.44,1.09,3.4,1.88-.87.67-1.92,1.22-2.1,2.37-.12.79.28,1.29.51,2,.33,1.04.22,2.03.2,3.11-.06,3.29,1.57,6.02,4.85,6.94,3.87,1.08,8.41-.31,12.13-2.08.1,2.35.2,4.7.3,7.05.01.26.09.47.2.65-.17.2-.35.4-.52.61-1.57,2.01-2.8,4.32-4.15,6.48-.24.38-.25.76-.12,1.07.57-.61,1.21-1.16,1.95-1.6-.74.44-1.37.99-1.95,1.6.34.87,1.74,1.3,2.39.25,2.69-4.3,4.93-8.2,9.53-10.74,5.34-2.95,11.63-4.24,17.65-4.87,2.09-.22,4.19-.36,6.29-.36.15,0,.47.05.8.08.02.08.03.14.04.14.52,2.47.99,4.96,1.56,7.42.37,1.6,1.48,2.23,2.74,3.25,3.61,2.93,7.34,5.73,11.27,8.22,2.26,1.43,4.72,2.56,6.1,4.97,1.03,1.79,1.26,3.82,1.19,5.85,0,.15.02.28.05.4-2.83.35-5.66.76-8.49,1.11-13.69,1.71-27.37,3.42-41.06,5.13-1.09.14-2.19.26-3.29.41-3.79.54-6.4,3.38-6.68,7.19-.32,4.33-.42,8.69-.62,13.02-.55,11.44-1.3,22.88-1.71,34.33l2.7-.13c.43-8.95.86-17.91,1.29-26.86.28-5.91.57-11.81.85-17.72.05-1.14-.02-2.42.25-3.54.64-2.63,2.88-3.52,5.24-3.82,12.32-1.54,24.64-3.08,36.96-4.62,5.55-.69,11.1-1.39,16.65-2.08,1.01-.13,2.05-.34,3.07-.36,5.94-.07,4.93,6.58,4.81,10.55-.45,15.04-.99,30.09-1.54,45.13l2.63-.13c.5-13.67.98-27.35,1.41-41.02.07-2.11.13-4.22.19-6.33.06-1.92.32-3.97-.31-5.82Z"/><path class="cls-7" d="M218.18,83.77c1.69,0,1.69-2.63,0-2.63s-1.69,2.63,0,2.63Z"/><path class="cls-7" d="M218.3,61.57c-.76-.08-1.57.39-1.47,1.19.35-.25.73-.47,1.15-.65.1-.2.21-.37.33-.54Z"/><path class="cls-7" d="M240.74,91.01c.23,0,.45,0,.67,0,.97-2.16,1.4-4.57,1.14-6.73-.55-4.56-5.02-6.81-8.32-4.21-2.35-3.39-4.04-7.08-5.06-11.09-.41-1.64-2.95-.94-2.53.7.12.49.26.97.4,1.45-3.54-1.79-6.03-4.94-7.59-8.7-.22-.54-.68-.8-1.16-.86-.12.17-.23.34-.33.54-.42.18-.8.4-1.15.65.01.11.04.24.1.36,2.18,5.27,5.79,9.5,11.27,11.31,1.07,2.64,2.44,5.14,4.12,7.48.13.18.29.31.45.41.24.9,1.73,1.41,2.48.38,1.41-1.91,3.66-1.36,4.44.73.46,1.24.36,2.69.09,3.96-.56,2.63-1.98,5.46-4.37,6.83-1.46.84-.14,3.11,1.33,2.27,2.03-1.17,3.65-3.19,4.68-5.48-.22,0-.45,0-.67,0Z"/><path class="cls-7" d="M217.95,74.26c.98-.51,2.22.08,2.89.83,1.13,1.26,2.99-.6,1.86-1.86-1.5-1.67-4.07-2.29-6.08-1.24-1.5.78-.17,3.05,1.33,2.27Z"/><path class="cls-7" d="M233.13,131.18c8.67-2.83,17.6-4.6,26.69-5.26,1.68-.12,1.69-2.75,0-2.63-9.32.68-18.5,2.46-27.39,5.36-1.6.52-.92,3.06.7,2.53Z"/></g></g></svg>