<?xml version="1.0" encoding="UTF-8"?><svg id="_レイヤー_2" xmlns="http://www.w3.org/2000/svg" xmlns:xlink="http://www.w3.org/1999/xlink" viewBox="0 0 300 210"><defs><style>.cls-1{fill:#fff;}.cls-2{fill:none;}.cls-3{fill:#00a3df;}.cls-4{fill:#33c8e7;}.cls-5{clip-path:url(#clippath);}.cls-6{fill:#2e2e2e;}</style><clipPath id="clippath"><rect class="cls-2" width="300" height="210"/></clipPath></defs><g id="_レイヤー_1-2"><g class="cls-5"><path class="cls-1" d="M264.18,164.93c-1.49.17-2.05-1.18-1.72-2.33h-.67c.05.99-.56,2.02-1.83,2.02h-25.52c-1.18,0-1.78-.87-1.83-1.78h-2.49c.32.64.64,1.26.97,1.82,1.57,2.7,3.24,5.94.24,8.32-.62.49-1.24.8-1.86.98h14.94c.45,0,.91,0,1.36,0,.44,0,3.77-.06,3.28.09,1.09-.32,2.38-1.36,3.39-1.89,1.56-.83,3.13-1.66,4.69-2.49,1.71-.9,3.41-1.81,5.12-2.71.73-.39,1.43-.27,1.95.1l2.45-2.36.42-.74c-.75.5-1.69.84-2.89.98Z"/><path class="cls-1" d="M191.79,162.51c-2.03-2.15-4.18-4.53-6.58-6.28-3.19-2.33-6.8-1.85-10.27-.53-7.25,2.76-13.35,8.13-21.4,8.3-.37,0-.67-.08-.93-.22.58,2.82,1.18,5.65,1.78,8.47,6.85-1.17,13.7-2.34,20.55-3.51,1.1-.19,2.28-.52,3.4-.58,2.01-.11,3.47,1.41,4.64,2.94.7.92,1.3,1.91,1.81,2.94.36-.28.73-.55,1.1-.8-.71-.82-.82-2.19.4-2.88,2.76-1.56,4.68-3.53,6.58-6.04.32-.43.6-.88.85-1.35-.61.26-1.34.2-1.94-.44ZM189.94,164.41c-.57,2.79-3.11,3.77-5.47,4.72-2,.8-3-1.94-1.7-3.23.18-.18.41-.34.68-.45.88-.36,4.56-2.27,1.93-3.01-1.2-.34-3.41.61-4.57.93-.06.02-.11.04-.17.05-1.91.53-3.74,1.25-5.59,1.95-1.95.73-2.97-1.88-1.86-3.19,1.03-1.21,2.06-2.42,3.09-3.63,1.17-1.38,2.93-.27,3.15,1.15,2.03-.66,4.11-1.13,6.13-1.07,2.88.08,4.93,3.03,4.36,5.79Z"/><path class="cls-4" d="M179,171.89c.26.12.44-.06,0,0h0Z"/><path class="cls-1" d="M228.21,167.32c-.77-1.38-1.67-2.69-2.43-4.07-.07-.13-.15-.27-.22-.41h-.54.54c-1.2-2.22-3.09-5.64-5.71-2.8-1.08,1.17-2.67.39-3.19-.84-.58-1.38-3.01-.22-4.23.84-.99.85-2.26.67-3-.39-1.23-1.75-2.86-1.36-4.12.08-.89,1.02-2.31.52-3-.39-.96-1.28-2.6.07-3.29,1.61-.88,1.97-1.69,3.78-3.01,5.51-2.25,2.96-4.55,5.34-7.8,7.18-.92.52-1.79.21-2.33-.41-.37.25-.74.52-1.1.8,2.62,5.3,2.73,11.84.76,17.35,1.88-.39,3.58-1.21,5.09-2.55-.91-.93-.88-2.8.76-3.21,7.13-1.77,13.82-4.18,18.88-9.71,3.24-3.54,5.71-8.35,9.35-11.46,3.95-3.38,4.98,4.31,7.65,5.44,2.69,1.14,1.63-1.32.94-2.56Z"/><path class="cls-4" d="M179.42,150.64c-.45-.07-.88-.28-1.21-.61l-.14.73s.1-.02.15-.02c.41-.06.81-.09,1.2-.1Z"/><path class="cls-1" d="M221.75,173.95h5.35c-1.24-.34-2.38-1.18-3.32-2.3-.83-.99-1.84-2.12-2.55-3.28-2.05,2.39-3.87,4.99-5.86,7.44h4.55c.02-.94.63-1.86,1.84-1.86Z"/><path class="cls-3" d="M150.18,24.68c-.82.45-2.83,2.19-3.45,1.16-9.33-15.5-32.7-21.18-46.25-7.94-3.27,3.19-6.33,7.01-7.87,11.36-1.72,4.86-.08,8.35,1.4,12.99,1.63,5.16,2.91,10.57,3.48,15.98,1.62.54,3.22,1.12,4.82,1.71,2.77-5.88,5.99-12.91,13.52-10.94.38.1.66.28.88.51-.08-2.28.33-4.56,1.29-6.49,2.25-4.51,7.45-5.15,10.24-1.77,3.27-2.58,6.02-5.72,8.2-9.28,1.28-2.09,4.58-.18,3.29,1.93-.09.15-.19.3-.29.45,3.06-.79,5.41-2.67,7.72-5.46,1-1.2,2.47.7,2.99,1.82.09-.07.37-.53.64-.97.32-.53.41-1.15.27-1.75-.27-1.1-.51-2.66-.85-3.31Z"/><path class="cls-1" d="M150.77,29.99c-.15.14-.31.27-.48.39.3.64.11.52-.45,1.2-1.95,2.35-4.06,4.16-6.46,5.35.34,0,.7.07,1.03.22,1.63.74,3.27,1.33,4.62,2.49.61-1.69,1.1-3.4,1.16-5.28.04-1.09.81-1.7,1.66-1.82-.28-1.2-.56-1.43-1.08-2.56Z"/><path class="cls-1" d="M148.16,57.18c-.62-1.45-1.12-2.94-1.42-4.5-.59-3.11-.31-6,.75-8.98.04-.12.09-.25.14-.37-.26-.09-.52-.24-.76-.49-1.17-1.22-2.88-1.72-4.39-2.4-.94-.43-1.16-1.79-.68-2.61.07-.12.15-.22.23-.32-1.72.66-3.6,1.02-5.67,1.05-2,2.4-4.28,4.55-6.82,6.45-.17.12-.33.2-.49.26-.92.78-2.7.7-3.24-.81-.88-2.45-3.12-1.91-4.23-.1-.65,1.07-.9,2.41-.99,3.64-.19,2.59.34,5.65,2.14,7.63,1.65,1.82-1.05,4.52-2.7,2.7-1.6-1.77-2.65-4.13-3.09-6.63-.36.72-1.12,1.23-2.13.97-3.73-.98-5.06,1.54-6.74,4.54-1.11,1.99-2.15,4.02-3.15,6.07-.34.71-1.42,1.15-2.15.88-1.97-.73-3.95-1.47-5.94-2.14-.99,4.79-1.98,9.58-2.97,14.37-.45,2.18-3.49,1.54-3.7-.37-.49.65-.57,1.47-.62,2.28,9.55,2.87,19.12,5.66,28.28,9.61,0-.18.03-.37.11-.58.9-2.52,1.8-5.04,2.7-7.56.39-1.09,1.7-1.86,2.8-1.14,3.04,1.99,5.99,4.13,9.79,4.14,1.92,0,4.39-.51,5.51-2.26.7-1.08.87-2.55,1.38-3.73.43-1,.83-2.05,1.24-3.11-1.2-.65-2.25-1.56-3.1-2.62-.65-.8-.79-1.91,0-2.7.67-.67,2.05-.8,2.7,0,.6.74,1.17,1.3,1.87,1.75.49-1.05,1.02-2.06,1.66-2.97.73-1.05,1.59-1.99,2.58-2.79.58-.47,1.19-.89,1.82-1.27.97-.59,1.4-.43,1.38-1.58-.02-1.33-1.55-3.07-2.08-4.3ZM143.84,51.41c-2.46,0-2.46-3.82,0-3.82s2.46,3.82,0,3.82Z"/><path class="cls-1" d="M264.18,161.11c1.88-.22,2.19-4.77,2.45-6.08.72-3.67,1.44-7.33,2.15-11,1.74-8.9,3.49-17.8,5.23-26.7.49-2.49.98-4.98,1.46-7.48.3-1.51.13-2.14-1.8-2.46-3.93-.66-8.54,0-12.52,0h-66.07c-1.08,0-2.47-.23-3.53,0-2.07.45-2.09,2.89-2.45,4.64-2.58,12.42-5.15,24.84-7.73,37.27-.17.82-.72,1.24-1.34,1.34,1.78.03,3.41.47,4.94,1.19-.59-.41-.98-1.1-.79-1.99,2.75-12.9,5.51-25.79,8.26-38.69.17-.81,1.04-1.4,1.84-1.4h75.94c1.31,0,2.08,1.21,1.84,2.41-2.95,15.07-5.9,30.14-8.86,45.2-.16.81-1.06,1.4-1.84,1.4h-28.05c-1.25,0-1.86-.98-1.84-1.95h-5.29c1.69,1.5,2.83,3.89,3.91,6.02h2.49c-.06-.99.55-2.03,1.83-2.03h25.52c1.18,0,1.79.88,1.83,1.8h.67c.21-.73.78-1.38,1.72-1.49Z"/><path class="cls-3" d="M233.33,154.95h26.48c2.7-13.8,5.41-27.59,8.11-41.39h-72.09c-2.65,12.43-5.31,24.86-7.96,37.29-.27,1.26-1.4,1.57-2.35,1.25,3.44,1.78,6.31,4.9,8.97,7.72.2.21.33.44.42.66.52-1.17,1.04-2.33,1.81-3.34,1.88-2.44,4.86-2.72,7.15-1.31,2.44-1.9,5.18-1.71,7.4.26,1.34-.98,2.81-1.67,4.58-1.42,1.16.16,2.15.65,2.96,1.36,2-1.12,4.47-1.17,6.52.12.31.19.59.42.87.66h5.29c.02-.94.63-1.86,1.84-1.86ZM213.27,147c-3.67-.18-5.06-2.81-4.5-6.19.63-3.81,1.42-7.59,2.14-11.39.62-3.32,2.3-5.86,6-6.06,3.18-.17,6.41,0,9.59,0,3.62,0,7.25-.09,10.87,0,3.41.09,5.64,2.02,5.13,5.63-.5,3.52-1.32,7.03-1.97,10.52-.67,3.57-1.54,6.57-5.4,7.36-.2.07-.41.11-.65.11-.17.02-.33.02-.48,0-6.88.01-13.85.34-20.72,0Z"/><path class="cls-1" d="M181.64,191c1.52-3.87,1.93-7.96.88-12.01-.23-.9-.53-1.78-.89-2.63-1.23.77-2.55,1.32-4.11,1.32,1.56,0,2.88-.55,4.11-1.32-.24-.58-.51-1.15-.83-1.69-.4-.68-.84-1.36-1.39-1.93-.09-.09-.48-.51-.7-.79-.45.1-.91.16-1.37.23-1.63.28-3.27.56-4.9.84-6.54,1.12-13.07,2.24-19.61,3.35-1.89.32-2.92-1.88-2.1-3.04-1.14-5.36-2.23-10.73-3.29-16.1-1.83-9.28-3.59-18.58-5-27.93-.62-4.09-1.2-8.19-1.87-12.28-.6-3.68-1.03-6.63-3.04-9.75-4.96-7.7-12.27-11.82-20.37-15.52-9.34-4.27-19.37-6.97-29.18-9.92-.73-.22-1.13-.72-1.27-1.29-.88.29-1.69.72-2.45,1.21.45.82.38,1.92-.66,2.52-3.91,2.28-7.85,4.51-11.16,7.64-3.89,3.68-6.66,8.46-8.88,13.29-4.59,9.96-6.71,21-7.98,31.83-.17,1.44-1.6,2.02-2.66,1.74.08.63.15,1.27.18,1.9,8.74,1.13,17.48,2.26,26.22,3.39,3.68.48,8.02.46,11.57,1.71,6.15,2.18,6.48,8.37,7.38,13.79,2,12.02,4.01,24.05,6.01,36.07l25.19,3.42c-.62-1.21-1.02-2.59-1.45-3.8-1.33-3.82-2.45-7.72-3.54-11.62-3.04-10.85-5.75-21.81-8.28-32.79-2.05-8.9-4.17-17.88-5.41-26.94-.39-2.86-.49-4.9.55-7.64,2.15-5.64,5.53-12.93,11.6-15.17,2.31-.85,3.3,2.83,1.01,3.68-3.54,1.31-5.77,5.74-7.35,8.9-.84,1.68-2.31,5.09-2.38,6.06-.19,2.65.57,5.54,1.03,8.13,3.38,19.04,8.1,37.99,13.41,56.58.97,3.39,1.96,6.79,3.14,10.11,1.2,3.38,1.57,4.52,5.63,5.01,4.48.54,9.25-.77,13.64-1.57,3.04-.56,6.06-1.16,9.08-1.81,6.27-1.34,12.53-2.62,18.87-3.64,1.16-.19,1.99.57,2.28,1.45.36-.31.68-.66.91-1.06-.59-.38-.93-1.07-.58-1.95ZM111.4,147.49c.79,2.34-2.9,3.33-3.68,1.01-2.5-7.39-5-14.78-7.5-22.17-.79-2.34,2.9-3.33,3.68-1.01,2.5,7.39,5,14.78,7.5,22.17Z"/><path class="cls-1" d="M94.28,158.65c-.7-4.2-1.02-8.71-6.19-9.63-4.48-.8-9.08-1.17-13.6-1.76-7.38-.95-14.75-1.91-22.13-2.86-.04.07-.07.14-.11.2.04-.07.07-.14.11-.2-6.32-.82-12.64-1.63-18.96-2.45-3.32-.43-9.47-2.11-9.08,3.38.35,4.87,1.64,9.86,2.44,14.67,1.42,8.57,2.85,17.14,4.27,25.7l69.32,9.4c-2.03-12.15-4.05-24.31-6.08-36.46Z"/><path class="cls-6" d="M182.23,192.95c.95.61,2.55.45,3.09-.94.08-.21.15-.43.23-.64-.92.19-1.88.29-2.89.29-.06.47-.21.9-.43,1.28Z"/><path class="cls-6" d="M264.19,167.05l-1.64,1.58,1.64-1.58c-.53-.37-1.23-.49-1.95-.1-1.71.9-3.41,1.81-5.12,2.71-1.56.83-3.13,1.66-4.69,2.49-1.01.53-2.3,1.57-3.39,1.89.49-.14-2.83-.09-3.28-.09-.45,0-.91,0-1.36,0h-14.94c.62-.17,1.25-.49,1.86-.98,3-2.37,1.34-5.61-.24-8.32-.33-.56-.65-1.18-.97-1.82h-4.55c.08.14.15.28.22.41.76,1.39,1.66,2.69,2.43,4.07.69,1.24,1.75,3.7-.94,2.56-2.66-1.13-3.7-8.82-7.65-5.44-3.64,3.12-6.12,7.92-9.35,11.46-5.05,5.53-11.75,7.94-18.88,9.71-1.64.41-1.67,2.27-.76,3.21.53-.47,1.04-1,1.52-1.61-.48.6-.99,1.14-1.52,1.61.42.43,1.03.66,1.77.47,9-2.23,16.41-5.66,22.43-12.84.18-.21.35-.43.52-.65h-3.32,3.32c1.99-2.45,3.81-5.04,5.86-7.44.71,1.16,1.72,2.29,2.55,3.28.94,1.12,2.09,1.96,3.32,2.3h-5.35c-1.21,0-1.82.92-1.84,1.86h1.17-1.17c-.02.97.59,1.96,1.84,1.96,7.7,0,15.4.02,23.1,0,4.01,0,5.92-.42,9.04-2.08,3.42-1.82,6.85-3.63,10.27-5.45,1.44-.76,1.07-2.47.03-3.19Z"/><path class="cls-6" d="M269.5,103.58h-70.76c-3.48,0-9.04-1.01-11.5,2.07-1.63,2.04-1.87,5.64-2.39,8.17-.91,4.36-1.81,8.73-2.72,13.09-1.48,7.12-2.95,14.25-4.43,21.37-.15.74.1,1.34.52,1.75l.47-2.5-.47,2.5c.33.32.76.54,1.21.61-.39.01-.79.05-1.2.1-.05,0-.1.02-.15.02l-.79,4.19.79-4.19c-8.82,1.28-15.5,9.22-24.53,9.42-.71.02-1.2.35-1.5.8-2.16-10.59-4.15-21.21-5.8-31.88-.67-4.37-1.28-8.74-1.99-13.1-.57-3.49-.99-6.69-2.85-9.74-4.81-7.9-11.67-12.76-19.87-16.66-.22-.1-.44-.2-.66-.3.3-.21.56-.52.71-.95.62-1.73,1.24-3.46,1.85-5.19,5.21,3.09,11.69,5.45,16.97,1.08,2.31-1.91,2.93-5.27,4.1-7.91.76-1.71,1.32-3.5,2.09-5.21.51-1.12,1.04-2.05,1.92-2.98,1.32-1.4,3.1-1.92,4.51-3.13,2.86-2.44.77-5.19-.62-7.78-2.06-3.82-2.78-7.92-1.38-12.07,1.23-3.65,2.86-6.86,2.99-10.8.05-1.36-1.11-1.97-2.16-1.82.3,1.25.42,2.55.24,3.94.17-1.4.05-2.7-.24-3.94-.84.12-1.62.72-1.66,1.82-.06,1.88-.55,3.59-1.16,5.28-1.35-1.16-3-1.76-4.62-2.49-.33-.15-.69-.22-1.03-.22,2.4-1.19,4.51-2.99,6.46-5.35.57-.68.57-1.48.27-2.12-1.2.9-2.68,1.52-3.74,2.57,1.05-1.05,2.53-1.67,3.74-2.57-.52-1.12-1.97-1.78-2.97-.58-2.31,2.79-4.66,4.67-7.72,5.46.09-.15.2-.3.29-.45,1.28-2.1-2.02-4.02-3.29-1.93-2.17,3.56-4.92,6.7-8.2,9.28-2.79-3.38-7.99-2.73-10.24,1.77-.96,1.93-1.37,4.2-1.29,6.49-.21-.22-.5-.41-.88-.51-7.53-1.98-10.75,5.06-13.52,10.94-1.6-.59-3.2-1.17-4.82-1.71-.57-5.41-1.84-10.82-3.48-15.98-1.47-4.65-3.12-8.13-1.4-12.99,1.54-4.36,4.6-8.17,7.87-11.36,13.56-13.24,36.92-7.56,46.25,7.94.62,1.03,1.73,1.09,2.55.64-.57-1.09-1.15-2.2-1.64-3.34.49,1.14,1.07,2.25,1.64,3.34.85-.47,1.39-1.49.74-2.57C140.43,7.99,115.84.17,100.49,12.76c-6.51,5.33-13.71,14.12-12.46,23.14.35,2.55,1.52,4.93,2.29,7.37.86,2.71,1.58,5.47,2.18,8.25.49,2.28.92,4.59,1.17,6.92-1.17,5.65-2.34,11.3-3.51,16.95-.05.23-.05.44-.02.64.21-.28.49-.54.9-.74-.4.2-.69.45-.9.74.21,1.92,3.25,2.55,3.7.37.99-4.79,1.98-9.58,2.97-14.37,1.99.68,3.97,1.41,5.94,2.14.73.27,1.81-.17,2.15-.88.99-2.05,2.03-4.08,3.15-6.07,1.68-2.99,3.01-5.52,6.74-4.54,1.01.26,1.76-.25,2.13-.97.45,2.5,1.49,4.87,3.09,6.63,1.65,1.82,4.34-.88,2.7-2.7-1.79-1.98-2.33-5.04-2.14-7.63.09-1.23.34-2.57.99-3.64,1.11-1.81,3.34-2.35,4.23.1.54,1.51,2.33,1.59,3.24.81.16-.06.33-.14.49-.26,2.54-1.91,4.82-4.05,6.82-6.45,2.08-.04,3.95-.4,5.67-1.05-.08.09-.16.2-.23.32-.48.82-.26,2.18.68,2.61,1.51.68,3.21,1.17,4.39,2.4.24.25.5.4.76.49-.05.12-.09.24-.14.37-1.06,2.98-1.34,5.86-.75,8.98.29,1.55.79,3.05,1.42,4.5.53,1.23,2.06,2.97,2.08,4.3.02,1.15-.41.99-1.38,1.58-.63.39-1.25.81-1.82,1.27-.99.81-1.85,1.74-2.58,2.79-.64.91-1.17,1.92-1.66,2.97-.7-.46-1.27-1.01-1.87-1.75-.65-.8-2.02-.67-2.7,0-.79.79-.65,1.89,0,2.7.85,1.06,1.9,1.97,3.1,2.62-.41,1.06-.81,2.11-1.24,3.11-.51,1.18-.68,2.64-1.38,3.73-1.12,1.75-3.59,2.27-5.51,2.26-3.8,0-6.76-2.14-9.79-4.14-1.1-.72-2.41.05-2.8,1.14-.9,2.52-1.8,5.04-2.7,7.56-.07.21-.1.4-.11.58-9.15-3.95-18.73-6.74-28.28-9.61-.07,1.06-.11,2.1-1.02,2.71.91-.61.95-1.65,1.02-2.71-.17-.05-.35-.1-.52-.16-1.63-.49-2.61,1.12-2.29,2.39.17-.06.34-.12.51-.16-.18.04-.34.11-.51.16.14.57.55,1.07,1.27,1.29,9.81,2.95,19.83,5.65,29.18,9.92,8.1,3.7,15.41,7.82,20.37,15.52,2.01,3.12,2.44,6.07,3.04,9.75.67,4.09,1.25,8.19,1.87,12.28,1.42,9.35,3.18,18.65,5,27.93,1.06,5.38,2.15,10.74,3.29,16.1-.82,1.16.21,3.36,2.1,3.04,6.54-1.12,13.07-2.24,19.61-3.35,1.63-.28,3.27-.56,4.9-.84.45-.08.92-.14,1.37-.23.22.28.61.7.7.79.55.57.99,1.25,1.39,1.93.32.54.59,1.11.83,1.69,1.1-.68,2.12-1.53,3.15-2.33-.51-1.03-1.1-2.02-1.81-2.94-1.17-1.53-2.63-3.05-4.64-2.94-1.12.06-2.3.39-3.4.58-6.85,1.17-13.7,2.34-20.55,3.51-.6-2.82-1.19-5.64-1.78-8.47.26.14.56.23.93.22,8.04-.17,14.14-5.54,21.4-8.3,3.47-1.32,7.08-1.81,10.27.53,2.4,1.75,4.54,4.13,6.58,6.28.6.64,1.33.7,1.94.44-.25.47-.53.92-.85,1.35-1.91,2.52-3.83,4.48-6.58,6.04-1.22.69-1.11,2.06-.4,2.88.77-.53,1.57-.99,2.44-1.28-.87.29-1.67.75-2.44,1.28.53.62,1.41.93,2.33.41,3.25-1.84,5.55-4.22,7.8-7.18,1.31-1.73,2.13-3.54,3.01-5.51.69-1.54,2.33-2.89,3.29-1.61.68.91,2.1,1.4,3,.39,1.26-1.43,2.89-1.83,4.12-.08.74,1.06,2.01,1.23,3,.39,1.23-1.06,3.65-2.22,4.23-.84.52,1.23,2.11,2.01,3.19.84,2.62-2.85,4.51.58,5.71,2.8h4.55c-1.08-2.13-2.22-4.52-3.91-6.02h-3.97,3.97c-.28-.24-.56-.47-.87-.66-2.05-1.28-4.52-1.24-6.52-.12-.8-.71-1.8-1.2-2.96-1.36-1.77-.25-3.24.45-4.58,1.42-2.22-1.97-4.96-2.15-7.4-.26-2.29-1.41-5.28-1.13-7.15,1.31-.77,1-1.3,2.16-1.81,3.34-.09-.23-.22-.45-.42-.66-2.66-2.82-5.54-5.94-8.97-7.72.95.32,2.08.01,2.35-1.25,2.65-12.43,5.31-24.86,7.96-37.29h72.09c-2.7,13.8-5.41,27.59-8.11,41.39h-26.48c-1.21,0-1.82.92-1.84,1.86h1.64-1.64c-.02.97.59,1.95,1.84,1.95h28.05c.78,0,1.68-.59,1.84-1.4,2.95-15.07,5.9-30.14,8.86-45.2.24-1.2-.53-2.41-1.84-2.41h-75.94c-.8,0-1.67.59-1.84,1.4-2.75,12.9-5.51,25.79-8.26,38.69-.19.89.2,1.59.79,1.99-1.53-.71-3.16-1.15-4.94-1.19.62-.1,1.16-.52,1.34-1.34,2.58-12.42,5.15-24.84,7.73-37.27.36-1.75.38-4.19,2.45-4.64,1.06-.23,2.45,0,3.53,0h66.07c3.97,0,8.58-.66,12.52,0,1.93.32,2.1.95,1.8,2.46-.49,2.49-.98,4.98-1.46,7.48-1.74,8.9-3.49,17.8-5.23,26.7-.72,3.67-1.44,7.33-2.15,11-.26,1.31-.57,5.87-2.45,6.08-.94.11-1.51.76-1.72,1.49h1.02-1.02c-.33,1.15.24,2.5,1.72,2.33,3.6-.41,4.94-2.6,5.54-5.87.46-2.55,1-5.09,1.5-7.64,1.68-8.59,3.37-17.19,5.05-25.78,1.03-5.26,2.66-10.74,3.15-16.09.57-6.23-5.71-5.96-9.92-5.96ZM113.3,50.49c1.27.64,1.91-1.27,3.18-.64-1.27-.64-1.91,1.27-3.18.64ZM179,171.89c.44-.06.26.12,0,0h0Z"/><path class="cls-6" d="M182.53,178.99c1.04,4.05.64,8.14-.88,12.01-.35.88,0,1.57.58,1.95.22-.39.37-.82.43-1.28-.01,0-.03,0-.04,0,.01,0,.03,0,.04,0,.05-.4.05-.82-.04-1.27.09.45.1.87.04,1.27,1.01,0,1.97-.1,2.89-.29,1.97-5.5,1.87-12.04-.76-17.35-1.04.8-2.06,1.65-3.15,2.33.36.85.65,1.73.89,2.63Z"/><path class="cls-6" d="M143.84,47.6c-2.46,0-2.46,3.82,0,3.82s2.46-3.82,0-3.82Z"/><path class="cls-6" d="M84.26,81.75c-1.21.79-2.3,1.72-3.4,2.44,1.09-.73,2.19-1.66,3.4-2.44-.47-.85-1.5-1.41-2.58-.77-4.05,2.36-8.1,4.72-11.57,7.91-4.31,3.95-7.41,9.13-9.84,14.4-4.9,10.63-7.14,22.2-8.5,33.76-.11.98.44,1.55,1.15,1.74-.15-1.24-.29-2.48-.04-3.71-.25,1.24-.11,2.48.04,3.71,1.06.28,2.49-.3,2.66-1.74,1.27-10.83,3.38-21.87,7.98-31.83,2.23-4.83,4.99-9.61,8.88-13.29,3.31-3.13,7.25-5.36,11.16-7.64,1.04-.61,1.1-1.7.66-2.52Z"/><path class="cls-6" d="M103.9,125.32c-.78-2.31-4.47-1.32-3.68,1.01,2.5,7.39,5,14.78,7.5,22.17.78,2.31,4.47,1.32,3.68-1.01-2.5-7.39-5-14.78-7.5-22.17Z"/><path class="cls-6" d="M181.32,194.01c-1.12.95-2.77,1.47-4.43,1.47,1.66,0,3.31-.52,4.43-1.47-.29-.88-1.12-1.64-2.28-1.45-6.33,1.02-12.59,2.3-18.87,3.64-3.02.64-6.04,1.25-9.08,1.81-4.39.8-9.15,2.11-13.64,1.57-4.07-.49-4.44-1.63-5.63-5.01-1.18-3.33-2.17-6.72-3.14-10.11-5.31-18.59-10.03-37.54-13.41-56.58-.46-2.59-1.22-5.48-1.03-8.13.07-.97,1.54-4.38,2.38-6.06,1.58-3.16,3.81-7.59,7.35-8.9,2.28-.84,1.3-4.53-1.01-3.68-6.07,2.25-9.46,9.53-11.6,15.17-1.04,2.74-.94,4.78-.55,7.64,1.24,9.06,3.36,18.03,5.41,26.94,2.53,10.98,5.24,21.94,8.28,32.79,1.09,3.9,2.21,7.8,3.54,11.62.42,1.21.82,2.59,1.45,3.8l4.17.57-4.17-.57c.36.7.79,1.34,1.35,1.86,3.18,2.96,8.32,2.78,12.29,2.26,4.74-.61,9.46-1.55,14.14-2.49,7.6-1.53,15.14-3.22,22.8-4.46,1.25-.2,1.58-1.28,1.27-2.23Z"/><path class="cls-6" d="M257.92,162.6h3.87c-.04-.92-.65-1.8-1.83-1.8h-25.52c-1.28,0-1.89,1.04-1.83,2.03h2.38-2.38c.05.91.66,1.78,1.83,1.78h25.52c1.27,0,1.88-1.03,1.83-2.02h-3.87Z"/><path class="cls-6" d="M184.48,169.13c2.36-.95,4.9-1.93,5.47-4.72.56-2.76-1.48-5.71-4.36-5.79-2.02-.06-4.1.42-6.13,1.07-.22-1.42-1.98-2.53-3.15-1.15-1.03,1.21-2.06,2.42-3.09,3.63-1.11,1.3-.09,3.92,1.86,3.19,1.86-.7,3.68-1.42,5.59-1.95.06-.02.11-.04.17-.05,1.16-.31,3.37-1.27,4.57-.93,2.63.75-1.05,2.66-1.93,3.01-.28.11-.5.26-.68.45-1.3,1.3-.3,4.04,1.7,3.23Z"/><path class="cls-6" d="M98.28,159.57c-.9-5.42-1.23-11.61-7.38-13.79-3.54-1.25-7.88-1.24-11.57-1.71-8.74-1.13-17.48-2.26-26.22-3.39.06,1.24-.07,2.48-.75,3.72,7.38.95,14.75,1.91,22.13,2.86,4.51.58,9.12.96,13.6,1.76,5.17.92,5.49,5.43,6.19,9.63,2.03,12.15,4.05,24.31,6.08,36.46l3.94.53c-2-12.02-4.01-24.05-6.01-36.07Z"/><path class="cls-6" d="M53.1,140.68c-5.98-.77-11.97-1.55-17.95-2.32-3.95-.51-9.05-2.07-12.35.93-3.88,3.52-1.75,9.57-1.01,14.02,1.77,10.62,3.53,21.24,5.3,31.86l3.94.53c-1.42-8.57-2.85-17.14-4.27-25.7-.8-4.81-2.09-9.8-2.44-14.67-.39-5.49,5.76-3.81,9.08-3.38,6.32.82,12.64,1.63,18.96,2.45.68-1.24.81-2.48.75-3.72Z"/><path class="cls-1" d="M191.94,54.63c1.15,5.74,4.55,10.91,9.43,14.17,2.51,1.68,5.2,2.64,8.11,3.36,1.48.37,1.94.85,2.46,2.23.59,1.54,1.16,3.09,1.73,4.64.4-.87.85-1.71,1.07-2.29.37-.99.64-2.16,1.15-3.08,1.1-2,4.27-1.89,6.29-2.71,2.54-1.02,4.9-2.57,6.89-4.45,4.48-4.25,6.86-10.03,6.97-16.17-.25-13.88-13.09-24.8-26.93-21.77-11.68,2.56-19.52,14.29-17.16,26.08ZM205.34,50.02c1.89,1.5,3.79,3,5.69,4.5,3.47-3.92,6.94-7.85,10.41-11.77,1.63-1.84,4.32.86,2.7,2.7-3.84,4.34-7.68,8.69-11.52,13.03-.74.84-1.93.61-2.7,0-2.42-1.92-4.85-3.84-7.27-5.76-1.93-1.52.79-4.21,2.7-2.7Z"/><path class="cls-6" d="M208.42,75.8c.66,1.76,1.31,3.53,1.97,5.29.62,1.68,1.16,3.98,3.4,3.98s2.77-2.3,3.4-3.98c.66-1.76,1.31-3.52,1.97-5.28,12.01-2.63,20.48-13.17,20.71-25.49-.29-16.13-14.89-28.55-30.92-25.61-16.05,2.94-25.47,20.67-19.2,35.66,3.31,7.91,10.37,13.61,18.68,15.44ZM209.11,28.55c13.84-3.04,26.68,7.89,26.93,21.77-.11,6.14-2.49,11.92-6.97,16.17-1.98,1.88-4.35,3.43-6.89,4.45-2.02.81-5.19.71-6.29,2.71-.51.93-.78,2.1-1.15,3.08-.22.58-.67,1.42-1.07,2.29-.57-1.55-1.14-3.1-1.73-4.64-.53-1.37-.98-1.86-2.46-2.23-2.91-.72-5.6-1.69-8.11-3.36-4.88-3.26-8.28-8.43-9.43-14.17-2.36-11.79,5.48-23.51,17.16-26.08Z"/><path class="cls-1" d="M219.12,143.18h15.35c2.74-.36,2.93-7.67,3.27-9.44.29-1.55,2.03-5.97.08-6.56-2.01-.61-5.17,0-7.25,0h-9.9c-2.02,0-4.72-.69-5.79,1.71-.94,2.11-.97,5.16-1.39,7.42-.25,1.34-1.99,6.11-.41,6.87,1.34.65,4.6,0,6.05,0ZM219.11,129.87c1.89,1.79,3.78,3.57,5.68,5.36,2.89-1.89,5.78-3.77,8.67-5.66,2.06-1.35,3.97,1.96,1.93,3.29-3.13,2.04-6.25,4.08-9.38,6.12-.07.04-.13.07-.19.1-.68.57-1.71.74-2.54-.04l-6.86-6.48c-1.79-1.69.91-4.38,2.7-2.7Z"/><path class="cls-6" d="M234.47,147c.24,0,.46-.05.65-.11,3.86-.8,4.73-3.8,5.4-7.36.66-3.49,1.48-7,1.97-10.52.51-3.61-1.72-5.54-5.13-5.63-3.62-.09-7.25,0-10.87,0-3.18,0-6.41-.17-9.59,0-3.7.2-5.38,2.74-6,6.06-.71,3.79-1.51,7.58-2.14,11.39-.56,3.38.83,6.01,4.5,6.19,6.87.34,13.83.02,20.72,0,.15.02.31.02.48,0ZM213.49,136.31c.42-2.26.46-5.31,1.39-7.42,1.06-2.4,3.77-1.71,5.79-1.71h9.9c2.08,0,5.24-.61,7.25,0,1.95.6.22,5.01-.08,6.56-.33,1.77-.52,9.08-3.27,9.44h-15.35c-1.44,0-4.71.65-6.05,0-1.58-.76.16-5.53.41-6.87Z"/><path class="cls-6" d="M223.26,139.04c.83.79,1.86.61,2.54.04.06-.03.13-.06.19-.1,3.13-2.04,6.25-4.08,9.38-6.12,2.05-1.34.14-4.64-1.93-3.29-2.89,1.89-5.78,3.77-8.67,5.66-1.89-1.79-3.78-3.57-5.68-5.36-1.78-1.69-4.49,1.01-2.7,2.7l6.86,6.48Z"/><path class="cls-3" d="M202.64,52.72c2.42,1.92,4.85,3.84,7.27,5.76.77.61,1.95.84,2.7,0,3.84-4.34,7.68-8.69,11.52-13.03,1.62-1.83-1.07-4.54-2.7-2.7-3.47,3.92-6.94,7.85-10.41,11.77-1.9-1.5-3.79-3-5.69-4.5-1.91-1.51-4.62,1.17-2.7,2.7Z"/></g></g></svg>