<?xml version="1.0" encoding="UTF-8"?><svg id="_レイヤー_2" xmlns="http://www.w3.org/2000/svg" viewBox="0 0 188.93 267.19"><defs><style>.cls-1{fill:#fce1af;}.cls-2{fill:#050000;}.cls-3{fill:#f39700;}.cls-4{fill:#fff;}.cls-5{fill:#8ec31f;}.cls-6{fill:#e62c27;}.cls-7{fill:#e51e78;}.cls-8{fill:#efe700;}.cls-9{fill:#e62b3c;}</style></defs><g id="_レイヤー_1-2"><path class="cls-2" d="M188.93,158.14c-1.24-1.59-3.66-2.42-5.49-3.55.33-.08.58-.47.83-.25,2.28-.91,4.25-2.99,4.32-5.46-2.43-3.46-7.02-1.5-10.33-2.44,1.88-3.36,6.58-4.67,7.95-7.87l-.14-.03.33-1.76-2.83-.95c-6.59-1.37-12.46,3.49-16.07,8.06-1.74,2.32-3.63.22-5.68-.19-9.03-.51-17.18-5.75-26.47-6.36-.48-1.06-1.65-1.86-1.61-3.08,1.86-.56,3.71,1.67,6.19,1.72,8.98,1.14,17.76,4.69,26.42,2.62,1.65.16,2.32-1.67,3.85-1.56-.61-2.8-3.56-5.03-5.11-7.79-4.92-6.81-12.54-10.02-17.77-16.31,2.22-1.24,4.7-1.77,7.1-2.04,7.36-1.35,14.59-.58,21.79-3.04,3.04.24,6.75-1.35,9.12-3.17.51-1.26,1.42-2.86.86-4.11-.62-2.81-3.65-3.04-5.79-4.27-7.6-2.75-16.24-5.79-23.99-7.49-1.67-.63-3.65-1.36-4.83-2.61l4.41-3.57c3.58-5.04,9.82-6.23,13.61-10.92,2.12-1.41,4.41-2.94,6.3-4.74,4.75-3.63,10.09-7.72,11.35-13.88-14.54-6.26-28.82.92-43.03,2.97l-.18-.51c.69-.73,1.07-1.57,1.62-2.49,1.12-3.41,2.22-6.2,3.72-9.36,1.94-3.01,1.14-5.71,3.04-8.6.25-6.45,5.79-12.34,4.21-18.84-14.76.05-21.67,14.69-32.17,22.31-1.8,1.36-2.83,3.4-4.67,4.43-1.33-3.63-1.87-7.19-3.51-10.76-.46-1.67-1.52-3.36-1.56-4.92-1.14-2.51-.91-5.07-1.74-7.63-.17-1,.45-1.59.43-2.67-1.86-5.49-1.94-11.26-4.66-16.53-2.25-1.4-3.94.77-6.19,1.06-3.05,3.64-4.42,8.53-6.86,12.82-2.33,8.8-7.61,16.01-10.02,25.11-2.4-1.92-4.5-4.37-6.55-6.5-7.73-6.2-12.79-16.31-23.49-18.54-2-.09-4.41-.91-6.06,0-.33,2.87,1.42,5.54.78,8.3,1.53,7.26,3.53,14.49,5.39,21.67.39,1.97,1.37,3.95,1.32,5.81-3.87-1.1-6.78-3.46-10.38-4.47-8.27-2.03-15.51-6.07-23.64-4.16-1.77.74-1,2.98-1.11,4.49,4.45,11.8,16.22,16.81,23.37,26.13-4.35.63-8.81.48-13.23,1.25-7.84,1.96-16,1.71-23.83,4.17-3,1.79-6.97,3.31-8.29,6.35,2.17,3.27,5.07,5.64,8.29,7.46,11.29,4.58,22.96,5.53,34.52,8.61l.2.37c-5.53,3.1-11.41,7.5-16.99,10.28-3.94,2.93-9.13,3.19-12.35,6.92-1.33,1.97-1.58,4.53-1.58,6.69,14.35,8.08,27.39-4.09,41.4-5.43-1.76,3.55-4.15,7.68-6.99,11.08-1.61,3.57-4.15,7.05-4.66,11.1-6.14.3-12.09,1.58-18.28,1.55-1.41-2.73-3.67-4.6-5.6-6.55-1.8-.19-4.77-1.81-5.88.52-.8,2.26.84,4.12,2.02,6.02-.73.38-1.69-.02-2.34-.51-2.87-.81-6.09.15-7.97,2.42-.35,1.77,1.72,3.28,2.92,4.54.7.82,2.07.89,2.76,1.72-1.8.89-2.99,2.4-3.67,4.25,1.33,1.92,4.18,2.24,6.26,2.05-1.24,1.68-2.76,3.74-2.28,5.88,1.72,2.19,4.16.7,6.12.32-.07,1.38-1.1,3.42.19,4.86,1.35.22,2.99,1.01,4.4-.17,3.36-3.69,4.85-10.1,5.81-14.64.84-.24,1.71-.47,2.59-.36,13.81-4.96,28.07-7.16,42.25-8.46-.68,2.44-1.21,6.02-1.41,8.91.34,1.03-1.19,2,.13,2.84,1.38.07,2.93.05,4.24-.67l-.47,2.2c-2.58,6.4-4.36,12.73-5.5,19.55,1.6,3.72-1.69,7.13-.31,11.09l2.97.99-1.94,6.9c-3.05,8.14-.36,16.18,1.24,23.78-6.64-.63-13.22,1.72-19.42,5.09-1.65,2.02-2.94,4.92-4.06,7.24.87,1.33,2.86,1.41,4.33,1.7,9.36-.18,19.07-4.89,25.26-12,1.34.22,1.31-1.82,1.56-2.21-2.61-7.88-2.7-16.9.7-24.63,4.24-3.46,10.58-.6,14.99,1.9l-.32,1.15c-3.3,15.04-3.41,32.55,9.51,43.47-.38,1.31,1.68.64,1.89,1.61-1.3,6.78-3.22,14.15-.39,20.69,1.33,1.29,2.4,3.01,4.55,3.15,1.59-.19,2.92-1.05,4.15-2.1,2.02-5.49.63-11.6.21-17.31-.72-2.99-.17-6.58-2.18-8.84-3.09-1.66-5.76-2.72-8.1-5.37-3.83-4.03-3.09-9.41-4.83-13.78.32-8.29-1.45-17.47,4.26-24.55.7-.29,1.21-1.53,2.05-.68,3.45-1.21,7.1-.33,10.47-.78,3.64-1.32,8,.23,11.97-.67.12-1.52,0-3.27-.04-4.83-.61-3.89-.88-7.84-1.32-11.85-.98-4.78-1.18-9.63-1.54-14.39.2-.73-.82-1.5-.47-2.15.23-3.66-1.61-6.97-2.47-10.61l.96-.68c3.97,2.52,9.42,5.75,14,3.78.1-1.99-.24-4.11-.43-6.18,4.17.09,7.89,2.84,12.36,3.49,5.99,2.44,11.83.97,17.6,4.77,2.02,4.93.93,10.5,3.51,15.1,2.21,2.65,5.62,2.68,8.58,3.19,3.6-.08,1.51-3.15,1.56-4.99,1.44-.69,3.89-.62,4.03-2.75-.1-1.87-2.32-2.2-3.08-3.96,2.43-.41,4.78.08,7.12-.49.68-.74,1.73-1.22,1.9-2.41ZM69.72,137.39l-1.61.17c1.54-1.59,3.92-2.92,5.69-3.69-.08,2.46-2.19,2.79-4.08,3.52Z"/><path class="cls-1" d="M174.64,157.7c-.12.42-.61,1.07-.96,1.74,2.05,2.12,4.47,3.42,6.52,5.55-3.94,1.84-5.54-5.12-9.07-2.55l.05.95c1.77,2.52,4.29,4,5.67,6.86-1.66-.15-3.98-.17-5.37-1.36-2.11-1.82-1.35-4.56-1.83-6.72-.57-3.43-.77-7.2-2.57-10.19-9.19-3.19-19.16-4.14-27.83-7.5-4.28-.27-8.15-3.07-12.38-3.49-2.63-1.66-8.8-.12-7.9-5,6.04,0,11.64,3.88,17.87,3.78,6.66.63,12.72,4.95,19.92,5.28,3.57.08,6.12,3.12,9.75,2.89.45-.49,1.09-1.09,1.49-1.43l.1.18c4.43-3.59,8.29-9.01,14.7-8.13l-.12.42c-3.21,2.67-6.4,5.19-8.87,8.38-.41.96.65,1.57,1.47,1.95,3.28.45,6.75-.27,9.95.47.12.67-.64,1.23-1.05,1.57-2.86.73-6.16-.79-8.64,1.46-.16,3.36,4.62,2.86,6.35,3.94l3.12,1.51c-3.29.16-7,.67-10.37-.58Z"/><path class="cls-6" d="M168.86,107.04c-8.45.74-16.94.66-25.04,4.6-1.08,2.79,2.62,4.46,4.31,6.17,7.03,4.78,13.7,10.38,18.12,17.8-8.69,3.32-18.82-2.01-28.19-2.93-2.43-1.3-4.96-1.71-7.54-2.44-1.28.12-1.02,1.43-1.37,2.11l1.75,3.74c-4.13-1.32-7.47-2.71-12.01-3.05-.63-1.11.02-2.34-.31-3.35,3.46-1.83,6.92-3.65,9.77-6.1,5.17,2.07,9.84,3.68,15.36,2.29.07-.91,1.6-.79.98-1.89-2.03-3.84-5.42-6.66-7.39-10.15,1.16-3.55,3.77-6.26,4.85-9.51,5.55,1.24,12.05-.96,15.66-5.53-1.27-4.85-6.4-3.66-10.31-5.23l-2.93-.66c-.44-4.47.19-8.95-1.5-13.46,3.31-4.03,10.04-5.86,11.26-11.87-.85-3.04-4.42-.32-6.57-.94-3.02.25-5.93.68-9,1.68-1.51-2.91-3.94-5.31-6.23-7.64.89-3.17,2.74-5.29,2.28-8.68.43-2.66.65-5.09-.08-7.49-5.47,1.28-8.99,5.56-11.94,9.39-4.41-2.02-9.3-4.48-14.44-4.37-2.08-5.86-1.59-12.09-4.43-17.99-1.09-1.09-1.82.42-2.55.82-2,3.79-4.11,8.01-5.9,12.15l-1.81,3.69c-2.86.27-5.56,1.53-8.46,1.96-3.69-3.99-8.54-6.61-13.68-8.19-1.17.29-1.35,1.48-1.01,2.52l3.74,10.96c-1.42,1.79-3.5,3.68-5.16,5.7.06.33-.17.58-.53.79-1.25-1.59-3.54-1.77-5.25-1.78-3.11.05-6.33-.08-9.39.3-2.15,1.57.4,3.53.72,5.17,2.61,2.28,5.55,4.5,7.73,7.28l-2.34,7.27c-4.31.95-9.45.45-12.78,4.01-1.45,1.3-3.92,1.84-4.01,3.83,1.05,2.32,4.06,1.59,5.67,2.99,3.16,1.98,6.37,2.73,9.32,4.95-.03,1.22.62,2.19.13,3.45-.77.56-1.81.27-2.32,1.05-.31,3.32-4.38,3.43-6.49,5.47-.98.67-2.1,1.43-1.83,2.59.69,1.44,1.95.86,3.18.88,3.41.04,7.02,2.61,10.13.38,1.08,2.79,4.62,5.64.43,7.87-1.7,3.87-3.99,7.58-5.12,11.6.69.82,1.71,1.1,2.72.77,3.73-1.14,7.4-3.65,11.11-4.18l1.16-1.38c3.22,4.01,8.88,4.82,12.82,7.95-.47,3.9-5.13,2.29-7.71,3.11.72-1.97,1.02-3.6-.06-5.29-4.02-.04-6.62,3.12-9.86,5.3-1.78,3.54-5.75,3.36-8.98,4.31l-12.05.95c-.97-2.11.91-4.38,1.99-5.95,2.4-5.85,6.54-10.58,9.58-15.93-.15-1.13-.21-1.45.65-2.29-.56-1.86-2.1-.29-3.19-.75-7.42,2.11-14.55,4.77-21.72,7.1-5.76,1.78-11.73,2.59-17.71.14-.62-1.71.6-3.26,1.17-4.79,9.22-5.18,17.48-10.28,26.23-15.45,2.03-.65,3.96-.9,5.93-1.28-.52-.92.95-1.13,1.13-1.83l-.73-.67c-12.55-3.4-24.89-5.29-37.47-9.15-3.1-1.65-6.22-3.29-7.87-6.25,7.68-7.45,18.7-5.75,28-7.96,2.07-.19,3.77-1.26,5.83-.85,2.84-.75,6.17-.44,8.94.2.9.1,2.04-.06,2.71-.79-.05-.96,1.74-1.24.32-2.25-6.47-6.78-13.63-12.82-20.37-19.2-2.1-2.46-4.34-6.03-3.89-9.33,8.38-1.67,14.98,3.6,23.38,5.17,3.55,1.15,6.35,3.34,9.45,4.99.48-.03,1.22.65,1.53.12l-.43-.74c.46-.48.91.11,1.52.12.27-2.56-.59-5.59-1.43-8.16-1.89-8.74-5.88-17.17-5.69-26.12-.93-.57.08-1.37-.21-2.06,3.3-.63,6.86,1.6,9.66,3.17,7.54,6.92,14.52,14.63,21.87,21.66.14,1.13.45,2.76,1.98,2.27,2.3-1.53.77-4.91,2.68-6.71,1.97-8.13,6.82-14.36,9.01-22.15,1.71-3.85,3.8-7.46,5.75-11.09l2.65-1.12c3.31,8.68,4.93,17.84,6.11,26.85l5.09,16.18c-.4.33-.97.64-1.02,1.4.44.6.72.21,1.21.67l.5-.66c.26.71,1.31.83,1.81.68.18-1.19,2.79-1.08,1.21-2.62,3.08-4.87,8.41-7.89,12.17-12.41.4-1.43,2.56-1.91,3.51-3.06,3.67-3.16,6.07-7.28,10.79-9.23,2.1-.78,4.27-1.89,6.52-1.57-.84,6.27-3.91,11.62-5.15,17.78-2.23,6.82-5.87,13.72-8.88,20.48-.33,2.39,2.13.75,3.2,1.36,12.25-2.77,24.55-6.75,37.44-5.14l2.55.86c-4.06,8.95-14.67,13.57-22,20.37-5.45,2.81-9.57,7.55-14.06,11.88-.39,1.42,1.57,1.06,1.95,1.94,7.1,4.01,16.54,4.66,23.73,7.75l9.55,4.08c.92,1.21.38,2.6-.63,3.39-4.06,2.29-9.09,1.49-13.46,3.22Z"/><path class="cls-7" d="M106.31,262.32c-1.81-6.24-.26-12.93,1.33-19.64-.32-.56-.91-2.27.62-2.15.86.23,1.16.79,1.4,1.63.48,7.12,2.56,14.06,1.38,21.02-1.68,2.17-3.38.46-4.72-.87Z"/><path class="cls-8" d="M148.13,101.83l-5.5-.31c.26-1.46,1.36-3.18.82-4.56.08-.3.3-.54.39-.83,1.14-.77,2.67.44,3.64.25,2.72.3,5.2.84,7.64,2.14-1.92,1.8-4.56,2.45-6.98,3.32Z"/><path class="cls-5" d="M105.75,191.89c-2.01.02-4-.65-5.86-.1-.5-.44-.66-2.05-1.81-1.3-1.91,1.33-4.29-1.35-6.39-2.1-4.35-2.76-10.06-6.69-15.49-4.5-1.94.85-3.29,3.42-5.93,2.36-.39-.88.13-2.12.23-3.05.18-1.8-.02-4.34,1.53-5.46-.13-.65.12-1.51-.66-2.05.96-7.79,3.95-14.08,6.53-21.59.89-.98,2.84-1.84,2.75-3.73-.25-.22-.17-.5-.42-.74l-.58-.16c.85-1.93.7-4.15,2.23-5.74.38.28.64.5,1.11.46,1.04-.94.49-2.33-.13-3.43,1.16-2.47,2.07-5.15,3.84-6.99,3.67-.37,7.78,1.56,11.63,1.09,1.39.56,2.78,0,4.11-.24,4.7-.7,9.26-2.04,13.71-3.6.2,3.16,1.3,6.41.54,9.77,2,1.65.26,4.57,1.71,6.54,3.96,14.13,3.39,28.88,5.58,43.15-6.04,0-12.4,1.02-18.25,1.39Z"/><path class="cls-8" d="M130.96,121.53c1.67-1.54,3.45-2.92,4.53-5.1l5.67,6.88c-3.63,1.31-6.96-.08-10.2-1.78Z"/><path class="cls-6" d="M120.9,144.62l-.47-2.15c4.06.98,8.1.88,12.05,2.92l.52,4.8c-5.09.42-8.36-3.45-12.1-5.57Z"/><path class="cls-7" d="M104.68,239.36c-6.59-4.16-9.28-12.84-10.9-20.28-.38-6.93.96-13.38,1.1-20.47,1.1-1.71,2.92-3.21,4.67-3.97-7.41,12.04-4.89,26.24-.13,38.61,1.52,2.29,4.06,3.76,5.26,6.11Z"/><path class="cls-8" d="M142.31,76.15l-1.98-5.22c3.12-1.14,6.91-1.95,10.14-1.82-1.69,3.26-5.46,4.52-8.16,7.04Z"/><path class="cls-3" d="M138.68,103.99c-1.89,7.23-4.72,13.41-11.11,17.36-9.94,8.38-22.55,11.83-34.72,10.41-10.89-2.1-21.16-8.09-26.81-17.76-.84-3.64-4.19-6.14-3.75-9.89-1.33-1.92-.41-4.62-1.66-6.83.47-9.95,2.4-21.18,8.01-29.56,4.37-10.09,16.07-15.81,26.73-16.24,4.51.51,9.37-.77,13.78,1.26,8.37,1.1,14.91,5.43,21.38,10.03l2.94,3.3c-.81.71-1.66.93-2.76,1.56-2.81-1.57-6.18-.64-9.26-.75-3.21.97-3.01,4.12-4.18,6.58-1.62,7.47-3.53,15.94,1.24,22.7.77.52,1.66,1.24,2.79,1.09.97-1.28,2.34-.59,3.55-1.03,5.62-2.28,5.79-8.45,7.74-13.18,1.41-.08,3.7.1,4.18-1.63-.6-1.72-2.44-.68-3.6-1l.05-4.03c1.2-.43,2.99.38,3.52-1.49-.16-2.22-2.52-.39-3.73-1.05.22-1.33-1.3-2.53-1.05-4.01,1.1-.63,1.78-1.37,3.03-1.95,2.13,2.93,4.01,6.71,4.37,10.38-.88.38-1.65.93-1.61,1.89-.4.34.17.5.2.97.81.39,1.67.64,2.52.88,1.92,6.43,1.43,13.75-1.14,20.15-.7.27-.8,1.17-.66,1.83Z"/><path class="cls-2" d="M139.42,95.82c-1.43.68-4.33-2.77-4.41.78.52.3.33,1.02.5,1.55.16.5-1,.78-.21,1.31-1.4,6.13-3.98,10.84-6.98,15.42-9.18,11.7-25.29,13.24-38.88,11.42-7.18.63-13.16-4-16.8-9.83-2.65-4.92-2.52-10.32-4.06-15.42.87-1.44-.91-1.17-1.05-2.31-1.46.21-2.76,1.55-4.26.83.46-2.21,3.7-2.69,5.39-3.78,1.91,2.09,3.84,4.03,5.85,5.7,6.75,3.58,15.19,5.03,22.37,4.87,9.68,2.56,19.43-.13,28.75-4.02,4.75-1.92,6.5-6.56,8.91-10.7,1.84-1.02,3.01,1.46,5.12,1.61,1.1,1.07-1.53,1.59-.24,2.56Z"/><path class="cls-9" d="M112.09,121.82c-8.55,2.86-17.32,2.57-26.21,1.63-7.34-2.06-12.14-8.68-13.05-15.93l-.9-4.59c5.89,3.99,13.87,5.92,21.26,6.13,4.65,1.16,9.45,1.72,14.11,1.17,5.27-1.61,10.73-1.17,15.85-3.91,3.14-.68,6.78-2.59,8.69-5.01-2.93,9.87-9.52,18.42-19.73,20.52Z"/><path class="cls-2" d="M101.22,166.09c-.4,1.45-1.43,2.86-1.31,4.13,2.22-.15,4.51.5,6.57-.18,1.93.86.34,3.2.94,4.93-2.28,2.62-6.26,1.8-9.44,2.14-2.06-.41-3.95-.33-5.74-1.14-.63-1.1.38-2.99.06-4.63.56-2.02,1.95-4.1,1.48-6.41-.93.05-1.86-.52-2.82.13-1.04,3.14-1.13,5.74-1.66,8.69-1.92.7-4.24-1.49-6.52-.59-.99-2.46.49-5.59.62-8.21.68-6.32,3.29-12.87,6.05-18.77,2.18-.64,4.73-.85,6.99-.05.14,3.91-1.76,6.77-3.06,10.32-.49,1.25.77,2.24,2.06,2.11,2.97-.09,5.82-.84,8.82-1.55.15-3.37-1.6-6.51-.15-9.96,1.8-.9,3.62.38,5.55.15.23.24.3.55.74.68.95,5.38,0,11.01,1.29,16.34-2.48,3.34-7.63-.43-10.45,1.88Z"/><path class="cls-8" d="M108.49,162.85c-3.01.26-6.22-.5-9.29.51-1.01,2.5-1.46,5.17-3.1,7.66.32.55.3,1.16.8,1.62,2.71,1.38,5.14-.1,7.74.61-.14,1.06-1.34.89-2.14.96-2.54.23-5.09.45-7.68-.29-.19-2.08.93-4.39,1.39-6.59-.34-2.12,2.33-3.37.18-5.05-2.69.17-6.12-1.42-7.92.55-.25,2.58-1.83,5.38-1.68,7.6-.5.17-.84.23-1.32-.22,1.43-6.72,1.79-14.7,5.34-21.16.75-.56,1.72-1.21,2.83-.77-.58,3.73-3.04,7.54-3.62,11.27,5.02,3.11,10.58.48,15.72.36.87-.36,1.66-.91,1.8-1.97-1.17-2.49-1.16-5.29-1.33-7.99.41-.34,1.22.06,1.8.22.68,4.21.61,8.38.48,12.68Z"/><path class="cls-4" d="M123.38,93.8c-1.39-.56-3.75.65-4.32-1.7-1.89-6.57.34-13.38,1.77-20.12.73-3.21,3.82-2.03,6.17-2.62,1.87-.1,2.55,1.95,3.05,3.5.89,5.68-.53,11.81-2.62,17.58-1.03,1.41-2.62,2.21-4.05,3.36Z"/><path class="cls-2" d="M122.96,88.1c-.54.3-1.31.26-1.76-.35-1.62-4.18.89-9.22,2.56-12.93.6.01.49-.66.59-1.07.94-.04,2.23-1.24,2.81.01,1.51,3.98.42,8.96-1.72,12.69l-2.48,1.65Z"/><path class="cls-7" d="M92.02,193.3c-4.47-1.72-10.85-4.45-15.17-.69-5.08,8.19-3.54,18.1-1.93,26.76l-1.2.44c-3.26-7.74-4.51-16.01-1.79-24.56.77-2.74,1.43-6.73,4.47-8.2,5.51-2.51,10.9,1.5,15.35,4.46l3.49,1.91c-.43,2.06-2.13-.13-3.22-.13Z"/><path class="cls-8" d="M130.34,58.51c-1.85-.53-3.63-1.96-5.16-3.16,1.85-2.73,3.7-6.55,7.51-6.89-.26,3.2-.71,6.94-2.36,10.06Z"/><path class="cls-2" d="M125.16,63.71c-1.16-1.39-2.88-1.89-4.54-.47-1.18.42-.55,2-2.18,1.69-1.36-.06-.31-1.62-.54-2.48,1.21-1.52,3.2-2.52,5.16-2.89,1.43.41,2.71,1.39,3.49,2.53-.06.76-.45,1.57-1.39,1.61Z"/><path class="cls-7" d="M66.32,227.36c-5.23,2.09-10.51,4.81-16.27,3.78.92-4.37,5.89-6.09,9.31-7.77,3.81-1.4,7.93-1.18,12.29-.12-1.43,1.79-3.21,3.16-5.34,4.11Z"/><path class="cls-1" d="M76.61,140.41c-10.25,1.77-20.79,2.21-31.2,5.02-6.69.62-12.74,3.9-19.38,4.36l-.09-.19c-3.28,1.1-2.29,4.8-2.87,7.43-.69,1.35-1.38,3.8-1.5,5.3-.46,1.12-1.23,3.87-3.36,3.71l-.22-.35c.85-3.02,2.41-5.23,3.37-8.07-.24-.84-.97-1.02-1.68-1.23-1.94,1.93-3.59,5.03-6.84,5.04-.31-1.16,1.01-2.5,1.61-3.56,1.51-2.07,5.28-3.34,3.9-6.67l-2.05.66c.35-.66.85-1.32.94-2.22-3.29-1.54-8.94-.19-10.01-4.68,2.73-1.4,6.2.04,8.73,1.52,1.26.5,1.71,2.2,3.35,1.88.25-.86,1.92-1.31.83-2.39-1.8-2.38-3.96-4.69-4.99-7.62,1.71-1.06,2.1,1.37,3.4,1.73.82,1.49,2.31,2.82,2.48,4.42.64.5,1.22,1.74,2.38,1.45,4.22-2.85,9.66-.7,14.2-2.52,11.68-.15,23.21-1.39,34.58-4.88.47,1.06,1.82.21,2.45.68.85-.23.24-1.95,1.58-1.72,1.8.19,3.73-.52,5.42-.03-.32,2.86-2.83,2.94-5.01,2.95Z"/><path class="cls-6" d="M72.52,153.37c.28-2.1.15-4.45.4-6.41l.74-3.19c1.71-.62,3.69-.38,5.45-.66-2.52,3.49-.8,10.01-6.59,10.26Z"/><path class="cls-8" d="M101.9,48.19c-1.84-.05-3.77.18-5.59,0,.74-3.22,3.11-6.12,4.49-8.84.74-.88,1.09-2.17,1.7-3.24,1.09,3.87,1.43,8.16,2.26,12.43l-2.86-.34Z"/><path class="cls-2" d="M87.91,94.7c-1.48.82-2.42,1.96-3.75,1.75-3.15,1.28-7.07,1.42-10.25-.57.67-1.21-.93-1.66-.92-2.75-1.34-3-1.38-6.11-1.64-9.13-1.49.35-2.77-.01-3.95-.81-.75-.69-1.46-1.97-.42-2.91,1.57-.66,2.33,3.28,3.72.57l.7.21c.41-1.44.75-3.21.73-4.76-1.33-1.31-5.95,1.28-4.47-2.34,1.51-.97,3.57.54,4.88.28.69-1.36.52-2.95-.93-3.36-.97.2-1.2-.63-1.53-1.2.32-.54.45-.98,1.13-1.24,1.4.56,3.08,1.8,3.67-.36l1.53-.97c-.94-1.03-1.4-2.25-1.94-3.65.17-.56.32-1.14.88-1.45,1.73.48,1.89,2.7,3.12,3.83,2.2-1.25,4.76-.37,7.33-.12,1.64.77,3.61,1.49,4.65,3.32,1.78,4.7,1.61,9.76,1.94,14.67-.89,4.26-2.63,7.64-4.48,11Z"/><path class="cls-4" d="M83.67,94.27c-2.2.64-4.44.93-6.69.15-2.83-3.28-3.4-7.78-2.49-11.57-.45-3.38.53-6.37.96-9.51.29-2.71,2.45-4.89,5.26-5.5,2.47.07,6.36.07,7.5,3.2,1.97,7.37,2.3,18.32-4.53,23.23Z"/><path class="cls-2" d="M84.17,88.68c-1.97.4-4.43.78-6.09-.46-.02-4.36-2.13-8.98.93-13.23,1.25-1.21,2.96-1.19,4.65-1.04,2.78,4.37,2.45,10,.51,14.73Z"/><path class="cls-2" d="M87.67,60.18c-1.36-.68-1.5-2.92-3.63-2.57-1.81.42-3.26,1.1-4.2,2.86-1.12-.48-.45-1.22-.63-2.19-.36-1.52,1.26-2.31,2.43-2.59,1.88-.08,4.09-1.34,5.92.43.75.67,1.08,2.79,2.57,1.97.95,1.51-1.49,1.91-2.47,2.1Z"/><path class="cls-8" d="M59.77,126.37c1.86-2.75,2.8-6.68,5.3-8.93,1.4,1.65,2.31,3.93,4.13,5.2-3.01,1.33-6.35,2.71-9.42,3.73Z"/><path class="cls-8" d="M76.64,54.13c-1.83-2.85-3.39-5.61-3.64-8.61,3.25,1.68,6.65,2.33,8.83,5.58l-.16.56-5.04,2.47Z"/><path class="cls-8" d="M53.01,106.77c1.42-1.14,3.9-1.69,5.63-2.91l-.42-.74c.33-.06.56-.3.8-.08.03,1.56,2.12,4.62-1.1,4.51-1.55.01-3.48-.37-4.91-.78Z"/><path class="cls-8" d="M63.86,69.79c-2.86-1.42-5.61-3.75-7.75-6.68,3.53-.41,7.36-.73,11.01.61-.64,2.31-2.21,4.03-3.26,6.07Z"/><path class="cls-8" d="M58.01,92.83c-3.58-1.64-7.15-3.25-10.54-5,.84-1.31,2.82-2.31,4.47-3.25,2.53-.67,4.92-.93,7.46-1.16-1.03,3.12-1.14,6.34-1.39,9.4Z"/><path class="cls-4" d="M9.49,153.97c1.71-1.68,4.24-1.27,6.35-1.63-1.8.91-3.98,2.62-6.35,1.63Z"/></g></svg>