<?xml version="1.0" encoding="UTF-8"?><svg id="_レイヤー_2" xmlns="http://www.w3.org/2000/svg" viewBox="0 0 122.22 166.85"><defs><style>.cls-1{fill:#fff;}.cls-2{fill:#fdebc7;}.cls-3{fill:#e3007f;}.cls-4{fill:#f29600;}.cls-5{fill:#fff000;}.cls-6{fill:#e50012;}.cls-7{fill:#8dc21f;}</style></defs><g id="_レイヤー_1-2"><path d="M109.04,64.99c3.04-2.8,7.19-4.14,9.1-8.39.86-2.56,4.63-3.29,3.66-6.35-7.03-.88-14.92,1.32-22.14,1.93,5.74-7.62,13.19-14.05,17.21-22.85-.05-.78.09-1.33-.4-1.74-9.02,3.64-19.76,5.45-29.33,6.07-.26-6.24.46-12.31,1.31-18.29,1.68-3.54.52-7.47,1.95-10.95-.77-.48-.46-1.99-.94-2.41-10.04,5.46-14.33,17.07-20.44,26.48l-.62-.38c-4.33-7.41-7.89-15.52-11.71-23.04-1.24-1.95-1.74-4.72-4.31-5.05-3.64,9.9-3.04,20.52-3.68,30.91-3.13-.46-4.77-3.63-7.46-5.64-3.05-4.16-6.87-7.62-10.15-11.59-1.28-1.02-3.05-2.44-4.77-1.92.04,10.49,6.03,18.31,7.85,28.53-7.65-2.45-15.66-4.16-23.84-4.91-1.25.29-3.06-.74-3.86.89,2.61,4.52,7.09,7.43,10.49,11.38,2.98,3.26,6.95,6.28,9.33,9.81-7.49,2.24-15.31,4.82-21.89,8.7-1.48.99-3.94,1.16-4.41,3.11,1.92,2.05,4.85,2.82,7.22,3.99,5.56,3.06,11.99,2.5,17.57,4.5-4.43,4.17-8.98,8.36-12.92,12.94-1.75,2.64-5.49,4.67-4.44,8.11,5.17.78,10.56-1.5,15.56-1.99,3.15-.59,6.29-2.36,9.44-1.77-3.26,6.39-9,12.3-10.53,19.35.15.62-.31,1.51.43,1.87,9.19-3.42,17.15-8.79,25.86-12.63.1,1.55-.34,3.1-.53,4.58,1.41,4.41-3.72,7.81-1.64,12.32,1.24,4.84,7.15,5.98,11.23,6.62,1.87,5.87,3.48,12.33,7.78,16.73,2.49-.05,3.89-1.94,5.85-2.52-.42,2.2-1.76,4.34-2.94,6.06-5.67-.67-11.64-4.95-13.94-9.8l.25-.06-.14-.62c-5.83-.24-11.1,2.55-15.14,6.1-.58.92,0,1.71.35,2.68,4.11,3,8.06-.93,11.48-2.63,3.59,3.63,7.71,9,13.47,8.33,1.34-.43,3.29.04,4.31-1.25,2.38-1.07,2.61-3.49,4.45-5.22.66-2.25-.34-4.91,1.62-6.67,2.76-1.68,5.59-3.65,8.29-5.05,1.84,9.16-.39,18.33-6.67,25.29-1.24,1.47-3.65,2.41-3.41,4.59,3.75,2.03,7.85,2.14,11.74,3.09,3.43.66,7.73,1.64,10.28-1.57-.35-.97-.74-2.06-1.34-2.98-2.46-2.71-6.28-2.76-9.57-2.79,1.68-3.01,3.5-5.92,4.62-9.07l.28-6.23c-.97-4.77.57-8.93-1.66-13.54,1.39-1.37,3.48-1.45,4.92-2.57,1.03-1.81,3.33-2.08,4.81-3.07-1.76-3.67-3.61-7.18-5.15-11.03-.42-.69-1.27-1.55-1.07-2.38.99.3,1.98.6,2.45,1.54,1.27.37.74-1.35,1.95-1.24-1.22-2.48-1.71-6.3-1.87-9.28l3.02-.04c5.83,1.42,12.22.08,18.24.54.63-.14.55-1.05,1.23-.94.25-1.24-1.52-2.01-1.92-3.23-3.3-2.92-6.56-5.71-10.34-7.87l.4-1.67c1.45-4.54,7.05-3.58,10.54-5.57,2.47-1.22,6.88-.92,7.83-3.64-2.28-2.5-5.27-3.52-7.99-5.65-.38-1.1-.95-2.41-1.7-3.42-1.37-1.39-3.41-1.71-5.38-1.13l-.34-1.5c.36-1.26.43-3.25,2.23-2.87ZM56.07,119.67c-1.49-.18-3.05-1.27-3.74-2.55,0-2.89,2.45-4.76,3.64-7,.61,2.62-.12,6.33.09,9.56ZM97,86.92c-.62.14-.67-.64-1-.96l1.15-.13-.15,1.09Z"/><path class="cls-6" d="M28.41,59.2c.11-.68.86-.85,1.14-1.31l-1.5-2.54c-5.96-5.98-12.53-11.7-18.05-18.04,8.46.82,17.5,1.89,25.71,6.18,1.26.37.21-1.36,1.41-.71l.25-1.24c-1.81-7.86-5.4-16.09-8.33-23.69l-.46-3.18c4.54,2.63,7.28,7.13,11.07,10.46,2.57,3.22,5.15,6.44,8.61,8.92,1.33.09,2.13-1.01,2.27-2.09-.98-10.01.75-19.07,2.74-28.72,1.42,2.17,2.4,4.18,3.38,6.71,3.97,6.44,6.52,14.12,10.46,20.44.36.44.61,2.09,1.46,1.24.35-.21.7-.95,1.13-.79,5.85-8.3,9.73-18.25,17.81-24.83-.41,9.68-3.67,19.48-2.51,29.72,6.76.29,13.57-1.54,20.76-2.79l7.92-2.08c-.57,2.62-2.92,5-4.67,7.11-4.5,4.97-8.64,10.38-12.97,15.58-.34,1.39,1.04,1.07,1.87,1.28,7.16-.85,14-3.08,21.1-2.47-2.98,4.75-6.87,8.4-11.55,10.91-.12-1.68-1.36-3.1-3.13-3.35l-1.22.41c.44-.36,1.01-.75,1.24-1.46-.58-.26.14-.55.06-.93-2.64-1.77-6.32-.65-9.55-.44-.74-2.06-1.12-4.34-2.08-6.22,2.38-2.78,2.88-6.31,4.77-8.97-.45-.82.92-1.13,0-1.71l-.99-.3c-4.07.01-9.47,5.06-11.67.05-1.41-.99-2.97-2.07-2.47-3.89-.75-3.24-.64-7.34-2.76-9.74-2.72,2.46-5.83,4.35-7.48,8.02l-7.07-.48c-2.98-3.26-4.31-7.94-7.49-10.89-2.55.32-1.49,3.23-2.54,4.92-.83,2.68-1.13,5.38-1.13,8.27-2.17,1.41-4.57,2.36-6.93,3.56-2.42-1.41-3.82-4.11-6.35-5.37-.8-.08-.81.45-1.08,1.04-.25,3.47.31,6.49,1.23,9.96l-2.33,3.03c-2.87-.52-5.48-2.15-8.49-2.12-.98.88.04,2.49.24,3.36,1.22,3.01,2.84,5.52,4.75,8.11l-1.02,4.7c-4.36.47-8.95,1.66-13.01,3.38-.57.39-.05.93-.06,1.46l11.67,6.25c1.43-.06,1.04,2.26,1.58,3.45-3.03,2.27-6.48,4.37-8.39,8.1.55,1.84,2.89,1.17,4.41,1.48,3.67-.06,8.79-1.75,11.04,2.33-1.17,4.08-5.02,7.33-4.27,11.75l.46.29c3.83-2.19,7.66-4.38,11.73-6.11-.05-.78.73-.82,1.22-.41l7.82,3.2c.63,2.74-2.17,3.12-3.54,4.61-1.54,1.27-3.03,2.8-4.37,4.42.32-2.04.39-4.03,1.26-5.93.04-.4-.43-.17-.61-.38l-.19.31-.49-.41c.22-.18.04-.4-.02-.65l-.83-.2c-7.74,5.19-15.38,10.22-24.81,13.17,2.98-6.46,6.3-12.61,11.31-18.22.46-.89-.4-1.75-.32-2.55-6.15.1-11.96,3.4-17.95,3.59-2.44.82-5.15,1.57-7.6,1.22,1.57-4.04,4.97-6.39,7.33-9.82,3.56-2.79,6.95-6.33,10.49-9.23.74-1.35-.34-2.02-1.44-2.3-2.88-.52-5.66-1.2-8.68-1.16-4.87-1.24-9.99-2.96-14.66-5.57,7.23-4.54,16.79-8.05,25.36-9.62Z"/><path class="cls-3" d="M48.04,139.64c1.76.25,4.69-1.86,5.39.6,2.48,4.55,7.51,7.6,12.55,8.94-5.55,1.54-9.49-3.6-12.99-6.87-.14-.62-.7-1.29-.71-1.94l-1.36-.74c-2.49,2.28-5.56,6.66-9.59,4.56,1.48-2.17,4.26-3.21,6.7-4.56Z"/><path class="cls-5" d="M33.45,65.13c.02,1.83-.39,4.03-.06,6.05-3.07-.22-5.48-2.68-8.55-4.08,2.85-1.31,5.61-1.29,8.61-1.97Z"/><path class="cls-5" d="M34.63,79.43l2.48,5.08c-2.74.1-5.47.2-8.06-.25,1.53-1.93,3.51-3.56,5.59-4.83Z"/><path class="cls-5" d="M42.45,90.64c1.79.38,3.37,2.12,5.37,2.83-2.85,1.31-5.39,2.82-8.22,4.25-.19-2.58,2.45-4.76,2.85-7.08Z"/><path class="cls-4" d="M35.2,71.03c.24-2.95.09-5.93,1.13-8.79.55-10.76,9.03-20.19,19.02-23.53,11.11-3.07,23.62-2.92,31.25,6.88,2.97,3.78,5.58,8.3,6.1,13.43,1.7,6.83-.33,13.47-1.69,20.08-.78.05-1.5.35-1.45,1.12,1.45,1.77-1.25,3.7-1.65,5.37-.94.48-1.73,1.05-1.88,2.14-5.2,5.92-12.2,9.75-20.54,10.62-5.09-1.59-10.33-3.8-15.46-6.17-8.22-3.76-14.53-10.72-14.45-19.53l-.37-1.62Z"/><path class="cls-2" d="M54.36,105.37l2.74-1.81-.23,2.42c-2.51,3.34-5.92,6.21-7.31,10.47-.13,1.74,1,3.18,2.25,4.08,1.48,1.89,5.88.49,4.86,4.01-2.15.36-4.84-.47-6.66-2.15-1.52-1.49-2.19-3.83-1.75-5.9,1.35-3.85,3.69-7.93,6.11-11.11Z"/><path class="cls-5" d="M32.86,49.38c1.58.03,2.9,1.17,4.38,1.36l-1.31,3.97c-1.76-.77-2.2-3.3-3.07-5.34Z"/><path d="M43.44,78.33c.99.3,1.91-.83,2.66.18,1.22,3,3.64,6.12,7.14,6.5,5.58.29,11.08,3.1,16.54.01,6.43-3.45,13.69-7.87,15-15.91-.01-1.18-.08-2.61.75-3.58,1.34-.44,2.26.13,2.67,1.35.06.25-.13.56-.38.61-1.33-.09-.74,1.35-1.12,1.97-1.28,5.28-4.41,11.12-9.48,13.6-4.83,2.42-9.62,6.15-15.6,5.28-5.84-1.42-14.77-.29-16.64-7.87-1.07-.67-2.73,1.81-3.07-.21.49-.77,1.6-1.02,1.53-1.93Z"/><path d="M41.55,64.98c.84-.32,2.1.57,2.19-.76.74-3.06-4.27-.33-3.13-3.35.94-.48,1.79.37,2.57.33.89-1.26.74-3.06-1.08-3.56-.2-.87.65-1.2,1.33-1.09l.77.48c1.12-1.96,2.61-3.49,4.49-4.44,1.62-.37,2.91.65,4.28,1.51,3.38,5,3.9,11.84,3.66,17.67-1.07,2.22-2.55,4.92-5.42,5.58-1.67-.4-2.94-1.95-4.35-2.94-1.82-2.21-2.54-4.79-2.86-7.88-1.07-.67-1.88.96-2.88,0,.01-.53-.14-1.15.43-1.54Z"/><path class="cls-7" d="M60.08,98.8c1.46.06,3.1,1.52,4.72,1.67,5.12,0,10.38-2.25,14.5-4.9,6.27,6.17,7.85,15.92,12.43,23.27.71,1.41,1.36,3.1,2.24,4.61l-7.42,4.85c-.5.12-1.2-.64-1.59-.03.19,1.4-1.17,1.71-1.96,2.29-3.09,2.55-6.55,4.65-10.25,6.28-1.47,2.18-4.55,2.49-6.53,4.13-1.11-.27-2.01-1.9-2.67-3.06-2.58-6.1-4.73-12.57-5.15-19.57-.33-6.62.11-13.28,1.69-19.55Z"/><path class="cls-1" d="M49.26,55.07c1.25-.29,1.99.07,2.84.92,2.52,4.68,3.15,10.31,2.87,15.36-.66,1.73-2.28,3.81-4.4,2.59-1.3,1.22-2.09-1.09-3.04-1.8-1.62-4.22-2.55-9.39-1.25-14.02.71-1.48,1.82-2.39,2.98-3.04Z"/><path d="M48.44,58.93c1.37-.31,3.02-.56,4.11.77.92,3.47,2.18,7.77-.64,10.38-.94.48-2.1-.04-3-.49-1.96-2.83-2.28-7.09-.92-10.29l.44-.36Z"/><path class="cls-5" d="M41.97,38.76c1.11.27,1.98,1.77,2.96,2.6-.51.64-1.22,2.12-2.3,1.97-.34-1.5-.71-3.12-.66-4.57Z"/><path d="M46.55,46.11c1.45-1.12,3.82-1.66,5.51-.61.61.38,1.57.56,1.15,1.57-.26.58-1.38.84-1.87.43-.82-1.26-2.57-.33-3.51.15-1,.23-.84,1.51-1.19,2.24-1.93.18-1.8-3.27-.08-3.79Z"/><path d="M64.44,109.22c-.83-.2-.59-1.44-.89-2.16.77-1.75,3.43-1.05,4.63-2.11,2.18.95,2.15,4.23,2.06,6.09l.33.85c1.71,0,3.55-.55,4.78-1.49-.52-2.24-.35-4.38-.84-6.5,1.42-1.24,3.58-2.14,5.46-2.56,1.2,3.53,1.81,9.04,2.67,12.78-1.31,1.75-5.87.16-5.28,3.31.45.82-.13,1.73.77,2.19,1.75-.93,4.09-1.6,5.88-2.4-.23,1.89,3.21,4.25-.1,5.28-3.3,1.68-7.06,1.88-9.92,4.25-2.17-.29-1.33-3.5-1.7-5.12-.08-.9.39-2.32-.69-2.99-.72.29-.52,1.17-.63,1.85-.82,2.16,2.49,6.26-1.06,6.81-1.24-.24-.77,2.41-2.13,1.01-1.64-6.58-2.11-12.64-3.32-19.06Z"/><path class="cls-3" d="M83.38,151.75c.61-2.5,2.39-5.01,1.61-7.85,1.66-2.49.14-5.68.97-8.37-.41-1.21-1.37-3.1-.39-3.98,1.73,5.25,1.74,11.02,1.11,16.29-1.06,5.09-4.66,9.99-8.79,13.17,1.96,1.65,4.32-.6,6.68-.09,2.76.03,6.52-.18,7.91,3.04-.7.95-2.26,1.04-3.22.87-4.64-.78-9.15-1.58-13.66-2.91,3.83-2.19,5.02-7.32,7.77-10.18Z"/><path class="cls-5" d="M66.26,108.02c.44-.36,1.1-.38,1.59-.5,1.32,2.32-.23,5.3,1.6,6.98l7.52-2.12c.66-2.25-.31-4.79-.33-7.15.51-.64,1.26-.81,1.98-1.11,1.03,2.78.64,5.63,1.58,8.57-1.45,1.12-3.93.64-5.04,2.07.32,2.55-.13,5.15.97,7.66.51.54,1.06.02,1.58.03,1.64-.9,3.15-2.3,5.29-2.13.33.84-1.01.76-1.54,1.28-2.54.97-4.67.81-6.97,2.25-.89-2.16-.43-4.75-.73-7.18l-.56-.13c.32-.34-.02-.65-.3-.72-.7-.76-.78.57-1.47.47-1.02.1-2.34.67-2.58,1.9.03,1.83.44,4.24,1.06,6.32l-.79.57c-1.22-5.89-2.44-11.78-2.87-17.06Z"/><path class="cls-5" d="M57.43,27.73c2.3,1.44,3.14,4.53,4.59,6.82l-6.29,1.18,1.7-8Z"/><path d="M72.67,47.21c1.13-.79,2.5-1.1,3.86-.88,1.57.56,2.29,1.97,3.23,3.2.79-.58,1.49-1.52,2.6-1.25,1.3,1.67-.82,2.16-1.71,2.89l.55,2.37c1.17.52,1.71-1.71,2.84-.79.99,2.01-3.52,2.39-1.89,4.37.32-.33.97-.35,1.47-.47.94,1.23-.66,1.72-1.26,2.52-.18,3.19.52,6.84-2.45,9.36.36.44.41,1.22-.18,1.49-2.48.04-4.89-.72-7.09-2.31-3.16-3.48-4.56-9.59-3.24-14.1.95-2.19,1.58-4.56,3.26-6.39Z"/><path class="cls-1" d="M73.92,49.28c.7-.42,1.32-.56,2.25-.52,4.58,3.94,4.49,11.57,3.74,16.87-.93,1.13-2.01,2.69-3.49,1.98-4.74-1.8-5.42-7.03-5.49-11.34.76-2.41,1.21-5.01,2.99-6.99Z"/><path d="M74.08,52.79c1.12-.25,2.23-1.16,3.14-.06,1.75,2.49,2.02,6.49,1.52,9.5-.7.95-1.57,2.33-2.92,1.59-1.02-.43-2.27-1.32-2.68-2.54-.56-3.02-.56-5.91.95-8.49Z"/><path d="M71.41,40.01c1.68-.12,3.19.19,4.7,1.02.02.65.33,2.02-1.03,1.81-1.07-.67-2.33-1.56-3.56-.63-.78.57-1.01,2.46-2.36,1.72,0-1.71.83-3.21,2.25-3.93Z"/><path class="cls-6" d="M89.73,93.58c1.01-2.46-2.01-3.61-1.34-5.86,1.5-2.05,2.72-4.17,3.76-6.51l5.83.24c.39.57.06,1.43-.32,2.04-1.51.22-3.32.37-4.58,1.18-.78,1.75,1.53,2.67,2.34,3.92l.95.7c-.8,2.81-1.17,5.78-3.42,8-.97.35-1.76-.25-2.6-.45l-8.42-2.93c2.02-3.22,5.22,1.56,7.8-.34Z"/><path class="cls-2" d="M94.03,99.15c4.36-3.89,3.89-9.95,6.06-14.78-.17-1.93.76-3.59.98-5.48-.03-3.02,2.13-6.14,1.45-9.13.08-2.51.56-4.99,1.91-7.13.98.3.69,2.46.79,3.49-.19,2.01-.57,3.8-.48,5.89,2.5.61,5.54-2.19,6.97,1.16-1.06,1.69,1.5,2.55.59,4.33-.26,2.29-3.28,2.32-5.11,2.35-1.37.31-1.94-2.18-3.39-1.06-1.02,4.7-1.28,9.88-3.2,14.65l-3.47,7.22c-1.03.63-1.72-.65-2.69-.3-3.15-.59-6.59-1.25-9.59-1.74-.64-.51-.26-1.12-1.15-1.57,3.09.87,6.76,2,10.33,2.09Z"/><path class="cls-6" d="M90.48,101.42l1.53,7.79c-4.03-.39-3.86-5.94-6.14-8.43l-.11-.5,4.73,1.15Z"/><path class="cls-5" d="M86.76,89.8l.62,1.56-1.95-.47c.11-.68.89-.73,1.33-1.09Z"/><path class="cls-5" d="M78.62,30.22c.96,1.88,1.06,4.61,1.44,6.89-1.81-1.03-3.85-1.35-5.83-1.95.76-2.41,2.92-3.3,4.38-4.94Z"/><path class="cls-5" d="M94.23,74.82c1.85.63,3.37,2.12,4.68,3.26l-.33,1.39-5.86-.36c.59-1.45.2-3.72,1.51-4.29Z"/><path class="cls-6" d="M102.85,92.4c4.27,2.04,6.97,5.23,10,8.08-4.16.17-9.15.79-13.41-.07l3.42-8Z"/><path class="cls-6" d="M96.49,65.25c1.99-1.64,4.13-3.18,6.24-4.85-2.85,3.02-.46,7.72-5.18,8.93-.14.56.11,1.03.22,1.53.68.11,1.52.31,2.03.85,0,1.18-.48,2.47-.37,3.5l-5.11-2.77c.36-2.44-.26-5.72,2.16-7.19Z"/><path class="cls-5" d="M88.73,44.57c1.92-.83,3.91-1.29,5.84-1.46-.4,1.67-1.62,3.78-2.65,5.6l-.38.09c-.62-1.57-2.15-2.53-2.81-4.22Z"/><path class="cls-5" d="M95.11,59.78c1.66-.77,3.35-.24,5.13-.52-1.33,1.62-3.25,2.45-4.94,3.63l-.19-3.11Z"/><path class="cls-6" d="M105.85,82c2.16.29,5.46-.2,7.05-1.88.89-1.26,1.47-2.18,1.41-3.6,1.63.8,3.75,1.5,4.62,3.01-4.5,1.56-9.08,3.92-13.43,4.39-.17-.75.21-1.36.35-1.92Z"/></g></svg>