<?xml version="1.0" encoding="UTF-8"?><svg id="_レイヤー_2" xmlns="http://www.w3.org/2000/svg" viewBox="0 0 58.84 58.84"><defs><style>.cls-1{fill:#fff;}.cls-2{fill:#00a3e8;}</style></defs><g id="_レイヤー_1-2"><path class="cls-2" d="M20,0h38.84v25.49c0,18.41-14.94,33.35-33.35,33.35H0V20C0,8.96,8.96,0,20,0Z"/><path class="cls-1" d="M30.54,35.78c.71-1.03,1.29-1.9,1.74-2.63.45-.73.82-1.42,1.09-2.07.28-.65.47-1.37.59-2.16.12-.79.18-1.75.18-2.9l5.97-.59c0,1.58-.24,3.04-.71,4.41s-1.11,2.72-1.92,4.08c-.81,1.36-1.71,2.77-2.69,4.23l-4.26-2.37ZM35.33,30.16c-1.34,0-2.45-.44-3.34-1.33-.89-.89-1.33-2.02-1.33-3.4,0-1.3.44-2.42,1.33-3.34.89-.93,2-1.39,3.34-1.39s2.42.46,3.37,1.39c.95.93,1.42,2.04,1.42,3.34,0,1.38-.47,2.51-1.42,3.4-.95.89-2.07,1.33-3.37,1.33ZM18.72,35.78c.71-1.03,1.29-1.9,1.74-2.63.45-.73.82-1.42,1.09-2.07.28-.65.47-1.37.59-2.16.12-.79.18-1.75.18-2.9l5.97-.59c0,1.58-.24,3.04-.71,4.41s-1.11,2.72-1.92,4.08c-.81,1.36-1.71,2.77-2.69,4.23l-4.26-2.37ZM23.51,30.16c-1.34,0-2.45-.44-3.34-1.33-.89-.89-1.33-2.02-1.33-3.4,0-1.3.44-2.42,1.33-3.34.89-.93,2-1.39,3.34-1.39s2.42.46,3.37,1.39c.95.93,1.42,2.04,1.42,3.34,0,1.38-.47,2.51-1.42,3.4-.95.89-2.07,1.33-3.37,1.33Z"/></g></svg>