<?xml version="1.0" encoding="UTF-8"?><svg id="_レイヤー_2" xmlns="http://www.w3.org/2000/svg" viewBox="0 0 233.09 161.3"><defs><style>.cls-1{fill:#fff;}</style></defs><g id="_レイヤー_1-2"><path class="cls-1" d="M11.41,121.29c-.63,0-1.18-.22-1.65-.65-.47-.43-.7-1-.7-1.71v-14.59c-1.7,1.75-3.52,3.22-5.47,4.41-.56.33-1.13.46-1.73.38-.6-.08-1.08-.39-1.46-.95-.33-.51-.45-1.04-.36-1.6.09-.56.37-.99.85-1.29,4.48-2.79,7.83-6.41,10.03-10.87H2.02c-.58,0-1.06-.2-1.42-.59-.37-.39-.55-.86-.55-1.39s.18-1.03.55-1.42c.37-.39.84-.59,1.42-.59h10.53c.13-.48.25-.97.38-1.46.13-.49.24-.98.34-1.46.13-.73.49-1.24,1.08-1.52s1.24-.34,1.92-.19c.73.18,1.24.51,1.52,1.01s.32,1.08.11,1.77c-.08.3-.16.62-.25.93-.09.32-.2.63-.32.93h15.96c.58,0,1.06.2,1.43.59.37.39.55.87.55,1.42s-.18,1-.55,1.39c-.37.39-.84.59-1.43.59H15.78c-.23.53-.47,1.04-.72,1.54-.25.49-.52.99-.8,1.5.28-.05.58-.08.91-.08h6.88c1.82,0,3.25.18,4.29.53,1.04.36,1.77.98,2.2,1.88.43.9.65,2.16.65,3.78v11.74c0,2.08-.51,3.55-1.52,4.41-1.01.86-2.65,1.29-4.9,1.29-.66,0-1.22-.18-1.67-.53-.46-.36-.71-.86-.76-1.52-.08-.71.06-1.29.4-1.73.34-.44.82-.7,1.42-.78.96-.1,1.6-.26,1.9-.48.3-.21.46-.68.46-1.39v-1.9h-10.79v6.23c0,.71-.23,1.28-.68,1.71-.46.43-1,.65-1.63.65ZM13.73,103.5h10.79c-.03-.89-.2-1.48-.53-1.79-.33-.3-1.04-.46-2.13-.46h-5.43c-1.06,0-1.77.15-2.11.46-.34.3-.54.9-.59,1.79ZM13.73,109.21h10.79v-2.17h-10.79v2.17Z"/><path class="cls-1" d="M43.01,121.63c-.56,0-1.03-.19-1.43-.55-.39-.37-.59-.87-.59-1.5v-26.98c0-1.44.16-2.56.48-3.34.32-.79.92-1.33,1.81-1.63.89-.3,2.19-.46,3.91-.46,2.05,0,3.57.26,4.54.78.98.52,1.5,1.27,1.58,2.24s-.22,2.13-.87,3.48c-.33.63-.65,1.25-.95,1.84-.3.6-.61,1.18-.91,1.77-.41.76-.6,1.3-.59,1.62.01.32.27.74.78,1.27.84.84,1.51,1.82,2.03,2.96.52,1.14.78,2.34.78,3.61,0,1.6-.27,2.89-.8,3.88-.53.99-1.25,1.72-2.15,2.21s-1.91.75-3.02.8c-.63.03-1.16-.13-1.58-.47s-.68-.8-.78-1.39c-.08-.58.02-1.09.3-1.52.28-.43.67-.7,1.18-.8.99-.2,1.65-.56,1.99-1.06.34-.51.51-1.32.51-2.43,0-.84-.22-1.7-.67-2.6-.44-.9-.98-1.69-1.62-2.38-.43-.48-.73-.91-.89-1.27-.17-.37-.2-.78-.11-1.24.09-.46.3-1.04.63-1.75.23-.51.49-1.12.8-1.84.3-.72.57-1.34.8-1.84.35-.73.44-1.25.25-1.54-.19-.29-.7-.44-1.54-.44-.79,0-1.29.1-1.5.3-.22.2-.32.62-.32,1.25v26.98c0,.63-.2,1.13-.59,1.5-.39.37-.88.55-1.46.55ZM52.29,120.68c-.66.15-1.23.07-1.73-.25-.49-.32-.8-.79-.93-1.43-.1-.58-.02-1.11.25-1.58s.72-.77,1.35-.89c.51-.1,1.07-.21,1.69-.34.62-.12,1.27-.25,1.96-.38v-22.34c0-2.23.51-3.78,1.52-4.64,1.01-.86,2.67-1.29,4.98-1.29h4.26c2.33,0,4,.43,5,1.29,1,.86,1.5,2.41,1.5,4.64v4.48c0,2.25-.5,3.81-1.5,4.65-1,.85-2.67,1.27-5,1.27h-.68c.3,1.54.76,2.99,1.37,4.33.46-.33.96-.69,1.52-1.08.56-.39,1.09-.77,1.6-1.14s.9-.68,1.18-.93c.43-.38.93-.56,1.5-.55.57.01,1.04.23,1.42.66.35.43.53.93.53,1.48s-.23,1.01-.68,1.37c-.35.3-.84.67-1.44,1.1-.61.43-1.23.86-1.88,1.29-.65.43-1.21.81-1.69,1.14.73.94,1.58,1.8,2.53,2.58.95.79,1.97,1.51,3.06,2.17.51.3.82.75.95,1.33.13.58.05,1.13-.23,1.63-.35.58-.88.94-1.58,1.06s-1.34,0-1.92-.38c-2.84-1.82-5.1-4-6.78-6.54-1.69-2.53-2.78-5.71-3.29-9.54h-1.98v10.98c.58-.12,1.15-.25,1.69-.38.54-.13,1.03-.24,1.46-.34.58-.15,1.1-.1,1.56.15.46.25.73.64.84,1.18.13.61.06,1.14-.19,1.6-.25.46-.68.77-1.29.95-.61.18-1.39.39-2.36.63-.96.24-1.98.49-3.04.74-1.06.25-2.08.49-3.06.72-.98.23-1.79.42-2.45.57ZM59.13,93.97h8.66v-.23c0-.99-.2-1.65-.59-1.99-.39-.34-1.12-.51-2.19-.51h-3.12c-1.06,0-1.79.17-2.19.51-.39.34-.59,1.01-.59,1.99v.23ZM59.13,100.16h5.89c1.06,0,1.79-.17,2.19-.51.39-.34.59-1.01.59-1.99v-.3h-8.66v2.81Z"/><path class="cls-1" d="M81.64,101.53c-.63.36-1.26.49-1.88.4-.62-.09-1.11-.42-1.46-1.01-.28-.51-.34-1.03-.17-1.56.16-.53.56-.99,1.2-1.37,1.39-.84,2.86-1.78,4.39-2.83,1.53-1.05,3.03-2.13,4.48-3.25,1.46-1.12,2.75-2.18,3.89-3.19.99-.89,1.87-1.48,2.66-1.77.79-.29,1.58-.3,2.38-.04.8.27,1.7.82,2.72,1.65,1.04.84,2.3,1.8,3.78,2.89,1.48,1.09,3.03,2.17,4.64,3.25,1.61,1.08,3.12,2.03,4.54,2.87.73.41,1.18.91,1.33,1.5.15.59.05,1.18-.3,1.77-.33.56-.84.89-1.52.99s-1.37-.06-2.05-.49c-.99-.61-2.06-1.32-3.21-2.13-1.15-.81-2.32-1.65-3.5-2.53-1.18-.88-2.3-1.73-3.36-2.58s-2-1.63-2.81-2.34c-.51-.46-.95-.68-1.33-.68s-.82.23-1.33.68c-1.14,1.01-2.46,2.13-3.97,3.34-1.51,1.22-3.05,2.39-4.64,3.54-1.58,1.14-3.07,2.1-4.46,2.89ZM109.45,120.11c-.48.38-1.03.54-1.65.48-.62-.06-1.11-.32-1.46-.78-.28-.38-.58-.77-.89-1.18-.32-.41-.65-.81-1.01-1.22-1.27.2-2.74.42-4.43.65-1.69.23-3.43.46-5.24.68-1.81.23-3.56.44-5.24.63-1.69.19-3.16.34-4.43.44-.71.08-1.27-.06-1.69-.4-.42-.34-.67-.83-.74-1.46-.08-.58.11-1.08.55-1.5.44-.42,1.01-.64,1.69-.67.35-.02.72-.05,1.08-.07.37-.03.75-.05,1.16-.08.3-.53.65-1.18,1.05-1.94.39-.76.8-1.55,1.23-2.38.43-.82.81-1.59,1.14-2.3h-7.52c-.51,0-.94-.2-1.31-.59s-.55-.84-.55-1.35.18-.99.55-1.39.8-.59,1.31-.59h26.22c.51,0,.94.2,1.31.59.37.39.55.86.55,1.39s-.18.96-.55,1.35c-.37.39-.8.59-1.31.59h-13.98c-.38.81-.86,1.79-1.44,2.93-.58,1.14-1.15,2.22-1.71,3.23,1.65-.15,3.29-.32,4.94-.49,1.65-.18,3.15-.35,4.52-.53-.18-.2-.35-.39-.51-.55-.17-.16-.34-.34-.51-.51-.33-.35-.5-.8-.51-1.35-.01-.54.17-.99.55-1.35.46-.43.98-.63,1.58-.59.59.04,1.1.26,1.5.67.96.91,1.99,1.97,3.08,3.19,1.09,1.21,2.06,2.34,2.93,3.38.35.46.53.99.51,1.6-.01.61-.26,1.1-.74,1.48ZM89.28,102.21c-.51,0-.94-.2-1.31-.59-.37-.39-.55-.86-.55-1.39s.18-.96.55-1.35c.37-.39.8-.59,1.31-.59h13.6c.51,0,.94.2,1.31.59s.55.84.55,1.35c0,.53-.18.99-.55,1.39s-.8.59-1.31.59h-13.6Z"/><path class="cls-1" d="M126.61,121.29c-.61,0-1.13-.2-1.56-.61-.43-.4-.65-.94-.65-1.6v-10.83c-.56.48-1.11.95-1.65,1.39-.54.44-1.11.88-1.69,1.31-.53.38-1.13.55-1.79.51-.66-.04-1.18-.34-1.56-.89-.38-.51-.51-1.06-.4-1.65.11-.6.42-1.06.93-1.39,1.09-.71,2.22-1.56,3.38-2.54,1.16-.99,2.27-2.01,3.32-3.08,1.05-1.06,1.92-2.08,2.6-3.04.81-1.12.53-1.67-.84-1.67h-6.61c-.56,0-1.04-.2-1.44-.61-.41-.4-.61-.89-.61-1.44s.2-1.07.61-1.46.89-.59,1.44-.59h4.22v-4.86c0-.66.21-1.19.65-1.6.43-.41.95-.61,1.56-.61s1.13.2,1.56.61c.43.4.65.94.65,1.6v4.9c2.08.15,3.39.85,3.93,2.09.54,1.24.22,2.77-.97,4.6-.23.33-.46.66-.68,1.01-.23.34-.47.69-.72,1.05.46.28.99.61,1.6.99.61.38,1.19.74,1.75,1.08.56.34.99.62,1.29.82.51.33.82.79.95,1.37.13.58.01,1.14-.34,1.67-.35.51-.84.81-1.44.91s-1.17-.01-1.67-.34c-.41-.25-.94-.62-1.62-1.1-.67-.48-1.34-.95-2-1.41v13.22c0,.66-.22,1.19-.65,1.6-.43.41-.95.61-1.56.61ZM133.68,119.69c-.61,0-1.12-.21-1.54-.63s-.63-.93-.63-1.54.21-1.09.63-1.52c.42-.43.93-.65,1.54-.65h6.73v-13.26h-4.6c-.61,0-1.12-.21-1.54-.63s-.63-.93-.63-1.54.21-1.13.63-1.56c.42-.43.93-.65,1.54-.65h4.6v-9.35c0-.69.22-1.24.67-1.65.44-.42.98-.63,1.61-.63s1.21.21,1.65.63.67.97.67,1.65v9.35h4.94c.61,0,1.12.21,1.54.65.42.43.63.95.63,1.56s-.21,1.12-.63,1.54-.93.63-1.54.63h-4.94v13.26h6c.58,0,1.09.22,1.52.65.43.43.65.94.65,1.52s-.22,1.12-.65,1.54-.94.63-1.52.63h-17.33Z"/><path class="cls-1" d="M161.94,120.34c-.63.36-1.29.48-1.98.38-.68-.1-1.2-.47-1.56-1.1-.36-.61-.41-1.21-.17-1.82.24-.61.7-1.08,1.39-1.41,2.43-1.17,4.57-2.62,6.42-4.37,1.85-1.75,3.37-3.69,4.56-5.83,1.19-2.14,1.96-4.36,2.32-6.67h-12.46c-.58,0-1.08-.21-1.5-.64-.42-.43-.63-.94-.63-1.52s.21-1.08.63-1.5.92-.63,1.5-.63h12.69v-6.69c0-.73.24-1.32.72-1.75.48-.43,1.04-.65,1.67-.65s1.22.21,1.69.65c.47.43.7,1.01.7,1.75v6.69h12.73c.58,0,1.09.21,1.52.63.43.42.65.92.65,1.5s-.22,1.09-.65,1.52c-.43.43-.94.64-1.52.64h-12.46c.43,2.36,1.3,4.6,2.62,6.73,1.32,2.13,2.94,4.05,4.86,5.76,1.92,1.71,4.02,3.15,6.27,4.31.58.3.94.77,1.08,1.41.14.63.03,1.23-.32,1.79-.41.63-.96,1-1.65,1.1s-1.36-.03-1.99-.38c-1.88-1.06-3.69-2.35-5.45-3.86-1.76-1.51-3.34-3.21-4.73-5.11-1.39-1.9-2.5-3.93-3.31-6.08-1.17,3.17-2.92,6.03-5.26,8.59-2.34,2.56-5.14,4.75-8.38,6.57ZM176.42,119.62c-.3-.28-.7-.63-1.2-1.06-.49-.43-.99-.86-1.5-1.29-.51-.43-.94-.79-1.29-1.06-.48-.4-.75-.91-.8-1.52-.05-.61.13-1.15.53-1.63.46-.53.99-.82,1.61-.88.62-.05,1.2.13,1.73.53.41.3.87.68,1.39,1.12.52.45,1.03.88,1.54,1.29.51.42.9.77,1.18,1.04.51.46.76.99.76,1.62s-.23,1.18-.68,1.69c-.46.48-.99.73-1.62.76s-1.17-.18-1.65-.61Z"/><path class="cls-1" d="M200.6,121.48c-.56,0-1.03-.18-1.42-.55-.39-.37-.59-.87-.59-1.5v-27.36c0-1.42.15-2.5.46-3.25.3-.75.88-1.26,1.73-1.54.85-.28,2.11-.42,3.78-.42,2.86,0,4.67.5,5.43,1.5.76,1,.75,2.39-.04,4.16-.35.81-.7,1.58-1.03,2.32-.33.74-.7,1.54-1.1,2.43-.03.05-.05.1-.08.15-.25.61-.38,1.04-.38,1.31s.24.69.72,1.27c.68.86,1.27,1.85,1.75,2.96.48,1.12.72,2.27.72,3.46,0,.81-.08,1.55-.23,2.21.76-.66,1.5-1.35,2.22-2.07.72-.72,1.36-1.42,1.92-2.11h-2.89c-.51,0-.91-.17-1.2-.51-.29-.34-.44-.74-.44-1.2,0-.43.15-.82.44-1.18.29-.36.69-.53,1.2-.53h19.91c.51,0,.9.18,1.18.53.28.36.42.75.42,1.18,0,.46-.14.86-.42,1.2-.28.34-.67.51-1.18.51h-12.84c-.18.25-.35.51-.51.78-.17.27-.35.54-.55.82h8.85c1.8,0,3.12.39,3.97,1.18.85.79,1.17,2.1.97,3.95-.1,1.09-.23,2.1-.4,3.04-.17.94-.36,1.85-.59,2.74-.35,1.42-1,2.45-1.94,3.1-.94.65-2.27.97-3.99.97-.61,0-1.12-.14-1.54-.44-.42-.29-.67-.75-.74-1.39-.08-.58.06-1.09.42-1.52.35-.43.82-.66,1.41-.68.86-.05,1.45-.16,1.77-.34.32-.18.56-.57.74-1.18.15-.48.3-1.09.46-1.82.15-.73.28-1.49.38-2.28.08-.66.05-1.13-.08-1.43-.13-.29-.41-.49-.84-.59-.58,1.39-1.36,2.79-2.32,4.2s-2.03,2.71-3.19,3.91c-1.17,1.2-2.36,2.22-3.57,3.06-.43.3-.93.46-1.48.46s-1.01-.2-1.37-.61c-.33-.36-.48-.77-.46-1.25.02-.48.23-.86.61-1.14,1.72-1.27,3.27-2.65,4.64-4.16,1.37-1.51,2.48-3.03,3.34-4.58h-1.75c-.73,1.27-1.67,2.52-2.79,3.76-1.13,1.24-2.34,2.38-3.65,3.4-1.31,1.03-2.6,1.87-3.9,2.53-.48.23-.98.29-1.48.19-.51-.1-.9-.39-1.18-.88-.23-.43-.27-.88-.13-1.35.14-.47.41-.8.82-1.01,1.57-.81,3.11-1.81,4.62-3,1.51-1.19,2.74-2.41,3.71-3.65h-1.98c-.71.76-1.46,1.48-2.24,2.15-.79.67-1.58,1.3-2.39,1.88-.46.3-.96.43-1.5.38s-.98-.28-1.31-.68c-.1-.15-.17-.27-.19-.34-.66.28-1.42.44-2.28.49-1.34.07-2.13-.48-2.36-1.67v7.98c0,.63-.2,1.13-.59,1.5-.39.37-.88.55-1.46.55ZM202.65,110.54c.08-.36.25-.68.51-.97.27-.29.6-.49,1.01-.59.89-.2,1.46-.54,1.71-1.03.25-.48.38-1.32.38-2.51,0-.84-.18-1.66-.53-2.47-.36-.81-.82-1.54-1.41-2.21-.41-.46-.68-.85-.84-1.2-.15-.34-.18-.72-.1-1.14s.26-.96.51-1.62c.28-.63.59-1.39.93-2.26.34-.87.64-1.63.89-2.26.28-.63.31-1.07.09-1.31-.22-.24-.7-.36-1.46-.36-.71,0-1.17.09-1.39.28-.22.19-.32.6-.32,1.24v18.39ZM219.45,99.71c-1.7,0-3.03-.18-3.99-.55-.96-.37-1.64-1.01-2.03-1.94-.39-.92-.59-2.22-.59-3.89s.2-3,.59-3.91c.39-.91,1.07-1.55,2.03-1.92.96-.37,2.29-.55,3.99-.55h3.15c1.7,0,3.03.19,3.99.55.96.37,1.65,1.01,2.05,1.92.4.91.61,2.22.61,3.91s-.2,2.97-.61,3.89c-.41.93-1.09,1.57-2.05,1.94-.96.37-2.29.55-3.99.55h-3.15ZM217.02,91.88h8.06c-.1-.73-.35-1.2-.76-1.41-.41-.2-1.12-.3-2.13-.3h-2.28c-1.01,0-1.72.1-2.13.3-.41.2-.66.67-.76,1.41ZM219.9,96.44h2.28c1.04,0,1.75-.1,2.15-.3s.64-.69.74-1.45h-8.06c.1.76.35,1.24.76,1.45.4.2,1.11.3,2.13.3Z"/><path class="cls-1" d="M76.93,62.07c-1.63-.08-3.26-.15-4.89-.23.69-24.81,21.73-44.31,45.78-43.45,22.96.82,42.05,19.96,42.58,43.63-1.37-.03-2.74-.06-4.11-.09-.29-21.48-17.78-38.93-38.84-39.37-21.73-.45-40.29,17.34-40.52,39.51Z"/><path class="cls-1" d="M118.31,2.94c-1.31-.04-2.63-.08-3.94-.12.25,4.62.49,9.24.74,13.85l2.83-.12c.12-4.54.25-9.07.37-13.61Z"/><path class="cls-1" d="M139.38,7.47c-1.13-.68-2.25-1.35-3.38-2.03-2.05,4.15-4.11,8.3-6.16,12.44.84.42,1.69.85,2.53,1.27,2.34-3.9,4.67-7.79,7.01-11.69Z"/><path class="cls-1" d="M156.57,17.77c-.89-.96-1.79-1.92-2.68-2.88-3.13,3.42-6.26,6.83-9.39,10.25.69.64,1.38,1.28,2.08,1.92,3.33-3.1,6.66-6.19,9.99-9.29Z"/><path class="cls-1" d="M169.36,35.41c-.4-1.24-.81-2.49-1.21-3.73-4.28,1.79-8.56,3.58-12.84,5.37.36.87.71,1.74,1.07,2.61,4.33-1.42,8.66-2.83,12.99-4.25Z"/><path class="cls-1" d="M98.56,4.89c-1.24.42-2.49.84-3.73,1.26,1.85,4.24,3.71,8.48,5.56,12.72l2.61-1.1c-1.48-4.29-2.96-8.58-4.44-12.88Z"/><path class="cls-1" d="M80.11,14.37c-1.05.79-2.1,1.57-3.15,2.36,3.09,3.45,6.19,6.9,9.28,10.35.71-.62,1.42-1.24,2.13-1.86-2.75-3.61-5.51-7.23-8.26-10.84Z"/><path class="cls-1" d="M65.35,31.21c-.54,1.19-1.08,2.39-1.62,3.58,4.38,1.54,8.76,3.07,13.14,4.61.32-.88.64-1.77.97-2.65-4.16-1.84-8.33-3.69-12.49-5.53Z"/><rect class="cls-1" x="112.03" width="8.13" height="3.37"/><path class="cls-1" d="M88.08,53.06h-1.34v7.02h-1.1v-7.02h-1.34v-1.03h3.79v1.03Z"/><path class="cls-1" d="M93.6,60.07h-1.18l-.35-1.77h-1.58l-.35,1.77h-1.18l1.69-8.04h1.26l1.69,8.04ZM90.68,57.27h1.18l-.59-3.04-.59,3.04Z"/><path class="cls-1" d="M96.83,60.07h-1.1v-8.04h1.1v8.04Z"/><path class="cls-1" d="M101.33,54.87l1.14-2.84h1.1l-1.7,4.22v3.82h-1.1v-3.82l-1.66-4.22h1.1l1.1,2.84Z"/><path class="cls-1" d="M107.95,52.54c.39.4.59.91.59,1.54v3.94c0,.66-.2,1.18-.59,1.58-.37.37-.88.55-1.54.55s-1.17-.18-1.54-.55c-.39-.4-.59-.92-.59-1.58v-3.94c0-.66.2-1.18.59-1.58.37-.37.88-.55,1.54-.55s1.14.2,1.54.59ZM105.39,58.1c0,.34.08.59.24.75.18.18.45.28.79.28s.6-.09.79-.28c.16-.16.24-.41.24-.75v-4.1c0-.34-.08-.59-.24-.75-.18-.18-.45-.28-.79-.28-.32,0-.57.09-.75.28-.18.19-.28.43-.28.75v4.1Z"/><path class="cls-1" d="M118.09,52.58c.37.37.55.82.55,1.34v.63h-1.1v-.39c0-.39-.09-.68-.28-.87-.18-.18-.42-.28-.71-.28-.32,0-.57.09-.75.28-.21.21-.32.5-.32.87v3.78c0,.4.1.7.32.91.18.18.43.28.75.28s.57-.09.75-.28c.16-.16.24-.46.24-.91v-.67h1.1v.67c0,.74-.18,1.29-.55,1.66-.37.37-.87.55-1.5.55-.76,0-1.31-.17-1.66-.51-.37-.37-.55-.93-.55-1.7v-4.02c0-.52.18-.97.55-1.34.42-.42.93-.63,1.54-.63.66,0,1.2.21,1.62.63Z"/><path class="cls-1" d="M123.17,58.58c0,.5-.15.89-.43,1.18-.26.26-.66.4-1.18.4s-.92-.13-1.18-.4c-.29-.29-.43-.68-.43-1.18v-2.8c0-.5.14-.89.43-1.18.26-.26.66-.39,1.18-.39s.92.13,1.18.39c.29.29.43.68.43,1.18v2.8ZM121.04,58.69c0,.16.05.29.16.4.08.08.2.12.35.12s.28-.04.35-.12c.1-.1.16-.24.16-.4v-3.04c0-.16-.05-.29-.16-.4-.08-.08-.2-.12-.35-.12s-.28.04-.35.12c-.11.11-.16.24-.16.4v3.04Z"/><path class="cls-1" d="M125.77,60.07h-1.26v-1.26h1.26v1.26Z"/><path class="cls-1" d="M130.7,59.8l-.47,1.38h-.59l.28-1.22h-.47v-1.26h1.26v1.1Z"/><path class="cls-1" d="M135.91,59.05h2.64v1.02h-3.75v-8.04h1.1v7.02Z"/><path class="cls-1" d="M142.22,54.24h.91v1.02h-.91v3.59c0,.18.08.28.24.28h.59v.95h-1.14c-.53,0-.79-.28-.79-.83v-3.98h-.87v-1.02h.87v-2.21h1.1v2.21Z"/><path class="cls-1" d="M147.34,60.07v-.32c-.18.29-.42.43-.71.43-.42,0-.76-.13-1.03-.4-.32-.31-.47-.7-.47-1.14v-2.92c0-.42.16-.79.47-1.11.29-.29.64-.43,1.06-.43.24,0,.46.07.67.2v-2.37h1.1v8.04h-1.1ZM146.71,59.17c.26,0,.47-.07.63-.2v-3.63c-.21-.13-.42-.2-.63-.2-.16,0-.28.04-.35.12s-.12.2-.12.36v3.15c0,.1.04.2.12.28.08.08.2.12.35.12Z"/><path class="cls-1" d="M102.69,140.98h-7.04c-.69.04-1.29.52-1.48,1.19l-2.54,9.9c-.17.46.07.97.53,1.13.11.04.23.06.35.05h2.01c.69-.04,1.29-.52,1.48-1.19l.93-3.67h3.84c2.08-.19,3.81-1.68,4.3-3.71.52-2.01-.54-3.7-2.39-3.7M101.5,144.68c-.23.95-1.04,1.65-2.01,1.75h-2.01l.91-3.5h2.01c.87,0,1.38.78,1.13,1.75"/><path class="cls-1" d="M115.54,143.17h-1.72c-.6.02-1.11.43-1.28,1.01l-1.7,6.42c-.25.52-.76.87-1.34.9-.45.02-.84-.33-.87-.78,0-.04,0-.08,0-.11l1.7-6.42c.15-.38-.03-.8-.4-.96-.11-.05-.24-.06-.36-.05h-1.72c-.6.02-1.11.43-1.28,1.01l-1.66,6.23c-.44,1.67,1.38,3.02,4.02,3.02s5.22-1.36,5.66-3.02l1.66-6.23c.15-.38-.03-.8-.4-.96-.11-.05-.24-.06-.36-.05"/><path class="cls-1" d="M127.32,146.2c.46-1.12-.08-2.4-1.21-2.86-.28-.11-.58-.17-.88-.16h-6.09c-.6.03-1.11.43-1.29,1.01l-2.19,8.05c-.15.38.03.8.4.96.11.05.24.06.36.05h1.71c.6-.02,1.12-.43,1.29-1.01l.69-2.53,2.56,2.8c.33.5.91.77,1.51.7h2.07c.47,0,.56-.31.21-.7l-3.02-3.25h.09c1.76-.12,3.25-1.33,3.74-3.02M123.21,144.8c.55-.05,1.04.35,1.1.91.02.18-.01.36-.09.52-.24.79-.94,1.35-1.77,1.42h-1.78l.78-2.85h1.76Z"/><path class="cls-1" d="M138.04,143.17h-6.92c-.6.03-1.12.43-1.29,1.01l-2.19,8.05c-.16.37.01.79.38.95.12.05.25.07.38.05h6.94c.6-.03,1.11-.43,1.28-1.01l.08-.27c.15-.38-.03-.8-.4-.96-.11-.05-.24-.06-.36-.05h-4.19l.6-2.21h3.24c.53-.02.99-.36,1.16-.86l.06-.25c.12-.34-.06-.71-.4-.83-.09-.03-.19-.04-.28-.03h-3.25l.38-1.39h4.18c.6-.02,1.12-.43,1.29-1.01l.07-.27c.16-.37-.01-.79-.38-.95-.12-.05-.25-.07-.38-.05"/><path class="cls-1" d="M175.26,142.89h-6.93c-.6.03-1.12.43-1.29,1.01l-2.2,8.06c-.15.38.03.81.4.96.11.05.24.06.36.05h6.94c.6-.02,1.12-.43,1.29-1.01l.07-.27c.16-.37-.01-.8-.38-.95-.12-.05-.25-.07-.38-.05h-4.2l.59-2.22h3.25c.53-.02.99-.37,1.16-.88l.07-.24c.12-.35-.07-.73-.42-.84-.09-.03-.18-.04-.27-.03h-3.25l.38-1.39h4.19c.6-.03,1.12-.43,1.29-1.01l.07-.27c.15-.38-.03-.81-.4-.96-.11-.05-.24-.06-.36-.05"/><path class="cls-1" d="M200.29,152.91c.6-.02,1.12-.43,1.29-1.01l2.2-8.06c.16-.37-.01-.8-.38-.95-.12-.05-.25-.07-.38-.05h-1.72c-.6.03-1.12.43-1.29,1.01l-2.2,8.06c-.15.38.03.81.4.96.11.05.24.06.36.05h1.71Z"/><path class="cls-1" d="M163.3,150.7h-4.16l1.86-6.84c.15-.38-.03-.81-.4-.96-.11-.05-.24-.06-.36-.05h-1.71c-.6.03-1.12.43-1.29,1.01l-2.2,8.06c-.15.38.03.81.4.96.11.05.24.06.36.05h6.94c.6-.03,1.12-.43,1.29-1.01l.07-.27c.15-.38-.03-.81-.41-.96-.11-.04-.23-.06-.35-.05"/><path class="cls-1" d="M197.35,142.89h-1.71c-.6.03-1.12.43-1.29,1.01l-1.2,4.34-1.55-4.4c-.17-.58-.69-.98-1.29-1.01h-.78c-.6.03-1.12.43-1.29,1.01l-2.2,8.06c-.15.38.03.81.4.96.11.05.24.06.36.05h.78c.6-.03,1.12-.43,1.29-1.01l1.19-4.4,1.56,4.4c.17.58.69.98,1.29,1.01h1.71c.6-.02,1.12-.43,1.29-1.01l2.2-8.06c.15-.38-.03-.81-.4-.96-.11-.05-.24-.06-.36-.05"/><path class="cls-1" d="M214.74,142.89h-1.71c-.6.02-1.12.43-1.29,1.01l-1.2,4.34-1.55-4.4c-.17-.58-.69-.98-1.29-1.01h-.78c-.6.02-1.12.43-1.29,1.01l-2.2,8.06c-.16.37.01.8.38.95.12.05.25.07.38.05h.79c.6-.02,1.12-.43,1.28-1.01l1.2-4.4,1.56,4.4c.16.58.68.98,1.28,1.01h1.72c.6-.03,1.12-.43,1.29-1.01l2.2-8.06c.15-.38-.03-.81-.4-.96-.11-.05-.24-.06-.36-.05"/><path class="cls-1" d="M219.4,146.48c.41-1.15,1.53-1.9,2.75-1.81.67,0,1.48.21,1.55,1.17h0c0,.14.17.24.36.24h2.67c.34,0,.29-.28.27-.32-.41-2.02-2.11-3.09-4.55-3.09-4.3,0-6.14,2.02-6.69,4.41l-.35,1.5c-.55,2.44,1.54,4.41,4.68,4.41,3.4,0,5.66-1.43,6.63-4.29l.18-.6c.12-.26,0-.57-.27-.69-.07-.03-.15-.05-.23-.04h-4.54c-.43.04-.79.33-.93.74l-.17.6c-.12.26,0,.57.27.69.07.03.15.05.23.04h1.77c-.61.7-1.5,1.09-2.43,1.07-1.29,0-2.15-.81-1.92-1.8l.7-2.22Z"/><path class="cls-1" d="M155.1,145.33c-.5-2.59-2.82-4.41-5.45-4.28-4.95,0-7.06,2.43-7.7,5.43l-.4,1.84c-.65,3.02,1.76,5.42,5.38,5.42,4.4,0,6.37-2.24,7.39-4.77h0c.05-.15-.03-.32-.18-.37-.04-.01-.08-.02-.13-.01h-2.86c-.27,0-.51.15-.65.38,0,.09-.15.26-.25.42-.66.81-1.65,1.29-2.7,1.29-1.48,0-2.46-1.01-2.2-2.22l.79-2.73c.42-1.38,1.72-2.29,3.15-2.22,1.08.05,1.96.87,2.08,1.95h0c.07.23.29.37.52.36h2.82c.39,0,.46-.17.44-.38,0-.04,0-.08,0-.12"/><path class="cls-1" d="M149.52,144.21c-.9,1.78-1.24,2.22-2.7,2.83,1.12.6,1.21,1.01,1.09,2.81.9-1.77,1.24-2.21,2.7-2.82-1.12-.6-1.21-1.01-1.09-2.82"/><path class="cls-1" d="M185.2,151.94l-1.06-8.06c-.08-.57-.57-1-1.15-1.01h-2.69c-1.01,0-1.06.43-1.35,1.01l-4.39,8.06c-.29.53-.15,1.01.3,1.01h1.27c.85,0,1.06-.43,1.35-1.01l.67-1.23h3.42l.16,1.23c.08.58.58,1,1.16,1.01h1.45c.47.03.88-.33.91-.8,0-.07,0-.14-.01-.21M179.96,149.85c.13-1.91,0-2.38-1.18-3.02,1.57-.66,1.95-1.13,2.9-3.02-.12,1.92,0,2.39,1.18,3.02-1.57.66-1.95,1.13-2.9,3.02"/><path class="cls-1" d="M114.66,160.34l-.4-.46c-.36.18-.76.27-1.16.28-.57,0-2.02-.25-1.54-2.21.16-1.27,1.25-2.22,2.53-2.21.56,0,2,.23,1.54,2.21-.1.58-.37,1.12-.77,1.54l.37.43-.57.42ZM113.98,158.43l.35.42c.2-.27.33-.57.4-.89.25-1.17-.37-1.54-.86-1.54s-1.22.29-1.47,1.54c-.25,1.25.35,1.47.85,1.47.17,0,.35-.04.51-.11l-.37-.4.59-.48Z"/><path class="cls-1" d="M119.15,160.05h-.8l.09-.45h0c-.25.34-.66.53-1.08.52-.62,0-1-.35-.83-1.14l.43-2.05h.83l-.4,1.93c-.11.48.15.57.42.57.4,0,.75-.29.8-.69l.39-1.8h.83l-.68,3.12Z"/><path class="cls-1" d="M123.08,159.43c-.08.37,0,.46.08.49v.12h-.89c-.01-.12-.01-.25,0-.37-.31.29-.71.44-1.13.45-.48,0-.91-.26-.77-.91.12-.55.58-.95,1.14-.99l.77-.11c.16,0,.3-.1.34-.25,0-.34-.25-.37-.46-.37-.28-.02-.54.16-.62.43h-.8c.22-.71.91-1.16,1.65-1.08.45,0,1.25.14,1.08.89l-.39,1.68ZM122.45,158.54c-.19.09-.39.15-.6.17-.32,0-.6.12-.66.46s.14.37.31.37c.4.01.76-.24.88-.62l.08-.39Z"/><polygon class="cls-1" points="125 160.05 124.16 160.05 125.06 155.85 125.89 155.85 125 160.05"/><path class="cls-1" d="M127.77,156.93l-.66,3.08h-.83l.66-3.08h.83ZM127.85,156.56h-.83l.15-.76h.85l-.17.76Z"/><path class="cls-1" d="M129.96,156.93h.51l-.11.52h-.51l-.37,1.7c0,.17,0,.25.29.25h.19l-.14.62h-.51c-.71,0-.79-.26-.71-.66l.39-1.9h-.42l.12-.59h.43l.17-.83h.83l-.17.89Z"/><path class="cls-1" d="M132.54,159.99c-.63,1.16-.77,1.31-1.54,1.31h-.39l.14-.65h.17c.29,0,.48,0,.65-.46l-.48-3.24h.93l.19,2.3h0l1.25-2.31h.88l-1.79,3.05Z"/><path class="cls-1" d="M134.99,159.93c-.09.58-.55,1.03-1.13,1.09h0v-.31c.33-.07.58-.33.63-.66h-.49l.19-.85h.89l-.09.72Z"/><polygon class="cls-1" points="139.63 155.85 140.57 155.85 138.21 160.05 137.36 160.05 136.81 155.85 137.78 155.85 138.01 159.03 138.03 159.03 139.63 155.85"/><path class="cls-1" d="M142.96,159.43c-.08.37,0,.46.09.49v.12h-.91c-.01-.12-.01-.25,0-.37-.3.28-.7.44-1.11.45-.48,0-.91-.26-.79-.91.13-.54.59-.94,1.14-.99l.79-.11c.15,0,.29-.1.34-.25.08-.34-.26-.37-.48-.37-.28-.02-.53.16-.6.43h-.8c.22-.71.91-1.16,1.65-1.08.45,0,1.23.14,1.08.89l-.4,1.68ZM142.35,158.54c-.19.09-.39.15-.6.17-.32,0-.6.12-.68.46-.05.14.02.3.16.36.05.02.1.02.15.01.4.02.76-.24.88-.62l.09-.39Z"/><polygon class="cls-1" points="144.89 160.05 144.06 160.05 144.95 155.85 145.79 155.85 144.89 160.05"/><path class="cls-1" d="M149.01,160.05h-.8l.09-.45h0c-.25.34-.66.53-1.08.52-.62,0-1-.35-.83-1.14l.43-2.05h.85l-.42,1.93c-.11.48.15.57.42.57.4,0,.75-.29.8-.69l.4-1.8h.83l-.69,3.12Z"/><path class="cls-1" d="M153.16,159.14c-.29.59-.88.97-1.54.99-.89,0-1.54-.42-1.22-1.7.16-.89.94-1.54,1.85-1.54.63,0,1.43.29,1.13,1.71v.14h-2.17c0,.25-.09.77.59.77.25,0,.48-.13.6-.34l.77-.03ZM152.54,158.18c0-.51-.25-.65-.51-.65-.39,0-.72.27-.79.65h1.3Z"/><path class="cls-1" d="M155.04,159.93c-.09.58-.55,1.03-1.13,1.09h0v-.31c.33-.07.59-.33.65-.66h-.51l.19-.85h.89l-.09.72Z"/><polygon class="cls-1" points="160.07 156.56 157.8 156.56 157.61 157.44 159.7 157.44 159.54 158.18 157.44 158.18 157.21 159.26 159.6 159.26 159.43 160 156.18 160 157.07 155.82 160.24 155.82 160.07 156.56"/><path class="cls-1" d="M163.52,158.87c-.23.74-.93,1.24-1.71,1.22-1.19,0-1.28-.89-1.14-1.54.1-.97.92-1.72,1.9-1.71.51,0,1.28.22,1.16,1.19h-.85c0-.2,0-.52-.45-.51s-.79.52-.86.91-.2,1,.43,1c.32-.02.58-.24.68-.54l.85-.02Z"/><path class="cls-1" d="M165.79,160.09c-.67.08-1.27-.4-1.35-1.07-.02-.19,0-.38.07-.56.17-.96,1-1.65,1.97-1.63.67-.08,1.27.4,1.35,1.07.02.19,0,.38-.07.56-.17.95-1.01,1.64-1.97,1.63M166.33,157.5c-.51.04-.92.44-.96.96-.09.39-.09.94.56.94s.88-.56.97-.94.08-.96-.57-.96"/><polygon class="cls-1" points="169.27 160 168.44 160 169.33 155.82 170.17 155.82 169.27 160"/><path class="cls-1" d="M171.96,160.09c-.67.08-1.27-.4-1.35-1.07-.02-.19,0-.38.07-.56.17-.96,1-1.65,1.97-1.63.67-.08,1.27.4,1.35,1.07.02.19,0,.38-.07.56-.17.95-1.01,1.64-1.97,1.63M172.51,157.5c-.52.03-.93.44-.97.96-.09.39-.08.94.56.94.51-.03.93-.43.97-.94.09-.4,0-.96-.56-.96"/><path class="cls-1" d="M178.13,156.9l-.63,2.95c-.11.54-.34,1.43-1.91,1.43-.65,0-1.28-.28-1.17-.94h.89c0,.15,0,.31.52.31.42.03.78-.27.82-.69,0,0,0-.01,0-.02v-.37h0c-.21.31-.57.49-.94.48-.77,0-1.25-.52-1.02-1.54.11-.84.8-1.49,1.65-1.54.37-.05.72.18.82.54h0l.09-.46.88-.14ZM176.07,159.33c.56,0,.8-.48.89-.89s0-.93-.52-.93-.69.23-.85.96c-.09.4,0,.86.48.86"/><path class="cls-1" d="M180.45,159.95c-.63,1.16-.77,1.3-1.54,1.3h-.37l.14-.66h.17c.29,0,.48,0,.65-.46l-.48-3.24h.93l.19,2.28h0l1.14-2.28h.88l-1.7,3.07Z"/><path class="cls-1" d="M187.47,160h-1.02l-.22-.35c-.37.32-.84.49-1.33.48-.54.07-1.03-.32-1.1-.86-.01-.11,0-.23.02-.34.09-.4.29-.8,1.1-1.22h.09c-.19-.25-.26-.57-.2-.88.17-.6.73-.99,1.34-.96.42-.06.81.24.87.66.01.1,0,.2-.02.29-.14.46-.48.83-.93,1l.45.74c.18-.2.31-.44.37-.69h.74c-.13.48-.39.92-.76,1.26l.59.86ZM185.34,158.18c-.42.25-.59.35-.66.69-.05.25.11.5.36.55.05.01.1.01.15,0,.27-.03.53-.13.74-.29l-.59-.96ZM186.01,156.43c-.2,0-.38.14-.42.34-.01.2.06.39.2.52.23-.1.41-.29.49-.52.05-.13,0-.27-.13-.32-.05-.02-.1-.03-.15-.01"/><path class="cls-1" d="M190.6,158.72c0,.23,0,.68.76.68.43,0,.93-.11,1.02-.56s-.23-.4-.66-.51l-.43-.11c-.66-.15-1.3-.31-1.11-1.23.23-.86,1.05-1.41,1.93-1.3,1.31,0,1.54.85,1.39,1.36h-.86c0-.19,0-.63-.74-.63-.34,0-.77.12-.86.51s.2.4.37.43l.99.26c.56.14,1.05.37.88,1.13-.26.86-1.08,1.43-1.97,1.37-1.54,0-1.65-.89-1.54-1.4h.86Z"/><path class="cls-1" d="M198.59,160h-.83l.4-1.88c.11-.46-.08-.62-.32-.62-.37,0-.67.28-.69.65l-.4,1.85h-.83l.4-1.87c0-.26.12-.63-.37-.63-.35,0-.63.27-.65.62l-.4,1.88h-.85l.66-3.08h.8l-.09.46h0c.22-.35.61-.55,1.02-.54.34-.05.67.16.77.49.23-.3.58-.48.96-.49.62,0,1.02.35.88,1.03l-.45,2.13Z"/><path class="cls-1" d="M201.34,156.9l-.66,3.08h-.85l.66-3.08h.85ZM201.41,156.53h-.83l.15-.76h.83l-.15.76Z"/><polygon class="cls-1" points="202.77 160 201.94 160 202.83 155.82 203.67 155.82 202.77 160"/><path class="cls-1" d="M206.95,159.09c-.3.62-.93,1.01-1.62,1-.89,0-1.54-.43-1.22-1.7.16-.9.95-1.55,1.87-1.54.62,0,1.43.29,1.13,1.71v.14h-2.17c0,.23-.09.76.57.76.25.01.49-.12.62-.34l.83-.03ZM206.32,158.14c0-.51-.23-.66-.49-.66-.39,0-.72.28-.8.66h1.3Z"/><path class="cls-1" d="M7.79,153.56c-.37-.15-.66-.36-.87-.64-.21-.28-.32-.62-.32-1,0-.05,0-.14.02-.27h1.21c-.03.33.07.6.29.82.22.22.54.33.96.33.44,0,.79-.09,1.04-.27.25-.18.38-.45.38-.79,0-.21-.06-.38-.19-.53-.12-.15-.28-.27-.47-.37-.19-.1-.45-.22-.79-.35-.44-.19-.8-.35-1.06-.5-.27-.15-.49-.36-.68-.62-.19-.26-.28-.6-.28-1,0-.44.11-.83.34-1.17.23-.33.55-.59.95-.77.41-.18.86-.27,1.37-.27s.95.08,1.32.25c.37.17.65.41.84.71.19.3.27.66.25,1.07h-1.29c.03-.29-.06-.54-.27-.74s-.51-.29-.9-.29c-.42,0-.75.09-.99.28-.25.19-.37.45-.37.77,0,.2.06.37.19.52.13.15.29.27.48.38s.46.23.78.37c.44.2.8.38,1.07.54.27.16.5.37.69.64.19.27.29.6.29.99,0,.42-.11.79-.34,1.11-.23.33-.55.58-.97.76-.42.18-.89.27-1.43.27-.46,0-.87-.07-1.24-.22Z"/><path class="cls-1" d="M19.15,147.79l-1.04,5.92h-1.22l.12-.7c-.24.24-.52.44-.85.57-.33.14-.67.21-1.03.21-.62,0-1.12-.17-1.49-.5-.37-.34-.56-.81-.56-1.43,0-.17.02-.36.05-.59l.61-3.48h1.21l-.58,3.3c-.03.2-.04.34-.04.43,0,.39.11.69.33.9.22.21.52.31.91.31.45,0,.83-.13,1.15-.4.32-.27.52-.66.62-1.17l.59-3.37h1.23Z"/><path class="cls-1" d="M22.81,147.97c.39-.19.81-.28,1.26-.28s.85.1,1.2.29c.35.19.62.47.82.83s.29.78.29,1.26c0,.21-.02.43-.06.66-.11.59-.32,1.13-.65,1.59-.33.47-.72.83-1.19,1.1-.47.26-.96.39-1.48.39-.45,0-.84-.09-1.15-.27-.32-.18-.57-.41-.75-.68l-.64,3.67h-1.22l1.54-8.73h1.22l-.15.87c.26-.27.58-.5.97-.69ZM25.11,150.28c0-.48-.14-.85-.42-1.12-.28-.27-.64-.4-1.07-.4-.31,0-.61.08-.92.24-.3.16-.57.39-.79.69-.22.3-.37.66-.44,1.06-.03.14-.04.28-.04.44,0,.48.14.86.42,1.14.28.28.64.42,1.06.42.32,0,.62-.08.93-.24.3-.16.57-.4.79-.7.22-.31.37-.67.44-1.07.03-.14.04-.28.04-.44Z"/><path class="cls-1" d="M30.09,147.97c.39-.19.81-.28,1.26-.28s.85.1,1.2.29c.35.19.62.47.82.83s.29.78.29,1.26c0,.21-.02.43-.06.66-.11.59-.32,1.13-.65,1.59-.33.47-.72.83-1.19,1.1-.47.26-.96.39-1.48.39-.45,0-.84-.09-1.15-.27-.32-.18-.57-.41-.75-.68l-.64,3.67h-1.22l1.54-8.73h1.22l-.15.87c.26-.27.58-.5.97-.69ZM32.4,150.28c0-.48-.14-.85-.42-1.12-.28-.27-.64-.4-1.07-.4-.31,0-.61.08-.92.24-.3.16-.57.39-.79.69-.22.3-.37.66-.44,1.06-.03.14-.04.28-.04.44,0,.48.14.86.42,1.14.28.28.64.42,1.06.42.32,0,.62-.08.93-.24.3-.16.57-.4.79-.7.22-.31.37-.67.44-1.07.03-.14.04-.28.04-.44Z"/><path class="cls-1" d="M35.56,153.49c-.38-.21-.67-.5-.89-.88-.21-.38-.32-.81-.32-1.3,0-.67.16-1.28.47-1.83.31-.55.74-.99,1.29-1.31s1.16-.48,1.83-.48c.5,0,.95.11,1.33.32.39.21.69.5.91.88.22.38.33.81.33,1.3,0,.67-.16,1.28-.48,1.83s-.76.99-1.31,1.3c-.55.32-1.16.48-1.84.48-.5,0-.94-.1-1.32-.31ZM38.15,152.42c.34-.23.61-.54.8-.92.19-.38.29-.79.29-1.23,0-.49-.14-.88-.42-1.14-.28-.27-.63-.4-1.05-.4s-.79.12-1.11.35c-.33.23-.58.54-.76.94-.18.39-.27.81-.27,1.25,0,.48.13.85.39,1.12.26.26.6.4,1.02.4s.78-.12,1.12-.35Z"/><path class="cls-1" d="M44.09,147.99c.33-.2.7-.3,1.11-.3l-.23,1.27h-.31c-.47,0-.85.12-1.14.35-.29.24-.49.64-.6,1.22l-.56,3.17h-1.22l1.04-5.92h1.22l-.18,1.04c.24-.36.53-.64.86-.84Z"/><path class="cls-1" d="M46.99,152.06c-.01.1-.02.16-.02.19,0,.15.05.26.14.33.09.07.25.1.46.1h.75l-.18,1.02h-.97c-.47,0-.83-.09-1.08-.28-.25-.19-.38-.49-.38-.91,0-.16.01-.31.04-.45l.58-3.28h-.7l.17-1h.71l.26-1.47h1.24l-.26,1.47h1.43l-.17,1h-1.44l-.58,3.28Z"/><path class="cls-1" d="M54.64,148.31c.44.42.66.97.66,1.68,0,.17-.02.36-.05.59-.03.16-.08.35-.15.58h-4.52c0,.05-.01.12-.01.23,0,.42.13.76.39,1.01.26.25.6.38,1.03.38.67,0,1.18-.28,1.54-.83h1.32c-.27.54-.67.99-1.2,1.34-.53.35-1.14.52-1.84.52-.49,0-.93-.1-1.3-.29-.37-.19-.66-.47-.87-.83-.21-.36-.31-.79-.31-1.27,0-.21.02-.43.06-.67.11-.61.33-1.14.66-1.61.33-.46.74-.82,1.23-1.07.49-.25,1.03-.38,1.61-.38.74,0,1.33.21,1.77.62ZM54.04,150c0-.39-.13-.71-.39-.93-.26-.23-.6-.34-1.01-.34-.44,0-.83.14-1.18.42-.35.28-.59.66-.72,1.14h3.29c.01-.13.02-.22.02-.28Z"/><path class="cls-1" d="M56.66,149.14c.33-.46.72-.81,1.2-1.07.47-.25.97-.38,1.49-.38.39,0,.75.08,1.1.25.34.17.61.39.78.67l.51-2.86h1.24l-1.41,7.95h-1.24l.16-.89c-.26.29-.58.53-.96.71-.38.18-.8.27-1.26.27s-.85-.1-1.2-.3c-.35-.2-.62-.48-.82-.85-.2-.37-.3-.79-.3-1.27,0-.21.02-.43.06-.66.11-.59.32-1.12.65-1.58ZM60.9,150.3c0-.48-.14-.86-.42-1.13-.28-.28-.64-.41-1.06-.41-.31,0-.62.08-.92.23s-.56.38-.78.68c-.22.3-.37.65-.44,1.06-.03.14-.04.28-.04.44,0,.49.14.87.42,1.15.28.28.64.42,1.06.42.32,0,.62-.08.92-.24s.56-.39.78-.69c.22-.3.37-.66.44-1.07.03-.14.04-.28.04-.44Z"/><path class="cls-1" d="M69.49,147.96c.39-.18.81-.28,1.26-.28s.86.1,1.21.29.62.47.81.82c.19.35.29.77.29,1.25,0,.21-.02.43-.06.67-.11.59-.32,1.13-.65,1.59-.33.47-.72.83-1.19,1.1-.47.26-.96.39-1.48.39-.46,0-.85-.09-1.17-.27s-.57-.41-.73-.69l-.15.86h-1.22l1.41-7.95h1.22l-.52,2.91c.26-.29.58-.52.98-.7ZM71.79,150.28c0-.48-.14-.85-.42-1.12-.28-.27-.64-.4-1.07-.4-.31,0-.61.08-.92.24-.3.16-.57.39-.79.69-.22.3-.37.66-.44,1.06-.03.14-.04.28-.04.44,0,.48.14.86.42,1.14.28.28.64.42,1.06.42.32,0,.62-.08.93-.24.3-.16.57-.4.79-.7.22-.31.37-.67.44-1.07.03-.14.04-.28.04-.44Z"/><path class="cls-1" d="M75.39,147.79l.87,4.51,2.52-4.51h1.27l-5.16,8.7h-1.27l1.71-2.88-1.31-5.82h1.36Z"/></g></svg>