<?xml version="1.0" encoding="UTF-8"?><svg id="_レイヤー_2" xmlns="http://www.w3.org/2000/svg" viewBox="0 0 262.8 62.07"><defs><style>.cls-1{fill:#344499;}.cls-2{fill:#ee7b1a;}.cls-3{fill:#00a3df;}.cls-4{fill:#da1429;}</style></defs><g id="_レイヤー_1-2"><path class="cls-2" d="M13.2,62.07c-1.63-.08-3.26-.15-4.89-.23.69-24.81,21.73-44.31,45.78-43.45,22.96.82,42.05,19.96,42.58,43.63-1.37-.03-2.74-.06-4.11-.09-.29-21.48-17.78-38.93-38.84-39.37-21.73-.45-40.29,17.34-40.52,39.51Z"/><path class="cls-1" d="M54.58,2.94c-1.31-.04-2.63-.08-3.94-.12.25,4.62.49,9.24.74,13.85l2.83-.12c.12-4.54.25-9.07.37-13.61Z"/><path class="cls-2" d="M75.64,7.47c-1.13-.68-2.25-1.35-3.38-2.03-2.05,4.15-4.11,8.3-6.16,12.44.84.42,1.69.85,2.53,1.27,2.34-3.9,4.67-7.79,7.01-11.69Z"/><path class="cls-4" d="M92.84,17.77c-.89-.96-1.79-1.92-2.68-2.88-3.13,3.42-6.26,6.83-9.39,10.25.69.64,1.38,1.28,2.08,1.92,3.33-3.1,6.66-6.19,9.99-9.29Z"/><path class="cls-2" d="M105.63,35.41c-.4-1.24-.81-2.49-1.21-3.73-4.28,1.79-8.56,3.58-12.84,5.37l1.07,2.61c4.33-1.42,8.66-2.83,12.99-4.25Z"/><path class="cls-2" d="M34.83,4.89c-1.24.42-2.49.84-3.73,1.26,1.85,4.24,3.71,8.48,5.56,12.72.87-.37,1.74-.73,2.61-1.1-1.48-4.29-2.96-8.58-4.44-12.88Z"/><path class="cls-4" d="M16.38,14.37c-1.05.79-2.1,1.57-3.15,2.36,3.09,3.45,6.19,6.9,9.28,10.35l2.13-1.86c-2.75-3.61-5.51-7.23-8.26-10.84Z"/><path class="cls-2" d="M1.62,31.21c-.54,1.19-1.08,2.39-1.62,3.58,4.38,1.54,8.76,3.07,13.14,4.61.32-.88.64-1.77.97-2.65-4.16-1.84-8.33-3.69-12.49-5.53Z"/><rect class="cls-1" x="48.3" width="8.13" height="3.37"/><path class="cls-1" d="M24.35,53.06h-1.34v7.02h-1.1v-7.02h-1.34v-1.03h3.79v1.03Z"/><path class="cls-1" d="M29.87,60.07h-1.18l-.35-1.77h-1.58l-.35,1.77h-1.18l1.69-8.04h1.26l1.69,8.04ZM26.95,57.27h1.18l-.59-3.04-.59,3.04Z"/><path class="cls-1" d="M33.1,60.07h-1.1v-8.04h1.1v8.04Z"/><path class="cls-1" d="M37.6,54.87l1.14-2.84h1.1l-1.7,4.22v3.82h-1.1v-3.82l-1.66-4.22h1.1l1.1,2.84Z"/><path class="cls-1" d="M44.22,52.54c.39.4.59.91.59,1.54v3.94c0,.66-.2,1.18-.59,1.58-.37.37-.88.55-1.54.55s-1.17-.18-1.54-.55c-.39-.4-.59-.92-.59-1.58v-3.94c0-.66.2-1.18.59-1.58.37-.37.88-.55,1.54-.55s1.14.2,1.54.59ZM41.66,58.1c0,.34.08.59.24.75.18.18.45.28.79.28s.6-.09.79-.28c.16-.16.24-.41.24-.75v-4.1c0-.34-.08-.59-.24-.75-.18-.18-.45-.28-.79-.28-.32,0-.57.09-.75.28-.18.19-.28.43-.28.75v4.1Z"/><path class="cls-1" d="M54.36,52.58c.37.37.55.82.55,1.34v.63h-1.1v-.39c0-.39-.09-.68-.28-.87-.18-.18-.42-.28-.71-.28-.32,0-.57.09-.75.28-.21.21-.32.5-.32.87v3.78c0,.4.1.7.32.91.18.18.43.28.75.28s.57-.09.75-.28c.16-.16.24-.46.24-.91v-.67h1.1v.67c0,.74-.18,1.29-.55,1.66-.37.37-.87.55-1.5.55-.76,0-1.31-.17-1.66-.51-.37-.37-.55-.93-.55-1.7v-4.02c0-.52.18-.97.55-1.34.42-.42.93-.63,1.54-.63.66,0,1.2.21,1.62.63Z"/><path class="cls-1" d="M59.44,58.58c0,.5-.15.89-.43,1.18-.26.26-.66.4-1.18.4s-.92-.13-1.18-.4c-.29-.29-.43-.68-.43-1.18v-2.8c0-.5.14-.89.43-1.18.26-.26.66-.39,1.18-.39s.92.13,1.18.39c.29.29.43.68.43,1.18v2.8ZM57.31,58.69c0,.16.05.29.16.4.08.08.2.12.35.12s.28-.04.35-.12c.1-.1.16-.24.16-.4v-3.04c0-.16-.05-.29-.16-.4-.08-.08-.2-.12-.35-.12s-.28.04-.35.12c-.11.11-.16.24-.16.4v3.04Z"/><path class="cls-1" d="M62.04,60.07h-1.26v-1.26h1.26v1.26Z"/><path class="cls-1" d="M66.97,59.8l-.47,1.38h-.59l.28-1.22h-.47v-1.26h1.26v1.1Z"/><path class="cls-1" d="M72.18,59.05h2.64v1.02h-3.75v-8.04h1.1v7.02Z"/><path class="cls-1" d="M78.49,54.24h.91v1.02h-.91v3.59c0,.18.08.28.24.28h.59v.95h-1.14c-.53,0-.79-.28-.79-.83v-3.98h-.87v-1.02h.87v-2.21h1.1v2.21Z"/><path class="cls-1" d="M83.61,60.07v-.32c-.18.29-.42.43-.71.43-.42,0-.76-.13-1.03-.4-.32-.31-.47-.7-.47-1.14v-2.92c0-.42.16-.79.47-1.11.29-.29.64-.43,1.06-.43.24,0,.46.07.67.2v-2.37h1.1v8.04h-1.1ZM82.98,59.17c.26,0,.47-.07.63-.2v-3.63c-.21-.13-.42-.2-.63-.2-.16,0-.28.04-.35.12s-.12.2-.12.36v3.15c0,.1.04.2.12.28.08.08.2.12.35.12Z"/><path class="cls-3" d="M138.47,35.83h-7.04c-.69.04-1.29.52-1.48,1.19l-2.54,9.9c-.17.46.07.97.53,1.13.11.04.23.06.35.05h2.01c.69-.04,1.29-.52,1.48-1.19l.93-3.67h3.84c2.08-.19,3.81-1.68,4.3-3.71.52-2.01-.54-3.7-2.39-3.7M137.28,39.53c-.23.95-1.04,1.65-2.01,1.75h-2.01l.91-3.5h2.01c.87,0,1.38.78,1.13,1.75"/><path class="cls-3" d="M151.32,38.02h-1.72c-.6.02-1.11.43-1.28,1.01l-1.7,6.42c-.25.52-.76.87-1.34.9-.45.02-.84-.33-.87-.78,0-.04,0-.08,0-.11l1.7-6.42c.15-.38-.03-.8-.4-.96-.11-.05-.24-.06-.36-.05h-1.72c-.6.02-1.11.43-1.28,1.01l-1.66,6.23c-.44,1.67,1.38,3.02,4.02,3.02s5.22-1.36,5.66-3.02l1.66-6.23c.15-.38-.03-.8-.4-.96-.11-.05-.24-.06-.36-.05"/><path class="cls-3" d="M163.1,41.05c.46-1.12-.08-2.4-1.21-2.86-.28-.11-.58-.17-.88-.16h-6.09c-.6.03-1.11.43-1.29,1.01l-2.19,8.05c-.15.38.03.8.4.96.11.05.24.06.36.05h1.71c.6-.02,1.12-.43,1.29-1.01l.69-2.53,2.56,2.8c.33.5.91.77,1.51.7h2.07c.47,0,.56-.31.21-.7l-3.02-3.25h.09c1.76-.12,3.25-1.33,3.74-3.02M158.99,39.65c.55-.05,1.04.35,1.1.91.02.18-.01.36-.09.52-.24.79-.94,1.35-1.77,1.42h-1.78l.78-2.85h1.76Z"/><path class="cls-3" d="M173.82,38.02h-6.92c-.6.03-1.12.43-1.29,1.01l-2.19,8.05c-.16.37.01.79.38.95.12.05.25.07.38.05h6.94c.6-.03,1.11-.43,1.28-1.01l.08-.27c.15-.38-.03-.8-.4-.96-.11-.05-.24-.06-.36-.05h-4.19l.6-2.21h3.24c.53-.02.99-.36,1.16-.86l.06-.25c.12-.34-.06-.71-.4-.83-.09-.03-.19-.04-.28-.03h-3.25l.38-1.39h4.18c.6-.02,1.12-.43,1.29-1.01l.07-.27c.16-.37-.01-.79-.38-.95-.12-.05-.25-.07-.38-.05"/><path class="cls-3" d="M211.04,37.74h-6.93c-.6.03-1.12.43-1.29,1.01l-2.2,8.06c-.15.38.03.81.4.96.11.05.24.06.36.05h6.94c.6-.02,1.12-.43,1.29-1.01l.07-.27c.16-.37-.01-.8-.38-.95-.12-.05-.25-.07-.38-.05h-4.2l.59-2.22h3.25c.53-.02.99-.37,1.16-.88l.07-.24c.12-.35-.07-.73-.42-.84-.09-.03-.18-.04-.27-.03h-3.25l.38-1.39h4.19c.6-.03,1.12-.43,1.29-1.01l.07-.27c.15-.38-.03-.81-.4-.96-.11-.05-.24-.06-.36-.05"/><path class="cls-3" d="M236.07,47.76c.6-.02,1.12-.43,1.29-1.01l2.2-8.06c.16-.37-.01-.8-.38-.95-.12-.05-.25-.07-.38-.05h-1.72c-.6.03-1.12.43-1.29,1.01l-2.2,8.06c-.15.38.03.81.4.96.11.05.24.06.36.05h1.71Z"/><path class="cls-3" d="M199.08,45.55h-4.16l1.86-6.84c.15-.38-.03-.81-.4-.96-.11-.05-.24-.06-.36-.05h-1.71c-.6.03-1.12.43-1.29,1.01l-2.2,8.06c-.15.38.03.81.4.96.11.05.24.06.36.05h6.94c.6-.03,1.12-.43,1.29-1.01l.07-.27c.15-.38-.03-.81-.41-.96-.11-.04-.23-.06-.35-.05"/><path class="cls-3" d="M233.14,37.74h-1.71c-.6.03-1.12.43-1.29,1.01l-1.2,4.34-1.55-4.4c-.17-.58-.69-.98-1.29-1.01h-.78c-.6.03-1.12.43-1.29,1.01l-2.2,8.06c-.15.38.03.81.4.96.11.05.24.06.36.05h.78c.6-.03,1.12-.43,1.29-1.01l1.19-4.4,1.56,4.4c.17.58.69.98,1.29,1.01h1.71c.6-.02,1.12-.43,1.29-1.01l2.2-8.06c.15-.38-.03-.81-.4-.96-.11-.05-.24-.06-.36-.05"/><path class="cls-3" d="M250.52,37.74h-1.71c-.6.02-1.12.43-1.29,1.01l-1.2,4.34-1.55-4.4c-.17-.58-.69-.98-1.29-1.01h-.78c-.6.02-1.12.43-1.29,1.01l-2.2,8.06c-.16.37.01.8.38.95.12.05.25.07.38.05h.79c.6-.02,1.12-.43,1.28-1.01l1.2-4.4,1.56,4.4c.16.58.68.98,1.28,1.01h1.72c.6-.03,1.12-.43,1.29-1.01l2.2-8.06c.15-.38-.03-.81-.4-.96-.11-.05-.24-.06-.36-.05"/><path class="cls-3" d="M255.18,41.34c.41-1.15,1.53-1.9,2.75-1.81.67,0,1.48.21,1.55,1.17h0c0,.14.17.24.36.24h2.67c.34,0,.29-.28.27-.32-.41-2.02-2.11-3.09-4.55-3.09-4.3,0-6.14,2.02-6.69,4.41l-.35,1.5c-.55,2.44,1.54,4.41,4.68,4.41,3.4,0,5.66-1.43,6.63-4.29l.18-.6c.12-.26,0-.57-.27-.69-.07-.03-.15-.05-.23-.04h-4.54c-.43.04-.79.33-.93.74l-.17.6c-.12.26,0,.57.27.69.07.03.15.05.23.04h1.77c-.61.7-1.5,1.09-2.43,1.07-1.29,0-2.15-.81-1.92-1.8l.7-2.22Z"/><path class="cls-3" d="M190.88,40.18c-.5-2.59-2.82-4.41-5.45-4.28-4.95,0-7.06,2.43-7.7,5.43l-.4,1.84c-.65,3.02,1.76,5.42,5.38,5.42,4.4,0,6.37-2.24,7.39-4.77h0c.05-.15-.03-.32-.18-.37-.04-.01-.08-.02-.13-.01h-2.86c-.27,0-.51.15-.65.38,0,.09-.15.26-.25.42-.66.81-1.65,1.29-2.7,1.29-1.48,0-2.46-1.01-2.2-2.22l.79-2.73c.42-1.38,1.72-2.29,3.15-2.22,1.08.05,1.96.87,2.08,1.95h0c.07.23.29.37.52.36h2.82c.39,0,.46-.17.44-.38,0-.04,0-.08,0-.12"/><path class="cls-3" d="M185.3,39.06c-.9,1.78-1.24,2.22-2.7,2.83,1.12.6,1.21,1.01,1.09,2.81.9-1.77,1.24-2.21,2.7-2.82-1.12-.6-1.21-1.01-1.09-2.82"/><path class="cls-3" d="M220.98,46.79l-1.06-8.06c-.08-.57-.57-1-1.15-1.01h-2.69c-1.01,0-1.06.43-1.35,1.01l-4.39,8.06c-.29.53-.15,1.01.3,1.01h1.27c.85,0,1.06-.43,1.35-1.01l.67-1.23h3.42l.16,1.23c.08.58.58,1,1.16,1.01h1.45c.47.03.88-.33.91-.8,0-.07,0-.14-.01-.21M215.74,44.7c.13-1.91,0-2.38-1.18-3.02,1.57-.66,1.95-1.13,2.9-3.02-.12,1.92,0,2.39,1.18,3.02-1.57.66-1.95,1.13-2.9,3.02"/><path class="cls-3" d="M150.44,55.19l-.4-.46c-.36.18-.76.27-1.16.28-.57,0-2.02-.25-1.54-2.21.16-1.27,1.25-2.22,2.53-2.21.56,0,2,.23,1.54,2.21-.1.58-.37,1.12-.77,1.54l.37.43-.57.42ZM149.76,53.28l.35.42c.2-.27.33-.57.4-.89.25-1.17-.37-1.54-.86-1.54s-1.22.29-1.47,1.54c-.25,1.25.35,1.47.85,1.47.17,0,.35-.04.51-.11l-.37-.4.59-.48Z"/><path class="cls-3" d="M154.93,54.9h-.8l.09-.45h0c-.25.34-.66.53-1.08.52-.62,0-1-.35-.83-1.14l.43-2.05h.83l-.4,1.93c-.11.48.15.57.42.57.4,0,.75-.29.8-.69l.39-1.8h.83l-.68,3.12Z"/><path class="cls-3" d="M158.86,54.28c-.08.37,0,.46.08.49v.12h-.89c-.01-.12-.01-.25,0-.37-.31.29-.71.44-1.13.45-.48,0-.91-.26-.77-.91.12-.55.58-.95,1.14-.99l.77-.11c.16,0,.3-.1.34-.25,0-.34-.25-.37-.46-.37-.28-.02-.54.16-.62.43h-.8c.22-.71.91-1.16,1.65-1.08.45,0,1.25.14,1.08.89l-.39,1.68ZM158.23,53.39c-.19.09-.39.15-.6.17-.32,0-.6.12-.66.46s.14.37.31.37c.4.01.76-.24.88-.62l.08-.39Z"/><polygon class="cls-3" points="160.78 54.9 159.94 54.9 160.84 50.71 161.67 50.71 160.78 54.9"/><path class="cls-3" d="M163.55,51.79l-.66,3.08h-.83l.66-3.08h.83ZM163.63,51.42h-.83l.15-.76h.85l-.17.76Z"/><path class="cls-3" d="M165.74,51.79h.51l-.11.52h-.51l-.37,1.7c0,.17,0,.25.29.25h.19l-.14.62h-.51c-.71,0-.79-.26-.71-.66l.39-1.9h-.42l.12-.59h.43l.17-.83h.83l-.17.89Z"/><path class="cls-3" d="M168.32,54.84c-.63,1.16-.77,1.31-1.54,1.31h-.39l.14-.65h.17c.29,0,.48,0,.65-.46l-.48-3.24h.93l.19,2.3h0l1.25-2.31h.88l-1.79,3.05Z"/><path class="cls-3" d="M170.77,54.78c-.09.58-.55,1.03-1.13,1.09h0v-.31c.33-.07.58-.33.63-.66h-.49l.19-.85h.89l-.09.72Z"/><polygon class="cls-3" points="175.41 50.71 176.35 50.71 173.99 54.9 173.15 54.9 172.59 50.71 173.56 50.71 173.79 53.88 173.81 53.88 175.41 50.71"/><path class="cls-3" d="M178.74,54.28c-.08.37,0,.46.09.49v.12h-.91c-.01-.12-.01-.25,0-.37-.3.28-.7.44-1.11.45-.48,0-.91-.26-.79-.91.13-.54.59-.94,1.14-.99l.79-.11c.15,0,.29-.1.34-.25.08-.34-.26-.37-.48-.37-.28-.02-.53.16-.6.43h-.8c.22-.71.91-1.16,1.65-1.08.45,0,1.23.14,1.08.89l-.4,1.68ZM178.13,53.39c-.19.09-.39.15-.6.17-.32,0-.6.12-.68.46-.05.14.02.3.16.36.05.02.1.02.15.01.4.02.76-.24.88-.62l.09-.39Z"/><polygon class="cls-3" points="180.67 54.9 179.84 54.9 180.73 50.71 181.57 50.71 180.67 54.9"/><path class="cls-3" d="M184.79,54.9h-.8l.09-.45h0c-.25.34-.66.53-1.08.52-.62,0-1-.35-.83-1.14l.43-2.05h.85l-.42,1.93c-.11.48.15.57.42.57.4,0,.75-.29.8-.69l.4-1.8h.83l-.69,3.12Z"/><path class="cls-3" d="M188.94,53.99c-.29.59-.88.97-1.54.99-.89,0-1.54-.42-1.22-1.7.16-.89.94-1.54,1.85-1.54.63,0,1.43.29,1.13,1.71v.14h-2.17c0,.25-.09.77.59.77.25,0,.48-.13.6-.34l.77-.03ZM188.32,53.03c0-.51-.25-.65-.51-.65-.39,0-.72.27-.79.65h1.3Z"/><path class="cls-3" d="M190.82,54.78c-.09.58-.55,1.03-1.13,1.09h0v-.31c.33-.07.59-.33.65-.66h-.51l.19-.85h.89l-.09.72Z"/><polygon class="cls-3" points="195.85 51.41 193.58 51.41 193.39 52.29 195.48 52.29 195.32 53.03 193.22 53.03 192.99 54.11 195.38 54.11 195.21 54.85 191.96 54.85 192.85 50.67 196.02 50.67 195.85 51.41"/><path class="cls-3" d="M199.3,53.72c-.23.74-.93,1.24-1.71,1.22-1.19,0-1.28-.89-1.14-1.54.1-.97.92-1.72,1.9-1.71.51,0,1.28.22,1.16,1.19h-.85c0-.2,0-.52-.45-.51s-.79.52-.86.91-.2,1,.43,1c.32-.02.58-.24.68-.54l.85-.02Z"/><path class="cls-3" d="M201.57,54.94c-.67.08-1.27-.4-1.35-1.07-.02-.19,0-.38.07-.56.17-.96,1-1.65,1.97-1.63.67-.08,1.27.4,1.35,1.07.02.19,0,.38-.07.56-.17.95-1.01,1.64-1.97,1.63M202.11,52.35c-.51.04-.92.44-.96.96-.09.39-.09.94.56.94s.88-.56.97-.94.08-.96-.57-.96"/><polygon class="cls-3" points="205.05 54.85 204.22 54.85 205.12 50.67 205.95 50.67 205.05 54.85"/><path class="cls-3" d="M207.74,54.94c-.67.08-1.27-.4-1.35-1.07-.02-.19,0-.38.07-.56.17-.96,1-1.65,1.97-1.63.67-.08,1.27.4,1.35,1.07.02.19,0,.38-.07.56-.17.95-1.01,1.64-1.97,1.63M208.29,52.35c-.52.03-.93.44-.97.96-.09.39-.08.94.56.94.51-.03.93-.43.97-.94.09-.4,0-.96-.56-.96"/><path class="cls-3" d="M213.91,51.75l-.63,2.95c-.11.54-.34,1.43-1.91,1.43-.65,0-1.28-.28-1.17-.94h.89c0,.15,0,.31.52.31.42.03.78-.27.82-.69,0,0,0-.01,0-.02v-.37h0c-.21.31-.57.49-.94.48-.77,0-1.25-.52-1.02-1.54.11-.84.8-1.49,1.65-1.54.37-.05.72.18.82.54h0l.09-.46.88-.14ZM211.86,54.18c.56,0,.8-.48.89-.89s0-.93-.52-.93-.69.23-.85.96c-.09.4,0,.86.48.86"/><path class="cls-3" d="M216.24,54.8c-.63,1.16-.77,1.3-1.54,1.3h-.37l.14-.66h.17c.29,0,.48,0,.65-.46l-.48-3.24h.93l.19,2.28h0l1.14-2.28h.88l-1.7,3.07Z"/><path class="cls-3" d="M223.25,54.85h-1.02l-.22-.35c-.37.32-.84.49-1.33.48-.54.07-1.03-.32-1.1-.86-.01-.11,0-.23.02-.34.09-.4.29-.8,1.1-1.22h.09c-.19-.25-.26-.57-.2-.88.17-.6.73-.99,1.34-.96.42-.06.81.24.87.66.01.1,0,.2-.02.29-.14.46-.48.83-.93,1l.45.74c.18-.2.31-.44.37-.69h.74c-.13.48-.39.92-.76,1.26l.59.86ZM221.12,53.03c-.42.25-.59.35-.66.69-.05.25.11.5.36.55.05.01.1.01.15,0,.27-.03.53-.13.74-.29l-.59-.96ZM221.79,51.28c-.2,0-.38.14-.42.34-.01.2.06.39.2.52.23-.1.41-.29.49-.52.05-.13,0-.27-.13-.32-.05-.02-.1-.03-.15-.01"/><path class="cls-3" d="M226.38,53.57c0,.23,0,.68.76.68.43,0,.93-.11,1.02-.56s-.23-.4-.66-.51l-.43-.11c-.66-.15-1.3-.31-1.11-1.23.23-.86,1.05-1.41,1.93-1.3,1.31,0,1.54.85,1.39,1.36h-.86c0-.19,0-.63-.74-.63-.34,0-.77.12-.86.51s.2.4.37.43l.99.26c.56.14,1.05.37.88,1.13-.26.86-1.08,1.43-1.97,1.37-1.54,0-1.65-.89-1.54-1.4h.86Z"/><path class="cls-3" d="M234.37,54.85h-.83l.4-1.88c.11-.46-.08-.62-.32-.62-.37,0-.67.28-.69.65l-.4,1.85h-.83l.4-1.87c0-.26.12-.63-.37-.63-.35,0-.63.27-.65.62l-.4,1.88h-.85l.66-3.08h.8l-.09.46h0c.22-.35.61-.55,1.02-.54.34-.05.67.16.77.49.23-.3.58-.48.96-.49.62,0,1.02.35.88,1.03l-.45,2.13Z"/><path class="cls-3" d="M237.12,51.75l-.66,3.08h-.85l.66-3.08h.85ZM237.19,51.38h-.83l.15-.76h.83l-.15.76Z"/><polygon class="cls-3" points="238.55 54.85 237.72 54.85 238.61 50.67 239.45 50.67 238.55 54.85"/><path class="cls-3" d="M242.73,53.94c-.3.62-.93,1.01-1.62,1-.89,0-1.54-.43-1.22-1.7.16-.9.95-1.55,1.87-1.54.62,0,1.43.29,1.13,1.71v.14h-2.17c0,.23-.09.76.57.76.25.01.49-.12.62-.34l.83-.03ZM242.1,53c0-.51-.23-.66-.49-.66-.39,0-.72.28-.8.66h1.3Z"/><path d="M128.55,27.13c-.37-.15-.66-.36-.87-.64-.21-.28-.32-.62-.32-1,0-.05,0-.14.02-.27h1.21c-.03.33.07.6.29.82s.54.33.96.33c.44,0,.79-.09,1.04-.27.25-.18.38-.45.38-.79,0-.21-.06-.38-.19-.53-.12-.15-.28-.27-.47-.37-.19-.1-.45-.22-.79-.35-.44-.19-.8-.35-1.06-.5s-.49-.36-.68-.62c-.19-.27-.28-.6-.28-1,0-.44.11-.83.34-1.17s.55-.59.95-.77c.4-.18.86-.27,1.37-.27s.95.08,1.32.25c.37.17.65.4.84.71.19.3.27.66.25,1.07h-1.29c.03-.29-.06-.54-.27-.74-.21-.2-.51-.3-.9-.3-.42,0-.75.1-.99.28-.25.19-.37.45-.37.77,0,.2.06.37.19.52.13.15.28.27.48.38.19.1.46.23.78.37.44.2.8.38,1.07.54.27.16.5.37.69.64s.29.6.29.99c0,.42-.11.79-.34,1.11-.23.33-.55.58-.97.76-.42.18-.89.27-1.43.27-.46,0-.87-.07-1.24-.22Z"/><path d="M139.91,21.36l-1.04,5.92h-1.22l.12-.7c-.24.24-.52.44-.85.57s-.67.21-1.03.21c-.62,0-1.12-.17-1.49-.5-.37-.34-.56-.81-.56-1.43,0-.16.02-.36.05-.59l.61-3.48h1.21l-.58,3.3c-.03.2-.04.34-.04.43,0,.39.11.69.33.9s.52.31.91.31c.45,0,.83-.13,1.15-.4.32-.27.52-.66.62-1.17l.59-3.37h1.23Z"/><path d="M143.57,21.54c.39-.19.81-.28,1.26-.28s.85.1,1.2.29c.35.19.62.47.82.83.19.36.29.78.29,1.26,0,.21-.02.43-.06.66-.11.59-.32,1.13-.65,1.6-.33.47-.72.83-1.19,1.1-.47.26-.96.39-1.48.39-.45,0-.84-.09-1.15-.27s-.57-.41-.75-.68l-.64,3.67h-1.22l1.54-8.73h1.22l-.15.87c.26-.27.58-.5.97-.69ZM145.87,23.85c0-.48-.14-.85-.42-1.12-.28-.27-.64-.4-1.07-.4-.31,0-.61.08-.92.24-.3.16-.57.39-.79.69s-.37.66-.44,1.06c-.03.14-.04.28-.04.44,0,.48.14.86.42,1.14s.64.42,1.06.42c.32,0,.62-.08.93-.24.3-.16.57-.4.79-.7.22-.31.37-.67.44-1.07.03-.14.04-.28.04-.44Z"/><path d="M150.85,21.54c.39-.19.81-.28,1.26-.28s.85.1,1.2.29c.35.19.62.47.82.83.19.36.29.78.29,1.26,0,.21-.02.43-.06.66-.11.59-.32,1.13-.65,1.6-.33.47-.72.83-1.19,1.1-.47.26-.96.39-1.48.39-.45,0-.84-.09-1.15-.27s-.57-.41-.75-.68l-.64,3.67h-1.22l1.54-8.73h1.22l-.15.87c.26-.27.58-.5.97-.69ZM153.16,23.85c0-.48-.14-.85-.42-1.12-.28-.27-.64-.4-1.07-.4-.31,0-.61.08-.92.24-.3.16-.57.39-.79.69s-.37.66-.44,1.06c-.03.14-.04.28-.04.44,0,.48.14.86.42,1.14s.64.42,1.06.42c.32,0,.62-.08.93-.24.3-.16.57-.4.79-.7.22-.31.37-.67.44-1.07.03-.14.04-.28.04-.44Z"/><path d="M156.32,27.06c-.38-.21-.67-.5-.89-.88-.21-.38-.32-.81-.32-1.3,0-.67.16-1.27.47-1.83.31-.55.74-.99,1.29-1.31.55-.32,1.16-.48,1.83-.48.5,0,.95.11,1.33.32.39.21.69.5.91.88.22.38.33.81.33,1.31,0,.67-.16,1.27-.48,1.83-.32.55-.76.99-1.31,1.31-.55.32-1.16.48-1.84.48-.5,0-.94-.1-1.32-.31ZM158.91,26c.34-.23.61-.54.8-.92s.29-.79.29-1.23c0-.49-.14-.88-.42-1.14s-.63-.4-1.05-.4-.79.12-1.11.35c-.33.23-.58.54-.76.93-.18.39-.27.81-.27,1.25,0,.48.13.85.39,1.12s.6.4,1.02.4.78-.12,1.12-.35Z"/><path d="M164.85,21.56c.33-.2.7-.3,1.11-.3l-.23,1.27h-.31c-.47,0-.85.12-1.14.35s-.49.64-.6,1.22l-.56,3.17h-1.22l1.04-5.92h1.22l-.18,1.04c.24-.36.53-.64.86-.84Z"/><path d="M167.75,25.64c-.01.1-.02.16-.02.19,0,.15.05.26.14.33s.25.1.46.1h.75l-.18,1.02h-.97c-.47,0-.83-.09-1.08-.28-.25-.19-.38-.49-.38-.91,0-.16.01-.31.04-.45l.58-3.28h-.7l.17-1h.71l.26-1.47h1.24l-.26,1.47h1.43l-.17,1h-1.44l-.58,3.28Z"/><path d="M175.4,21.89c.44.42.66.97.66,1.68,0,.16-.02.36-.05.59-.03.16-.08.35-.15.58h-4.52c0,.05-.01.13-.01.23,0,.42.13.76.39,1.01s.6.38,1.03.38c.67,0,1.18-.28,1.54-.83h1.32c-.27.54-.67.99-1.2,1.34-.53.35-1.14.52-1.84.52-.49,0-.93-.1-1.3-.29s-.66-.47-.87-.83c-.21-.36-.31-.79-.31-1.27,0-.21.02-.43.06-.67.11-.61.33-1.14.66-1.61s.74-.82,1.23-1.07c.49-.25,1.03-.38,1.61-.38.74,0,1.33.21,1.77.62ZM174.8,23.57c0-.39-.13-.71-.39-.93-.26-.23-.6-.34-1.02-.34-.44,0-.83.14-1.18.42s-.59.66-.72,1.14h3.29c.01-.13.02-.22.02-.28Z"/><path d="M177.42,22.71c.33-.46.73-.81,1.2-1.07.47-.25.97-.38,1.49-.38.39,0,.75.08,1.1.25.34.17.61.39.78.67l.51-2.86h1.24l-1.41,7.95h-1.24l.16-.89c-.26.29-.58.53-.96.71-.38.18-.8.27-1.26.27s-.85-.1-1.2-.3c-.35-.2-.62-.48-.82-.85-.2-.37-.3-.79-.3-1.27,0-.21.02-.43.06-.66.11-.59.32-1.12.65-1.58ZM181.66,23.87c0-.48-.14-.86-.42-1.13-.28-.28-.64-.41-1.06-.41-.31,0-.62.08-.92.23-.3.15-.56.38-.78.68-.22.3-.37.65-.44,1.06-.03.14-.04.28-.04.44,0,.49.14.87.42,1.15s.64.42,1.06.42c.32,0,.62-.08.92-.24s.56-.39.78-.69c.22-.3.37-.66.44-1.07.03-.14.04-.28.04-.44Z"/><path d="M190.25,21.54c.39-.18.81-.27,1.26-.27s.86.1,1.21.29c.35.19.62.47.81.82s.29.77.29,1.25c0,.21-.02.43-.06.67-.11.59-.32,1.13-.65,1.6-.33.47-.72.83-1.19,1.1-.47.26-.96.39-1.48.39-.46,0-.85-.09-1.17-.27s-.57-.41-.73-.69l-.15.86h-1.22l1.41-7.95h1.22l-.52,2.91c.26-.29.58-.52.98-.7ZM192.55,23.85c0-.48-.14-.85-.42-1.12-.28-.27-.64-.4-1.07-.4-.31,0-.61.08-.92.24-.3.16-.57.39-.79.69s-.37.66-.44,1.06c-.03.14-.04.28-.04.44,0,.48.14.86.42,1.14s.64.42,1.06.42c.32,0,.62-.08.93-.24.3-.16.57-.4.79-.7.22-.31.37-.67.44-1.07.03-.14.04-.28.04-.44Z"/><path d="M196.15,21.36l.87,4.51,2.52-4.51h1.27l-5.16,8.7h-1.27l1.71-2.88-1.31-5.82h1.36Z"/></g></svg>