<?xml version="1.0" encoding="UTF-8"?><svg id="_レイヤー_2" xmlns="http://www.w3.org/2000/svg" viewBox="0 0 15.34 15.34"><defs><style>.cls-1{fill:#fff;}</style></defs><g id="_レイヤー_1-2"><path class="cls-1" d="M11.17,15.34H2.41c-1.33,0-2.41-1.08-2.41-2.41V4.16C0,2.83,1.08,1.75,2.41,1.75h5.26c.36,0,.66.29.66.66s-.29.66-.66.66H2.41c-.6,0-1.1.49-1.1,1.1v8.76c0,.6.49,1.1,1.1,1.1h8.76c.6,0,1.1-.49,1.1-1.1v-5.26c0-.36.29-.66.66-.66s.66.29.66.66v5.26c0,1.33-1.08,2.41-2.41,2.41Z"/><path class="cls-1" d="M6.79,9.2c-.17,0-.34-.06-.46-.19-.26-.26-.26-.67,0-.93L14.21.19c.26-.26.67-.26.93,0s.26.67,0,.93l-7.89,7.89c-.13.13-.3.19-.46.19Z"/><path class="cls-1" d="M14.68,5.7c-.36,0-.66-.29-.66-.66V1.31h-3.72c-.36,0-.66-.29-.66-.66s.29-.66.66-.66h4.38c.36,0,.66.29.66.66v4.38c0,.36-.29.66-.66.66Z"/></g></svg>