<?xml version="1.0" encoding="UTF-8"?><svg id="_レイヤー_2" xmlns="http://www.w3.org/2000/svg" viewBox="0 0 17.53 17.53"><defs><style>.cls-1{fill:#fff;}</style></defs><g id="_レイヤー_1-2"><path class="cls-1" d="M13.15,1.17c4.19,2.42,5.63,7.78,3.21,11.97-2.42,4.19-7.78,5.63-11.97,3.21C1.76,14.84.1,12.08,0,9.05v-.28S0,8.48,0,8.48C.16,3.64,4.21-.15,9.05,0c1.44.05,2.85.45,4.1,1.17ZM12.01,6.39c-.31-.31-.81-.34-1.16-.07l-.08.07-2.89,2.89-1.13-1.13-.08-.07c-.38-.3-.93-.23-1.23.16-.24.32-.24.76,0,1.07l.07.08,1.75,1.75.08.07c.32.25.76.25,1.07,0l.08-.07,3.51-3.51.07-.08c.27-.35.24-.84-.07-1.16Z"/></g></svg>